<?xml version="1.0" encoding="utf-8" standalone="no"?>
<!DOCTYPE svg PUBLIC "-//W3C//DTD SVG 1.1//EN"
  "http://www.w3.org/Graphics/SVG/1.1/DTD/svg11.dtd">
<!-- Created with matplotlib (https://matplotlib.org/) -->
<svg height="288pt" version="1.1" viewBox="0 0 432 288" width="432pt" xmlns="http://www.w3.org/2000/svg" xmlns:xlink="http://www.w3.org/1999/xlink">
 <metadata>
  <rdf:RDF xmlns:cc="http://creativecommons.org/ns#" xmlns:dc="http://purl.org/dc/elements/1.1/" xmlns:rdf="http://www.w3.org/1999/02/22-rdf-syntax-ns#">
   <cc:Work>
    <dc:type rdf:resource="http://purl.org/dc/dcmitype/StillImage"/>
    <dc:date>2021-03-16T09:52:17.263137</dc:date>
    <dc:format>image/svg+xml</dc:format>
    <dc:creator>
     <cc:Agent>
      <dc:title>Matplotlib v3.3.1, https://matplotlib.org/</dc:title>
     </cc:Agent>
    </dc:creator>
   </cc:Work>
  </rdf:RDF>
 </metadata>
 <defs>
  <style type="text/css">*{stroke-linecap:butt;stroke-linejoin:round;}</style>
 </defs>
 <g id="figure_1">
  <g id="patch_1">
   <path d="M 0 288 
L 432 288 
L 432 0 
L 0 0 
z
" style="fill:#ffffff;"/>
  </g>
  <g id="axes_1">
   <g id="patch_2">
    <path d="M 54 252 
L 388.8 252 
L 388.8 34.56 
L 54 34.56 
z
" style="fill:#ffffff;"/>
   </g>
   <g id="matplotlib.axis_1">
    <g id="xtick_1">
     <g id="line2d_1">
      <defs>
       <path d="M 0 0 
L 0 3.5 
" id="ma51644ab7b" style="stroke:#000000;stroke-width:0.8;"/>
      </defs>
      <g>
       <use style="stroke:#000000;stroke-width:0.8;" x="69.160605" xlink:href="#ma51644ab7b" y="252"/>
      </g>
     </g>
     <g id="text_1">
      <!-- 0 -->
      <g transform="translate(65.979355 266.598437)scale(0.1 -0.1)">
       <defs>
        <path d="M 31.78125 66.40625 
Q 24.171875 66.40625 20.328125 58.90625 
Q 16.5 51.421875 16.5 36.375 
Q 16.5 21.390625 20.328125 13.890625 
Q 24.171875 6.390625 31.78125 6.390625 
Q 39.453125 6.390625 43.28125 13.890625 
Q 47.125 21.390625 47.125 36.375 
Q 47.125 51.421875 43.28125 58.90625 
Q 39.453125 66.40625 31.78125 66.40625 
z
M 31.78125 74.21875 
Q 44.046875 74.21875 50.515625 64.515625 
Q 56.984375 54.828125 56.984375 36.375 
Q 56.984375 17.96875 50.515625 8.265625 
Q 44.046875 -1.421875 31.78125 -1.421875 
Q 19.53125 -1.421875 13.0625 8.265625 
Q 6.59375 17.96875 6.59375 36.375 
Q 6.59375 54.828125 13.0625 64.515625 
Q 19.53125 74.21875 31.78125 74.21875 
z
" id="DejaVuSans-48"/>
       </defs>
       <use xlink:href="#DejaVuSans-48"/>
      </g>
     </g>
    </g>
    <g id="xtick_2">
     <g id="line2d_2">
      <g>
       <use style="stroke:#000000;stroke-width:0.8;" x="111.810069" xlink:href="#ma51644ab7b" y="252"/>
      </g>
     </g>
     <g id="text_2">
      <!-- 20000 -->
      <g transform="translate(95.903819 266.598437)scale(0.1 -0.1)">
       <defs>
        <path d="M 19.1875 8.296875 
L 53.609375 8.296875 
L 53.609375 0 
L 7.328125 0 
L 7.328125 8.296875 
Q 12.9375 14.109375 22.625 23.890625 
Q 32.328125 33.6875 34.8125 36.53125 
Q 39.546875 41.84375 41.421875 45.53125 
Q 43.3125 49.21875 43.3125 52.78125 
Q 43.3125 58.59375 39.234375 62.25 
Q 35.15625 65.921875 28.609375 65.921875 
Q 23.96875 65.921875 18.8125 64.3125 
Q 13.671875 62.703125 7.8125 59.421875 
L 7.8125 69.390625 
Q 13.765625 71.78125 18.9375 73 
Q 24.125 74.21875 28.421875 74.21875 
Q 39.75 74.21875 46.484375 68.546875 
Q 53.21875 62.890625 53.21875 53.421875 
Q 53.21875 48.921875 51.53125 44.890625 
Q 49.859375 40.875 45.40625 35.40625 
Q 44.1875 33.984375 37.640625 27.21875 
Q 31.109375 20.453125 19.1875 8.296875 
z
" id="DejaVuSans-50"/>
       </defs>
       <use xlink:href="#DejaVuSans-50"/>
       <use x="63.623047" xlink:href="#DejaVuSans-48"/>
       <use x="127.246094" xlink:href="#DejaVuSans-48"/>
       <use x="190.869141" xlink:href="#DejaVuSans-48"/>
       <use x="254.492188" xlink:href="#DejaVuSans-48"/>
      </g>
     </g>
    </g>
    <g id="xtick_3">
     <g id="line2d_3">
      <g>
       <use style="stroke:#000000;stroke-width:0.8;" x="154.459533" xlink:href="#ma51644ab7b" y="252"/>
      </g>
     </g>
     <g id="text_3">
      <!-- 40000 -->
      <g transform="translate(138.553283 266.598437)scale(0.1 -0.1)">
       <defs>
        <path d="M 37.796875 64.3125 
L 12.890625 25.390625 
L 37.796875 25.390625 
z
M 35.203125 72.90625 
L 47.609375 72.90625 
L 47.609375 25.390625 
L 58.015625 25.390625 
L 58.015625 17.1875 
L 47.609375 17.1875 
L 47.609375 0 
L 37.796875 0 
L 37.796875 17.1875 
L 4.890625 17.1875 
L 4.890625 26.703125 
z
" id="DejaVuSans-52"/>
       </defs>
       <use xlink:href="#DejaVuSans-52"/>
       <use x="63.623047" xlink:href="#DejaVuSans-48"/>
       <use x="127.246094" xlink:href="#DejaVuSans-48"/>
       <use x="190.869141" xlink:href="#DejaVuSans-48"/>
       <use x="254.492188" xlink:href="#DejaVuSans-48"/>
      </g>
     </g>
    </g>
    <g id="xtick_4">
     <g id="line2d_4">
      <g>
       <use style="stroke:#000000;stroke-width:0.8;" x="197.108998" xlink:href="#ma51644ab7b" y="252"/>
      </g>
     </g>
     <g id="text_4">
      <!-- 60000 -->
      <g transform="translate(181.202748 266.598437)scale(0.1 -0.1)">
       <defs>
        <path d="M 33.015625 40.375 
Q 26.375 40.375 22.484375 35.828125 
Q 18.609375 31.296875 18.609375 23.390625 
Q 18.609375 15.53125 22.484375 10.953125 
Q 26.375 6.390625 33.015625 6.390625 
Q 39.65625 6.390625 43.53125 10.953125 
Q 47.40625 15.53125 47.40625 23.390625 
Q 47.40625 31.296875 43.53125 35.828125 
Q 39.65625 40.375 33.015625 40.375 
z
M 52.59375 71.296875 
L 52.59375 62.3125 
Q 48.875 64.0625 45.09375 64.984375 
Q 41.3125 65.921875 37.59375 65.921875 
Q 27.828125 65.921875 22.671875 59.328125 
Q 17.53125 52.734375 16.796875 39.40625 
Q 19.671875 43.65625 24.015625 45.921875 
Q 28.375 48.1875 33.59375 48.1875 
Q 44.578125 48.1875 50.953125 41.515625 
Q 57.328125 34.859375 57.328125 23.390625 
Q 57.328125 12.15625 50.6875 5.359375 
Q 44.046875 -1.421875 33.015625 -1.421875 
Q 20.359375 -1.421875 13.671875 8.265625 
Q 6.984375 17.96875 6.984375 36.375 
Q 6.984375 53.65625 15.1875 63.9375 
Q 23.390625 74.21875 37.203125 74.21875 
Q 40.921875 74.21875 44.703125 73.484375 
Q 48.484375 72.75 52.59375 71.296875 
z
" id="DejaVuSans-54"/>
       </defs>
       <use xlink:href="#DejaVuSans-54"/>
       <use x="63.623047" xlink:href="#DejaVuSans-48"/>
       <use x="127.246094" xlink:href="#DejaVuSans-48"/>
       <use x="190.869141" xlink:href="#DejaVuSans-48"/>
       <use x="254.492188" xlink:href="#DejaVuSans-48"/>
      </g>
     </g>
    </g>
    <g id="xtick_5">
     <g id="line2d_5">
      <g>
       <use style="stroke:#000000;stroke-width:0.8;" x="239.758462" xlink:href="#ma51644ab7b" y="252"/>
      </g>
     </g>
     <g id="text_5">
      <!-- 80000 -->
      <g transform="translate(223.852212 266.598437)scale(0.1 -0.1)">
       <defs>
        <path d="M 31.78125 34.625 
Q 24.75 34.625 20.71875 30.859375 
Q 16.703125 27.09375 16.703125 20.515625 
Q 16.703125 13.921875 20.71875 10.15625 
Q 24.75 6.390625 31.78125 6.390625 
Q 38.8125 6.390625 42.859375 10.171875 
Q 46.921875 13.96875 46.921875 20.515625 
Q 46.921875 27.09375 42.890625 30.859375 
Q 38.875 34.625 31.78125 34.625 
z
M 21.921875 38.8125 
Q 15.578125 40.375 12.03125 44.71875 
Q 8.5 49.078125 8.5 55.328125 
Q 8.5 64.0625 14.71875 69.140625 
Q 20.953125 74.21875 31.78125 74.21875 
Q 42.671875 74.21875 48.875 69.140625 
Q 55.078125 64.0625 55.078125 55.328125 
Q 55.078125 49.078125 51.53125 44.71875 
Q 48 40.375 41.703125 38.8125 
Q 48.828125 37.15625 52.796875 32.3125 
Q 56.78125 27.484375 56.78125 20.515625 
Q 56.78125 9.90625 50.3125 4.234375 
Q 43.84375 -1.421875 31.78125 -1.421875 
Q 19.734375 -1.421875 13.25 4.234375 
Q 6.78125 9.90625 6.78125 20.515625 
Q 6.78125 27.484375 10.78125 32.3125 
Q 14.796875 37.15625 21.921875 38.8125 
z
M 18.3125 54.390625 
Q 18.3125 48.734375 21.84375 45.5625 
Q 25.390625 42.390625 31.78125 42.390625 
Q 38.140625 42.390625 41.71875 45.5625 
Q 45.3125 48.734375 45.3125 54.390625 
Q 45.3125 60.0625 41.71875 63.234375 
Q 38.140625 66.40625 31.78125 66.40625 
Q 25.390625 66.40625 21.84375 63.234375 
Q 18.3125 60.0625 18.3125 54.390625 
z
" id="DejaVuSans-56"/>
       </defs>
       <use xlink:href="#DejaVuSans-56"/>
       <use x="63.623047" xlink:href="#DejaVuSans-48"/>
       <use x="127.246094" xlink:href="#DejaVuSans-48"/>
       <use x="190.869141" xlink:href="#DejaVuSans-48"/>
       <use x="254.492188" xlink:href="#DejaVuSans-48"/>
      </g>
     </g>
    </g>
    <g id="xtick_6">
     <g id="line2d_6">
      <g>
       <use style="stroke:#000000;stroke-width:0.8;" x="282.407926" xlink:href="#ma51644ab7b" y="252"/>
      </g>
     </g>
     <g id="text_6">
      <!-- 100000 -->
      <g transform="translate(263.320426 266.598437)scale(0.1 -0.1)">
       <defs>
        <path d="M 12.40625 8.296875 
L 28.515625 8.296875 
L 28.515625 63.921875 
L 10.984375 60.40625 
L 10.984375 69.390625 
L 28.421875 72.90625 
L 38.28125 72.90625 
L 38.28125 8.296875 
L 54.390625 8.296875 
L 54.390625 0 
L 12.40625 0 
z
" id="DejaVuSans-49"/>
       </defs>
       <use xlink:href="#DejaVuSans-49"/>
       <use x="63.623047" xlink:href="#DejaVuSans-48"/>
       <use x="127.246094" xlink:href="#DejaVuSans-48"/>
       <use x="190.869141" xlink:href="#DejaVuSans-48"/>
       <use x="254.492188" xlink:href="#DejaVuSans-48"/>
       <use x="318.115234" xlink:href="#DejaVuSans-48"/>
      </g>
     </g>
    </g>
    <g id="xtick_7">
     <g id="line2d_7">
      <g>
       <use style="stroke:#000000;stroke-width:0.8;" x="325.05739" xlink:href="#ma51644ab7b" y="252"/>
      </g>
     </g>
     <g id="text_7">
      <!-- 120000 -->
      <g transform="translate(305.96989 266.598437)scale(0.1 -0.1)">
       <use xlink:href="#DejaVuSans-49"/>
       <use x="63.623047" xlink:href="#DejaVuSans-50"/>
       <use x="127.246094" xlink:href="#DejaVuSans-48"/>
       <use x="190.869141" xlink:href="#DejaVuSans-48"/>
       <use x="254.492188" xlink:href="#DejaVuSans-48"/>
       <use x="318.115234" xlink:href="#DejaVuSans-48"/>
      </g>
     </g>
    </g>
    <g id="xtick_8">
     <g id="line2d_8">
      <g>
       <use style="stroke:#000000;stroke-width:0.8;" x="367.706854" xlink:href="#ma51644ab7b" y="252"/>
      </g>
     </g>
     <g id="text_8">
      <!-- 140000 -->
      <g transform="translate(348.619354 266.598437)scale(0.1 -0.1)">
       <use xlink:href="#DejaVuSans-49"/>
       <use x="63.623047" xlink:href="#DejaVuSans-52"/>
       <use x="127.246094" xlink:href="#DejaVuSans-48"/>
       <use x="190.869141" xlink:href="#DejaVuSans-48"/>
       <use x="254.492188" xlink:href="#DejaVuSans-48"/>
       <use x="318.115234" xlink:href="#DejaVuSans-48"/>
      </g>
     </g>
    </g>
    <g id="text_9">
     <!-- time steps -->
     <g transform="translate(195.094531 280.276563)scale(0.1 -0.1)">
      <defs>
       <path d="M 18.3125 70.21875 
L 18.3125 54.6875 
L 36.8125 54.6875 
L 36.8125 47.703125 
L 18.3125 47.703125 
L 18.3125 18.015625 
Q 18.3125 11.328125 20.140625 9.421875 
Q 21.96875 7.515625 27.59375 7.515625 
L 36.8125 7.515625 
L 36.8125 0 
L 27.59375 0 
Q 17.1875 0 13.234375 3.875 
Q 9.28125 7.765625 9.28125 18.015625 
L 9.28125 47.703125 
L 2.6875 47.703125 
L 2.6875 54.6875 
L 9.28125 54.6875 
L 9.28125 70.21875 
z
" id="DejaVuSans-116"/>
       <path d="M 9.421875 54.6875 
L 18.40625 54.6875 
L 18.40625 0 
L 9.421875 0 
z
M 9.421875 75.984375 
L 18.40625 75.984375 
L 18.40625 64.59375 
L 9.421875 64.59375 
z
" id="DejaVuSans-105"/>
       <path d="M 52 44.1875 
Q 55.375 50.25 60.0625 53.125 
Q 64.75 56 71.09375 56 
Q 79.640625 56 84.28125 50.015625 
Q 88.921875 44.046875 88.921875 33.015625 
L 88.921875 0 
L 79.890625 0 
L 79.890625 32.71875 
Q 79.890625 40.578125 77.09375 44.375 
Q 74.3125 48.1875 68.609375 48.1875 
Q 61.625 48.1875 57.5625 43.546875 
Q 53.515625 38.921875 53.515625 30.90625 
L 53.515625 0 
L 44.484375 0 
L 44.484375 32.71875 
Q 44.484375 40.625 41.703125 44.40625 
Q 38.921875 48.1875 33.109375 48.1875 
Q 26.21875 48.1875 22.15625 43.53125 
Q 18.109375 38.875 18.109375 30.90625 
L 18.109375 0 
L 9.078125 0 
L 9.078125 54.6875 
L 18.109375 54.6875 
L 18.109375 46.1875 
Q 21.1875 51.21875 25.484375 53.609375 
Q 29.78125 56 35.6875 56 
Q 41.65625 56 45.828125 52.96875 
Q 50 49.953125 52 44.1875 
z
" id="DejaVuSans-109"/>
       <path d="M 56.203125 29.59375 
L 56.203125 25.203125 
L 14.890625 25.203125 
Q 15.484375 15.921875 20.484375 11.0625 
Q 25.484375 6.203125 34.421875 6.203125 
Q 39.59375 6.203125 44.453125 7.46875 
Q 49.3125 8.734375 54.109375 11.28125 
L 54.109375 2.78125 
Q 49.265625 0.734375 44.1875 -0.34375 
Q 39.109375 -1.421875 33.890625 -1.421875 
Q 20.796875 -1.421875 13.15625 6.1875 
Q 5.515625 13.8125 5.515625 26.8125 
Q 5.515625 40.234375 12.765625 48.109375 
Q 20.015625 56 32.328125 56 
Q 43.359375 56 49.78125 48.890625 
Q 56.203125 41.796875 56.203125 29.59375 
z
M 47.21875 32.234375 
Q 47.125 39.59375 43.09375 43.984375 
Q 39.0625 48.390625 32.421875 48.390625 
Q 24.90625 48.390625 20.390625 44.140625 
Q 15.875 39.890625 15.1875 32.171875 
z
" id="DejaVuSans-101"/>
       <path id="DejaVuSans-32"/>
       <path d="M 44.28125 53.078125 
L 44.28125 44.578125 
Q 40.484375 46.53125 36.375 47.5 
Q 32.28125 48.484375 27.875 48.484375 
Q 21.1875 48.484375 17.84375 46.4375 
Q 14.5 44.390625 14.5 40.28125 
Q 14.5 37.15625 16.890625 35.375 
Q 19.28125 33.59375 26.515625 31.984375 
L 29.59375 31.296875 
Q 39.15625 29.25 43.1875 25.515625 
Q 47.21875 21.78125 47.21875 15.09375 
Q 47.21875 7.46875 41.1875 3.015625 
Q 35.15625 -1.421875 24.609375 -1.421875 
Q 20.21875 -1.421875 15.453125 -0.5625 
Q 10.6875 0.296875 5.421875 2 
L 5.421875 11.28125 
Q 10.40625 8.6875 15.234375 7.390625 
Q 20.0625 6.109375 24.8125 6.109375 
Q 31.15625 6.109375 34.5625 8.28125 
Q 37.984375 10.453125 37.984375 14.40625 
Q 37.984375 18.0625 35.515625 20.015625 
Q 33.0625 21.96875 24.703125 23.78125 
L 21.578125 24.515625 
Q 13.234375 26.265625 9.515625 29.90625 
Q 5.8125 33.546875 5.8125 39.890625 
Q 5.8125 47.609375 11.28125 51.796875 
Q 16.75 56 26.8125 56 
Q 31.78125 56 36.171875 55.265625 
Q 40.578125 54.546875 44.28125 53.078125 
z
" id="DejaVuSans-115"/>
       <path d="M 18.109375 8.203125 
L 18.109375 -20.796875 
L 9.078125 -20.796875 
L 9.078125 54.6875 
L 18.109375 54.6875 
L 18.109375 46.390625 
Q 20.953125 51.265625 25.265625 53.625 
Q 29.59375 56 35.59375 56 
Q 45.5625 56 51.78125 48.09375 
Q 58.015625 40.1875 58.015625 27.296875 
Q 58.015625 14.40625 51.78125 6.484375 
Q 45.5625 -1.421875 35.59375 -1.421875 
Q 29.59375 -1.421875 25.265625 0.953125 
Q 20.953125 3.328125 18.109375 8.203125 
z
M 48.6875 27.296875 
Q 48.6875 37.203125 44.609375 42.84375 
Q 40.53125 48.484375 33.40625 48.484375 
Q 26.265625 48.484375 22.1875 42.84375 
Q 18.109375 37.203125 18.109375 27.296875 
Q 18.109375 17.390625 22.1875 11.75 
Q 26.265625 6.109375 33.40625 6.109375 
Q 40.53125 6.109375 44.609375 11.75 
Q 48.6875 17.390625 48.6875 27.296875 
z
" id="DejaVuSans-112"/>
      </defs>
      <use xlink:href="#DejaVuSans-116"/>
      <use x="39.208984" xlink:href="#DejaVuSans-105"/>
      <use x="66.992188" xlink:href="#DejaVuSans-109"/>
      <use x="164.404297" xlink:href="#DejaVuSans-101"/>
      <use x="225.927734" xlink:href="#DejaVuSans-32"/>
      <use x="257.714844" xlink:href="#DejaVuSans-115"/>
      <use x="309.814453" xlink:href="#DejaVuSans-116"/>
      <use x="349.023438" xlink:href="#DejaVuSans-101"/>
      <use x="410.546875" xlink:href="#DejaVuSans-112"/>
      <use x="474.023438" xlink:href="#DejaVuSans-115"/>
     </g>
    </g>
   </g>
   <g id="matplotlib.axis_2">
    <g id="ytick_1">
     <g id="line2d_9">
      <defs>
       <path d="M 0 0 
L -3.5 0 
" id="m04067a626c" style="stroke:#000000;stroke-width:0.8;"/>
      </defs>
      <g>
       <use style="stroke:#000000;stroke-width:0.8;" x="54" xlink:href="#m04067a626c" y="247.324722"/>
      </g>
     </g>
     <g id="text_10">
      <!-- −30 -->
      <g transform="translate(25.895312 251.12394)scale(0.1 -0.1)">
       <defs>
        <path d="M 10.59375 35.5 
L 73.1875 35.5 
L 73.1875 27.203125 
L 10.59375 27.203125 
z
" id="DejaVuSans-8722"/>
        <path d="M 40.578125 39.3125 
Q 47.65625 37.796875 51.625 33 
Q 55.609375 28.21875 55.609375 21.1875 
Q 55.609375 10.40625 48.1875 4.484375 
Q 40.765625 -1.421875 27.09375 -1.421875 
Q 22.515625 -1.421875 17.65625 -0.515625 
Q 12.796875 0.390625 7.625 2.203125 
L 7.625 11.71875 
Q 11.71875 9.328125 16.59375 8.109375 
Q 21.484375 6.890625 26.8125 6.890625 
Q 36.078125 6.890625 40.9375 10.546875 
Q 45.796875 14.203125 45.796875 21.1875 
Q 45.796875 27.640625 41.28125 31.265625 
Q 36.765625 34.90625 28.71875 34.90625 
L 20.21875 34.90625 
L 20.21875 43.015625 
L 29.109375 43.015625 
Q 36.375 43.015625 40.234375 45.921875 
Q 44.09375 48.828125 44.09375 54.296875 
Q 44.09375 59.90625 40.109375 62.90625 
Q 36.140625 65.921875 28.71875 65.921875 
Q 24.65625 65.921875 20.015625 65.03125 
Q 15.375 64.15625 9.8125 62.3125 
L 9.8125 71.09375 
Q 15.4375 72.65625 20.34375 73.4375 
Q 25.25 74.21875 29.59375 74.21875 
Q 40.828125 74.21875 47.359375 69.109375 
Q 53.90625 64.015625 53.90625 55.328125 
Q 53.90625 49.265625 50.4375 45.09375 
Q 46.96875 40.921875 40.578125 39.3125 
z
" id="DejaVuSans-51"/>
       </defs>
       <use xlink:href="#DejaVuSans-8722"/>
       <use x="83.789062" xlink:href="#DejaVuSans-51"/>
       <use x="147.412109" xlink:href="#DejaVuSans-48"/>
      </g>
     </g>
    </g>
    <g id="ytick_2">
     <g id="line2d_10">
      <g>
       <use style="stroke:#000000;stroke-width:0.8;" x="54" xlink:href="#m04067a626c" y="205.564698"/>
      </g>
     </g>
     <g id="text_11">
      <!-- −25 -->
      <g transform="translate(25.895312 209.363916)scale(0.1 -0.1)">
       <defs>
        <path d="M 10.796875 72.90625 
L 49.515625 72.90625 
L 49.515625 64.59375 
L 19.828125 64.59375 
L 19.828125 46.734375 
Q 21.96875 47.46875 24.109375 47.828125 
Q 26.265625 48.1875 28.421875 48.1875 
Q 40.625 48.1875 47.75 41.5 
Q 54.890625 34.8125 54.890625 23.390625 
Q 54.890625 11.625 47.5625 5.09375 
Q 40.234375 -1.421875 26.90625 -1.421875 
Q 22.3125 -1.421875 17.546875 -0.640625 
Q 12.796875 0.140625 7.71875 1.703125 
L 7.71875 11.625 
Q 12.109375 9.234375 16.796875 8.0625 
Q 21.484375 6.890625 26.703125 6.890625 
Q 35.15625 6.890625 40.078125 11.328125 
Q 45.015625 15.765625 45.015625 23.390625 
Q 45.015625 31 40.078125 35.4375 
Q 35.15625 39.890625 26.703125 39.890625 
Q 22.75 39.890625 18.8125 39.015625 
Q 14.890625 38.140625 10.796875 36.28125 
z
" id="DejaVuSans-53"/>
       </defs>
       <use xlink:href="#DejaVuSans-8722"/>
       <use x="83.789062" xlink:href="#DejaVuSans-50"/>
       <use x="147.412109" xlink:href="#DejaVuSans-53"/>
      </g>
     </g>
    </g>
    <g id="ytick_3">
     <g id="line2d_11">
      <g>
       <use style="stroke:#000000;stroke-width:0.8;" x="54" xlink:href="#m04067a626c" y="163.804673"/>
      </g>
     </g>
     <g id="text_12">
      <!-- −20 -->
      <g transform="translate(25.895312 167.603892)scale(0.1 -0.1)">
       <use xlink:href="#DejaVuSans-8722"/>
       <use x="83.789062" xlink:href="#DejaVuSans-50"/>
       <use x="147.412109" xlink:href="#DejaVuSans-48"/>
      </g>
     </g>
    </g>
    <g id="ytick_4">
     <g id="line2d_12">
      <g>
       <use style="stroke:#000000;stroke-width:0.8;" x="54" xlink:href="#m04067a626c" y="122.044649"/>
      </g>
     </g>
     <g id="text_13">
      <!-- −15 -->
      <g transform="translate(25.895312 125.843868)scale(0.1 -0.1)">
       <use xlink:href="#DejaVuSans-8722"/>
       <use x="83.789062" xlink:href="#DejaVuSans-49"/>
       <use x="147.412109" xlink:href="#DejaVuSans-53"/>
      </g>
     </g>
    </g>
    <g id="ytick_5">
     <g id="line2d_13">
      <g>
       <use style="stroke:#000000;stroke-width:0.8;" x="54" xlink:href="#m04067a626c" y="80.284625"/>
      </g>
     </g>
     <g id="text_14">
      <!-- −10 -->
      <g transform="translate(25.895312 84.083844)scale(0.1 -0.1)">
       <use xlink:href="#DejaVuSans-8722"/>
       <use x="83.789062" xlink:href="#DejaVuSans-49"/>
       <use x="147.412109" xlink:href="#DejaVuSans-48"/>
      </g>
     </g>
    </g>
    <g id="ytick_6">
     <g id="line2d_14">
      <g>
       <use style="stroke:#000000;stroke-width:0.8;" x="54" xlink:href="#m04067a626c" y="38.524601"/>
      </g>
     </g>
     <g id="text_15">
      <!-- −5 -->
      <g transform="translate(32.257812 42.32382)scale(0.1 -0.1)">
       <use xlink:href="#DejaVuSans-8722"/>
       <use x="83.789062" xlink:href="#DejaVuSans-53"/>
      </g>
     </g>
    </g>
    <g id="text_16">
     <!-- average reward -->
     <g transform="translate(19.815625 182.654219)rotate(-90)scale(0.1 -0.1)">
      <defs>
       <path d="M 34.28125 27.484375 
Q 23.390625 27.484375 19.1875 25 
Q 14.984375 22.515625 14.984375 16.5 
Q 14.984375 11.71875 18.140625 8.90625 
Q 21.296875 6.109375 26.703125 6.109375 
Q 34.1875 6.109375 38.703125 11.40625 
Q 43.21875 16.703125 43.21875 25.484375 
L 43.21875 27.484375 
z
M 52.203125 31.203125 
L 52.203125 0 
L 43.21875 0 
L 43.21875 8.296875 
Q 40.140625 3.328125 35.546875 0.953125 
Q 30.953125 -1.421875 24.3125 -1.421875 
Q 15.921875 -1.421875 10.953125 3.296875 
Q 6 8.015625 6 15.921875 
Q 6 25.140625 12.171875 29.828125 
Q 18.359375 34.515625 30.609375 34.515625 
L 43.21875 34.515625 
L 43.21875 35.40625 
Q 43.21875 41.609375 39.140625 45 
Q 35.0625 48.390625 27.6875 48.390625 
Q 23 48.390625 18.546875 47.265625 
Q 14.109375 46.140625 10.015625 43.890625 
L 10.015625 52.203125 
Q 14.9375 54.109375 19.578125 55.046875 
Q 24.21875 56 28.609375 56 
Q 40.484375 56 46.34375 49.84375 
Q 52.203125 43.703125 52.203125 31.203125 
z
" id="DejaVuSans-97"/>
       <path d="M 2.984375 54.6875 
L 12.5 54.6875 
L 29.59375 8.796875 
L 46.6875 54.6875 
L 56.203125 54.6875 
L 35.6875 0 
L 23.484375 0 
z
" id="DejaVuSans-118"/>
       <path d="M 41.109375 46.296875 
Q 39.59375 47.171875 37.8125 47.578125 
Q 36.03125 48 33.890625 48 
Q 26.265625 48 22.1875 43.046875 
Q 18.109375 38.09375 18.109375 28.8125 
L 18.109375 0 
L 9.078125 0 
L 9.078125 54.6875 
L 18.109375 54.6875 
L 18.109375 46.1875 
Q 20.953125 51.171875 25.484375 53.578125 
Q 30.03125 56 36.53125 56 
Q 37.453125 56 38.578125 55.875 
Q 39.703125 55.765625 41.0625 55.515625 
z
" id="DejaVuSans-114"/>
       <path d="M 45.40625 27.984375 
Q 45.40625 37.75 41.375 43.109375 
Q 37.359375 48.484375 30.078125 48.484375 
Q 22.859375 48.484375 18.828125 43.109375 
Q 14.796875 37.75 14.796875 27.984375 
Q 14.796875 18.265625 18.828125 12.890625 
Q 22.859375 7.515625 30.078125 7.515625 
Q 37.359375 7.515625 41.375 12.890625 
Q 45.40625 18.265625 45.40625 27.984375 
z
M 54.390625 6.78125 
Q 54.390625 -7.171875 48.1875 -13.984375 
Q 42 -20.796875 29.203125 -20.796875 
Q 24.46875 -20.796875 20.265625 -20.09375 
Q 16.0625 -19.390625 12.109375 -17.921875 
L 12.109375 -9.1875 
Q 16.0625 -11.328125 19.921875 -12.34375 
Q 23.78125 -13.375 27.78125 -13.375 
Q 36.625 -13.375 41.015625 -8.765625 
Q 45.40625 -4.15625 45.40625 5.171875 
L 45.40625 9.625 
Q 42.625 4.78125 38.28125 2.390625 
Q 33.9375 0 27.875 0 
Q 17.828125 0 11.671875 7.65625 
Q 5.515625 15.328125 5.515625 27.984375 
Q 5.515625 40.671875 11.671875 48.328125 
Q 17.828125 56 27.875 56 
Q 33.9375 56 38.28125 53.609375 
Q 42.625 51.21875 45.40625 46.390625 
L 45.40625 54.6875 
L 54.390625 54.6875 
z
" id="DejaVuSans-103"/>
       <path d="M 4.203125 54.6875 
L 13.1875 54.6875 
L 24.421875 12.015625 
L 35.59375 54.6875 
L 46.1875 54.6875 
L 57.421875 12.015625 
L 68.609375 54.6875 
L 77.59375 54.6875 
L 63.28125 0 
L 52.6875 0 
L 40.921875 44.828125 
L 29.109375 0 
L 18.5 0 
z
" id="DejaVuSans-119"/>
       <path d="M 45.40625 46.390625 
L 45.40625 75.984375 
L 54.390625 75.984375 
L 54.390625 0 
L 45.40625 0 
L 45.40625 8.203125 
Q 42.578125 3.328125 38.25 0.953125 
Q 33.9375 -1.421875 27.875 -1.421875 
Q 17.96875 -1.421875 11.734375 6.484375 
Q 5.515625 14.40625 5.515625 27.296875 
Q 5.515625 40.1875 11.734375 48.09375 
Q 17.96875 56 27.875 56 
Q 33.9375 56 38.25 53.625 
Q 42.578125 51.265625 45.40625 46.390625 
z
M 14.796875 27.296875 
Q 14.796875 17.390625 18.875 11.75 
Q 22.953125 6.109375 30.078125 6.109375 
Q 37.203125 6.109375 41.296875 11.75 
Q 45.40625 17.390625 45.40625 27.296875 
Q 45.40625 37.203125 41.296875 42.84375 
Q 37.203125 48.484375 30.078125 48.484375 
Q 22.953125 48.484375 18.875 42.84375 
Q 14.796875 37.203125 14.796875 27.296875 
z
" id="DejaVuSans-100"/>
      </defs>
      <use xlink:href="#DejaVuSans-97"/>
      <use x="61.279297" xlink:href="#DejaVuSans-118"/>
      <use x="120.458984" xlink:href="#DejaVuSans-101"/>
      <use x="181.982422" xlink:href="#DejaVuSans-114"/>
      <use x="223.095703" xlink:href="#DejaVuSans-97"/>
      <use x="284.375" xlink:href="#DejaVuSans-103"/>
      <use x="347.851562" xlink:href="#DejaVuSans-101"/>
      <use x="409.375" xlink:href="#DejaVuSans-32"/>
      <use x="441.162109" xlink:href="#DejaVuSans-114"/>
      <use x="480.025391" xlink:href="#DejaVuSans-101"/>
      <use x="541.548828" xlink:href="#DejaVuSans-119"/>
      <use x="623.335938" xlink:href="#DejaVuSans-97"/>
      <use x="684.615234" xlink:href="#DejaVuSans-114"/>
      <use x="723.978516" xlink:href="#DejaVuSans-100"/>
     </g>
    </g>
   </g>
   <g id="line2d_15">
    <path clip-path="url(#p1ba4430fa5)" d="M 69.218182 112.026857 
L 69.753433 191.692692 
L 70.288683 126.716654 
L 70.823934 174.083338 
L 71.359185 156.366185 
L 71.894436 205.652138 
L 72.052239 165.868206 
L 72.587489 197.983809 
L 73.12274 182.915081 
L 73.657991 161.941463 
L 74.090883 154.732481 
L 74.248686 132.54339 
L 74.649591 133.479001 
L 75.184842 129.754723 
L 75.720093 136.040448 
L 75.788332 134.429317 
L 76.323583 146.802467 
L 76.858833 138.905731 
L 77.466588 132.134892 
L 78.001839 139.755813 
L 78.53709 132.17279 
L 79.072341 141.30179 
L 79.178964 140.157413 
L 79.714215 151.674092 
L 80.368884 144.351241 
L 80.904135 142.486294 
L 81.439386 145.665625 
L 81.974637 140.862371 
L 82.509887 145.0688 
L 83.045138 142.006414 
L 83.580389 148.81104 
L 83.648628 147.6518 
L 84.183879 152.179366 
L 84.429113 145.948688 
L 84.964364 151.848799 
L 85.25438 145.721078 
L 85.789631 142.644816 
L 86.06472 136.739767 
L 86.599971 139.325969 
L 86.742847 139.045327 
L 87.278097 135.604359 
L 87.563849 135.909279 
L 88.0991 138.095442 
L 88.278227 137.563581 
L 88.482945 136.181621 
L 89.018196 142.595145 
L 89.086435 142.01809 
L 89.621685 145.351545 
L 89.738972 144.700526 
L 90.274222 149.731199 
L 90.525854 149.964513 
L 91.061105 154.662643 
L 91.596356 151.892511 
L 92.131606 157.143084 
L 92.310734 153.29252 
L 92.845985 156.820339 
L 92.909959 156.049397 
L 93.44521 160.161998 
L 93.980461 159.238031 
L 94.515712 162.443678 
L 94.588216 161.610928 
L 95.123466 166.330866 
L 95.317521 162.561243 
L 95.852772 166.509571 
L 95.938071 166.002529 
L 96.473322 169.617343 
L 96.545826 168.791506 
L 97.081077 171.931091 
L 97.151448 171.084497 
L 97.686699 174.435236 
L 97.885019 173.632228 
L 98.42027 176.29961 
L 98.490642 175.358661 
L 99.025892 178.554941 
L 99.561143 176.768754 
L 100.096394 179.039713 
L 100.160368 178.160223 
L 100.695619 180.614109 
L 100.759593 179.713241 
L 101.294844 182.524982 
L 101.371613 181.719282 
L 101.906864 184.953635 
L 102.442114 182.790555 
L 102.977365 185.367166 
L 103.041339 184.483822 
L 103.57659 186.105817 
L 103.751453 185.673074 
L 104.286704 188.759945 
L 104.821955 188.946918 
L 105.357205 191.856853 
L 105.591777 191.280786 
L 106.127028 193.47982 
L 106.310421 192.742651 
L 106.562053 192.255984 
L 106.702796 189.734474 
L 107.238047 191.32265 
L 108.843799 191.620226 
L 109.37905 192.018688 
L 109.56884 192.53559 
L 110.104091 192.460193 
L 110.639341 193.980745 
L 111.174592 192.486557 
L 111.703446 193.879031 
L 112.863511 202.694381 
L 113.053301 200.647161 
L 113.588552 203.065809 
L 114.123803 202.342611 
L 114.659053 204.336098 
L 115.194304 203.217225 
L 115.729555 202.667889 
L 116.800057 207.631846 
L 116.876826 207.531135 
L 117.412076 207.391332 
L 117.616794 208.992794 
L 118.152045 208.331978 
L 119.757797 204.67052 
L 120.293048 207.326656 
L 120.828298 206.341597 
L 121.363549 207.384164 
L 121.732467 208.838924 
L 122.267718 208.830768 
L 122.335957 209.406979 
L 122.871208 207.769881 
L 123.406459 206.655151 
L 123.941709 207.166446 
L 124.031273 208.963849 
L 124.566524 207.831069 
L 125.101775 208.670048 
L 125.637026 210.505588 
L 126.172276 211.467867 
L 126.797091 211.467277 
L 127.332342 215.300207 
L 127.867593 213.742888 
L 128.402843 214.239352 
L 128.938094 213.076019 
L 129.473345 215.438847 
L 130.008596 214.613234 
L 130.543846 212.953308 
L 130.987401 213.519945 
L 131.682587 213.277536 
L 132.217838 212.415681 
L 132.294607 211.949659 
L 132.829858 211.929826 
L 133.365108 214.353524 
L 133.900359 212.69841 
L 134.273542 214.562114 
L 134.808793 214.623206 
L 136.414545 211.41834 
L 136.949796 210.988033 
L 137.485047 209.872522 
L 138.020297 207.591049 
L 138.555548 209.035837 
L 139.163303 207.082685 
L 139.768926 206.627464 
L 140.304176 205.386487 
L 140.577133 205.46276 
L 141.112384 204.698828 
L 141.355486 204.565493 
L 141.890736 202.936902 
L 142.425987 201.866091 
L 142.961238 200.208794 
L 143.496489 199.749686 
L 144.031739 198.722317 
L 144.55846 198.915518 
L 145.16195 197.274119 
L 145.697201 196.883033 
L 146.767703 194.595443 
L 147.302953 194.595443 
L 147.838204 193.82345 
L 148.373455 192.723598 
L 148.908706 192.773189 
L 149.247769 193.506105 
L 149.78302 192.545929 
L 149.885378 191.677065 
L 150.420629 189.745657 
L 150.95588 188.342001 
L 151.491131 187.521294 
L 152.026382 186.994021 
L 152.561632 189.001033 
L 153.096883 191.724234 
L 153.632134 191.758994 
L 154.167385 190.502931 
L 154.702635 191.122694 
L 155.237886 191.122694 
L 155.773137 191.485504 
L 156.308388 190.081275 
L 156.843639 189.066538 
L 157.91414 188.313996 
L 158.449391 186.265517 
L 159.07847 185.750431 
L 159.613721 185.39334 
L 159.87175 187.115249 
L 160.407001 186.483506 
L 160.942252 186.767254 
L 161.477503 184.891109 
L 162.012754 184.891109 
L 162.548004 184.47976 
L 163.025678 183.612122 
L 163.560929 183.408646 
L 164.09618 182.346134 
L 164.631431 181.829582 
L 165.166681 181.807025 
L 165.701932 181.976427 
L 166.237183 183.071866 
L 166.772434 182.128512 
L 167.307685 184.375337 
L 167.842935 185.191425 
L 168.378186 185.754923 
L 168.913437 185.174794 
L 169.448688 185.088117 
L 170.209981 185.214396 
L 170.745231 185.535421 
L 170.817735 186.669507 
L 171.352986 186.012307 
L 171.527849 186.150613 
L 172.0631 186.075422 
L 172.598351 186.233577 
L 173.133601 186.680993 
L 173.64113 188.211358 
L 174.707367 188.58038 
L 175.242617 187.394681 
L 175.777868 187.980354 
L 175.846107 186.129585 
L 176.272602 187.526216 
L 176.807853 186.88278 
L 176.98698 185.67035 
L 177.522231 185.910943 
L 178.057482 184.496948 
L 179.000035 185.650899 
L 179.535286 185.48873 
L 180.070537 184.296785 
L 180.605787 184.492408 
L 181.141038 182.319595 
L 181.676289 182.121391 
L 181.953511 180.100823 
L 182.488761 179.51276 
L 183.024012 180.583682 
L 183.559263 180.196069 
L 184.094514 180.768138 
L 184.629764 181.782508 
L 184.973093 183.142229 
L 185.508343 182.920179 
L 185.768505 181.635568 
L 186.303756 181.492229 
L 186.839007 180.562193 
L 187.374257 180.613488 
L 187.909508 179.69156 
L 188.444759 180.184185 
L 188.98001 179.272118 
L 189.585632 180.035286 
L 190.120883 182.537934 
L 190.656134 182.69937 
L 191.191385 183.196233 
L 191.726635 184.963862 
L 192.261886 184.791179 
L 193.332388 185.986182 
L 193.867638 185.31396 
L 194.402889 184.192491 
L 194.49885 185.384769 
L 195.034101 184.327881 
L 195.569352 184.327881 
L 196.104603 183.425452 
L 197.175104 185.756994 
L 198.245606 183.531961 
L 198.365024 181.435931 
L 198.900275 181.18468 
L 199.087933 182.640285 
L 199.623184 183.205679 
L 199.812974 181.899882 
L 200.823766 181.029887 
L 201.359017 180.812281 
L 201.894268 180.812281 
L 202.429518 181.884876 
L 202.964769 181.884876 
L 203.50002 182.229509 
L 204.035271 183.91102 
L 204.570521 185.180369 
L 205.487485 189.358634 
L 206.022736 189.358634 
L 206.557986 188.775254 
L 207.093237 188.553809 
L 207.628488 188.782375 
L 208.163739 187.798097 
L 208.69899 187.703917 
L 209.033788 188.756982 
L 209.569039 189.250977 
L 209.792948 190.30323 
L 210.328199 189.943717 
L 210.407101 189.229201 
L 210.942351 191.535923 
L 211.477602 191.946444 
L 212.012853 193.086122 
L 212.548104 192.031081 
L 213.170786 193.171826 
L 213.706037 193.208959 
L 214.241287 190.626852 
L 214.776538 188.647574 
L 215.311789 188.562825 
L 215.84704 189.36534 
L 216.382291 188.288954 
L 216.6062 186.64953 
L 216.906879 187.026598 
L 217.44213 188.206658 
L 217.97738 188.167932 
L 218.512631 189.663075 
L 218.63205 189.562843 
L 219.167301 191.903098 
L 219.702551 192.261942 
L 219.868884 190.93972 
L 220.404135 189.921001 
L 220.470242 188.350317 
L 221.005492 188.415264 
L 221.540743 189.850144 
L 222.075994 189.296155 
L 222.611245 191.486221 
L 222.698676 191.249101 
L 223.233927 191.791237 
L 223.769178 193.061286 
L 224.304429 193.440409 
L 224.839679 193.21941 
L 225.37493 193.32928 
L 225.455964 192.796654 
L 225.991215 193.701903 
L 226.059454 194.800162 
L 226.594705 193.971251 
L 226.658679 194.74267 
L 227.19393 194.235389 
L 227.72918 197.570931 
L 228.264431 197.656747 
L 228.799682 197.122321 
L 229.334933 197.009854 
L 229.450086 197.502033 
L 229.985337 196.553279 
L 231.055839 199.01685 
L 231.16886 200.777135 
L 231.704111 200.926752 
L 232.041041 201.92645 
L 232.576292 201.496702 
L 232.682916 202.381098 
L 233.218167 202.743653 
L 233.390897 203.718214 
L 233.926148 203.256286 
L 234.312125 201.790582 
L 234.847376 201.553174 
L 234.913483 202.479084 
L 235.448734 204.240931 
L 235.512708 203.572453 
L 236.047958 205.954095 
L 236.111933 205.132751 
L 236.647183 205.340783 
L 236.792192 203.915939 
L 237.327442 204.703002 
L 239.468446 211.100389 
L 239.828833 211.17045 
L 240.364084 210.338289 
L 240.551742 210.275413 
L 241.182954 209.578212 
L 241.47297 206.026482 
L 242.008221 205.194114 
L 242.10205 207.057945 
L 242.517882 205.262836 
L 243.053133 204.752099 
L 243.166154 202.63383 
L 243.242923 203.868802 
L 243.778174 202.157565 
L 244.313425 202.157565 
L 244.65462 194.199992 
L 245.189871 193.179552 
L 245.439371 192.400869 
L 245.974621 187.486295 
L 246.509872 187.930747 
L 246.929969 184.628707 
L 246.998208 184.788534 
L 247.533459 185.519029 
L 247.834138 186.981149 
L 248.369389 187.892117 
L 248.43976 187.540012 
L 248.975011 186.97449 
L 249.356724 184.75489 
L 249.891975 185.988587 
L 250.056175 185.978424 
L 250.591426 185.415594 
L 250.68952 183.965103 
L 251.22477 180.651083 
L 251.346321 181.545866 
L 251.881572 177.210848 
L 252.248357 177.63424 
L 252.783608 178.838642 
L 253.318859 179.454933 
L 253.85411 180.959906 
L 254.389361 180.567609 
L 254.924611 180.413261 
L 255.995113 185.116951 
L 256.150783 184.644398 
L 256.914209 185.746671 
L 257.44946 182.507587 
L 257.98471 181.423315 
L 258.519961 180.972124 
L 258.746003 182.021844 
L 259.281254 185.119659 
L 259.816505 185.689354 
L 260.351756 188.791838 
L 260.518089 188.47787 
L 260.641772 185.506651 
L 260.797443 186.694565 
L 260.995763 184.405891 
L 262.066264 182.394976 
L 262.268849 179.694778 
L 262.349883 180.682609 
L 262.405327 175.915421 
L 262.940578 177.400322 
L 263.079189 174.421297 
L 263.61444 173.852239 
L 264.14969 171.130695 
L 264.684941 170.582266 
L 265.220192 168.180154 
L 265.354538 164.863696 
L 265.889789 163.658514 
L 266.139288 164.487202 
L 266.256574 162.968116 
L 266.344005 163.094538 
L 267.019999 157.092633 
L 267.523263 157.093207 
L 268.593765 154.984512 
L 268.717448 152.614834 
L 269.037319 153.09242 
L 269.57257 150.209344 
L 270.107821 149.82412 
L 270.233637 147.130214 
L 270.768887 148.474101 
L 271.304138 145.886465 
L 271.378775 145.977012 
L 271.415027 140.032042 
L 271.53871 140.047224 
L 271.658129 134.125942 
L 272.193379 133.053395 
L 272.278678 128.970942 
L 272.688113 130.734549 
L 273.223364 130.144782 
L 273.688243 128.837336 
L 274.223494 128.014438 
L 274.758745 127.65299 
L 275.293995 126.532517 
L 275.558422 124.260227 
L 275.660781 119.504334 
L 275.861233 117.487199 
L 276.396484 117.589247 
L 276.550022 119.811365 
L 277.085273 121.668816 
L 277.620524 120.429344 
L 277.810314 115.998642 
L 278.345565 116.987262 
L 279.213481 116.711837 
L 279.748732 117.658695 
L 279.900138 116.488718 
L 280.000364 118.433969 
L 280.286115 120.583023 
L 280.763789 117.998342 
L 281.29904 116.586378 
L 281.834291 117.321166 
L 282.369542 117.384919 
L 282.476165 118.819512 
L 283.135099 118.877147 
L 283.297167 116.376371 
L 283.789769 111.665417 
L 284.325019 113.307261 
L 284.86027 114.474609 
L 285.395521 114.748147 
L 285.551192 114.997334 
L 286.086442 113.289117 
L 286.384989 115.959868 
L 286.920239 118.675981 
L 287.214521 119.410251 
L 287.749771 120.211754 
L 287.820143 119.779202 
L 287.954489 115.546488 
L 288.48974 115.265471 
L 288.68806 113.68542 
L 288.786153 115.007211 
L 289.321404 114.629403 
L 289.468545 113.41428 
L 289.560241 110.807003 
L 289.705249 110.955424 
L 289.931292 105.465699 
L 290.114684 105.159227 
L 290.649935 104.037845 
L 291.023118 105.65307 
L 291.306737 102.462557 
L 291.513587 101.929796 
L 291.656462 98.538952 
L 292.191713 98.402176 
L 292.726964 96.070817 
L 292.86131 96.079802 
L 293.396561 97.970619 
L 293.658855 97.733212 
L 293.876367 95.599061 
L 294.411618 95.865676 
L 294.946869 94.996661 
L 295.072684 96.887311 
L 295.895819 95.923726 
L 296.072814 97.879602 
L 296.458792 96.537978 
L 296.744543 96.493883 
L 296.8533 97.052762 
L 297.173171 97.353723 
L 297.708421 97.569417 
L 297.765998 96.733911 
L 298.301249 99.111961 
L 298.700021 98.515216 
L 298.900474 98.575082 
L 299.435725 97.289118 
L 299.970975 97.008906 
L 300.354821 97.67799 
L 300.890071 99.950781 
L 301.056404 98.275889 
L 301.382673 97.942295 
L 301.472237 99.144745 
L 302.007487 101.674642 
L 302.542738 100.153986 
L 303.195275 104.141479 
L 304.35534 109.87249 
L 304.61337 109.814114 
L 305.14862 114.845727 
L 305.683871 113.885073 
L 306.289494 120.799267 
L 306.824744 124.399011 
L 307.895246 123.162956 
L 308.332403 123.234499 
L 308.526458 121.119042 
L 309.061709 121.503047 
L 309.59696 119.657997 
L 309.695053 121.771765 
L 309.944553 122.06054 
L 310.044779 124.389724 
L 310.58003 121.991634 
L 311.11528 121.264867 
L 311.153665 121.441931 
L 311.814732 126.413741 
L 312.236961 126.516093 
L 312.772212 127.006727 
L 313.138998 125.170637 
L 313.74462 128.653159 
L 314.279871 128.995268 
L 314.397157 131.328952 
L 315.060356 132.879055 
L 315.595607 134.27473 
L 315.661713 135.391309 
L 316.427271 138.591205 
L 316.627724 138.993729 
L 317.162974 139.558374 
L 317.698225 140.572777 
L 318.233476 144.549859 
L 318.768727 145.530346 
L 319.303978 145.117196 
L 319.423396 146.2664 
L 320.031151 145.743906 
L 320.566402 146.72135 
L 321.101652 146.172953 
L 321.378874 144.407889 
L 321.621976 141.880613 
L 322.157227 145.243778 
L 322.692477 144.993817 
L 323.227728 146.161914 
L 323.762979 146.626725 
L 324.29823 148.865282 
L 324.833481 147.507075 
L 325.368731 147.173943 
L 325.903982 145.847563 
L 327.253838 152.698817 
L 327.789088 156.979354 
L 327.951156 154.744938 
L 328.486407 157.11108 
L 329.021658 157.784433 
L 330.177458 162.52497 
L 330.712709 162.749649 
L 331.410028 164.808004 
L 331.945279 169.347486 
L 332.46347 170.26242 
L 333.086152 173.12431 
L 333.687509 177.607589 
L 334.22276 179.966388 
L 334.758011 180.275433 
L 335.293262 183.216958 
L 335.828512 182.128878 
L 336.45546 185.738228 
L 336.99071 189.972121 
L 337.525961 188.399907 
L 338.061212 188.066488 
L 338.133716 187.822932 
L 338.739338 192.905824 
L 339.274589 194.894453 
L 339.927126 194.448184 
L 340.080664 196.308272 
L 340.688419 197.489782 
L 341.22367 197.393564 
L 341.330293 198.563461 
L 341.865544 198.551911 
L 342.400795 197.373492 
L 343.006417 197.36763 
L 343.541668 196.334605 
L 343.622702 196.564589 
L 344.157953 195.583847 
L 344.253914 196.661731 
L 344.789165 195.524858 
L 345.399052 197.37483 
L 345.934303 197.37483 
L 346.469554 197.983124 
L 346.588972 197.480718 
L 347.124223 199.701466 
L 347.341735 197.250208 
L 347.39718 195.034511 
L 347.636017 193.396967 
L 348.171267 196.67446 
L 348.706518 195.341661 
L 349.405969 198.686633 
L 349.94122 200.562428 
L 351.009589 201.887883 
L 351.401964 202.482493 
L 351.937215 203.72097 
L 352.222967 206.012989 
L 352.758217 204.564776 
L 352.875503 204.719394 
L 353.521643 204.00894 
L 354.056893 205.996167 
L 354.191239 205.955911 
L 354.72649 207.693687 
L 355.261741 207.13621 
L 355.854568 208.563969 
L 356.389819 211.165607 
L 356.786459 211.202167 
L 357.32171 209.965411 
L 357.688495 211.427595 
L 358.28772 207.613941 
L 358.822971 208.506445 
L 359.358222 207.357242 
L 360.008626 208.320158 
L 360.543877 205.984681 
L 361.079128 205.788262 
L 361.373409 206.071357 
L 361.548272 207.920549 
L 362.083523 207.591925 
L 362.618773 206.850025 
L 363.224396 209.946375 
L 363.759647 210.649947 
L 364.294897 212.205514 
L 364.830148 213.17195 
L 365.365399 214.784467 
L 365.90065 214.891948 
L 366.88372 215.958395 
L 367.418971 214.279974 
L 367.510667 216.081471 
L 368.045918 215.473687 
L 368.581169 216.693047 
L 369.116419 216.806326 
L 369.193188 216.586952 
L 369.728439 217.103074 
L 370.26369 215.671651 
L 370.798941 214.900678 
L 371.334191 213.382053 
L 371.869442 213.063657 
L 371.976066 212.020803 
L 372.511317 211.535777 
L 373.046567 210.825848 
L 373.581818 210.891672 
L 373.581818 210.891672 
" style="fill:none;stroke:#1f77b4;stroke-linecap:square;stroke-width:1.5;"/>
   </g>
   <g id="line2d_16">
    <path clip-path="url(#p1ba4430fa5)" d="M 69.267229 44.443636 
L 69.802479 143.742374 
L 70.33773 217.006983 
L 70.425162 189.554846 
L 70.960412 242.116364 
L 71.495663 201.224407 
L 72.030914 218.679206 
L 72.566165 203.158427 
L 73.101416 219.119979 
L 73.636666 198.681822 
L 74.171917 209.522233 
L 74.31266 184.92692 
L 74.847911 205.707289 
L 74.918283 198.882319 
L 75.453533 211.016692 
L 75.988784 197.14021 
L 76.524035 206.046076 
L 76.632791 200.650936 
L 77.168042 212.934224 
L 77.28746 207.841997 
L 77.822711 212.962516 
L 78.357962 203.135328 
L 78.893213 209.022344 
L 79.428464 200.178272 
L 79.963714 206.390024 
L 80.498965 198.327503 
L 81.034216 205.770516 
L 81.104587 202.253163 
L 81.639838 208.94615 
L 82.175089 201.873435 
L 82.71034 209.35742 
L 83.245591 202.713895 
L 83.780841 205.356394 
L 84.316092 199.221346 
L 84.851343 204.384462 
L 85.186141 203.679105 
L 85.721392 206.380307 
L 85.791764 203.831716 
L 86.327014 208.004851 
L 86.862265 202.723836 
L 87.397516 204.475869 
L 87.757904 203.533392 
L 88.293155 209.526104 
L 88.828405 204.690624 
L 89.363656 209.833796 
L 89.476677 207.538049 
L 90.011928 210.118962 
L 90.547179 206.400156 
L 91.08243 209.852323 
L 91.148536 207.846776 
L 91.683787 211.57162 
L 92.219038 207.440716 
L 92.600751 205.815566 
L 92.66899 203.93668 
L 93.20424 206.570928 
L 93.404693 205.40495 
L 93.939944 209.72058 
L 94.475195 206.048911 
L 95.010445 209.113688 
L 95.545696 206.283882 
L 96.080947 207.318292 
L 96.211028 205.643998 
L 96.746278 208.880183 
L 96.987248 207.405669 
L 97.522499 209.733468 
L 97.588605 208.105801 
L 98.123856 210.993402 
L 98.18783 209.374911 
L 98.723081 210.320081 
L 99.258332 207.470569 
L 99.793583 210.386223 
L 99.983373 209.235251 
L 100.518624 211.068561 
L 101.053874 209.928246 
L 101.589125 212.036033 
L 102.124376 212.900564 
L 102.659627 216.25887 
L 102.847284 215.040115 
L 103.382535 218.740856 
L 103.917786 216.751606 
L 104.453037 217.391793 
L 104.988287 214.701216 
L 105.523538 217.205808 
L 106.058789 214.581517 
L 106.59404 215.203543 
L 106.807287 214.365774 
L 107.342538 215.404709 
L 107.877789 214.725143 
L 108.413039 216.255094 
L 108.540988 215.068789 
L 109.076239 217.078637 
L 109.255366 215.952086 
L 109.790617 217.658082 
L 109.863121 216.489125 
L 110.398372 217.640415 
L 110.933623 215.339634 
L 111.468874 216.31128 
L 112.004124 214.13031 
L 112.539375 216.421007 
L 112.737695 215.209564 
L 113.272946 215.39034 
L 113.33692 213.964716 
L 113.966 214.518959 
L 114.50125 213.962119 
L 114.601477 215.1075 
L 115.780734 216.548831 
L 116.315985 216.369091 
L 116.851236 217.459719 
L 117.386487 218.28358 
L 117.921737 218.294636 
L 118.077408 216.524999 
L 118.612659 216.47552 
L 119.14791 216.553228 
L 120.753662 213.910123 
L 120.856021 213.880047 
L 121.391271 214.119685 
L 121.495763 215.254456 
L 122.031013 216.368501 
L 123.636766 217.434199 
L 124.172016 216.660071 
L 124.707267 216.426057 
L 125.242518 217.445573 
L 125.583714 219.285382 
L 126.118964 218.7673 
L 126.219191 219.870322 
L 126.754442 220.388021 
L 126.83974 221.480052 
L 127.374991 221.050064 
L 127.564781 220.569801 
L 128.191728 221.831663 
L 128.726979 221.896626 
L 128.805881 223.162311 
L 129.341132 225.082711 
L 129.876382 223.401439 
L 130.411633 222.981392 
L 130.946884 223.487271 
L 131.550374 221.557839 
L 132.085625 221.240653 
L 132.509987 222.394317 
L 133.045237 223.068657 
L 133.166788 220.942551 
L 133.702039 221.182922 
L 134.23729 221.182922 
L 134.772541 225.006979 
L 135.034835 225.665978 
L 135.570086 226.657664 
L 135.736419 226.440743 
L 136.271669 225.250679 
L 136.587275 226.590566 
L 137.122526 226.535591 
L 137.433867 225.820772 
L 137.969118 227.192425 
L 138.265532 227.532948 
L 138.800783 228.476923 
L 139.336033 227.6854 
L 139.871284 228.07107 
L 140.026955 228.388702 
L 140.562206 229.075389 
L 141.097456 228.033682 
L 141.632707 228.696362 
L 142.167958 229.88547 
L 142.703209 229.481879 
L 142.939913 229.489302 
L 143.475164 229.753154 
L 143.579655 229.58885 
L 144.114906 230.472052 
L 144.272709 229.040071 
L 144.80796 226.908979 
L 145.34321 225.664656 
L 145.878461 225.379028 
L 146.710126 227.644683 
L 146.835942 228.777669 
L 147.371193 228.62278 
L 147.569513 227.903405 
L 148.104763 227.910398 
L 148.640014 226.44651 
L 149.262696 225.625149 
L 149.868319 225.730623 
L 150.93882 223.353967 
L 151.538045 222.496652 
L 152.073296 222.422848 
L 152.164992 223.581896 
L 152.700243 224.319384 
L 153.235494 224.261271 
L 153.770745 223.605473 
L 153.838984 223.746646 
L 154.374235 226.539144 
L 154.909485 225.501993 
L 155.444736 225.255569 
L 155.979987 224.175471 
L 156.515238 222.693263 
L 156.636789 220.49418 
L 157.248808 221.122403 
L 157.784059 221.007578 
L 158.31931 221.007578 
L 158.854561 220.860606 
L 158.967582 222.047102 
L 159.502833 221.88874 
L 159.963447 224.428936 
L 160.498698 225.149665 
L 160.564804 226.282875 
L 161.100055 227.126952 
L 161.622511 228.347889 
L 162.343287 229.330606 
L 162.878538 229.480652 
L 163.949039 227.238511 
L 164.48429 226.851582 
L 165.019541 227.655021 
L 165.554792 227.227407 
L 166.090042 228.550266 
L 166.625293 227.679076 
L 167.695795 223.968569 
L 168.324874 224.022398 
L 168.860125 224.639421 
L 169.069107 222.42589 
L 169.604358 222.932247 
L 169.681127 222.713175 
L 170.216378 222.729297 
L 170.395506 223.013778 
L 170.930757 223.349618 
L 171.466007 222.390732 
L 171.497994 218.760514 
L 172.033245 218.760514 
L 172.568496 218.281764 
L 172.826525 219.168821 
L 173.361776 220.553871 
L 173.897027 219.505457 
L 174.432278 220.419946 
L 175.502779 217.504754 
L 176.03803 218.502764 
L 176.573281 218.888274 
L 176.891019 220.237481 
L 177.961521 216.797724 
L 178.588468 215.916371 
L 179.123719 216.611835 
L 179.19409 216.36933 
L 179.729341 216.791703 
L 179.835965 216.263537 
L 180.371215 215.738096 
L 180.974705 213.23626 
L 181.179423 214.384954 
L 181.714674 210.58414 
L 182.785175 208.062646 
L 182.855547 209.171483 
L 183.390797 208.351444 
L 183.926048 207.021433 
L 184.661752 207.739168 
L 185.273771 207.896064 
L 185.523271 204.314847 
L 186.386922 207.165474 
L 186.922173 206.213104 
L 187.457424 205.030335 
L 187.992675 204.550247 
L 188.167537 204.619337 
L 188.702788 203.665533 
L 188.78169 205.522084 
L 189.316941 207.247068 
L 189.400107 208.490611 
L 189.935358 209.75432 
L 190.470609 209.01747 
L 190.513258 206.392191 
L 191.048509 205.723378 
L 191.58376 206.20952 
L 191.688251 207.359711 
L 192.223502 208.01621 
L 192.396232 208.003848 
L 192.931483 208.634763 
L 194.001984 209.394967 
L 194.185377 210.709797 
L 194.720628 210.567636 
L 194.882696 208.390649 
L 195.400887 206.279246 
L 195.936137 208.895014 
L 196.089675 205.977815 
L 196.624926 206.967239 
L 196.795524 203.58593 
L 196.88722 205.800193 
L 197.249741 197.995343 
L 197.332907 192.934148 
L 197.426736 194.107868 
L 197.50777 188.912732 
L 198.043021 189.023319 
L 198.194427 185.652365 
L 198.729677 185.350934 
L 198.853361 182.022815 
L 199.002634 182.10261 
L 199.073005 177.666388 
L 199.250001 177.841317 
L 199.87908 174.749698 
L 200.414331 172.483964 
L 200.665963 173.774659 
L 201.201214 170.217258 
L 201.297175 171.346692 
L 201.369679 165.671882 
L 201.90493 166.853026 
L 202.269583 163.343749 
L 202.804834 163.343749 
L 202.960504 161.300958 
L 203.495755 161.300958 
L 203.717532 156.769553 
L 203.958502 156.770429 
L 204.050198 151.695264 
L 204.585449 153.672486 
L 204.933042 141.112093 
L 205.468293 141.25384 
L 205.931039 137.46647 
L 206.009941 135.349476 
L 206.08671 136.595583 
L 206.203996 133.95901 
L 206.327679 133.74768 
L 206.438568 130.950419 
L 206.973819 132.2472 
L 207.50907 128.490034 
L 208.04432 128.154449 
L 208.159474 126.474196 
L 208.372721 125.621493 
L 209.016728 122.808565 
L 209.551979 122.700503 
L 210.08723 123.93784 
L 210.215178 121.384239 
L 210.66513 118.707538 
L 211.270752 118.116935 
L 211.537311 113.292956 
L 212.072562 114.735219 
L 212.24316 110.02354 
L 213.40749 106.900547 
L 213.942741 110.290395 
L 214.477992 110.824343 
L 215.013243 109.840582 
L 215.102807 109.993456 
L 215.638057 109.168384 
L 215.704164 110.243178 
L 216.311919 107.497427 
L 216.84717 106.834955 
L 217.01137 106.879989 
L 217.546621 107.836573 
L 218.081872 107.544772 
L 218.495571 104.950167 
L 218.770661 105.360927 
L 219.305911 105.502626 
L 219.480774 106.2195 
L 219.566073 101.589065 
L 220.101324 99.808078 
L 220.22714 97.645986 
L 220.346558 97.590979 
L 220.960711 96.20193 
L 221.101454 91.301152 
L 221.361615 90.101203 
L 221.896866 91.577613 
L 222.432117 90.926212 
L 222.798902 86.472299 
L 223.334153 86.099063 
L 223.445042 83.969739 
L 223.636964 78.736251 
L 224.172215 78.424457 
L 225.040132 78.448321 
L 225.146755 80.660474 
L 225.682006 83.342655 
L 225.908048 79.885566 
L 226.443299 82.605804 
L 226.97855 81.280222 
L 227.513801 85.553462 
L 227.756903 85.733449 
L 228.703721 96.145291 
L 228.863656 93.934619 
L 229.157938 94.350389 
L 229.292283 94.021176 
L 229.827534 95.189543 
L 229.946953 94.680431 
L 230.482203 96.873627 
L 231.017454 96.734508 
L 231.431154 97.070261 
L 231.480201 96.803144 
L 231.757422 91.936663 
L 231.853384 89.638965 
L 232.388634 88.674735 
L 232.923885 92.734081 
L 233.339718 90.796588 
L 233.874968 95.553731 
L 233.95387 95.493587 
L 235.700365 106.931523 
L 236.235616 106.739095 
L 236.770867 110.275667 
L 237.306118 109.510437 
L 237.587604 109.629722 
L 237.668638 111.97455 
L 238.203889 117.022037 
L 238.617589 114.877699 
L 239.68809 119.330528 
L 240.321435 125.595081 
L 240.856686 129.153223 
L 241.391936 128.405246 
L 241.927187 131.335993 
L 242.008221 131.163995 
L 242.543472 133.878801 
L 243.078723 134.214387 
L 243.613973 136.736868 
L 243.682213 138.744836 
L 244.217463 140.433658 
L 244.752714 139.231885 
L 245.454298 139.585105 
L 245.989549 143.035312 
L 246.081245 145.685219 
L 246.616496 146.242998 
L 247.151746 145.152768 
L 247.686997 149.083335 
L 248.222248 149.466153 
L 248.757499 154.650695 
L 249.096562 154.158086 
L 249.631813 157.066986 
L 249.702184 156.944849 
L 250.237435 157.927248 
L 250.514657 158.669706 
L 251.148001 159.850865 
L 251.683252 162.515555 
L 252.218503 161.440777 
L 252.875305 162.531676 
L 253.410555 163.278515 
L 253.564093 161.063487 
L 254.099344 162.144844 
L 254.385096 162.46837 
L 254.920346 164.02862 
L 254.99285 163.480749 
L 255.528101 162.781016 
L 256.063352 161.741603 
L 256.728684 167.604309 
L 257.799185 165.300836 
L 258.334436 164.888388 
L 258.805713 162.756069 
L 259.340963 164.179925 
L 259.411335 165.924423 
L 259.946586 166.461637 
L 260.223807 169.919698 
L 260.304841 170.000034 
L 260.628977 167.717621 
L 261.164228 168.759423 
L 261.699479 174.051367 
L 261.859414 174.233624 
L 262.394665 173.567631 
L 262.740126 173.645593 
L 263.39906 172.998716 
L 263.934311 172.816299 
L 264.040934 174.810934 
L 264.576185 174.492011 
L 265.111436 174.848816 
L 265.198867 170.379921 
L 265.734118 169.039364 
L 266.269369 168.581769 
L 266.6063 167.067797 
L 267.009337 166.899876 
L 267.111696 169.076545 
L 267.207657 168.654953 
L 267.278029 168.825661 
L 267.813279 169.356757 
L 268.099031 169.819083 
L 268.811277 169.666408 
L 269.346528 174.338014 
L 269.576835 172.485716 
L 270.112086 177.780623 
L 270.265624 177.788445 
L 270.800874 182.533824 
L 271.233766 181.55861 
L 271.769017 181.592828 
L 272.899228 182.592845 
L 273.434479 181.809319 
L 273.90149 182.527069 
L 274.436741 183.814117 
L 274.971992 182.662062 
L 275.507243 184.27982 
L 276.042494 183.701347 
L 277.112995 186.955087 
L 277.648246 193.165661 
L 277.765532 193.004384 
L 278.300783 193.860472 
L 278.373287 195.564922 
L 278.650508 192.991576 
L 279.185759 190.518032 
L 279.72101 189.124651 
L 280.256261 188.052008 
L 280.612384 189.470941 
L 281.27345 188.61275 
L 281.808701 189.60579 
L 281.930252 190.858699 
L 282.538007 189.55381 
L 283.073258 189.388104 
L 283.608508 189.388104 
L 283.921982 187.1484 
L 284.393259 187.585285 
L 284.804826 179.158154 
L 285.312355 180.659701 
L 285.920109 180.898319 
L 286.45536 179.304488 
L 286.536394 181.111879 
L 287.606896 179.650126 
L 288.142147 179.56963 
L 288.677397 179.35059 
L 289.212648 179.510227 
L 289.349126 179.402459 
L 289.884377 179.599277 
L 290.219175 181.341911 
L 290.754426 182.516332 
L 290.822665 182.429003 
L 291.357916 183.08179 
L 291.893167 184.120486 
L 292.428418 183.632576 
L 292.963668 182.664053 
L 292.963668 182.664053 
" style="fill:none;stroke:#ff7f0e;stroke-linecap:square;stroke-width:1.5;"/>
   </g>
   <g id="patch_3">
    <path d="M 54 252 
L 54 34.56 
" style="fill:none;stroke:#000000;stroke-linecap:square;stroke-linejoin:miter;stroke-width:0.8;"/>
   </g>
   <g id="patch_4">
    <path d="M 388.8 252 
L 388.8 34.56 
" style="fill:none;stroke:#000000;stroke-linecap:square;stroke-linejoin:miter;stroke-width:0.8;"/>
   </g>
   <g id="patch_5">
    <path d="M 54 252 
L 388.8 252 
" style="fill:none;stroke:#000000;stroke-linecap:square;stroke-linejoin:miter;stroke-width:0.8;"/>
   </g>
   <g id="patch_6">
    <path d="M 54 34.56 
L 388.8 34.56 
" style="fill:none;stroke:#000000;stroke-linecap:square;stroke-linejoin:miter;stroke-width:0.8;"/>
   </g>
   <g id="text_17">
    <!-- TD3 with observation noise -->
    <g transform="translate(139.405313 28.56)scale(0.12 -0.12)">
     <defs>
      <path d="M -0.296875 72.90625 
L 61.375 72.90625 
L 61.375 64.59375 
L 35.5 64.59375 
L 35.5 0 
L 25.59375 0 
L 25.59375 64.59375 
L -0.296875 64.59375 
z
" id="DejaVuSans-84"/>
      <path d="M 19.671875 64.796875 
L 19.671875 8.109375 
L 31.59375 8.109375 
Q 46.6875 8.109375 53.6875 14.9375 
Q 60.6875 21.78125 60.6875 36.53125 
Q 60.6875 51.171875 53.6875 57.984375 
Q 46.6875 64.796875 31.59375 64.796875 
z
M 9.8125 72.90625 
L 30.078125 72.90625 
Q 51.265625 72.90625 61.171875 64.09375 
Q 71.09375 55.28125 71.09375 36.53125 
Q 71.09375 17.671875 61.125 8.828125 
Q 51.171875 0 30.078125 0 
L 9.8125 0 
z
" id="DejaVuSans-68"/>
      <path d="M 54.890625 33.015625 
L 54.890625 0 
L 45.90625 0 
L 45.90625 32.71875 
Q 45.90625 40.484375 42.875 44.328125 
Q 39.84375 48.1875 33.796875 48.1875 
Q 26.515625 48.1875 22.3125 43.546875 
Q 18.109375 38.921875 18.109375 30.90625 
L 18.109375 0 
L 9.078125 0 
L 9.078125 75.984375 
L 18.109375 75.984375 
L 18.109375 46.1875 
Q 21.34375 51.125 25.703125 53.5625 
Q 30.078125 56 35.796875 56 
Q 45.21875 56 50.046875 50.171875 
Q 54.890625 44.34375 54.890625 33.015625 
z
" id="DejaVuSans-104"/>
      <path d="M 30.609375 48.390625 
Q 23.390625 48.390625 19.1875 42.75 
Q 14.984375 37.109375 14.984375 27.296875 
Q 14.984375 17.484375 19.15625 11.84375 
Q 23.34375 6.203125 30.609375 6.203125 
Q 37.796875 6.203125 41.984375 11.859375 
Q 46.1875 17.53125 46.1875 27.296875 
Q 46.1875 37.015625 41.984375 42.703125 
Q 37.796875 48.390625 30.609375 48.390625 
z
M 30.609375 56 
Q 42.328125 56 49.015625 48.375 
Q 55.71875 40.765625 55.71875 27.296875 
Q 55.71875 13.875 49.015625 6.21875 
Q 42.328125 -1.421875 30.609375 -1.421875 
Q 18.84375 -1.421875 12.171875 6.21875 
Q 5.515625 13.875 5.515625 27.296875 
Q 5.515625 40.765625 12.171875 48.375 
Q 18.84375 56 30.609375 56 
z
" id="DejaVuSans-111"/>
      <path d="M 48.6875 27.296875 
Q 48.6875 37.203125 44.609375 42.84375 
Q 40.53125 48.484375 33.40625 48.484375 
Q 26.265625 48.484375 22.1875 42.84375 
Q 18.109375 37.203125 18.109375 27.296875 
Q 18.109375 17.390625 22.1875 11.75 
Q 26.265625 6.109375 33.40625 6.109375 
Q 40.53125 6.109375 44.609375 11.75 
Q 48.6875 17.390625 48.6875 27.296875 
z
M 18.109375 46.390625 
Q 20.953125 51.265625 25.265625 53.625 
Q 29.59375 56 35.59375 56 
Q 45.5625 56 51.78125 48.09375 
Q 58.015625 40.1875 58.015625 27.296875 
Q 58.015625 14.40625 51.78125 6.484375 
Q 45.5625 -1.421875 35.59375 -1.421875 
Q 29.59375 -1.421875 25.265625 0.953125 
Q 20.953125 3.328125 18.109375 8.203125 
L 18.109375 0 
L 9.078125 0 
L 9.078125 75.984375 
L 18.109375 75.984375 
z
" id="DejaVuSans-98"/>
      <path d="M 54.890625 33.015625 
L 54.890625 0 
L 45.90625 0 
L 45.90625 32.71875 
Q 45.90625 40.484375 42.875 44.328125 
Q 39.84375 48.1875 33.796875 48.1875 
Q 26.515625 48.1875 22.3125 43.546875 
Q 18.109375 38.921875 18.109375 30.90625 
L 18.109375 0 
L 9.078125 0 
L 9.078125 54.6875 
L 18.109375 54.6875 
L 18.109375 46.1875 
Q 21.34375 51.125 25.703125 53.5625 
Q 30.078125 56 35.796875 56 
Q 45.21875 56 50.046875 50.171875 
Q 54.890625 44.34375 54.890625 33.015625 
z
" id="DejaVuSans-110"/>
     </defs>
     <use xlink:href="#DejaVuSans-84"/>
     <use x="61.083984" xlink:href="#DejaVuSans-68"/>
     <use x="138.085938" xlink:href="#DejaVuSans-51"/>
     <use x="201.708984" xlink:href="#DejaVuSans-32"/>
     <use x="233.496094" xlink:href="#DejaVuSans-119"/>
     <use x="315.283203" xlink:href="#DejaVuSans-105"/>
     <use x="343.066406" xlink:href="#DejaVuSans-116"/>
     <use x="382.275391" xlink:href="#DejaVuSans-104"/>
     <use x="445.654297" xlink:href="#DejaVuSans-32"/>
     <use x="477.441406" xlink:href="#DejaVuSans-111"/>
     <use x="538.623047" xlink:href="#DejaVuSans-98"/>
     <use x="602.099609" xlink:href="#DejaVuSans-115"/>
     <use x="654.199219" xlink:href="#DejaVuSans-101"/>
     <use x="715.722656" xlink:href="#DejaVuSans-114"/>
     <use x="756.835938" xlink:href="#DejaVuSans-118"/>
     <use x="816.015625" xlink:href="#DejaVuSans-97"/>
     <use x="877.294922" xlink:href="#DejaVuSans-116"/>
     <use x="916.503906" xlink:href="#DejaVuSans-105"/>
     <use x="944.287109" xlink:href="#DejaVuSans-111"/>
     <use x="1005.46875" xlink:href="#DejaVuSans-110"/>
     <use x="1068.847656" xlink:href="#DejaVuSans-32"/>
     <use x="1100.634766" xlink:href="#DejaVuSans-110"/>
     <use x="1164.013672" xlink:href="#DejaVuSans-111"/>
     <use x="1225.195312" xlink:href="#DejaVuSans-105"/>
     <use x="1252.978516" xlink:href="#DejaVuSans-115"/>
     <use x="1305.078125" xlink:href="#DejaVuSans-101"/>
    </g>
   </g>
   <g id="legend_1">
    <g id="patch_7">
     <path d="M 298.223438 71.91625 
L 381.8 71.91625 
Q 383.8 71.91625 383.8 69.91625 
L 383.8 41.56 
Q 383.8 39.56 381.8 39.56 
L 298.223438 39.56 
Q 296.223438 39.56 296.223438 41.56 
L 296.223438 69.91625 
Q 296.223438 71.91625 298.223438 71.91625 
z
" style="fill:#ffffff;opacity:0.8;stroke:#cccccc;stroke-linejoin:miter;"/>
    </g>
    <g id="line2d_17">
     <path d="M 300.223438 47.658437 
L 320.223438 47.658437 
" style="fill:none;stroke:#1f77b4;stroke-linecap:square;stroke-width:1.5;"/>
    </g>
    <g id="line2d_18"/>
    <g id="text_18">
     <!-- high noise -->
     <g transform="translate(328.223438 51.158437)scale(0.1 -0.1)">
      <use xlink:href="#DejaVuSans-104"/>
      <use x="63.378906" xlink:href="#DejaVuSans-105"/>
      <use x="91.162109" xlink:href="#DejaVuSans-103"/>
      <use x="154.638672" xlink:href="#DejaVuSans-104"/>
      <use x="218.017578" xlink:href="#DejaVuSans-32"/>
      <use x="249.804688" xlink:href="#DejaVuSans-110"/>
      <use x="313.183594" xlink:href="#DejaVuSans-111"/>
      <use x="374.365234" xlink:href="#DejaVuSans-105"/>
      <use x="402.148438" xlink:href="#DejaVuSans-115"/>
      <use x="454.248047" xlink:href="#DejaVuSans-101"/>
     </g>
    </g>
    <g id="line2d_19">
     <path d="M 300.223438 62.336562 
L 320.223438 62.336562 
" style="fill:none;stroke:#ff7f0e;stroke-linecap:square;stroke-width:1.5;"/>
    </g>
    <g id="line2d_20"/>
    <g id="text_19">
     <!-- low noise -->
     <g transform="translate(328.223438 65.836562)scale(0.1 -0.1)">
      <defs>
       <path d="M 9.421875 75.984375 
L 18.40625 75.984375 
L 18.40625 0 
L 9.421875 0 
z
" id="DejaVuSans-108"/>
      </defs>
      <use xlink:href="#DejaVuSans-108"/>
      <use x="27.783203" xlink:href="#DejaVuSans-111"/>
      <use x="88.964844" xlink:href="#DejaVuSans-119"/>
      <use x="170.751953" xlink:href="#DejaVuSans-32"/>
      <use x="202.539062" xlink:href="#DejaVuSans-110"/>
      <use x="265.917969" xlink:href="#DejaVuSans-111"/>
      <use x="327.099609" xlink:href="#DejaVuSans-105"/>
      <use x="354.882812" xlink:href="#DejaVuSans-115"/>
      <use x="406.982422" xlink:href="#DejaVuSans-101"/>
     </g>
    </g>
   </g>
  </g>
 </g>
 <defs>
  <clipPath id="p1ba4430fa5">
   <rect height="217.44" width="334.8" x="54" y="34.56"/>
  </clipPath>
 </defs>
</svg>
