<?xml version="1.0" encoding="utf-8" standalone="no"?>
<!DOCTYPE svg PUBLIC "-//W3C//DTD SVG 1.1//EN"
  "http://www.w3.org/Graphics/SVG/1.1/DTD/svg11.dtd">
<!-- Created with matplotlib (https://matplotlib.org/) -->
<svg height="288pt" version="1.1" viewBox="0 0 432 288" width="432pt" xmlns="http://www.w3.org/2000/svg" xmlns:xlink="http://www.w3.org/1999/xlink">
 <metadata>
  <rdf:RDF xmlns:cc="http://creativecommons.org/ns#" xmlns:dc="http://purl.org/dc/elements/1.1/" xmlns:rdf="http://www.w3.org/1999/02/22-rdf-syntax-ns#">
   <cc:Work>
    <dc:type rdf:resource="http://purl.org/dc/dcmitype/StillImage"/>
    <dc:date>2021-03-13T11:56:44.070846</dc:date>
    <dc:format>image/svg+xml</dc:format>
    <dc:creator>
     <cc:Agent>
      <dc:title>Matplotlib v3.3.1, https://matplotlib.org/</dc:title>
     </cc:Agent>
    </dc:creator>
   </cc:Work>
  </rdf:RDF>
 </metadata>
 <defs>
  <style type="text/css">*{stroke-linecap:butt;stroke-linejoin:round;}</style>
 </defs>
 <g id="figure_1">
  <g id="patch_1">
   <path d="M 0 288 
L 432 288 
L 432 0 
L 0 0 
z
" style="fill:#ffffff;"/>
  </g>
  <g id="axes_1">
   <g id="patch_2">
    <path d="M 54 252 
L 388.8 252 
L 388.8 34.56 
L 54 34.56 
z
" style="fill:#ffffff;"/>
   </g>
   <g id="matplotlib.axis_1">
    <g id="xtick_1">
     <g id="line2d_1">
      <defs>
       <path d="M 0 0 
L 0 3.5 
" id="mbfb15db19d" style="stroke:#000000;stroke-width:0.8;"/>
      </defs>
      <g>
       <use style="stroke:#000000;stroke-width:0.8;" x="69.218182" xlink:href="#mbfb15db19d" y="252"/>
      </g>
     </g>
     <g id="text_1">
      <!-- 0 -->
      <g transform="translate(66.036932 266.598437)scale(0.1 -0.1)">
       <defs>
        <path d="M 31.78125 66.40625 
Q 24.171875 66.40625 20.328125 58.90625 
Q 16.5 51.421875 16.5 36.375 
Q 16.5 21.390625 20.328125 13.890625 
Q 24.171875 6.390625 31.78125 6.390625 
Q 39.453125 6.390625 43.28125 13.890625 
Q 47.125 21.390625 47.125 36.375 
Q 47.125 51.421875 43.28125 58.90625 
Q 39.453125 66.40625 31.78125 66.40625 
z
M 31.78125 74.21875 
Q 44.046875 74.21875 50.515625 64.515625 
Q 56.984375 54.828125 56.984375 36.375 
Q 56.984375 17.96875 50.515625 8.265625 
Q 44.046875 -1.421875 31.78125 -1.421875 
Q 19.53125 -1.421875 13.0625 8.265625 
Q 6.59375 17.96875 6.59375 36.375 
Q 6.59375 54.828125 13.0625 64.515625 
Q 19.53125 74.21875 31.78125 74.21875 
z
" id="DejaVuSans-48"/>
       </defs>
       <use xlink:href="#DejaVuSans-48"/>
      </g>
     </g>
    </g>
    <g id="xtick_2">
     <g id="line2d_2">
      <g>
       <use style="stroke:#000000;stroke-width:0.8;" x="130.151843" xlink:href="#mbfb15db19d" y="252"/>
      </g>
     </g>
     <g id="text_2">
      <!-- 200 -->
      <g transform="translate(120.608093 266.598437)scale(0.1 -0.1)">
       <defs>
        <path d="M 19.1875 8.296875 
L 53.609375 8.296875 
L 53.609375 0 
L 7.328125 0 
L 7.328125 8.296875 
Q 12.9375 14.109375 22.625 23.890625 
Q 32.328125 33.6875 34.8125 36.53125 
Q 39.546875 41.84375 41.421875 45.53125 
Q 43.3125 49.21875 43.3125 52.78125 
Q 43.3125 58.59375 39.234375 62.25 
Q 35.15625 65.921875 28.609375 65.921875 
Q 23.96875 65.921875 18.8125 64.3125 
Q 13.671875 62.703125 7.8125 59.421875 
L 7.8125 69.390625 
Q 13.765625 71.78125 18.9375 73 
Q 24.125 74.21875 28.421875 74.21875 
Q 39.75 74.21875 46.484375 68.546875 
Q 53.21875 62.890625 53.21875 53.421875 
Q 53.21875 48.921875 51.53125 44.890625 
Q 49.859375 40.875 45.40625 35.40625 
Q 44.1875 33.984375 37.640625 27.21875 
Q 31.109375 20.453125 19.1875 8.296875 
z
" id="DejaVuSans-50"/>
       </defs>
       <use xlink:href="#DejaVuSans-50"/>
       <use x="63.623047" xlink:href="#DejaVuSans-48"/>
       <use x="127.246094" xlink:href="#DejaVuSans-48"/>
      </g>
     </g>
    </g>
    <g id="xtick_3">
     <g id="line2d_3">
      <g>
       <use style="stroke:#000000;stroke-width:0.8;" x="191.085504" xlink:href="#mbfb15db19d" y="252"/>
      </g>
     </g>
     <g id="text_3">
      <!-- 400 -->
      <g transform="translate(181.541754 266.598437)scale(0.1 -0.1)">
       <defs>
        <path d="M 37.796875 64.3125 
L 12.890625 25.390625 
L 37.796875 25.390625 
z
M 35.203125 72.90625 
L 47.609375 72.90625 
L 47.609375 25.390625 
L 58.015625 25.390625 
L 58.015625 17.1875 
L 47.609375 17.1875 
L 47.609375 0 
L 37.796875 0 
L 37.796875 17.1875 
L 4.890625 17.1875 
L 4.890625 26.703125 
z
" id="DejaVuSans-52"/>
       </defs>
       <use xlink:href="#DejaVuSans-52"/>
       <use x="63.623047" xlink:href="#DejaVuSans-48"/>
       <use x="127.246094" xlink:href="#DejaVuSans-48"/>
      </g>
     </g>
    </g>
    <g id="xtick_4">
     <g id="line2d_4">
      <g>
       <use style="stroke:#000000;stroke-width:0.8;" x="252.019165" xlink:href="#mbfb15db19d" y="252"/>
      </g>
     </g>
     <g id="text_4">
      <!-- 600 -->
      <g transform="translate(242.475415 266.598437)scale(0.1 -0.1)">
       <defs>
        <path d="M 33.015625 40.375 
Q 26.375 40.375 22.484375 35.828125 
Q 18.609375 31.296875 18.609375 23.390625 
Q 18.609375 15.53125 22.484375 10.953125 
Q 26.375 6.390625 33.015625 6.390625 
Q 39.65625 6.390625 43.53125 10.953125 
Q 47.40625 15.53125 47.40625 23.390625 
Q 47.40625 31.296875 43.53125 35.828125 
Q 39.65625 40.375 33.015625 40.375 
z
M 52.59375 71.296875 
L 52.59375 62.3125 
Q 48.875 64.0625 45.09375 64.984375 
Q 41.3125 65.921875 37.59375 65.921875 
Q 27.828125 65.921875 22.671875 59.328125 
Q 17.53125 52.734375 16.796875 39.40625 
Q 19.671875 43.65625 24.015625 45.921875 
Q 28.375 48.1875 33.59375 48.1875 
Q 44.578125 48.1875 50.953125 41.515625 
Q 57.328125 34.859375 57.328125 23.390625 
Q 57.328125 12.15625 50.6875 5.359375 
Q 44.046875 -1.421875 33.015625 -1.421875 
Q 20.359375 -1.421875 13.671875 8.265625 
Q 6.984375 17.96875 6.984375 36.375 
Q 6.984375 53.65625 15.1875 63.9375 
Q 23.390625 74.21875 37.203125 74.21875 
Q 40.921875 74.21875 44.703125 73.484375 
Q 48.484375 72.75 52.59375 71.296875 
z
" id="DejaVuSans-54"/>
       </defs>
       <use xlink:href="#DejaVuSans-54"/>
       <use x="63.623047" xlink:href="#DejaVuSans-48"/>
       <use x="127.246094" xlink:href="#DejaVuSans-48"/>
      </g>
     </g>
    </g>
    <g id="xtick_5">
     <g id="line2d_5">
      <g>
       <use style="stroke:#000000;stroke-width:0.8;" x="312.952826" xlink:href="#mbfb15db19d" y="252"/>
      </g>
     </g>
     <g id="text_5">
      <!-- 800 -->
      <g transform="translate(303.409076 266.598437)scale(0.1 -0.1)">
       <defs>
        <path d="M 31.78125 34.625 
Q 24.75 34.625 20.71875 30.859375 
Q 16.703125 27.09375 16.703125 20.515625 
Q 16.703125 13.921875 20.71875 10.15625 
Q 24.75 6.390625 31.78125 6.390625 
Q 38.8125 6.390625 42.859375 10.171875 
Q 46.921875 13.96875 46.921875 20.515625 
Q 46.921875 27.09375 42.890625 30.859375 
Q 38.875 34.625 31.78125 34.625 
z
M 21.921875 38.8125 
Q 15.578125 40.375 12.03125 44.71875 
Q 8.5 49.078125 8.5 55.328125 
Q 8.5 64.0625 14.71875 69.140625 
Q 20.953125 74.21875 31.78125 74.21875 
Q 42.671875 74.21875 48.875 69.140625 
Q 55.078125 64.0625 55.078125 55.328125 
Q 55.078125 49.078125 51.53125 44.71875 
Q 48 40.375 41.703125 38.8125 
Q 48.828125 37.15625 52.796875 32.3125 
Q 56.78125 27.484375 56.78125 20.515625 
Q 56.78125 9.90625 50.3125 4.234375 
Q 43.84375 -1.421875 31.78125 -1.421875 
Q 19.734375 -1.421875 13.25 4.234375 
Q 6.78125 9.90625 6.78125 20.515625 
Q 6.78125 27.484375 10.78125 32.3125 
Q 14.796875 37.15625 21.921875 38.8125 
z
M 18.3125 54.390625 
Q 18.3125 48.734375 21.84375 45.5625 
Q 25.390625 42.390625 31.78125 42.390625 
Q 38.140625 42.390625 41.71875 45.5625 
Q 45.3125 48.734375 45.3125 54.390625 
Q 45.3125 60.0625 41.71875 63.234375 
Q 38.140625 66.40625 31.78125 66.40625 
Q 25.390625 66.40625 21.84375 63.234375 
Q 18.3125 60.0625 18.3125 54.390625 
z
" id="DejaVuSans-56"/>
       </defs>
       <use xlink:href="#DejaVuSans-56"/>
       <use x="63.623047" xlink:href="#DejaVuSans-48"/>
       <use x="127.246094" xlink:href="#DejaVuSans-48"/>
      </g>
     </g>
    </g>
    <g id="xtick_6">
     <g id="line2d_6">
      <g>
       <use style="stroke:#000000;stroke-width:0.8;" x="373.886486" xlink:href="#mbfb15db19d" y="252"/>
      </g>
     </g>
     <g id="text_6">
      <!-- 1000 -->
      <g transform="translate(361.161486 266.598437)scale(0.1 -0.1)">
       <defs>
        <path d="M 12.40625 8.296875 
L 28.515625 8.296875 
L 28.515625 63.921875 
L 10.984375 60.40625 
L 10.984375 69.390625 
L 28.421875 72.90625 
L 38.28125 72.90625 
L 38.28125 8.296875 
L 54.390625 8.296875 
L 54.390625 0 
L 12.40625 0 
z
" id="DejaVuSans-49"/>
       </defs>
       <use xlink:href="#DejaVuSans-49"/>
       <use x="63.623047" xlink:href="#DejaVuSans-48"/>
       <use x="127.246094" xlink:href="#DejaVuSans-48"/>
       <use x="190.869141" xlink:href="#DejaVuSans-48"/>
      </g>
     </g>
    </g>
    <g id="text_7">
     <!-- episodes -->
     <g transform="translate(199.240625 280.276563)scale(0.1 -0.1)">
      <defs>
       <path d="M 56.203125 29.59375 
L 56.203125 25.203125 
L 14.890625 25.203125 
Q 15.484375 15.921875 20.484375 11.0625 
Q 25.484375 6.203125 34.421875 6.203125 
Q 39.59375 6.203125 44.453125 7.46875 
Q 49.3125 8.734375 54.109375 11.28125 
L 54.109375 2.78125 
Q 49.265625 0.734375 44.1875 -0.34375 
Q 39.109375 -1.421875 33.890625 -1.421875 
Q 20.796875 -1.421875 13.15625 6.1875 
Q 5.515625 13.8125 5.515625 26.8125 
Q 5.515625 40.234375 12.765625 48.109375 
Q 20.015625 56 32.328125 56 
Q 43.359375 56 49.78125 48.890625 
Q 56.203125 41.796875 56.203125 29.59375 
z
M 47.21875 32.234375 
Q 47.125 39.59375 43.09375 43.984375 
Q 39.0625 48.390625 32.421875 48.390625 
Q 24.90625 48.390625 20.390625 44.140625 
Q 15.875 39.890625 15.1875 32.171875 
z
" id="DejaVuSans-101"/>
       <path d="M 18.109375 8.203125 
L 18.109375 -20.796875 
L 9.078125 -20.796875 
L 9.078125 54.6875 
L 18.109375 54.6875 
L 18.109375 46.390625 
Q 20.953125 51.265625 25.265625 53.625 
Q 29.59375 56 35.59375 56 
Q 45.5625 56 51.78125 48.09375 
Q 58.015625 40.1875 58.015625 27.296875 
Q 58.015625 14.40625 51.78125 6.484375 
Q 45.5625 -1.421875 35.59375 -1.421875 
Q 29.59375 -1.421875 25.265625 0.953125 
Q 20.953125 3.328125 18.109375 8.203125 
z
M 48.6875 27.296875 
Q 48.6875 37.203125 44.609375 42.84375 
Q 40.53125 48.484375 33.40625 48.484375 
Q 26.265625 48.484375 22.1875 42.84375 
Q 18.109375 37.203125 18.109375 27.296875 
Q 18.109375 17.390625 22.1875 11.75 
Q 26.265625 6.109375 33.40625 6.109375 
Q 40.53125 6.109375 44.609375 11.75 
Q 48.6875 17.390625 48.6875 27.296875 
z
" id="DejaVuSans-112"/>
       <path d="M 9.421875 54.6875 
L 18.40625 54.6875 
L 18.40625 0 
L 9.421875 0 
z
M 9.421875 75.984375 
L 18.40625 75.984375 
L 18.40625 64.59375 
L 9.421875 64.59375 
z
" id="DejaVuSans-105"/>
       <path d="M 44.28125 53.078125 
L 44.28125 44.578125 
Q 40.484375 46.53125 36.375 47.5 
Q 32.28125 48.484375 27.875 48.484375 
Q 21.1875 48.484375 17.84375 46.4375 
Q 14.5 44.390625 14.5 40.28125 
Q 14.5 37.15625 16.890625 35.375 
Q 19.28125 33.59375 26.515625 31.984375 
L 29.59375 31.296875 
Q 39.15625 29.25 43.1875 25.515625 
Q 47.21875 21.78125 47.21875 15.09375 
Q 47.21875 7.46875 41.1875 3.015625 
Q 35.15625 -1.421875 24.609375 -1.421875 
Q 20.21875 -1.421875 15.453125 -0.5625 
Q 10.6875 0.296875 5.421875 2 
L 5.421875 11.28125 
Q 10.40625 8.6875 15.234375 7.390625 
Q 20.0625 6.109375 24.8125 6.109375 
Q 31.15625 6.109375 34.5625 8.28125 
Q 37.984375 10.453125 37.984375 14.40625 
Q 37.984375 18.0625 35.515625 20.015625 
Q 33.0625 21.96875 24.703125 23.78125 
L 21.578125 24.515625 
Q 13.234375 26.265625 9.515625 29.90625 
Q 5.8125 33.546875 5.8125 39.890625 
Q 5.8125 47.609375 11.28125 51.796875 
Q 16.75 56 26.8125 56 
Q 31.78125 56 36.171875 55.265625 
Q 40.578125 54.546875 44.28125 53.078125 
z
" id="DejaVuSans-115"/>
       <path d="M 30.609375 48.390625 
Q 23.390625 48.390625 19.1875 42.75 
Q 14.984375 37.109375 14.984375 27.296875 
Q 14.984375 17.484375 19.15625 11.84375 
Q 23.34375 6.203125 30.609375 6.203125 
Q 37.796875 6.203125 41.984375 11.859375 
Q 46.1875 17.53125 46.1875 27.296875 
Q 46.1875 37.015625 41.984375 42.703125 
Q 37.796875 48.390625 30.609375 48.390625 
z
M 30.609375 56 
Q 42.328125 56 49.015625 48.375 
Q 55.71875 40.765625 55.71875 27.296875 
Q 55.71875 13.875 49.015625 6.21875 
Q 42.328125 -1.421875 30.609375 -1.421875 
Q 18.84375 -1.421875 12.171875 6.21875 
Q 5.515625 13.875 5.515625 27.296875 
Q 5.515625 40.765625 12.171875 48.375 
Q 18.84375 56 30.609375 56 
z
" id="DejaVuSans-111"/>
       <path d="M 45.40625 46.390625 
L 45.40625 75.984375 
L 54.390625 75.984375 
L 54.390625 0 
L 45.40625 0 
L 45.40625 8.203125 
Q 42.578125 3.328125 38.25 0.953125 
Q 33.9375 -1.421875 27.875 -1.421875 
Q 17.96875 -1.421875 11.734375 6.484375 
Q 5.515625 14.40625 5.515625 27.296875 
Q 5.515625 40.1875 11.734375 48.09375 
Q 17.96875 56 27.875 56 
Q 33.9375 56 38.25 53.625 
Q 42.578125 51.265625 45.40625 46.390625 
z
M 14.796875 27.296875 
Q 14.796875 17.390625 18.875 11.75 
Q 22.953125 6.109375 30.078125 6.109375 
Q 37.203125 6.109375 41.296875 11.75 
Q 45.40625 17.390625 45.40625 27.296875 
Q 45.40625 37.203125 41.296875 42.84375 
Q 37.203125 48.484375 30.078125 48.484375 
Q 22.953125 48.484375 18.875 42.84375 
Q 14.796875 37.203125 14.796875 27.296875 
z
" id="DejaVuSans-100"/>
      </defs>
      <use xlink:href="#DejaVuSans-101"/>
      <use x="61.523438" xlink:href="#DejaVuSans-112"/>
      <use x="125" xlink:href="#DejaVuSans-105"/>
      <use x="152.783203" xlink:href="#DejaVuSans-115"/>
      <use x="204.882812" xlink:href="#DejaVuSans-111"/>
      <use x="266.064453" xlink:href="#DejaVuSans-100"/>
      <use x="329.541016" xlink:href="#DejaVuSans-101"/>
      <use x="391.064453" xlink:href="#DejaVuSans-115"/>
     </g>
    </g>
   </g>
   <g id="matplotlib.axis_2">
    <g id="ytick_1">
     <g id="line2d_7">
      <defs>
       <path d="M 0 0 
L -3.5 0 
" id="mc2e0791f38" style="stroke:#000000;stroke-width:0.8;"/>
      </defs>
      <g>
       <use style="stroke:#000000;stroke-width:0.8;" x="54" xlink:href="#mc2e0791f38" y="245.941094"/>
      </g>
     </g>
     <g id="text_8">
      <!-- −25 -->
      <g transform="translate(25.895312 249.740312)scale(0.1 -0.1)">
       <defs>
        <path d="M 10.59375 35.5 
L 73.1875 35.5 
L 73.1875 27.203125 
L 10.59375 27.203125 
z
" id="DejaVuSans-8722"/>
        <path d="M 10.796875 72.90625 
L 49.515625 72.90625 
L 49.515625 64.59375 
L 19.828125 64.59375 
L 19.828125 46.734375 
Q 21.96875 47.46875 24.109375 47.828125 
Q 26.265625 48.1875 28.421875 48.1875 
Q 40.625 48.1875 47.75 41.5 
Q 54.890625 34.8125 54.890625 23.390625 
Q 54.890625 11.625 47.5625 5.09375 
Q 40.234375 -1.421875 26.90625 -1.421875 
Q 22.3125 -1.421875 17.546875 -0.640625 
Q 12.796875 0.140625 7.71875 1.703125 
L 7.71875 11.625 
Q 12.109375 9.234375 16.796875 8.0625 
Q 21.484375 6.890625 26.703125 6.890625 
Q 35.15625 6.890625 40.078125 11.328125 
Q 45.015625 15.765625 45.015625 23.390625 
Q 45.015625 31 40.078125 35.4375 
Q 35.15625 39.890625 26.703125 39.890625 
Q 22.75 39.890625 18.8125 39.015625 
Q 14.890625 38.140625 10.796875 36.28125 
z
" id="DejaVuSans-53"/>
       </defs>
       <use xlink:href="#DejaVuSans-8722"/>
       <use x="83.789062" xlink:href="#DejaVuSans-50"/>
       <use x="147.412109" xlink:href="#DejaVuSans-53"/>
      </g>
     </g>
    </g>
    <g id="ytick_2">
     <g id="line2d_8">
      <g>
       <use style="stroke:#000000;stroke-width:0.8;" x="54" xlink:href="#mc2e0791f38" y="213.276283"/>
      </g>
     </g>
     <g id="text_9">
      <!-- −20 -->
      <g transform="translate(25.895312 217.075502)scale(0.1 -0.1)">
       <use xlink:href="#DejaVuSans-8722"/>
       <use x="83.789062" xlink:href="#DejaVuSans-50"/>
       <use x="147.412109" xlink:href="#DejaVuSans-48"/>
      </g>
     </g>
    </g>
    <g id="ytick_3">
     <g id="line2d_9">
      <g>
       <use style="stroke:#000000;stroke-width:0.8;" x="54" xlink:href="#mc2e0791f38" y="180.611473"/>
      </g>
     </g>
     <g id="text_10">
      <!-- −15 -->
      <g transform="translate(25.895312 184.410692)scale(0.1 -0.1)">
       <use xlink:href="#DejaVuSans-8722"/>
       <use x="83.789062" xlink:href="#DejaVuSans-49"/>
       <use x="147.412109" xlink:href="#DejaVuSans-53"/>
      </g>
     </g>
    </g>
    <g id="ytick_4">
     <g id="line2d_10">
      <g>
       <use style="stroke:#000000;stroke-width:0.8;" x="54" xlink:href="#mc2e0791f38" y="147.946662"/>
      </g>
     </g>
     <g id="text_11">
      <!-- −10 -->
      <g transform="translate(25.895312 151.745881)scale(0.1 -0.1)">
       <use xlink:href="#DejaVuSans-8722"/>
       <use x="83.789062" xlink:href="#DejaVuSans-49"/>
       <use x="147.412109" xlink:href="#DejaVuSans-48"/>
      </g>
     </g>
    </g>
    <g id="ytick_5">
     <g id="line2d_11">
      <g>
       <use style="stroke:#000000;stroke-width:0.8;" x="54" xlink:href="#mc2e0791f38" y="115.281852"/>
      </g>
     </g>
     <g id="text_12">
      <!-- −5 -->
      <g transform="translate(32.257812 119.081071)scale(0.1 -0.1)">
       <use xlink:href="#DejaVuSans-8722"/>
       <use x="83.789062" xlink:href="#DejaVuSans-53"/>
      </g>
     </g>
    </g>
    <g id="ytick_6">
     <g id="line2d_12">
      <g>
       <use style="stroke:#000000;stroke-width:0.8;" x="54" xlink:href="#mc2e0791f38" y="82.617042"/>
      </g>
     </g>
     <g id="text_13">
      <!-- 0 -->
      <g transform="translate(40.6375 86.41626)scale(0.1 -0.1)">
       <use xlink:href="#DejaVuSans-48"/>
      </g>
     </g>
    </g>
    <g id="ytick_7">
     <g id="line2d_13">
      <g>
       <use style="stroke:#000000;stroke-width:0.8;" x="54" xlink:href="#mc2e0791f38" y="49.952231"/>
      </g>
     </g>
     <g id="text_14">
      <!-- 5 -->
      <g transform="translate(40.6375 53.75145)scale(0.1 -0.1)">
       <use xlink:href="#DejaVuSans-53"/>
      </g>
     </g>
    </g>
    <g id="text_15">
     <!-- reward -->
     <g transform="translate(19.815625 160.594844)rotate(-90)scale(0.1 -0.1)">
      <defs>
       <path d="M 41.109375 46.296875 
Q 39.59375 47.171875 37.8125 47.578125 
Q 36.03125 48 33.890625 48 
Q 26.265625 48 22.1875 43.046875 
Q 18.109375 38.09375 18.109375 28.8125 
L 18.109375 0 
L 9.078125 0 
L 9.078125 54.6875 
L 18.109375 54.6875 
L 18.109375 46.1875 
Q 20.953125 51.171875 25.484375 53.578125 
Q 30.03125 56 36.53125 56 
Q 37.453125 56 38.578125 55.875 
Q 39.703125 55.765625 41.0625 55.515625 
z
" id="DejaVuSans-114"/>
       <path d="M 4.203125 54.6875 
L 13.1875 54.6875 
L 24.421875 12.015625 
L 35.59375 54.6875 
L 46.1875 54.6875 
L 57.421875 12.015625 
L 68.609375 54.6875 
L 77.59375 54.6875 
L 63.28125 0 
L 52.6875 0 
L 40.921875 44.828125 
L 29.109375 0 
L 18.5 0 
z
" id="DejaVuSans-119"/>
       <path d="M 34.28125 27.484375 
Q 23.390625 27.484375 19.1875 25 
Q 14.984375 22.515625 14.984375 16.5 
Q 14.984375 11.71875 18.140625 8.90625 
Q 21.296875 6.109375 26.703125 6.109375 
Q 34.1875 6.109375 38.703125 11.40625 
Q 43.21875 16.703125 43.21875 25.484375 
L 43.21875 27.484375 
z
M 52.203125 31.203125 
L 52.203125 0 
L 43.21875 0 
L 43.21875 8.296875 
Q 40.140625 3.328125 35.546875 0.953125 
Q 30.953125 -1.421875 24.3125 -1.421875 
Q 15.921875 -1.421875 10.953125 3.296875 
Q 6 8.015625 6 15.921875 
Q 6 25.140625 12.171875 29.828125 
Q 18.359375 34.515625 30.609375 34.515625 
L 43.21875 34.515625 
L 43.21875 35.40625 
Q 43.21875 41.609375 39.140625 45 
Q 35.0625 48.390625 27.6875 48.390625 
Q 23 48.390625 18.546875 47.265625 
Q 14.109375 46.140625 10.015625 43.890625 
L 10.015625 52.203125 
Q 14.9375 54.109375 19.578125 55.046875 
Q 24.21875 56 28.609375 56 
Q 40.484375 56 46.34375 49.84375 
Q 52.203125 43.703125 52.203125 31.203125 
z
" id="DejaVuSans-97"/>
      </defs>
      <use xlink:href="#DejaVuSans-114"/>
      <use x="38.863281" xlink:href="#DejaVuSans-101"/>
      <use x="100.386719" xlink:href="#DejaVuSans-119"/>
      <use x="182.173828" xlink:href="#DejaVuSans-97"/>
      <use x="243.453125" xlink:href="#DejaVuSans-114"/>
      <use x="282.816406" xlink:href="#DejaVuSans-100"/>
     </g>
    </g>
   </g>
   <g id="line2d_14">
    <path clip-path="url(#p396c864f63)" d="M 69.218182 224.614914 
L 69.827518 240.64551 
L 70.132187 242.116364 
L 70.436855 222.507571 
L 70.741523 223.797745 
L 71.046192 222.194622 
L 71.35086 223.594625 
L 71.655528 221.521885 
L 71.960197 218.213623 
L 72.569533 216.463689 
L 72.874201 209.916983 
L 73.17887 207.348185 
L 73.483538 207.194571 
L 73.788206 207.567754 
L 74.092875 207.386988 
L 74.397543 205.806531 
L 74.702211 201.923223 
L 75.00688 199.835842 
L 75.311548 192.844727 
L 75.920885 193.333496 
L 76.834889 172.818086 
L 77.139558 169.329289 
L 77.444226 169.406165 
L 77.748894 165.945186 
L 78.358231 162.726522 
L 78.967568 153.324337 
L 79.272236 152.785377 
L 79.576904 153.216259 
L 79.881572 146.812427 
L 80.186241 145.144857 
L 80.490909 142.73816 
L 80.795577 132.962093 
L 81.100246 133.630659 
L 81.404914 131.450845 
L 81.709582 131.836349 
L 82.014251 132.602133 
L 82.318919 131.594336 
L 82.623587 132.195219 
L 82.928256 130.379779 
L 83.537592 129.151484 
L 83.84226 128.786948 
L 84.146929 127.450059 
L 84.451597 128.683201 
L 84.756265 131.666393 
L 85.060934 130.982896 
L 85.365602 130.820107 
L 85.67027 132.585689 
L 85.974939 133.143184 
L 86.279607 133.087562 
L 86.584275 131.852474 
L 87.49828 143.551478 
L 88.107617 155.73456 
L 88.412285 159.628472 
L 88.716953 159.44226 
L 89.32629 169.124249 
L 89.630958 169.124318 
L 89.935627 168.744175 
L 90.240295 174.65127 
L 90.544963 176.899412 
L 90.849631 180.449404 
L 91.1543 178.921692 
L 91.763636 182.933961 
L 92.068305 184.274439 
L 92.372973 183.753759 
L 92.677641 186.392517 
L 93.286978 180.08055 
L 93.591646 175.847522 
L 93.896314 175.639841 
L 94.200983 169.377823 
L 94.505651 170.482895 
L 95.114988 135.491272 
L 95.419656 135.389911 
L 95.724324 132.886301 
L 96.333661 121.965146 
L 96.638329 121.155961 
L 96.942998 121.172478 
L 97.247666 123.767589 
L 97.552334 123.668259 
L 97.857002 121.584065 
L 98.161671 120.694369 
L 98.771007 123.836892 
L 99.685012 118.953151 
L 100.294349 119.512182 
L 100.599017 124.054408 
L 100.903686 125.047287 
L 101.208354 123.695928 
L 101.81769 130.871071 
L 102.122359 130.212557 
L 102.427027 131.634425 
L 102.731695 131.255674 
L 103.036364 127.024535 
L 103.341032 126.68368 
L 103.950369 128.200713 
L 104.255037 128.253932 
L 104.559705 128.737081 
L 104.864373 127.901885 
L 105.169042 126.254016 
L 105.47371 127.890387 
L 105.778378 123.482138 
L 106.083047 122.453307 
L 106.387715 122.68766 
L 106.692383 122.58524 
L 106.997052 120.488791 
L 107.30172 120.880257 
L 107.606388 121.469181 
L 107.911057 120.934212 
L 108.215725 123.943867 
L 108.825061 119.990524 
L 109.434398 111.515665 
L 109.739066 110.867497 
L 110.043735 108.929111 
L 110.653071 109.94499 
L 110.95774 107.794947 
L 111.262408 109.012246 
L 111.567076 109.368458 
L 111.871744 109.220432 
L 112.176413 108.422532 
L 112.481081 105.025862 
L 113.090418 108.857453 
L 113.395086 109.134899 
L 113.699754 109.032902 
L 114.004423 106.034073 
L 114.613759 105.906452 
L 114.918428 105.701878 
L 115.223096 105.305588 
L 115.832432 107.810607 
L 116.137101 107.573794 
L 116.746437 109.001003 
L 117.051106 112.525298 
L 117.355774 111.103069 
L 117.660442 107.456459 
L 117.965111 108.418203 
L 118.269779 110.707138 
L 118.879115 113.046146 
L 119.183784 111.781893 
L 119.488452 113.647197 
L 119.79312 112.681891 
L 120.707125 107.961171 
L 121.011794 109.573214 
L 121.316462 109.842716 
L 121.925799 106.215612 
L 122.230467 108.952743 
L 122.535135 108.728979 
L 122.839803 110.39547 
L 123.44914 110.606839 
L 124.058477 106.105607 
L 124.363145 107.99894 
L 124.667813 108.729293 
L 124.972482 108.970502 
L 125.581818 111.083917 
L 125.886486 110.505276 
L 126.191155 109.631954 
L 126.495823 106.992383 
L 126.800491 107.350481 
L 127.10516 108.952815 
L 127.409828 107.53071 
L 127.714496 105.189665 
L 128.019165 104.90774 
L 128.323833 105.587505 
L 128.628501 104.030756 
L 128.93317 105.545321 
L 129.237838 104.504713 
L 129.542506 104.585558 
L 129.847174 103.867074 
L 130.456511 105.009755 
L 130.761179 105.910466 
L 131.065848 107.733664 
L 131.370516 107.378585 
L 131.675184 108.443114 
L 131.979853 108.960596 
L 132.284521 112.874762 
L 132.589189 111.338185 
L 132.893857 110.73377 
L 133.198526 112.087241 
L 133.503194 110.732337 
L 133.807862 102.078428 
L 134.112531 103.170053 
L 134.417199 101.318999 
L 135.026536 94.976169 
L 135.331204 96.823004 
L 136.245209 98.525505 
L 136.549877 101.074685 
L 136.854545 101.893799 
L 137.159214 98.197764 
L 137.463882 97.402691 
L 137.76855 95.929873 
L 138.073219 95.053304 
L 138.377887 94.98297 
L 138.682555 94.088691 
L 138.987224 93.553871 
L 139.901229 93.857412 
L 140.205897 95.686798 
L 140.510565 95.141529 
L 140.815233 92.958978 
L 141.119902 95.555724 
L 141.42457 95.856331 
L 141.729238 99.849979 
L 142.033907 99.496349 
L 142.338575 99.463489 
L 142.947912 96.900844 
L 143.25258 96.90059 
L 143.861916 94.644145 
L 144.166585 96.07413 
L 144.775921 95.952623 
L 145.08059 97.610919 
L 145.689926 94.674749 
L 145.994595 94.621708 
L 146.299263 95.653374 
L 146.603931 95.652979 
L 146.9086 86.11101 
L 147.213268 86.223545 
L 147.822604 90.003417 
L 148.127273 89.968898 
L 148.431941 85.74622 
L 148.736609 85.878911 
L 149.041278 86.62993 
L 149.650614 82.431988 
L 149.955283 83.635076 
L 150.259951 80.824022 
L 150.564619 79.502539 
L 150.869287 80.887928 
L 151.173956 81.218223 
L 151.478624 78.622587 
L 151.783292 74.837764 
L 152.697297 77.274081 
L 153.001966 75.269885 
L 153.306634 74.187639 
L 153.611302 76.325637 
L 153.915971 76.995954 
L 154.220639 76.624031 
L 154.525307 77.894829 
L 155.134644 76.211417 
L 155.439312 79.875144 
L 156.048649 74.696452 
L 156.353317 74.318201 
L 156.657985 74.434722 
L 156.962654 78.74358 
L 157.267322 77.904924 
L 157.57199 79.020462 
L 157.876658 77.828211 
L 158.181327 78.524433 
L 158.485995 82.9142 
L 159.095332 86.823647 
L 159.4 87.469954 
L 159.704668 87.431991 
L 160.009337 86.554382 
L 160.314005 86.32778 
L 160.618673 86.640285 
L 161.22801 84.673507 
L 161.532678 84.658969 
L 162.142015 82.511276 
L 162.446683 85.66211 
L 163.05602 85.465186 
L 163.665356 86.465351 
L 163.970025 84.085318 
L 164.274693 83.199749 
L 164.579361 85.35535 
L 164.884029 85.001136 
L 165.798034 80.694172 
L 166.102703 80.965089 
L 166.407371 79.751135 
L 167.016708 84.278759 
L 167.321376 83.972953 
L 167.626044 83.237879 
L 167.930713 83.683347 
L 168.235381 82.940455 
L 168.540049 83.338572 
L 168.844717 82.723043 
L 169.149386 80.877166 
L 169.758722 85.87834 
L 170.063391 84.990213 
L 170.368059 88.383905 
L 170.672727 88.049414 
L 170.977396 89.616476 
L 171.282064 88.091253 
L 171.8914 86.921305 
L 172.196069 87.655862 
L 172.500737 89.129391 
L 172.805405 86.690296 
L 173.110074 87.019224 
L 173.414742 86.245022 
L 173.71941 86.262931 
L 174.024079 84.895665 
L 174.328747 86.252293 
L 174.633415 86.544856 
L 174.938084 86.669538 
L 175.242752 86.465762 
L 175.54742 86.766501 
L 175.852088 85.914246 
L 176.156757 81.927104 
L 176.461425 82.813024 
L 176.766093 82.678479 
L 177.070762 79.327659 
L 177.37543 80.214799 
L 177.680098 79.090071 
L 178.594103 79.492402 
L 178.898771 78.190232 
L 179.20344 78.631119 
L 179.508108 77.194471 
L 179.812776 77.652002 
L 180.422113 77.701801 
L 180.726781 77.110227 
L 181.03145 77.678308 
L 181.640786 76.49148 
L 181.945455 76.330216 
L 182.250123 75.298428 
L 182.554791 75.279729 
L 182.859459 76.805036 
L 183.164128 76.655186 
L 183.468796 75.623602 
L 183.773464 73.099107 
L 184.078133 73.22354 
L 184.382801 72.103211 
L 184.687469 72.045905 
L 184.992138 71.836314 
L 185.296806 71.871034 
L 185.601474 71.335282 
L 185.906143 73.449377 
L 186.515479 71.004557 
L 186.820147 75.2671 
L 187.734152 77.450827 
L 188.038821 75.455057 
L 188.343489 75.666238 
L 188.648157 76.261653 
L 188.952826 78.900425 
L 189.257494 80.372554 
L 189.562162 79.072095 
L 189.86683 79.508502 
L 190.171499 77.39648 
L 190.476167 77.444712 
L 190.780835 78.007348 
L 191.390172 78.207209 
L 191.69484 79.19277 
L 192.304177 83.181419 
L 192.608845 84.677805 
L 192.913514 82.534991 
L 193.52285 85.006845 
L 193.827518 82.662845 
L 194.132187 82.542852 
L 194.436855 83.34859 
L 194.741523 82.783838 
L 195.046192 83.249551 
L 195.35086 85.508589 
L 195.655528 84.395589 
L 195.960197 85.543057 
L 196.569533 84.088004 
L 197.17887 85.854794 
L 197.483538 87.367492 
L 197.788206 87.139423 
L 198.092875 87.428796 
L 198.397543 87.872302 
L 199.311548 82.025123 
L 199.616216 83.822673 
L 199.920885 81.691902 
L 200.225553 81.612286 
L 200.530221 83.59044 
L 200.834889 82.647106 
L 201.139558 80.345284 
L 201.444226 76.011472 
L 202.053563 77.922301 
L 202.358231 77.760733 
L 202.967568 75.826588 
L 203.272236 72.467556 
L 203.576904 73.184832 
L 203.881572 71.811819 
L 204.186241 71.777703 
L 204.490909 72.440674 
L 204.795577 72.621155 
L 205.100246 68.310942 
L 205.404914 67.69731 
L 205.709582 67.487445 
L 206.014251 67.445253 
L 206.318919 67.624261 
L 206.623587 65.800192 
L 206.928256 66.558498 
L 207.232924 65.926493 
L 207.537592 66.037798 
L 207.84226 65.960942 
L 208.146929 66.432734 
L 208.451597 67.325844 
L 208.756265 67.419157 
L 209.060934 69.446208 
L 209.365602 69.977573 
L 209.67027 68.352001 
L 210.279607 66.960327 
L 210.584275 67.246172 
L 210.888943 69.199006 
L 211.193612 70.225841 
L 211.49828 70.656169 
L 211.802948 71.414216 
L 212.107617 68.414824 
L 212.412285 68.6952 
L 212.716953 69.534215 
L 213.021622 69.537596 
L 213.32629 67.874435 
L 213.935627 66.224919 
L 214.240295 66.740314 
L 214.544963 64.912791 
L 214.849631 64.856894 
L 215.1543 64.514692 
L 215.458968 65.224644 
L 215.763636 64.262509 
L 216.068305 64.388704 
L 216.677641 66.120941 
L 216.98231 67.660621 
L 217.286978 72.097896 
L 217.591646 71.057534 
L 217.896314 71.502459 
L 218.200983 70.438668 
L 219.114988 73.321736 
L 219.419656 72.792566 
L 220.028993 74.907229 
L 220.333661 74.561668 
L 220.638329 74.028317 
L 220.942998 75.406109 
L 221.247666 74.034417 
L 221.552334 76.36653 
L 221.857002 76.51773 
L 222.161671 78.304829 
L 222.466339 77.959372 
L 222.771007 78.013049 
L 223.075676 75.889546 
L 223.380344 72.726307 
L 223.685012 73.29067 
L 223.989681 73.139279 
L 224.294349 73.667221 
L 224.599017 71.802372 
L 224.903686 71.18186 
L 225.208354 71.083257 
L 225.513022 71.630332 
L 225.81769 70.662759 
L 226.122359 71.676514 
L 226.427027 71.501276 
L 226.731695 71.176478 
L 227.6457 73.051501 
L 227.950369 74.693417 
L 228.255037 73.318195 
L 228.559705 75.043958 
L 228.864373 75.231518 
L 229.169042 75.73992 
L 229.778378 73.471415 
L 230.083047 73.45022 
L 230.387715 72.435492 
L 230.692383 75.292046 
L 230.997052 76.742502 
L 231.30172 76.711234 
L 231.606388 75.876154 
L 232.215725 76.084998 
L 232.520393 75.376427 
L 232.825061 73.856492 
L 233.12973 75.631343 
L 233.434398 75.680185 
L 233.739066 75.170084 
L 234.043735 75.23902 
L 234.348403 74.392887 
L 234.653071 76.623967 
L 234.95774 76.43874 
L 235.871744 74.624284 
L 236.176413 75.015065 
L 236.481081 72.472931 
L 236.785749 73.339604 
L 237.090418 71.888111 
L 237.395086 71.827705 
L 237.699754 68.976654 
L 238.004423 68.102646 
L 238.309091 68.904386 
L 238.613759 71.283525 
L 238.918428 70.946642 
L 239.223096 70.942851 
L 239.832432 72.78728 
L 240.137101 72.688863 
L 240.441769 73.300844 
L 240.746437 72.2332 
L 241.051106 72.269999 
L 241.355774 68.349126 
L 241.660442 68.41908 
L 241.965111 66.402115 
L 242.269779 67.118817 
L 242.574447 67.243493 
L 242.879115 67.669948 
L 243.488452 69.938212 
L 243.79312 69.578617 
L 244.097789 69.860341 
L 244.402457 69.056153 
L 244.707125 66.582173 
L 245.011794 66.597964 
L 245.316462 66.305461 
L 245.62113 66.542972 
L 245.925799 67.365678 
L 246.230467 66.662624 
L 246.535135 67.589636 
L 246.839803 67.684116 
L 247.144472 66.095283 
L 247.44914 66.456081 
L 247.753808 65.044917 
L 248.058477 65.800387 
L 248.363145 63.554067 
L 248.972482 63.645335 
L 249.27715 63.615525 
L 249.581818 64.162718 
L 249.886486 63.716685 
L 250.191155 64.274223 
L 250.495823 63.120138 
L 250.800491 62.581677 
L 251.10516 63.528211 
L 251.714496 64.633621 
L 252.019165 68.372189 
L 252.323833 67.822784 
L 252.628501 69.381228 
L 252.93317 68.490278 
L 253.237838 66.091126 
L 253.542506 64.851517 
L 254.151843 65.187749 
L 254.456511 63.510201 
L 254.761179 64.209656 
L 255.065848 64.187504 
L 255.370516 63.332414 
L 255.675184 64.05852 
L 255.979853 64.202961 
L 256.284521 64.149307 
L 256.589189 64.956554 
L 256.893857 65.284589 
L 257.198526 65.32829 
L 257.503194 66.233272 
L 257.807862 65.995431 
L 258.112531 65.906492 
L 258.417199 66.762952 
L 258.721867 64.527786 
L 259.026536 64.544203 
L 259.331204 64.178834 
L 259.635872 64.160529 
L 259.940541 63.246818 
L 260.245209 61.209748 
L 260.549877 61.010331 
L 260.854545 61.720534 
L 261.159214 61.729265 
L 261.463882 62.485641 
L 261.76855 60.890932 
L 262.073219 60.540922 
L 262.377887 60.536769 
L 262.682555 60.733189 
L 263.291892 62.201049 
L 263.59656 59.799368 
L 263.901229 59.724987 
L 264.205897 60.045942 
L 264.815233 56.962211 
L 265.119902 61.225001 
L 265.42457 61.248979 
L 265.729238 60.720743 
L 266.338575 62.103031 
L 266.643243 62.535701 
L 267.25258 60.574552 
L 267.861916 58.570137 
L 268.166585 59.170982 
L 268.471253 60.564229 
L 269.08059 60.833437 
L 269.689926 62.10412 
L 269.994595 62.040812 
L 270.299263 59.755191 
L 270.603931 59.013656 
L 270.9086 58.835509 
L 271.213268 58.799224 
L 271.517936 57.27985 
L 271.822604 58.752972 
L 272.127273 59.536981 
L 272.431941 59.23494 
L 273.041278 57.93834 
L 273.345946 58.736681 
L 273.650614 58.959684 
L 274.259951 53.338191 
L 274.564619 53.308927 
L 274.869287 51.372451 
L 275.173956 52.613163 
L 275.478624 52.360374 
L 276.087961 53.785883 
L 276.392629 52.473579 
L 277.306634 55.034984 
L 277.611302 55.221953 
L 277.915971 53.146824 
L 278.220639 53.224466 
L 278.525307 54.09172 
L 278.829975 54.104832 
L 279.134644 54.263842 
L 279.439312 54.134258 
L 279.74398 55.204025 
L 280.048649 55.254198 
L 280.353317 56.172164 
L 280.657985 56.526896 
L 281.267322 59.12554 
L 281.57199 59.504049 
L 281.876658 59.334441 
L 282.181327 59.93814 
L 282.485995 59.079764 
L 282.790663 59.066229 
L 283.095332 59.932321 
L 283.4 59.852347 
L 283.704668 61.967067 
L 284.009337 63.060433 
L 284.314005 63.246849 
L 284.923342 61.587179 
L 285.22801 62.075888 
L 285.532678 58.921531 
L 285.837346 58.769395 
L 286.142015 59.700869 
L 286.751351 61.862288 
L 287.05602 62.2686 
L 287.665356 61.909251 
L 288.274693 58.98449 
L 288.579361 58.898414 
L 288.884029 59.643798 
L 289.188698 59.620699 
L 289.493366 60.218693 
L 289.798034 60.456741 
L 290.102703 61.135772 
L 290.407371 61.041154 
L 290.712039 60.197849 
L 291.016708 60.885022 
L 291.321376 60.306486 
L 291.626044 60.231228 
L 291.930713 58.654976 
L 292.235381 56.094285 
L 292.540049 54.814786 
L 292.844717 54.123837 
L 293.149386 54.087627 
L 293.454054 52.010052 
L 293.758722 51.333985 
L 294.063391 52.793322 
L 294.368059 52.231995 
L 294.672727 52.362474 
L 294.977396 52.02517 
L 295.282064 50.400998 
L 295.586732 50.446782 
L 295.8914 50.968321 
L 296.196069 51.721673 
L 296.500737 48.997099 
L 296.805405 50.63094 
L 297.110074 50.657145 
L 297.414742 49.752684 
L 297.71941 53.754719 
L 298.024079 55.209143 
L 298.328747 55.464882 
L 298.633415 54.051513 
L 298.938084 55.594217 
L 299.242752 53.513313 
L 299.54742 52.67779 
L 299.852088 52.809016 
L 300.156757 52.571971 
L 300.461425 52.542246 
L 300.766093 53.48999 
L 301.070762 51.917981 
L 301.37543 53.710989 
L 301.680098 53.056201 
L 301.984767 53.768295 
L 302.594103 53.930327 
L 302.898771 53.840467 
L 303.20344 55.253662 
L 303.508108 53.504101 
L 303.812776 54.149541 
L 304.117445 53.572031 
L 304.422113 55.104894 
L 304.726781 54.288664 
L 305.03145 56.052065 
L 305.336118 56.145398 
L 305.640786 54.647511 
L 305.945455 58.633409 
L 306.250123 60.317255 
L 306.554791 59.216169 
L 306.859459 62.019133 
L 307.164128 62.027058 
L 307.468796 60.403037 
L 307.773464 61.93958 
L 308.078133 61.180346 
L 308.382801 61.887642 
L 308.687469 61.485681 
L 309.296806 63.103005 
L 309.601474 63.316276 
L 309.906143 62.791873 
L 310.210811 61.295901 
L 310.515479 63.580974 
L 310.820147 64.180493 
L 311.124816 64.277977 
L 311.429484 64.774837 
L 311.734152 63.461471 
L 312.038821 62.769832 
L 312.343489 62.857275 
L 312.648157 62.767138 
L 312.952826 61.880901 
L 313.257494 62.349413 
L 313.562162 63.783466 
L 313.86683 62.034863 
L 314.171499 64.199295 
L 314.476167 64.363901 
L 314.780835 65.971376 
L 315.085504 63.976919 
L 315.390172 65.443843 
L 315.69484 63.037968 
L 315.999509 62.153973 
L 316.304177 62.771169 
L 316.608845 60.698728 
L 316.913514 60.039834 
L 317.218182 58.388241 
L 317.52285 58.024557 
L 317.827518 54.114448 
L 318.132187 53.149138 
L 318.436855 54.898599 
L 318.741523 54.075369 
L 319.046192 52.664756 
L 319.35086 51.825037 
L 319.655528 50.61947 
L 320.264865 50.570089 
L 320.569533 51.223945 
L 320.874201 52.675223 
L 321.17887 52.432901 
L 321.483538 49.849472 
L 321.788206 49.940674 
L 322.092875 50.722863 
L 322.397543 49.450563 
L 322.702211 49.963602 
L 323.311548 47.521027 
L 323.616216 48.61338 
L 323.920885 48.520236 
L 324.225553 49.071498 
L 324.530221 49.909934 
L 324.834889 49.873602 
L 325.139558 46.469736 
L 325.444226 47.133234 
L 325.748894 50.424234 
L 326.358231 47.585305 
L 326.662899 50.143745 
L 326.967568 51.082719 
L 327.272236 52.591933 
L 327.576904 52.555096 
L 327.881572 51.857503 
L 328.186241 51.583958 
L 328.490909 52.269919 
L 328.795577 52.288538 
L 329.404914 50.933242 
L 329.709582 51.051478 
L 330.014251 49.182952 
L 330.318919 48.547279 
L 330.623587 49.553338 
L 330.928256 49.38511 
L 331.232924 48.9541 
L 331.537592 47.515579 
L 331.84226 49.668051 
L 332.146929 48.840824 
L 332.451597 49.703495 
L 332.756265 49.641541 
L 333.060934 51.444364 
L 333.365602 52.55009 
L 333.67027 52.555557 
L 333.974939 51.748267 
L 334.279607 52.548221 
L 334.584275 51.877082 
L 334.888943 52.344948 
L 335.49828 54.501298 
L 335.802948 52.832676 
L 336.107617 52.993664 
L 336.412285 53.636399 
L 336.716953 53.032423 
L 337.021622 52.108912 
L 337.32629 52.093405 
L 337.935627 51.588391 
L 338.240295 52.299644 
L 338.544963 52.284373 
L 338.849631 51.73727 
L 339.1543 52.224045 
L 339.458968 51.936909 
L 339.763636 51.173779 
L 340.068305 51.900841 
L 340.372973 51.894458 
L 340.677641 50.373161 
L 340.98231 51.328337 
L 341.286978 51.053197 
L 341.591646 50.931905 
L 342.200983 47.8661 
L 342.505651 48.096815 
L 342.810319 46.552073 
L 343.114988 46.287209 
L 343.724324 48.738628 
L 344.028993 46.641263 
L 344.333661 46.670215 
L 344.638329 47.580203 
L 344.942998 49.140471 
L 345.247666 48.205048 
L 345.552334 48.124116 
L 345.857002 48.771838 
L 346.161671 49.082155 
L 346.771007 50.772213 
L 347.075676 50.056997 
L 347.380344 52.029317 
L 347.685012 55.166939 
L 347.989681 53.75809 
L 348.294349 53.789681 
L 348.599017 52.242207 
L 348.903686 52.437297 
L 349.208354 52.289666 
L 349.513022 51.673481 
L 349.81769 51.595057 
L 350.122359 52.514176 
L 350.427027 52.311678 
L 350.731695 51.685088 
L 351.036364 55.783466 
L 351.6457 51.955076 
L 351.950369 51.309073 
L 352.255037 52.376037 
L 352.559705 52.395504 
L 352.864373 51.493783 
L 353.169042 52.298301 
L 353.47371 48.41101 
L 353.778378 48.420595 
L 354.083047 50.145764 
L 354.387715 49.616545 
L 354.692383 47.821313 
L 355.30172 47.847963 
L 355.606388 46.970924 
L 355.911057 44.443636 
L 356.215725 45.67456 
L 356.520393 45.677143 
L 357.12973 47.207567 
L 357.434398 47.23038 
L 357.739066 48.106587 
L 358.043735 50.300752 
L 358.348403 49.419907 
L 358.653071 47.916955 
L 358.95774 45.485187 
L 359.567076 46.839876 
L 359.871744 45.985846 
L 360.176413 46.455714 
L 360.481081 48.878529 
L 360.785749 48.147031 
L 361.090418 48.170152 
L 361.395086 47.024085 
L 361.699754 48.561042 
L 362.309091 48.483923 
L 362.613759 48.698772 
L 362.918428 47.979871 
L 363.223096 48.34765 
L 363.527764 48.13267 
L 363.832432 48.53551 
L 364.137101 49.228471 
L 364.441769 49.046947 
L 364.746437 48.450566 
L 365.051106 47.438363 
L 365.355774 47.808332 
L 365.660442 48.459974 
L 365.965111 48.494907 
L 366.269779 48.067189 
L 366.574447 47.958346 
L 366.879115 48.328324 
L 367.183784 48.924933 
L 367.79312 53.787665 
L 368.097789 52.39184 
L 368.402457 51.785213 
L 368.707125 51.891873 
L 369.011794 51.855889 
L 369.316462 52.093797 
L 369.62113 52.127681 
L 370.230467 50.575892 
L 370.535135 49.608293 
L 371.144472 51.624399 
L 371.44914 51.731984 
L 371.753808 49.416477 
L 372.058477 48.139558 
L 372.363145 49.791757 
L 372.667813 48.452522 
L 372.972482 47.84359 
L 373.27715 47.842848 
L 373.581818 50.138088 
L 373.581818 50.138088 
" style="fill:none;stroke:#1f77b4;stroke-linecap:square;stroke-width:1.5;"/>
   </g>
   <g id="patch_3">
    <path d="M 54 252 
L 54 34.56 
" style="fill:none;stroke:#000000;stroke-linecap:square;stroke-linejoin:miter;stroke-width:0.8;"/>
   </g>
   <g id="patch_4">
    <path d="M 388.8 252 
L 388.8 34.56 
" style="fill:none;stroke:#000000;stroke-linecap:square;stroke-linejoin:miter;stroke-width:0.8;"/>
   </g>
   <g id="patch_5">
    <path d="M 54 252 
L 388.8 252 
" style="fill:none;stroke:#000000;stroke-linecap:square;stroke-linejoin:miter;stroke-width:0.8;"/>
   </g>
   <g id="patch_6">
    <path d="M 54 34.56 
L 388.8 34.56 
" style="fill:none;stroke:#000000;stroke-linecap:square;stroke-linejoin:miter;stroke-width:0.8;"/>
   </g>
   <g id="legend_1">
    <g id="patch_7">
     <path d="M 61 57.238125 
L 144.604688 57.238125 
Q 146.604688 57.238125 146.604688 55.238125 
L 146.604688 41.56 
Q 146.604688 39.56 144.604688 39.56 
L 61 39.56 
Q 59 39.56 59 41.56 
L 59 55.238125 
Q 59 57.238125 61 57.238125 
z
" style="fill:#ffffff;opacity:0.8;stroke:#cccccc;stroke-linejoin:miter;"/>
    </g>
    <g id="line2d_15">
     <path d="M 63 47.658437 
L 83 47.658437 
" style="fill:none;stroke:#1f77b4;stroke-linecap:square;stroke-width:1.5;"/>
    </g>
    <g id="line2d_16"/>
    <g id="text_16">
     <!-- first agent -->
     <g transform="translate(91 51.158437)scale(0.1 -0.1)">
      <defs>
       <path d="M 37.109375 75.984375 
L 37.109375 68.5 
L 28.515625 68.5 
Q 23.6875 68.5 21.796875 66.546875 
Q 19.921875 64.59375 19.921875 59.515625 
L 19.921875 54.6875 
L 34.71875 54.6875 
L 34.71875 47.703125 
L 19.921875 47.703125 
L 19.921875 0 
L 10.890625 0 
L 10.890625 47.703125 
L 2.296875 47.703125 
L 2.296875 54.6875 
L 10.890625 54.6875 
L 10.890625 58.5 
Q 10.890625 67.625 15.140625 71.796875 
Q 19.390625 75.984375 28.609375 75.984375 
z
" id="DejaVuSans-102"/>
       <path d="M 18.3125 70.21875 
L 18.3125 54.6875 
L 36.8125 54.6875 
L 36.8125 47.703125 
L 18.3125 47.703125 
L 18.3125 18.015625 
Q 18.3125 11.328125 20.140625 9.421875 
Q 21.96875 7.515625 27.59375 7.515625 
L 36.8125 7.515625 
L 36.8125 0 
L 27.59375 0 
Q 17.1875 0 13.234375 3.875 
Q 9.28125 7.765625 9.28125 18.015625 
L 9.28125 47.703125 
L 2.6875 47.703125 
L 2.6875 54.6875 
L 9.28125 54.6875 
L 9.28125 70.21875 
z
" id="DejaVuSans-116"/>
       <path id="DejaVuSans-32"/>
       <path d="M 45.40625 27.984375 
Q 45.40625 37.75 41.375 43.109375 
Q 37.359375 48.484375 30.078125 48.484375 
Q 22.859375 48.484375 18.828125 43.109375 
Q 14.796875 37.75 14.796875 27.984375 
Q 14.796875 18.265625 18.828125 12.890625 
Q 22.859375 7.515625 30.078125 7.515625 
Q 37.359375 7.515625 41.375 12.890625 
Q 45.40625 18.265625 45.40625 27.984375 
z
M 54.390625 6.78125 
Q 54.390625 -7.171875 48.1875 -13.984375 
Q 42 -20.796875 29.203125 -20.796875 
Q 24.46875 -20.796875 20.265625 -20.09375 
Q 16.0625 -19.390625 12.109375 -17.921875 
L 12.109375 -9.1875 
Q 16.0625 -11.328125 19.921875 -12.34375 
Q 23.78125 -13.375 27.78125 -13.375 
Q 36.625 -13.375 41.015625 -8.765625 
Q 45.40625 -4.15625 45.40625 5.171875 
L 45.40625 9.625 
Q 42.625 4.78125 38.28125 2.390625 
Q 33.9375 0 27.875 0 
Q 17.828125 0 11.671875 7.65625 
Q 5.515625 15.328125 5.515625 27.984375 
Q 5.515625 40.671875 11.671875 48.328125 
Q 17.828125 56 27.875 56 
Q 33.9375 56 38.28125 53.609375 
Q 42.625 51.21875 45.40625 46.390625 
L 45.40625 54.6875 
L 54.390625 54.6875 
z
" id="DejaVuSans-103"/>
       <path d="M 54.890625 33.015625 
L 54.890625 0 
L 45.90625 0 
L 45.90625 32.71875 
Q 45.90625 40.484375 42.875 44.328125 
Q 39.84375 48.1875 33.796875 48.1875 
Q 26.515625 48.1875 22.3125 43.546875 
Q 18.109375 38.921875 18.109375 30.90625 
L 18.109375 0 
L 9.078125 0 
L 9.078125 54.6875 
L 18.109375 54.6875 
L 18.109375 46.1875 
Q 21.34375 51.125 25.703125 53.5625 
Q 30.078125 56 35.796875 56 
Q 45.21875 56 50.046875 50.171875 
Q 54.890625 44.34375 54.890625 33.015625 
z
" id="DejaVuSans-110"/>
      </defs>
      <use xlink:href="#DejaVuSans-102"/>
      <use x="35.205078" xlink:href="#DejaVuSans-105"/>
      <use x="62.988281" xlink:href="#DejaVuSans-114"/>
      <use x="104.101562" xlink:href="#DejaVuSans-115"/>
      <use x="156.201172" xlink:href="#DejaVuSans-116"/>
      <use x="195.410156" xlink:href="#DejaVuSans-32"/>
      <use x="227.197266" xlink:href="#DejaVuSans-97"/>
      <use x="288.476562" xlink:href="#DejaVuSans-103"/>
      <use x="351.953125" xlink:href="#DejaVuSans-101"/>
      <use x="413.476562" xlink:href="#DejaVuSans-110"/>
      <use x="476.855469" xlink:href="#DejaVuSans-116"/>
     </g>
    </g>
   </g>
  </g>
 </g>
 <defs>
  <clipPath id="p396c864f63">
   <rect height="217.44" width="334.8" x="54" y="34.56"/>
  </clipPath>
 </defs>
</svg>
