<?xml version="1.0" encoding="utf-8" standalone="no"?>
<!DOCTYPE svg PUBLIC "-//W3C//DTD SVG 1.1//EN"
  "http://www.w3.org/Graphics/SVG/1.1/DTD/svg11.dtd">
<!-- Created with matplotlib (https://matplotlib.org/) -->
<svg height="288pt" version="1.1" viewBox="0 0 432 288" width="432pt" xmlns="http://www.w3.org/2000/svg" xmlns:xlink="http://www.w3.org/1999/xlink">
 <metadata>
  <rdf:RDF xmlns:cc="http://creativecommons.org/ns#" xmlns:dc="http://purl.org/dc/elements/1.1/" xmlns:rdf="http://www.w3.org/1999/02/22-rdf-syntax-ns#">
   <cc:Work>
    <dc:type rdf:resource="http://purl.org/dc/dcmitype/StillImage"/>
    <dc:date>2021-03-16T09:52:16.592813</dc:date>
    <dc:format>image/svg+xml</dc:format>
    <dc:creator>
     <cc:Agent>
      <dc:title>Matplotlib v3.3.1, https://matplotlib.org/</dc:title>
     </cc:Agent>
    </dc:creator>
   </cc:Work>
  </rdf:RDF>
 </metadata>
 <defs>
  <style type="text/css">*{stroke-linecap:butt;stroke-linejoin:round;}</style>
 </defs>
 <g id="figure_1">
  <g id="patch_1">
   <path d="M 0 288 
L 432 288 
L 432 0 
L 0 0 
z
" style="fill:#ffffff;"/>
  </g>
  <g id="axes_1">
   <g id="patch_2">
    <path d="M 54 252 
L 388.8 252 
L 388.8 34.56 
L 54 34.56 
z
" style="fill:#ffffff;"/>
   </g>
   <g id="matplotlib.axis_1">
    <g id="xtick_1">
     <g id="line2d_1">
      <defs>
       <path d="M 0 0 
L 0 3.5 
" id="m45d34d06c7" style="stroke:#000000;stroke-width:0.8;"/>
      </defs>
      <g>
       <use style="stroke:#000000;stroke-width:0.8;" x="68.966243" xlink:href="#m45d34d06c7" y="252"/>
      </g>
     </g>
     <g id="text_1">
      <!-- 0.0 -->
      <g transform="translate(61.01468 266.598437)scale(0.1 -0.1)">
       <defs>
        <path d="M 31.78125 66.40625 
Q 24.171875 66.40625 20.328125 58.90625 
Q 16.5 51.421875 16.5 36.375 
Q 16.5 21.390625 20.328125 13.890625 
Q 24.171875 6.390625 31.78125 6.390625 
Q 39.453125 6.390625 43.28125 13.890625 
Q 47.125 21.390625 47.125 36.375 
Q 47.125 51.421875 43.28125 58.90625 
Q 39.453125 66.40625 31.78125 66.40625 
z
M 31.78125 74.21875 
Q 44.046875 74.21875 50.515625 64.515625 
Q 56.984375 54.828125 56.984375 36.375 
Q 56.984375 17.96875 50.515625 8.265625 
Q 44.046875 -1.421875 31.78125 -1.421875 
Q 19.53125 -1.421875 13.0625 8.265625 
Q 6.59375 17.96875 6.59375 36.375 
Q 6.59375 54.828125 13.0625 64.515625 
Q 19.53125 74.21875 31.78125 74.21875 
z
" id="DejaVuSans-48"/>
        <path d="M 10.6875 12.40625 
L 21 12.40625 
L 21 0 
L 10.6875 0 
z
" id="DejaVuSans-46"/>
       </defs>
       <use xlink:href="#DejaVuSans-48"/>
       <use x="63.623047" xlink:href="#DejaVuSans-46"/>
       <use x="95.410156" xlink:href="#DejaVuSans-48"/>
      </g>
     </g>
    </g>
    <g id="xtick_2">
     <g id="line2d_2">
      <g>
       <use style="stroke:#000000;stroke-width:0.8;" x="129.894719" xlink:href="#m45d34d06c7" y="252"/>
      </g>
     </g>
     <g id="text_2">
      <!-- 0.2 -->
      <g transform="translate(121.943157 266.598437)scale(0.1 -0.1)">
       <defs>
        <path d="M 19.1875 8.296875 
L 53.609375 8.296875 
L 53.609375 0 
L 7.328125 0 
L 7.328125 8.296875 
Q 12.9375 14.109375 22.625 23.890625 
Q 32.328125 33.6875 34.8125 36.53125 
Q 39.546875 41.84375 41.421875 45.53125 
Q 43.3125 49.21875 43.3125 52.78125 
Q 43.3125 58.59375 39.234375 62.25 
Q 35.15625 65.921875 28.609375 65.921875 
Q 23.96875 65.921875 18.8125 64.3125 
Q 13.671875 62.703125 7.8125 59.421875 
L 7.8125 69.390625 
Q 13.765625 71.78125 18.9375 73 
Q 24.125 74.21875 28.421875 74.21875 
Q 39.75 74.21875 46.484375 68.546875 
Q 53.21875 62.890625 53.21875 53.421875 
Q 53.21875 48.921875 51.53125 44.890625 
Q 49.859375 40.875 45.40625 35.40625 
Q 44.1875 33.984375 37.640625 27.21875 
Q 31.109375 20.453125 19.1875 8.296875 
z
" id="DejaVuSans-50"/>
       </defs>
       <use xlink:href="#DejaVuSans-48"/>
       <use x="63.623047" xlink:href="#DejaVuSans-46"/>
       <use x="95.410156" xlink:href="#DejaVuSans-50"/>
      </g>
     </g>
    </g>
    <g id="xtick_3">
     <g id="line2d_3">
      <g>
       <use style="stroke:#000000;stroke-width:0.8;" x="190.823196" xlink:href="#m45d34d06c7" y="252"/>
      </g>
     </g>
     <g id="text_3">
      <!-- 0.4 -->
      <g transform="translate(182.871634 266.598437)scale(0.1 -0.1)">
       <defs>
        <path d="M 37.796875 64.3125 
L 12.890625 25.390625 
L 37.796875 25.390625 
z
M 35.203125 72.90625 
L 47.609375 72.90625 
L 47.609375 25.390625 
L 58.015625 25.390625 
L 58.015625 17.1875 
L 47.609375 17.1875 
L 47.609375 0 
L 37.796875 0 
L 37.796875 17.1875 
L 4.890625 17.1875 
L 4.890625 26.703125 
z
" id="DejaVuSans-52"/>
       </defs>
       <use xlink:href="#DejaVuSans-48"/>
       <use x="63.623047" xlink:href="#DejaVuSans-46"/>
       <use x="95.410156" xlink:href="#DejaVuSans-52"/>
      </g>
     </g>
    </g>
    <g id="xtick_4">
     <g id="line2d_4">
      <g>
       <use style="stroke:#000000;stroke-width:0.8;" x="251.751673" xlink:href="#m45d34d06c7" y="252"/>
      </g>
     </g>
     <g id="text_4">
      <!-- 0.6 -->
      <g transform="translate(243.800111 266.598437)scale(0.1 -0.1)">
       <defs>
        <path d="M 33.015625 40.375 
Q 26.375 40.375 22.484375 35.828125 
Q 18.609375 31.296875 18.609375 23.390625 
Q 18.609375 15.53125 22.484375 10.953125 
Q 26.375 6.390625 33.015625 6.390625 
Q 39.65625 6.390625 43.53125 10.953125 
Q 47.40625 15.53125 47.40625 23.390625 
Q 47.40625 31.296875 43.53125 35.828125 
Q 39.65625 40.375 33.015625 40.375 
z
M 52.59375 71.296875 
L 52.59375 62.3125 
Q 48.875 64.0625 45.09375 64.984375 
Q 41.3125 65.921875 37.59375 65.921875 
Q 27.828125 65.921875 22.671875 59.328125 
Q 17.53125 52.734375 16.796875 39.40625 
Q 19.671875 43.65625 24.015625 45.921875 
Q 28.375 48.1875 33.59375 48.1875 
Q 44.578125 48.1875 50.953125 41.515625 
Q 57.328125 34.859375 57.328125 23.390625 
Q 57.328125 12.15625 50.6875 5.359375 
Q 44.046875 -1.421875 33.015625 -1.421875 
Q 20.359375 -1.421875 13.671875 8.265625 
Q 6.984375 17.96875 6.984375 36.375 
Q 6.984375 53.65625 15.1875 63.9375 
Q 23.390625 74.21875 37.203125 74.21875 
Q 40.921875 74.21875 44.703125 73.484375 
Q 48.484375 72.75 52.59375 71.296875 
z
" id="DejaVuSans-54"/>
       </defs>
       <use xlink:href="#DejaVuSans-48"/>
       <use x="63.623047" xlink:href="#DejaVuSans-46"/>
       <use x="95.410156" xlink:href="#DejaVuSans-54"/>
      </g>
     </g>
    </g>
    <g id="xtick_5">
     <g id="line2d_5">
      <g>
       <use style="stroke:#000000;stroke-width:0.8;" x="312.68015" xlink:href="#m45d34d06c7" y="252"/>
      </g>
     </g>
     <g id="text_5">
      <!-- 0.8 -->
      <g transform="translate(304.728587 266.598437)scale(0.1 -0.1)">
       <defs>
        <path d="M 31.78125 34.625 
Q 24.75 34.625 20.71875 30.859375 
Q 16.703125 27.09375 16.703125 20.515625 
Q 16.703125 13.921875 20.71875 10.15625 
Q 24.75 6.390625 31.78125 6.390625 
Q 38.8125 6.390625 42.859375 10.171875 
Q 46.921875 13.96875 46.921875 20.515625 
Q 46.921875 27.09375 42.890625 30.859375 
Q 38.875 34.625 31.78125 34.625 
z
M 21.921875 38.8125 
Q 15.578125 40.375 12.03125 44.71875 
Q 8.5 49.078125 8.5 55.328125 
Q 8.5 64.0625 14.71875 69.140625 
Q 20.953125 74.21875 31.78125 74.21875 
Q 42.671875 74.21875 48.875 69.140625 
Q 55.078125 64.0625 55.078125 55.328125 
Q 55.078125 49.078125 51.53125 44.71875 
Q 48 40.375 41.703125 38.8125 
Q 48.828125 37.15625 52.796875 32.3125 
Q 56.78125 27.484375 56.78125 20.515625 
Q 56.78125 9.90625 50.3125 4.234375 
Q 43.84375 -1.421875 31.78125 -1.421875 
Q 19.734375 -1.421875 13.25 4.234375 
Q 6.78125 9.90625 6.78125 20.515625 
Q 6.78125 27.484375 10.78125 32.3125 
Q 14.796875 37.15625 21.921875 38.8125 
z
M 18.3125 54.390625 
Q 18.3125 48.734375 21.84375 45.5625 
Q 25.390625 42.390625 31.78125 42.390625 
Q 38.140625 42.390625 41.71875 45.5625 
Q 45.3125 48.734375 45.3125 54.390625 
Q 45.3125 60.0625 41.71875 63.234375 
Q 38.140625 66.40625 31.78125 66.40625 
Q 25.390625 66.40625 21.84375 63.234375 
Q 18.3125 60.0625 18.3125 54.390625 
z
" id="DejaVuSans-56"/>
       </defs>
       <use xlink:href="#DejaVuSans-48"/>
       <use x="63.623047" xlink:href="#DejaVuSans-46"/>
       <use x="95.410156" xlink:href="#DejaVuSans-56"/>
      </g>
     </g>
    </g>
    <g id="xtick_6">
     <g id="line2d_6">
      <g>
       <use style="stroke:#000000;stroke-width:0.8;" x="373.608627" xlink:href="#m45d34d06c7" y="252"/>
      </g>
     </g>
     <g id="text_6">
      <!-- 1.0 -->
      <g transform="translate(365.657064 266.598437)scale(0.1 -0.1)">
       <defs>
        <path d="M 12.40625 8.296875 
L 28.515625 8.296875 
L 28.515625 63.921875 
L 10.984375 60.40625 
L 10.984375 69.390625 
L 28.421875 72.90625 
L 38.28125 72.90625 
L 38.28125 8.296875 
L 54.390625 8.296875 
L 54.390625 0 
L 12.40625 0 
z
" id="DejaVuSans-49"/>
       </defs>
       <use xlink:href="#DejaVuSans-49"/>
       <use x="63.623047" xlink:href="#DejaVuSans-46"/>
       <use x="95.410156" xlink:href="#DejaVuSans-48"/>
      </g>
     </g>
    </g>
    <g id="text_7">
     <!-- time steps -->
     <g transform="translate(195.094531 280.276563)scale(0.1 -0.1)">
      <defs>
       <path d="M 18.3125 70.21875 
L 18.3125 54.6875 
L 36.8125 54.6875 
L 36.8125 47.703125 
L 18.3125 47.703125 
L 18.3125 18.015625 
Q 18.3125 11.328125 20.140625 9.421875 
Q 21.96875 7.515625 27.59375 7.515625 
L 36.8125 7.515625 
L 36.8125 0 
L 27.59375 0 
Q 17.1875 0 13.234375 3.875 
Q 9.28125 7.765625 9.28125 18.015625 
L 9.28125 47.703125 
L 2.6875 47.703125 
L 2.6875 54.6875 
L 9.28125 54.6875 
L 9.28125 70.21875 
z
" id="DejaVuSans-116"/>
       <path d="M 9.421875 54.6875 
L 18.40625 54.6875 
L 18.40625 0 
L 9.421875 0 
z
M 9.421875 75.984375 
L 18.40625 75.984375 
L 18.40625 64.59375 
L 9.421875 64.59375 
z
" id="DejaVuSans-105"/>
       <path d="M 52 44.1875 
Q 55.375 50.25 60.0625 53.125 
Q 64.75 56 71.09375 56 
Q 79.640625 56 84.28125 50.015625 
Q 88.921875 44.046875 88.921875 33.015625 
L 88.921875 0 
L 79.890625 0 
L 79.890625 32.71875 
Q 79.890625 40.578125 77.09375 44.375 
Q 74.3125 48.1875 68.609375 48.1875 
Q 61.625 48.1875 57.5625 43.546875 
Q 53.515625 38.921875 53.515625 30.90625 
L 53.515625 0 
L 44.484375 0 
L 44.484375 32.71875 
Q 44.484375 40.625 41.703125 44.40625 
Q 38.921875 48.1875 33.109375 48.1875 
Q 26.21875 48.1875 22.15625 43.53125 
Q 18.109375 38.875 18.109375 30.90625 
L 18.109375 0 
L 9.078125 0 
L 9.078125 54.6875 
L 18.109375 54.6875 
L 18.109375 46.1875 
Q 21.1875 51.21875 25.484375 53.609375 
Q 29.78125 56 35.6875 56 
Q 41.65625 56 45.828125 52.96875 
Q 50 49.953125 52 44.1875 
z
" id="DejaVuSans-109"/>
       <path d="M 56.203125 29.59375 
L 56.203125 25.203125 
L 14.890625 25.203125 
Q 15.484375 15.921875 20.484375 11.0625 
Q 25.484375 6.203125 34.421875 6.203125 
Q 39.59375 6.203125 44.453125 7.46875 
Q 49.3125 8.734375 54.109375 11.28125 
L 54.109375 2.78125 
Q 49.265625 0.734375 44.1875 -0.34375 
Q 39.109375 -1.421875 33.890625 -1.421875 
Q 20.796875 -1.421875 13.15625 6.1875 
Q 5.515625 13.8125 5.515625 26.8125 
Q 5.515625 40.234375 12.765625 48.109375 
Q 20.015625 56 32.328125 56 
Q 43.359375 56 49.78125 48.890625 
Q 56.203125 41.796875 56.203125 29.59375 
z
M 47.21875 32.234375 
Q 47.125 39.59375 43.09375 43.984375 
Q 39.0625 48.390625 32.421875 48.390625 
Q 24.90625 48.390625 20.390625 44.140625 
Q 15.875 39.890625 15.1875 32.171875 
z
" id="DejaVuSans-101"/>
       <path id="DejaVuSans-32"/>
       <path d="M 44.28125 53.078125 
L 44.28125 44.578125 
Q 40.484375 46.53125 36.375 47.5 
Q 32.28125 48.484375 27.875 48.484375 
Q 21.1875 48.484375 17.84375 46.4375 
Q 14.5 44.390625 14.5 40.28125 
Q 14.5 37.15625 16.890625 35.375 
Q 19.28125 33.59375 26.515625 31.984375 
L 29.59375 31.296875 
Q 39.15625 29.25 43.1875 25.515625 
Q 47.21875 21.78125 47.21875 15.09375 
Q 47.21875 7.46875 41.1875 3.015625 
Q 35.15625 -1.421875 24.609375 -1.421875 
Q 20.21875 -1.421875 15.453125 -0.5625 
Q 10.6875 0.296875 5.421875 2 
L 5.421875 11.28125 
Q 10.40625 8.6875 15.234375 7.390625 
Q 20.0625 6.109375 24.8125 6.109375 
Q 31.15625 6.109375 34.5625 8.28125 
Q 37.984375 10.453125 37.984375 14.40625 
Q 37.984375 18.0625 35.515625 20.015625 
Q 33.0625 21.96875 24.703125 23.78125 
L 21.578125 24.515625 
Q 13.234375 26.265625 9.515625 29.90625 
Q 5.8125 33.546875 5.8125 39.890625 
Q 5.8125 47.609375 11.28125 51.796875 
Q 16.75 56 26.8125 56 
Q 31.78125 56 36.171875 55.265625 
Q 40.578125 54.546875 44.28125 53.078125 
z
" id="DejaVuSans-115"/>
       <path d="M 18.109375 8.203125 
L 18.109375 -20.796875 
L 9.078125 -20.796875 
L 9.078125 54.6875 
L 18.109375 54.6875 
L 18.109375 46.390625 
Q 20.953125 51.265625 25.265625 53.625 
Q 29.59375 56 35.59375 56 
Q 45.5625 56 51.78125 48.09375 
Q 58.015625 40.1875 58.015625 27.296875 
Q 58.015625 14.40625 51.78125 6.484375 
Q 45.5625 -1.421875 35.59375 -1.421875 
Q 29.59375 -1.421875 25.265625 0.953125 
Q 20.953125 3.328125 18.109375 8.203125 
z
M 48.6875 27.296875 
Q 48.6875 37.203125 44.609375 42.84375 
Q 40.53125 48.484375 33.40625 48.484375 
Q 26.265625 48.484375 22.1875 42.84375 
Q 18.109375 37.203125 18.109375 27.296875 
Q 18.109375 17.390625 22.1875 11.75 
Q 26.265625 6.109375 33.40625 6.109375 
Q 40.53125 6.109375 44.609375 11.75 
Q 48.6875 17.390625 48.6875 27.296875 
z
" id="DejaVuSans-112"/>
      </defs>
      <use xlink:href="#DejaVuSans-116"/>
      <use x="39.208984" xlink:href="#DejaVuSans-105"/>
      <use x="66.992188" xlink:href="#DejaVuSans-109"/>
      <use x="164.404297" xlink:href="#DejaVuSans-101"/>
      <use x="225.927734" xlink:href="#DejaVuSans-32"/>
      <use x="257.714844" xlink:href="#DejaVuSans-115"/>
      <use x="309.814453" xlink:href="#DejaVuSans-116"/>
      <use x="349.023438" xlink:href="#DejaVuSans-101"/>
      <use x="410.546875" xlink:href="#DejaVuSans-112"/>
      <use x="474.023438" xlink:href="#DejaVuSans-115"/>
     </g>
    </g>
    <g id="text_8">
     <!-- 1e6 -->
     <g transform="translate(369.921875 279.276563)scale(0.1 -0.1)">
      <use xlink:href="#DejaVuSans-49"/>
      <use x="63.623047" xlink:href="#DejaVuSans-101"/>
      <use x="125.146484" xlink:href="#DejaVuSans-54"/>
     </g>
    </g>
   </g>
   <g id="matplotlib.axis_2">
    <g id="ytick_1">
     <g id="line2d_7">
      <defs>
       <path d="M 0 0 
L -3.5 0 
" id="meab2ab373b" style="stroke:#000000;stroke-width:0.8;"/>
      </defs>
      <g>
       <use style="stroke:#000000;stroke-width:0.8;" x="54" xlink:href="#meab2ab373b" y="243.62475"/>
      </g>
     </g>
     <g id="text_9">
      <!-- −20 -->
      <g transform="translate(25.895312 247.423969)scale(0.1 -0.1)">
       <defs>
        <path d="M 10.59375 35.5 
L 73.1875 35.5 
L 73.1875 27.203125 
L 10.59375 27.203125 
z
" id="DejaVuSans-8722"/>
       </defs>
       <use xlink:href="#DejaVuSans-8722"/>
       <use x="83.789062" xlink:href="#DejaVuSans-50"/>
       <use x="147.412109" xlink:href="#DejaVuSans-48"/>
      </g>
     </g>
    </g>
    <g id="ytick_2">
     <g id="line2d_8">
      <g>
       <use style="stroke:#000000;stroke-width:0.8;" x="54" xlink:href="#meab2ab373b" y="199.147175"/>
      </g>
     </g>
     <g id="text_10">
      <!-- −10 -->
      <g transform="translate(25.895312 202.946394)scale(0.1 -0.1)">
       <use xlink:href="#DejaVuSans-8722"/>
       <use x="83.789062" xlink:href="#DejaVuSans-49"/>
       <use x="147.412109" xlink:href="#DejaVuSans-48"/>
      </g>
     </g>
    </g>
    <g id="ytick_3">
     <g id="line2d_9">
      <g>
       <use style="stroke:#000000;stroke-width:0.8;" x="54" xlink:href="#meab2ab373b" y="154.669599"/>
      </g>
     </g>
     <g id="text_11">
      <!-- 0 -->
      <g transform="translate(40.6375 158.468818)scale(0.1 -0.1)">
       <use xlink:href="#DejaVuSans-48"/>
      </g>
     </g>
    </g>
    <g id="ytick_4">
     <g id="line2d_10">
      <g>
       <use style="stroke:#000000;stroke-width:0.8;" x="54" xlink:href="#meab2ab373b" y="110.192024"/>
      </g>
     </g>
     <g id="text_12">
      <!-- 10 -->
      <g transform="translate(34.275 113.991243)scale(0.1 -0.1)">
       <use xlink:href="#DejaVuSans-49"/>
       <use x="63.623047" xlink:href="#DejaVuSans-48"/>
      </g>
     </g>
    </g>
    <g id="ytick_5">
     <g id="line2d_11">
      <g>
       <use style="stroke:#000000;stroke-width:0.8;" x="54" xlink:href="#meab2ab373b" y="65.714448"/>
      </g>
     </g>
     <g id="text_13">
      <!-- 20 -->
      <g transform="translate(34.275 69.513667)scale(0.1 -0.1)">
       <use xlink:href="#DejaVuSans-50"/>
       <use x="63.623047" xlink:href="#DejaVuSans-48"/>
      </g>
     </g>
    </g>
    <g id="text_14">
     <!-- average reward -->
     <g transform="translate(19.815625 182.654219)rotate(-90)scale(0.1 -0.1)">
      <defs>
       <path d="M 34.28125 27.484375 
Q 23.390625 27.484375 19.1875 25 
Q 14.984375 22.515625 14.984375 16.5 
Q 14.984375 11.71875 18.140625 8.90625 
Q 21.296875 6.109375 26.703125 6.109375 
Q 34.1875 6.109375 38.703125 11.40625 
Q 43.21875 16.703125 43.21875 25.484375 
L 43.21875 27.484375 
z
M 52.203125 31.203125 
L 52.203125 0 
L 43.21875 0 
L 43.21875 8.296875 
Q 40.140625 3.328125 35.546875 0.953125 
Q 30.953125 -1.421875 24.3125 -1.421875 
Q 15.921875 -1.421875 10.953125 3.296875 
Q 6 8.015625 6 15.921875 
Q 6 25.140625 12.171875 29.828125 
Q 18.359375 34.515625 30.609375 34.515625 
L 43.21875 34.515625 
L 43.21875 35.40625 
Q 43.21875 41.609375 39.140625 45 
Q 35.0625 48.390625 27.6875 48.390625 
Q 23 48.390625 18.546875 47.265625 
Q 14.109375 46.140625 10.015625 43.890625 
L 10.015625 52.203125 
Q 14.9375 54.109375 19.578125 55.046875 
Q 24.21875 56 28.609375 56 
Q 40.484375 56 46.34375 49.84375 
Q 52.203125 43.703125 52.203125 31.203125 
z
" id="DejaVuSans-97"/>
       <path d="M 2.984375 54.6875 
L 12.5 54.6875 
L 29.59375 8.796875 
L 46.6875 54.6875 
L 56.203125 54.6875 
L 35.6875 0 
L 23.484375 0 
z
" id="DejaVuSans-118"/>
       <path d="M 41.109375 46.296875 
Q 39.59375 47.171875 37.8125 47.578125 
Q 36.03125 48 33.890625 48 
Q 26.265625 48 22.1875 43.046875 
Q 18.109375 38.09375 18.109375 28.8125 
L 18.109375 0 
L 9.078125 0 
L 9.078125 54.6875 
L 18.109375 54.6875 
L 18.109375 46.1875 
Q 20.953125 51.171875 25.484375 53.578125 
Q 30.03125 56 36.53125 56 
Q 37.453125 56 38.578125 55.875 
Q 39.703125 55.765625 41.0625 55.515625 
z
" id="DejaVuSans-114"/>
       <path d="M 45.40625 27.984375 
Q 45.40625 37.75 41.375 43.109375 
Q 37.359375 48.484375 30.078125 48.484375 
Q 22.859375 48.484375 18.828125 43.109375 
Q 14.796875 37.75 14.796875 27.984375 
Q 14.796875 18.265625 18.828125 12.890625 
Q 22.859375 7.515625 30.078125 7.515625 
Q 37.359375 7.515625 41.375 12.890625 
Q 45.40625 18.265625 45.40625 27.984375 
z
M 54.390625 6.78125 
Q 54.390625 -7.171875 48.1875 -13.984375 
Q 42 -20.796875 29.203125 -20.796875 
Q 24.46875 -20.796875 20.265625 -20.09375 
Q 16.0625 -19.390625 12.109375 -17.921875 
L 12.109375 -9.1875 
Q 16.0625 -11.328125 19.921875 -12.34375 
Q 23.78125 -13.375 27.78125 -13.375 
Q 36.625 -13.375 41.015625 -8.765625 
Q 45.40625 -4.15625 45.40625 5.171875 
L 45.40625 9.625 
Q 42.625 4.78125 38.28125 2.390625 
Q 33.9375 0 27.875 0 
Q 17.828125 0 11.671875 7.65625 
Q 5.515625 15.328125 5.515625 27.984375 
Q 5.515625 40.671875 11.671875 48.328125 
Q 17.828125 56 27.875 56 
Q 33.9375 56 38.28125 53.609375 
Q 42.625 51.21875 45.40625 46.390625 
L 45.40625 54.6875 
L 54.390625 54.6875 
z
" id="DejaVuSans-103"/>
       <path d="M 4.203125 54.6875 
L 13.1875 54.6875 
L 24.421875 12.015625 
L 35.59375 54.6875 
L 46.1875 54.6875 
L 57.421875 12.015625 
L 68.609375 54.6875 
L 77.59375 54.6875 
L 63.28125 0 
L 52.6875 0 
L 40.921875 44.828125 
L 29.109375 0 
L 18.5 0 
z
" id="DejaVuSans-119"/>
       <path d="M 45.40625 46.390625 
L 45.40625 75.984375 
L 54.390625 75.984375 
L 54.390625 0 
L 45.40625 0 
L 45.40625 8.203125 
Q 42.578125 3.328125 38.25 0.953125 
Q 33.9375 -1.421875 27.875 -1.421875 
Q 17.96875 -1.421875 11.734375 6.484375 
Q 5.515625 14.40625 5.515625 27.296875 
Q 5.515625 40.1875 11.734375 48.09375 
Q 17.96875 56 27.875 56 
Q 33.9375 56 38.25 53.625 
Q 42.578125 51.265625 45.40625 46.390625 
z
M 14.796875 27.296875 
Q 14.796875 17.390625 18.875 11.75 
Q 22.953125 6.109375 30.078125 6.109375 
Q 37.203125 6.109375 41.296875 11.75 
Q 45.40625 17.390625 45.40625 27.296875 
Q 45.40625 37.203125 41.296875 42.84375 
Q 37.203125 48.484375 30.078125 48.484375 
Q 22.953125 48.484375 18.875 42.84375 
Q 14.796875 37.203125 14.796875 27.296875 
z
" id="DejaVuSans-100"/>
      </defs>
      <use xlink:href="#DejaVuSans-97"/>
      <use x="61.279297" xlink:href="#DejaVuSans-118"/>
      <use x="120.458984" xlink:href="#DejaVuSans-101"/>
      <use x="181.982422" xlink:href="#DejaVuSans-114"/>
      <use x="223.095703" xlink:href="#DejaVuSans-97"/>
      <use x="284.375" xlink:href="#DejaVuSans-103"/>
      <use x="347.851562" xlink:href="#DejaVuSans-101"/>
      <use x="409.375" xlink:href="#DejaVuSans-32"/>
      <use x="441.162109" xlink:href="#DejaVuSans-114"/>
      <use x="480.025391" xlink:href="#DejaVuSans-101"/>
      <use x="541.548828" xlink:href="#DejaVuSans-119"/>
      <use x="623.335938" xlink:href="#DejaVuSans-97"/>
      <use x="684.615234" xlink:href="#DejaVuSans-114"/>
      <use x="723.978516" xlink:href="#DejaVuSans-100"/>
     </g>
    </g>
   </g>
   <g id="line2d_12">
    <path clip-path="url(#p3bb7afe3e9)" d="M 69.218182 242.116364 
L 69.925866 222.089128 
L 70.20827 217.799239 
L 71.225775 209.382168 
L 71.378706 210.396458 
L 71.854862 200.33538 
L 71.981898 196.52891 
L 72.798948 200.226848 
L 72.891255 197.606114 
L 74.085453 201.310944 
L 74.544854 195.236948 
L 74.791614 187.814853 
L 75.527021 183.153517 
L 76.103709 177.97371 
L 76.786108 177.574096 
L 76.984735 181.791508 
L 77.088618 179.541152 
L 77.861191 171.444831 
L 78.469866 156.734035 
L 78.702918 155.146183 
L 79.090423 154.435248 
L 79.393237 155.999214 
L 79.876096 156.027152 
L 80.084166 158.864196 
L 80.247759 158.614494 
L 80.899999 160.532369 
L 81.065724 158.139262 
L 81.209515 157.972807 
L 81.426116 154.112967 
L 81.573563 155.620324 
L 81.658558 157.661964 
L 82.156039 161.37601 
L 82.399753 158.220136 
L 82.79457 156.65136 
L 82.889618 154.850199 
L 83.298448 152.948791 
L 83.329826 152.072724 
L 83.750842 152.376636 
L 84.124638 145.29996 
L 84.379015 144.324998 
L 85.114117 145.888353 
L 85.325539 146.038099 
L 85.740766 147.14145 
L 87.386749 147.591287 
L 87.57319 143.909415 
L 88.183389 146.084886 
L 88.397248 143.957171 
L 89.058931 147.309752 
L 89.138443 144.329321 
L 89.191146 145.180479 
L 89.564333 147.127605 
L 90.185499 144.470799 
L 90.281156 142.130721 
L 91.022656 152.858832 
L 91.141162 152.208776 
L 91.425698 152.120549 
L 91.580761 151.206144 
L 91.663319 149.633002 
L 91.765679 153.198824 
L 92.048387 150.811842 
L 92.291491 153.605057 
L 92.669857 150.586213 
L 92.881584 152.497943 
L 93.135351 152.010306 
L 93.210293 150.264513 
L 93.452483 152.529156 
L 93.54022 152.09905 
L 93.656594 152.444092 
L 93.723006 154.021893 
L 93.733973 152.598303 
L 93.87685 154.032508 
L 93.898175 153.145174 
L 94.726803 143.852546 
L 94.907151 144.099988 
L 95.013471 145.556031 
L 95.55939 143.443469 
L 96.177814 145.89731 
L 96.292969 145.352122 
L 96.354202 143.034637 
L 96.852292 140.67505 
L 97.032336 141.763776 
L 97.654416 138.715218 
L 97.730881 139.662582 
L 97.967284 137.732336 
L 98.255475 137.001077 
L 98.999412 141.927032 
L 99.367725 143.495037 
L 99.738474 134.527112 
L 100.173808 136.915242 
L 100.568625 133.875929 
L 100.961004 128.191638 
L 100.975627 129.043007 
L 101.068848 129.924426 
L 101.470976 132.074987 
L 101.619032 130.224638 
L 101.657417 130.994574 
L 101.76526 132.067095 
L 101.841725 131.673475 
L 102.0763 132.038364 
L 102.264264 133.735461 
L 102.274927 132.627135 
L 102.354134 132.952035 
L 102.595106 134.290209 
L 102.763573 131.495938 
L 103.265624 124.220885 
L 103.27324 124.245298 
L 104.132941 123.26942 
L 104.571017 129.554104 
L 105.444731 130.831654 
L 105.579688 132.188347 
L 105.829799 128.629434 
L 106.031777 129.809084 
L 106.126521 129.414901 
L 106.500926 129.170053 
L 106.832377 131.786937 
L 107.019427 131.022665 
L 107.390177 131.826247 
L 107.437701 134.074104 
L 107.676541 135.831087 
L 107.761232 133.75345 
L 107.937315 135.609837 
L 108.422306 133.710996 
L 108.592601 133.568358 
L 108.844845 136.220024 
L 108.901508 134.33898 
L 109.144613 139.027979 
L 109.902258 130.667969 
L 110.065851 132.056432 
L 110.170953 130.384014 
L 110.307433 131.708777 
L 110.469502 131.987905 
L 110.504232 133.442543 
L 110.670566 132.228775 
L 110.85518 135.332266 
L 111.00811 134.77569 
L 111.161041 134.726763 
L 111.179015 134.806703 
L 111.649687 133.867929 
L 112.046636 134.553712 
L 112.095683 135.28646 
L 112.545336 134.102602 
L 112.714412 130.768792 
L 113.35934 126.075363 
L 113.516231 121.150521 
L 113.760554 119.486179 
L 113.883934 119.90217 
L 114.141357 122.391625 
L 114.371362 122.161482 
L 114.447827 120.935916 
L 114.782934 119.685336 
L 114.936169 117.11846 
L 115.114994 116.120046 
L 115.151856 116.65367 
L 115.512248 117.132797 
L 116.286344 112.021589 
L 117.395547 125.671667 
L 117.423574 127.38053 
L 117.481761 127.152368 
L 118.063323 126.996786 
L 118.355171 126.463806 
L 118.365833 125.442216 
L 118.686317 123.905064 
L 118.91754 119.789636 
L 119.984703 113.232093 
L 120.028571 111.369091 
L 120.385612 106.58326 
L 121.031149 95.79441 
L 121.527412 99.819473 
L 121.765642 98.301542 
L 121.942335 98.938384 
L 122.327403 99.749569 
L 122.505009 103.876683 
L 122.872712 104.440513 
L 123.154811 107.592936 
L 123.316272 105.277402 
L 123.655339 109.055381 
L 123.84574 109.127808 
L 123.896615 111.219562 
L 124.064169 112.338474 
L 124.140634 114.386806 
L 124.867206 120.8734 
L 125.629726 129.757644 
L 126.289581 134.271689 
L 126.307555 133.650633 
L 126.352338 133.120037 
L 126.360868 133.599641 
L 127.001531 135.422994 
L 127.291246 139.894211 
L 127.501449 138.217282 
L 127.712566 140.932484 
L 127.923988 139.454269 
L 128.064123 136.987625 
L 128.774549 135.059806 
L 129.187035 127.421731 
L 129.53646 125.281529 
L 129.55352 123.735049 
L 129.704623 122.260437 
L 129.857553 123.394917 
L 129.897157 123.333067 
L 130.275827 118.072421 
L 131.128521 110.927558 
L 131.296684 107.281705 
L 132.083575 102.032607 
L 132.16004 103.062652 
L 132.523783 99.623166 
L 132.757749 100.621003 
L 132.781511 98.944615 
L 133.110829 99.520254 
L 133.300317 96.285189 
L 133.359722 98.356544 
L 133.534282 100.45824 
L 134.143567 89.437199 
L 134.291318 89.061566 
L 134.901517 94.205405 
L 135.123601 90.004685 
L 135.328016 88.453321 
L 135.470589 89.539395 
L 135.561068 86.967212 
L 135.805391 91.033135 
L 135.92938 89.399053 
L 136.25748 89.480113 
L 136.541102 90.414905 
L 136.777505 92.567154 
L 136.873772 89.982285 
L 137.110479 94.440426 
L 137.606437 97.776511 
L 137.732559 100.495873 
L 138.109401 104.115899 
L 138.528894 105.945637 
L 138.914571 101.991598 
L 139.124165 101.943811 
L 139.575036 106.367323 
L 139.685012 105.764843 
L 139.761477 106.611832 
L 139.837942 105.346156 
L 140.089881 105.686265 
L 140.639152 113.006629 
L 140.962073 109.284764 
L 141.256052 103.618354 
L 141.557953 103.149098 
L 141.61157 102.786126 
L 142.107833 109.446301 
L 142.984289 104.715006 
L 143.15367 104.401213 
L 143.241102 105.395475 
L 143.444299 104.789033 
L 143.8775 101.199195 
L 144.124565 99.630521 
L 144.176964 100.950063 
L 144.62296 92.739745 
L 144.831945 93.49656 
L 144.843521 95.117293 
L 144.867283 94.487971 
L 145.936578 90.375021 
L 146.158053 88.632669 
L 146.358203 90.173917 
L 146.56079 90.400467 
L 146.843194 93.067252 
L 146.873353 94.820441 
L 147.14479 93.525514 
L 147.18287 95.718343 
L 147.267865 95.576624 
L 147.367483 94.456706 
L 147.530467 94.767691 
L 147.637092 91.498124 
L 147.880501 93.965176 
L 147.908833 97.301927 
L 148.447136 94.728319 
L 148.470289 93.747207 
L 149.093282 95.250415 
L 149.596552 97.931783 
L 149.713534 97.789924 
L 149.800662 98.836617 
L 149.847882 97.136827 
L 150.068747 94.300869 
L 150.166842 96.37175 
L 150.378569 92.01286 
L 150.493114 88.418107 
L 150.573844 90.080065 
L 151.251369 91.026912 
L 151.971239 85.436832 
L 152.00871 84.752673 
L 152.219523 87.737498 
L 152.327366 87.566625 
L 152.402003 87.224459 
L 152.493396 83.637086 
L 152.699639 81.059427 
L 153.160563 84.641337 
L 153.317149 84.381413 
L 153.527048 86.067244 
L 153.619659 88.536824 
L 153.633977 88.482224 
L 154.175022 95.965627 
L 154.404418 90.832523 
L 154.423001 92.621906 
L 154.57715 91.575035 
L 154.809592 93.049602 
L 155.036551 89.577765 
L 155.069452 89.678633 
L 155.237919 90.573885 
L 155.401512 94.057191 
L 155.579728 96.169785 
L 156.019632 90.64319 
L 156.139965 93.987428 
L 156.301731 96.416763 
L 156.518941 96.10288 
L 156.651155 93.537259 
L 157.346349 102.48639 
L 157.685112 96.597502 
L 157.703086 96.788922 
L 157.747563 97.039081 
L 157.783816 94.65862 
L 157.832863 96.144237 
L 158.090591 94.037281 
L 158.181069 90.596514 
L 158.373603 91.486701 
L 158.899416 81.870426 
L 159.149528 86.997799 
L 159.466051 84.567417 
L 159.602835 82.600408 
L 159.711288 83.174082 
L 160.105191 77.095327 
L 160.45492 75.357022 
L 160.504577 73.725371 
L 160.694369 73.394467 
L 161.043794 71.758939 
L 161.582402 75.876751 
L 162.100903 73.784569 
L 162.32451 71.25029 
L 162.337001 71.34354 
L 162.68734 74.110358 
L 162.77599 73.498448 
L 162.883225 75.882061 
L 163.109879 73.5122 
L 163.305154 73.7105 
L 163.345062 72.130547 
L 163.753893 71.372502 
L 163.987553 74.756735 
L 164.204459 73.167764 
L 164.236141 74.696673 
L 164.312911 74.581799 
L 165.182665 84.120103 
L 165.596065 84.135127 
L 165.633231 84.26693 
L 165.807791 83.604387 
L 166.162395 85.740857 
L 166.324465 87.425071 
L 166.513648 87.35896 
L 166.795442 90.858338 
L 166.885007 91.272113 
L 167.011129 93.782999 
L 167.31242 88.227051 
L 167.539379 87.945635 
L 167.72186 90.087203 
L 167.919877 86.177409 
L 168.166637 86.514973 
L 168.241884 85.972246 
L 168.594355 85.838658 
L 168.76526 81.721075 
L 168.888031 82.074902 
L 169.068074 81.240455 
L 169.525038 73.81169 
L 169.759308 74.628076 
L 169.971644 74.548798 
L 170.241861 74.603177 
L 170.457244 75.643711 
L 170.714057 75.129098 
L 171.506432 82.97999 
L 171.66119 81.179765 
L 172.075809 78.01767 
L 172.217467 81.170323 
L 172.551051 78.512127 
L 172.781665 74.670476 
L 172.80299 74.767399 
L 172.873972 76.415567 
L 173.029035 76.704674 
L 173.260563 76.521712 
L 173.270616 76.649727 
L 173.343121 75.173416 
L 173.729712 72.010532 
L 174.435873 70.905905 
L 174.512338 71.473676 
L 174.775549 71.892053 
L 175.199307 69.513402 
L 175.702271 70.159534 
L 175.943548 76.989734 
L 176.564714 73.944795 
L 176.733791 75.019221 
L 176.84468 76.536227 
L 176.920232 76.09866 
L 177.143535 68.506038 
L 177.154502 70.472139 
L 177.369275 74.436181 
L 177.389686 74.29813 
L 177.708646 70.776287 
L 177.87559 70.619081 
L 177.899048 70.73387 
L 177.986175 71.436501 
L 178.417854 73.105496 
L 178.440702 75.35547 
L 178.475736 73.229303 
L 178.824856 68.747324 
L 179.110001 74.199739 
L 179.395756 71.428875 
L 179.956602 74.705334 
L 180.180819 71.591103 
L 180.557357 79.077301 
L 180.710288 79.522138 
L 180.991473 76.920407 
L 181.271439 79.784547 
L 181.487735 78.922775 
L 181.534955 79.150496 
L 181.603499 77.268194 
L 181.745462 77.120904 
L 181.931294 72.424744 
L 182.274322 76.372743 
L 182.702953 71.314739 
L 182.823897 75.53906 
L 182.856798 74.418688 
L 183.283602 68.386405 
L 184.270643 60.828683 
L 184.686175 62.205212 
L 184.716944 60.448151 
L 184.956089 60.186836 
L 185.024938 59.792815 
L 185.080687 58.80738 
L 185.221432 59.048606 
L 185.32958 58.911412 
L 185.390813 57.285131 
L 185.942521 54.224634 
L 186.27062 57.371298 
L 186.472294 56.839599 
L 186.486003 55.927241 
L 186.695597 54.707468 
L 186.768711 53.057069 
L 187.616835 63.464941 
L 187.823078 62.693798 
L 187.941889 63.287476 
L 188.018354 62.488185 
L 188.134118 65.405007 
L 188.337924 65.697931 
L 188.675163 68.223141 
L 188.80951 68.310792 
L 189.126947 69.03302 
L 189.249718 71.246311 
L 189.714298 72.016954 
L 189.853824 67.254792 
L 190.065551 67.525778 
L 190.189845 64.54819 
L 190.249859 66.475174 
L 190.366842 65.256683 
L 190.516726 65.437032 
L 190.712611 63.912332 
L 191.004763 58.035838 
L 191.183893 59.775339 
L 191.440706 59.044695 
L 191.564391 59.521642 
L 191.715189 55.854741 
L 192.001553 53.577044 
L 192.721423 61.415363 
L 192.795756 59.655477 
L 192.836578 59.832593 
L 192.949905 59.15375 
L 193.283793 63.084511 
L 193.319741 63.01392 
L 193.467492 62.799968 
L 193.571071 59.224977 
L 193.702371 59.334116 
L 194.126738 64.022446 
L 194.351564 65.588079 
L 194.382333 67.125751 
L 194.646763 64.0773 
L 194.768315 65.779991 
L 195.434263 68.472155 
L 195.532054 65.790969 
L 195.558253 65.871332 
L 195.75231 64.316592 
L 195.917122 66.015585 
L 196.222373 65.851379 
L 196.295792 63.170778 
L 196.594646 62.168929 
L 196.615362 62.186286 
L 196.731735 60.528039 
L 197.248713 57.258451 
L 197.298675 57.474125 
L 197.510401 54.941458 
L 197.67369 54.666171 
L 197.769957 51.860864 
L 197.852515 52.037735 
L 198.095315 56.066377 
L 198.403003 55.186689 
L 198.980605 57.903599 
L 199.140543 59.488565 
L 199.161563 57.888515 
L 199.550591 59.375286 
L 199.582579 61.298343 
L 199.67976 60.667914 
L 199.689813 60.63773 
L 199.701694 62.236295 
L 199.925301 61.487345 
L 199.953328 61.565961 
L 200.109915 62.714124 
L 200.275335 61.133527 
L 200.366728 62.979401 
L 200.58272 60.06336 
L 200.698484 61.885387 
L 201.054001 65.650271 
L 201.074108 67.509066 
L 201.184693 67.221961 
L 201.43389 68.262301 
L 201.542648 66.662743 
L 202.02642 67.7837 
L 202.060235 66.06299 
L 202.129694 66.279996 
L 202.361527 63.499978 
L 202.85657 67.069803 
L 203.551155 59.780539 
L 203.713834 62.626134 
L 203.895706 63.7273 
L 204.100425 62.644263 
L 204.572012 62.380726 
L 204.626543 63.784944 
L 205.051519 63.672166 
L 205.243443 67.167099 
L 205.483197 62.958243 
L 205.534377 63.04094 
L 205.547172 62.88336 
L 205.7787 62.683211 
L 205.792714 60.978119 
L 205.990427 60.395842 
L 206.021195 60.433882 
L 206.219213 60.914714 
L 206.242366 60.855669 
L 206.424237 60.107813 
L 207.006409 55.610045 
L 207.478909 57.398012 
L 207.489572 57.335311 
L 207.527957 59.146607 
L 207.691245 58.551808 
L 207.944707 56.890381 
L 208.847363 57.576563 
L 209.201357 53.850906 
L 209.219027 52.227068 
L 209.438674 49.869524 
L 209.484065 49.901558 
L 209.511483 51.519024 
L 209.547736 49.839934 
L 209.57424 50.251635 
L 209.635777 51.937961 
L 210.077813 54.951579 
L 210.171339 56.575756 
L 210.210333 56.506209 
L 210.33615 53.657526 
L 210.644144 55.273745 
L 210.810783 55.409124 
L 210.86836 55.662363 
L 211.550759 52.508641 
L 211.754565 49.606988 
L 211.915721 51.067452 
L 212.093937 47.065379 
L 212.259053 51.213502 
L 212.321809 51.139094 
L 212.406804 50.817598 
L 212.777859 56.991045 
L 212.987758 59.472633 
L 213.277777 58.54447 
L 213.395369 58.654102 
L 213.458735 60.235293 
L 213.542207 59.979365 
L 213.616235 59.808738 
L 213.830398 63.061351 
L 213.99917 63.03087 
L 214.077463 58.956629 
L 214.134431 60.76538 
L 214.338237 61.827267 
L 214.66786 52.354642 
L 214.762909 54.827704 
L 214.936555 53.820772 
L 215.17052 58.847515 
L 215.2217 58.832754 
L 215.44744 57.742956 
L 215.586357 60.787165 
L 215.91598 60.505779 
L 215.964418 60.101857 
L 216.076831 61.59757 
L 216.293432 59.139727 
L 216.728461 63.073771 
L 216.753442 63.120005 
L 217.318249 55.08823 
L 217.398979 55.0022 
L 217.599739 53.982263 
L 217.916567 49.304969 
L 218.241315 52.922497 
L 218.381451 51.391111 
L 218.546872 52.586146 
L 218.778705 52.582498 
L 218.838415 52.462398 
L 219.30269 53.836823 
L 219.743202 54.07894 
L 219.835814 53.849582 
L 219.93726 55.331153 
L 220.085011 54.852832 
L 220.343653 52.789621 
L 220.416157 54.645752 
L 220.874949 47.947036 
L 220.930698 48.070105 
L 221.023919 51.262553 
L 221.259408 51.519618 
L 221.299925 51.511432 
L 221.369383 51.262418 
L 221.509824 49.081236 
L 221.599693 51.007508 
L 221.791922 49.256453 
L 222.014007 49.848528 
L 222.167546 52.020166 
L 222.238224 51.727886 
L 222.429844 50.482655 
L 222.67569 50.53398 
L 222.791454 51.226575 
L 222.97424 54.807878 
L 223.055884 51.811779 
L 223.085434 51.899277 
L 223.466237 56.371144 
L 223.559458 56.377626 
L 224.024951 53.570393 
L 224.183365 51.584118 
L 224.397224 53.979684 
L 224.455411 52.334714 
L 224.509332 53.995777 
L 224.795392 58.606221 
L 225.023264 54.661946 
L 225.590813 58.261421 
L 225.719981 58.064046 
L 226.1084 61.654171 
L 226.263768 67.379668 
L 226.320431 65.686971 
L 226.463309 65.748009 
L 226.737487 63.752911 
L 226.760335 61.943889 
L 226.782879 63.520338 
L 226.980592 65.908032 
L 227.616989 61.598461 
L 227.723005 63.327476 
L 227.898784 64.190291 
L 228.096192 65.308152 
L 228.231149 63.811379 
L 228.287812 59.321213 
L 228.316448 59.330222 
L 228.425815 62.81864 
L 228.506545 63.11114 
L 229.209051 56.096146 
L 229.29892 57.788682 
L 229.583761 57.856583 
L 229.819249 54.405577 
L 229.829302 54.569935 
L 230.136077 55.968979 
L 230.282306 52.543559 
L 230.302717 52.617738 
L 230.374917 54.222004 
L 230.551 54.282508 
L 230.753587 53.03631 
L 231.150536 51.994351 
L 231.423191 50.564418 
L 231.559671 52.316152 
L 231.7059 51.887985 
L 231.730576 53.543602 
L 231.741238 53.540828 
L 231.949613 53.40075 
L 232.267965 51.643858 
L 232.319754 50.030718 
L 232.564382 49.72607 
L 232.946099 53.467972 
L 233.12401 51.887137 
L 233.335432 51.425096 
L 233.401539 51.485252 
L 233.465819 49.833538 
L 233.659267 46.999675 
L 233.735122 45.33633 
L 234.06962 50.241361 
L 234.197874 49.897537 
L 234.52963 52.758724 
L 234.775781 53.756969 
L 234.908605 55.205734 
L 234.981414 57.02262 
L 234.992991 57.018099 
L 235.042343 55.673586 
L 235.174253 55.693259 
L 235.428629 57.438503 
L 235.478286 57.359081 
L 235.630303 57.553276 
L 235.699457 56.217068 
L 235.835632 56.589838 
L 236.001662 58.395018 
L 236.095187 58.932825 
L 236.105849 58.866773 
L 236.339206 54.121323 
L 236.634404 49.557691 
L 236.781851 49.389159 
L 237.077659 49.498128 
L 237.156866 47.918566 
L 237.375904 47.669806 
L 237.531576 45.744527 
L 237.563563 45.754682 
L 237.794482 44.566739 
L 238.044289 44.443636 
L 238.117403 45.863253 
L 238.150609 45.792823 
L 238.365382 47.546415 
L 238.475663 47.705309 
L 239.029807 47.53033 
L 239.029807 47.53033 
" style="fill:none;stroke:#1f77b4;stroke-linecap:square;stroke-width:1.5;"/>
   </g>
   <g id="line2d_13">
    <path clip-path="url(#p3bb7afe3e9)" d="M 69.353138 225.856447 
L 70.076055 222.774504 
L 70.468739 217.105231 
L 71.239789 192.918967 
L 71.497516 194.985491 
L 71.884412 194.84702 
L 71.999262 195.998132 
L 72.555234 190.998031 
L 72.595447 187.50629 
L 73.452406 188.31556 
L 73.867634 189.720638 
L 73.968471 187.083139 
L 74.82939 177.33486 
L 75.408515 182.245977 
L 75.625725 174.66555 
L 75.822219 174.161868 
L 75.920619 174.8775 
L 76.526248 174.960487 
L 76.751074 172.645592 
L 76.884507 172.545733 
L 77.115426 171.153701 
L 77.50019 166.505455 
L 77.827376 166.618914 
L 77.95563 166.808262 
L 78.378778 164.840957 
L 78.615181 165.018759 
L 78.761714 160.199885 
L 79.508392 160.714314 
L 79.860864 161.83733 
L 80.106405 159.590305 
L 80.467711 158.620394 
L 80.699849 161.184988 
L 80.761386 159.717553 
L 81.627789 161.338547 
L 81.789859 162.904289 
L 82.166092 160.03675 
L 82.288863 161.744182 
L 82.543544 158.111124 
L 83.632946 163.465384 
L 84.057312 162.399207 
L 87.0029 131.291634 
L 87.769075 128.982648 
L 87.863514 129.636832 
L 88.100831 129.218824 
L 88.607146 130.618069 
L 88.823442 130.088415 
L 88.86 130.172164 
L 89.322447 136.042797 
L 90.027998 134.473904 
L 90.067297 135.002869 
L 90.841089 139.691993 
L 90.883739 142.883246 
L 91.113135 145.701305 
L 91.434837 143.719033 
L 91.771162 145.351725 
L 91.859204 144.705972 
L 91.982279 142.881967 
L 92.379228 141.554888 
L 92.599789 143.364442 
L 93.0467 141.395157 
L 93.253857 142.713119 
L 93.590791 137.174693 
L 93.910666 136.334319 
L 94.198857 142.18219 
L 95.338524 131.193106 
L 95.491455 132.928744 
L 96.380097 134.240458 
L 96.486722 133.75104 
L 96.648487 133.953803 
L 96.724952 131.516714 
L 97.262341 131.095788 
L 97.426543 128.488072 
L 97.835373 124.441562 
L 98.043749 126.632974 
L 98.187845 125.808161 
L 98.420287 126.262624 
L 99.603518 131.230112 
L 99.820119 130.458942 
L 100.008997 130.448592 
L 100.057435 130.148257 
L 100.237174 125.445709 
L 100.561923 126.448375 
L 100.753847 125.190251 
L 100.858644 122.542087 
L 101.277528 124.998053 
L 101.717736 127.336916 
L 102.094274 130.814575 
L 102.205164 134.368292 
L 102.542403 132.020106 
L 102.846131 129.042566 
L 103.067606 128.561573 
L 103.168443 129.487541 
L 103.33752 125.986219 
L 103.527616 124.714921 
L 103.784125 127.024031 
L 103.814285 128.520494 
L 105.03194 129.685529 
L 105.246713 127.71147 
L 107.189723 131.588026 
L 107.483702 127.818438 
L 107.575095 129.297839 
L 107.897102 130.135827 
L 108.223069 128.034502 
L 108.55513 129.062184 
L 108.695265 128.949414 
L 109.05718 123.802359 
L 109.210111 123.358523 
L 109.490991 123.226267 
L 109.618332 123.809617 
L 110.103627 123.195875 
L 110.120687 123.966747 
L 110.621824 128.441439 
L 111.083966 123.997809 
L 111.270712 123.783329 
L 111.470253 124.54595 
L 111.886699 123.818772 
L 111.910156 124.000072 
L 112.221501 120.027592 
L 112.279687 120.258597 
L 112.525534 122.485271 
L 113.15919 125.455855 
L 113.452561 126.220901 
L 114.063369 134.647728 
L 114.245849 134.503881 
L 114.614771 132.239769 
L 115.231368 130.694159 
L 115.630449 127.686327 
L 116.139811 127.412173 
L 116.704009 130.952965 
L 116.787176 130.851904 
L 117.088772 133.583344 
L 117.315426 130.500748 
L 117.381229 131.332019 
L 117.749237 127.825816 
L 118.158676 126.307968 
L 118.410006 129.23504 
L 118.434682 127.428535 
L 118.858744 124.896063 
L 119.075345 126.618478 
L 119.832077 129.266077 
L 120.709447 133.411572 
L 120.781952 133.090044 
L 121.110966 132.774151 
L 121.187431 132.426059 
L 121.938679 132.042905 
L 122.458094 135.408668 
L 122.82397 133.421616 
L 123.081697 134.341502 
L 124.322506 133.979777 
L 124.417249 135.740874 
L 124.852888 130.927818 
L 125.342753 133.963325 
L 125.41343 132.425565 
L 126.219818 131.291348 
L 126.621337 123.62043 
L 126.789195 125.097651 
L 127.199244 117.749041 
L 127.578523 116.954314 
L 127.987049 118.871513 
L 128.091236 117.720384 
L 128.31789 117.951396 
L 128.423297 117.538635 
L 128.432131 117.767518 
L 129.406073 114.824495 
L 130.264555 117.430277 
L 130.859522 117.825808 
L 130.988386 120.817411 
L 131.085871 123.581663 
L 131.14619 123.241993 
L 132.305659 124.958491 
L 132.540234 123.112676 
L 132.703218 125.922587 
L 133.078537 120.197837 
L 133.489804 118.791544 
L 133.704577 119.197705 
L 134.810429 116.263259 
L 134.886894 115.359753 
L 135.263737 115.207645 
L 135.689322 112.203474 
L 135.740807 112.251481 
L 136.038442 111.081816 
L 136.39853 113.916039 
L 136.784816 112.726727 
L 137.529058 111.803675 
L 137.605523 111.287917 
L 137.738042 111.875114 
L 138.893855 108.203535 
L 138.970321 106.938923 
L 139.754166 112.456869 
L 139.776404 113.959088 
L 140.137406 112.704772 
L 140.351569 113.767796 
L 140.395438 113.653125 
L 140.690027 113.590594 
L 141.180197 115.010181 
L 141.205786 115.642857 
L 141.4626 116.852568 
L 141.914385 120.733962 
L 142.573631 115.658471 
L 142.819782 118.033249 
L 142.891677 116.857917 
L 143.37545 118.902677 
L 144.029821 116.716664 
L 144.382597 116.856776 
L 145.276723 108.334154 
L 145.353188 108.256408 
L 145.429653 107.829042 
L 145.560954 109.541494 
L 145.754097 110.089841 
L 146.145867 107.016941 
L 147.013794 96.354206 
L 147.111584 95.982203 
L 147.193533 97.116 
L 147.431763 96.650863 
L 147.565196 98.893693 
L 147.641661 97.876302 
L 147.718127 98.872548 
L 148.382552 99.786192 
L 148.838297 96.476711 
L 149.141111 99.267465 
L 149.507291 97.996202 
L 149.515517 98.01957 
L 149.905459 98.943601 
L 150.165014 96.059776 
L 151.202626 104.475121 
L 151.691273 96.729381 
L 151.837196 97.004291 
L 152.001703 94.420562 
L 152.495224 95.317765 
L 152.530258 94.064322 
L 152.794687 98.797542 
L 152.81388 97.729114 
L 154.48789 97.012821 
L 154.883316 95.553528 
L 155.232131 95.928219 
L 155.409128 96.873799 
L 155.568152 96.969814 
L 155.766169 99.776428 
L 156.007446 99.800987 
L 156.063805 101.067804 
L 156.150019 99.70414 
L 156.258776 99.794328 
L 156.806218 99.570633 
L 156.959149 101.208599 
L 157.504154 99.267935 
L 157.594633 97.360976 
L 158.249005 99.133388 
L 158.422346 98.391191 
L 158.690431 95.37079 
L 159.317385 93.206283 
L 159.861477 95.496489 
L 159.964446 95.086697 
L 160.150278 95.980358 
L 160.56581 99.939233 
L 161.492532 99.1331 
L 162.076836 101.305022 
L 162.273331 103.948644 
L 162.307755 102.93543 
L 162.396406 103.384585 
L 162.809806 98.324235 
L 163.036155 100.240471 
L 163.143694 98.733467 
L 163.796238 103.303712 
L 163.970493 100.778116 
L 165.311224 96.259056 
L 165.546713 98.688882 
L 165.579614 97.406833 
L 165.832772 94.843758 
L 166.356148 95.373717 
L 166.710752 91.808634 
L 167.171371 93.893724 
L 167.324301 95.983815 
L 167.39772 95.583219 
L 167.474185 95.764985 
L 167.659408 94.908876 
L 167.706018 95.78619 
L 167.999389 96.146133 
L 168.198625 94.106081 
L 168.84599 95.348288 
L 169.005623 94.210254 
L 169.085744 95.625433 
L 169.379114 94.470008 
L 169.388253 93.204145 
L 169.49305 94.693694 
L 169.713916 94.97763 
L 169.965246 100.316868 
L 170.244908 101.756518 
L 170.591895 100.156091 
L 171.60148 107.636609 
L 172.102008 106.137558 
L 172.493473 105.332884 
L 172.945867 109.095448 
L 173.018981 108.519479 
L 173.598716 111.679911 
L 173.675181 110.636314 
L 173.735196 113.669397 
L 174.27685 111.285694 
L 174.585148 107.515902 
L 174.99672 106.58214 
L 175.809201 102.033833 
L 176.489163 96.221644 
L 176.554661 96.998106 
L 177.115812 88.794134 
L 177.73058 88.332657 
L 178.149768 87.290469 
L 178.226234 88.308166 
L 178.824247 86.395815 
L 179.232772 86.102471 
L 179.534368 83.242128 
L 179.584329 81.639762 
L 179.666583 82.476397 
L 179.947463 82.608882 
L 181.143794 86.097729 
L 181.220259 87.066782 
L 181.67905 87.05516 
L 182.010806 91.819022 
L 182.714835 90.608416 
L 183.032272 94.189673 
L 183.332954 93.315401 
L 183.485884 92.163292 
L 183.668974 95.829162 
L 184.164932 95.361255 
L 184.362645 95.681436 
L 184.44825 94.510249 
L 184.544821 94.612016 
L 184.884802 95.89233 
L 184.900034 96.658298 
L 185.40239 91.578309 
L 185.462404 92.333962 
L 186.12165 89.913497 
L 186.190195 89.049727 
L 186.199639 90.549474 
L 186.671225 91.390198 
L 186.960635 88.229503 
L 187.817899 87.200765 
L 188.114316 89.244579 
L 188.190781 88.976261 
L 188.440588 83.124004 
L 188.697097 83.880064 
L 188.973408 92.489616 
L 190.156639 97.746896 
L 190.435996 95.849298 
L 190.694332 94.721223 
L 191.263709 94.417347 
L 191.672844 96.079954 
L 192.199571 92.224678 
L 192.780219 94.020679 
L 192.933454 92.865292 
L 193.17534 92.339756 
L 193.451651 88.564866 
L 193.528116 89.130303 
L 193.559189 87.420672 
L 193.627125 88.180397 
L 194.074949 84.31607 
L 195.241729 89.217898 
L 195.295651 89.125459 
L 195.719409 87.142246 
L 196.227552 87.491488 
L 196.321382 87.164303 
L 196.848413 86.276436 
L 196.924879 85.855544 
L 197.145135 86.035261 
L 197.241402 86.808941 
L 197.27735 85.830501 
L 198.336896 85.313508 
L 198.705818 86.29966 
L 199.41137 86.861653 
L 199.428734 85.972441 
L 199.68768 84.777386 
L 199.716317 86.365576 
L 199.949368 85.748458 
L 200.16079 86.654437 
L 200.485843 87.052746 
L 200.722246 89.372891 
L 201.528025 88.80417 
L 201.717513 91.01227 
L 201.730917 92.277471 
L 202.257034 95.416885 
L 203.083834 94.600737 
L 203.70043 96.980206 
L 203.972475 100.051032 
L 204.201871 100.749056 
L 204.787394 100.270685 
L 204.944285 101.431773 
L 205.140474 101.791979 
L 205.293405 103.893192 
L 205.324478 102.677381 
L 205.477409 103.269545 
L 205.622114 101.570854 
L 205.839933 100.884715 
L 205.8509 101.999377 
L 206.445867 98.016367 
L 206.635964 99.599671 
L 207.265964 102.209338 
L 207.32537 100.972675 
L 208.501898 93.19609 
L 208.790699 92.746167 
L 209.349718 97.801775 
L 210.022978 96.451014 
L 211.085875 90.667028 
L 211.805136 89.893629 
L 211.881601 89.388343 
L 212.225847 91.55428 
L 212.48266 95.438806 
L 212.796442 93.119981 
L 212.912815 94.579885 
L 213.046249 94.103532 
L 213.799934 97.459995 
L 214.664509 88.952914 
L 215.113247 94.27838 
L 216.148118 92.083408 
L 216.35893 92.922813 
L 216.64438 95.211692 
L 216.907591 92.241238 
L 216.917035 92.249548 
L 217.992727 86.708323 
L 218.181606 86.37624 
L 218.726306 89.144275 
L 218.902999 87.122607 
L 219.166514 86.813051 
L 219.94975 83.147648 
L 220.29034 79.042349 
L 220.799702 78.838671 
L 221.01478 76.665845 
L 221.065046 76.831662 
L 221.219499 78.098517 
L 221.425438 78.127039 
L 221.746835 79.563935 
L 222.297324 78.322522 
L 222.474017 77.649617 
L 223.10615 81.804255 
L 223.225569 77.494234 
L 223.435163 77.080803 
L 223.705686 78.894856 
L 224.48618 81.05796 
L 224.864241 83.270903 
L 225.960649 85.838522 
L 226.128202 84.869206 
L 226.32165 84.47345 
L 226.667419 84.533886 
L 226.873357 84.217056 
L 226.918444 83.899665 
L 227.114939 85.689316 
L 227.171298 85.150559 
L 227.512192 86.68924 
L 227.867405 85.062811 
L 228.156511 84.314852 
L 228.294514 84.545398 
L 228.662827 86.586213 
L 229.233422 86.789607 
L 229.313543 86.223313 
L 229.800057 86.016144 
L 229.927397 86.32075 
L 230.011783 82.658511 
L 230.337751 86.422648 
L 231.235532 87.648308 
L 231.361654 86.27969 
L 231.68884 80.46496 
L 231.78663 80.716875 
L 232.615562 83.909964 
L 233.311365 80.79164 
L 233.658048 81.347117 
L 234.237173 82.811704 
L 234.245398 83.235977 
L 234.63991 81.68189 
L 235.319567 85.029157 
L 235.604713 81.869722 
L 235.713775 80.517218 
L 235.784756 81.908627 
L 236.89792 84.139 
L 237.561735 84.558569 
L 237.57057 84.454286 
L 237.84353 80.938878 
L 239.244885 81.392945 
L 239.524242 82.859076 
L 240.588662 85.246082 
L 240.713566 84.955724 
L 240.95667 85.990278 
L 241.033135 86.832147 
L 241.268319 86.952205 
L 241.455674 89.37502 
L 241.479132 87.405105 
L 242.069224 86.586149 
L 242.467392 85.070632 
L 242.684602 85.300465 
L 243.114757 87.034367 
L 243.342934 87.377555 
L 243.589085 84.350008 
L 244.204158 81.654938 
L 244.515807 83.777979 
L 245.13941 79.867472 
L 245.384647 76.377807 
L 245.447099 72.75066 
L 246.036277 71.035524 
L 246.212361 69.685785 
L 246.884402 70.502035 
L 247.612802 68.116233 
L 247.881496 69.629175 
L 248.241584 69.203469 
L 249.548195 72.954449 
L 249.555811 72.920608 
L 250.436532 80.200082 
L 250.689385 78.710342 
L 250.8807 78.859871 
L 251.041856 78.042679 
L 251.559444 76.056124 
L 251.881755 79.194033 
L 252.149231 77.97326 
L 253.20634 81.482165 
L 253.369629 81.399418 
L 253.808009 80.039177 
L 254.175713 80.300348 
L 254.66771 78.412574 
L 254.744175 78.50696 
L 255.231603 78.86116 
L 255.257802 78.728836 
L 255.834186 80.577747 
L 255.987116 82.136568 
L 256.023673 81.756519 
L 256.442556 84.378639 
L 256.670734 80.944358 
L 256.870579 82.363737 
L 257.850918 78.34737 
L 258.670406 75.730505 
L 258.901325 73.340351 
L 259.312592 74.812149 
L 262.105249 73.599189 
L 262.876604 72.35993 
L 262.894882 72.705291 
L 263.381701 70.269691 
L 263.479186 71.037602 
L 263.566619 68.980261 
L 263.803935 69.157429 
L 263.827088 69.425302 
L 264.839719 69.454951 
L 264.993564 67.413814 
L 265.084956 68.180571 
L 265.314352 68.421679 
L 265.564768 69.705883 
L 266.144198 69.41267 
L 266.584406 68.062974 
L 266.673971 68.159312 
L 266.682806 67.480112 
L 267.017303 68.396738 
L 267.165968 70.080103 
L 267.983629 76.207604 
L 268.298933 76.33679 
L 268.51919 77.71029 
L 268.939596 79.375315 
L 269.045003 79.271554 
L 269.490999 80.272352 
L 269.746899 80.468167 
L 270.092363 79.302392 
L 270.294341 79.025323 
L 270.636454 79.583091 
L 271.021827 84.811141 
L 271.469956 85.775172 
L 271.802625 86.148383 
L 272.334836 85.233179 
L 272.581596 84.177926 
L 272.945644 83.880934 
L 273.11929 81.304242 
L 273.127211 81.521638 
L 274.279063 89.577333 
L 274.70404 93.808487 
L 275.819031 86.898551 
L 276.203794 89.301447 
L 276.386579 89.701297 
L 276.941638 87.957139 
L 277.547572 84.716458 
L 277.624037 85.773887 
L 278.506281 77.807901 
L 278.669265 79.100452 
L 279.213965 71.744823 
L 279.341915 72.856338 
L 279.349227 71.268784 
L 280.072143 78.538154 
L 280.812424 75.786648 
L 281.526506 80.623914 
L 281.655674 80.139493 
L 281.792763 81.417852 
L 282.436777 78.114449 
L 283.237073 78.408866 
L 284.048031 74.922527 
L 284.29997 74.868615 
L 284.643911 76.849138 
L 285.141697 73.889314 
L 285.404603 75.225903 
L 285.444816 74.191256 
L 285.506659 76.434757 
L 285.940774 72.865042 
L 287.304962 75.895652 
L 287.612956 75.854431 
L 287.762535 80.684172 
L 287.991626 78.674092 
L 288.560698 76.745258 
L 288.783087 78.734469 
L 289.139214 76.666261 
L 289.326569 78.846984 
L 289.403035 78.102258 
L 289.840196 81.056238 
L 289.88833 79.876711 
L 289.964795 80.504595 
L 290.117726 82.179477 
L 290.312392 80.744523 
L 290.935386 72.08679 
L 291.152596 75.97023 
L 291.199815 74.474924 
L 291.568128 75.293711 
L 291.831034 70.027659 
L 291.930348 70.709981 
L 292.099729 69.599356 
L 293.212892 68.592 
L 293.365823 70.280456 
L 293.710373 70.335921 
L 294.174953 68.910502 
L 294.663599 68.27847 
L 295.55285 63.571451 
L 295.623832 65.556496 
L 296.648344 67.212341 
L 296.773857 66.833081 
L 296.871038 65.891701 
L 296.883528 66.865123 
L 299.145498 69.913438 
L 299.296296 68.27461 
L 300.223018 60.543343 
L 300.69034 62.617328 
L 300.906331 60.605467 
L 301.059261 61.717984 
L 301.068705 61.514916 
L 301.654228 57.837708 
L 302.012488 57.459797 
L 303.159466 54.997398 
L 303.617953 50.451725 
L 303.873852 48.569143 
L 305.087548 58.100304 
L 305.790967 55.184754 
L 306.571765 59.903277 
L 306.85295 60.054325 
L 307.083869 60.995645 
L 307.090876 60.587474 
L 307.39826 59.691319 
L 308.038314 62.612993 
L 308.304571 64.433358 
L 308.533967 65.150419 
L 309.493591 58.930653 
L 309.699224 60.345561 
L 310.280177 56.599527 
L 310.49952 56.385295 
L 311.434772 56.889863 
L 312.782814 60.327847 
L 312.812974 59.594345 
L 312.852273 60.157059 
L 312.989667 60.595847 
L 313.011905 62.067908 
L 313.190426 62.9007 
L 314.016311 64.508029 
L 314.201839 65.986809 
L 315.348208 72.129487 
L 315.90875 67.716384 
L 316.267009 68.577884 
L 316.681932 68.710013 
L 317.063345 67.608381 
L 317.119094 66.601306 
L 317.759452 64.936926 
L 317.934012 65.019444 
L 318.642001 66.641882 
L 318.657843 67.78387 
L 318.706281 66.786991 
L 319.364918 62.998073 
L 319.552577 63.228686 
L 320.034217 62.715193 
L 320.294382 64.474087 
L 320.447312 64.566039 
L 320.539314 65.444862 
L 320.953628 62.815187 
L 321.206176 62.787981 
L 321.491322 62.640861 
L 322.061917 64.58712 
L 322.108832 64.344486 
L 322.261762 64.173146 
L 322.589862 63.469539 
L 323.804167 64.539952 
L 324.078649 64.530256 
L 324.295859 65.638081 
L 324.410405 67.208812 
L 324.726319 67.197936 
L 324.906363 65.878738 
L 325.139414 65.459615 
L 325.304835 64.687623 
L 325.457765 65.280123 
L 326.593472 61.967031 
L 326.934062 64.756551 
L 327.311514 59.381386 
L 328.003053 64.877677 
L 328.028338 64.845551 
L 328.162685 63.57 
L 328.610509 64.343977 
L 328.689412 63.969162 
L 328.954451 63.831654 
L 329.691685 62.327967 
L 330.045375 63.303612 
L 330.632116 68.559433 
L 330.723814 67.664737 
L 331.542997 69.277393 
L 332.019153 70.525466 
L 332.11146 68.33217 
L 332.285715 68.721262 
L 332.373148 68.587173 
L 332.941306 74.148728 
L 333.170701 74.442535 
L 334.689039 81.591262 
L 334.993377 81.287504 
L 335.269078 79.096134 
L 335.895118 77.360977 
L 336.341419 74.491832 
L 336.836768 76.536905 
L 337.158165 75.986459 
L 337.889307 66.759649 
L 338.146425 66.687243 
L 338.363026 66.778898 
L 338.444061 66.262096 
L 338.770638 62.789092 
L 338.804148 62.87855 
L 339.5097 62.04412 
L 339.617543 61.411206 
L 339.937113 61.824883 
L 340.503443 61.74172 
L 341.010978 61.790771 
L 341.194372 62.269762 
L 341.277844 61.397683 
L 342.268237 65.199759 
L 342.562826 63.001424 
L 342.715756 64.083977 
L 343.178813 63.900098 
L 343.591908 65.327613 
L 344.05862 68.6565 
L 344.232571 67.437415 
L 344.309036 68.012608 
L 345.020376 65.084503 
L 345.283892 64.626831 
L 345.427988 62.468851 
L 345.534917 61.498636 
L 345.915415 59.714521 
L 346.564304 55.587004 
L 346.944193 56.847209 
L 347.40268 53.056721 
L 347.679295 53.342358 
L 347.985156 55.11547 
L 348.05431 54.168203 
L 348.199624 54.449937 
L 348.432371 51.194381 
L 348.470451 51.704285 
L 348.592003 52.509405 
L 348.779968 52.652613 
L 349.495877 52.478084 
L 349.904707 51.992586 
L 351.126628 61.953585 
L 351.831875 62.359237 
L 351.855333 61.919609 
L 352.584646 63.714345 
L 352.707417 63.273097 
L 353.065981 65.485031 
L 353.466586 64.574471 
L 353.592708 66.393911 
L 353.959498 65.247996 
L 354.640983 67.593196 
L 354.904803 67.130646 
L 355.012646 63.905519 
L 355.174107 63.907852 
L 355.65727 64.414423 
L 356.093213 69.515506 
L 356.150486 67.595122 
L 356.506003 66.424486 
L 356.582469 65.270418 
L 356.793586 65.307007 
L 357.398301 64.347684 
L 357.622822 62.70833 
L 357.905226 61.528922 
L 358.414283 61.399066 
L 358.643679 58.836359 
L 359.334608 56.79574 
L 360.192176 51.157809 
L 360.498037 54.607245 
L 360.506262 54.578792 
L 360.922709 56.714426 
L 361.617293 62.138329 
L 362.068469 63.193489 
L 362.461457 60.96614 
L 362.903189 61.769453 
L 363.250786 64.063048 
L 364.120235 70.902011 
L 365.330275 63.824112 
L 365.687011 60.783882 
L 366.191194 60.086053 
L 366.218307 59.847779 
L 366.485783 59.106344 
L 366.603984 57.405426 
L 367.220276 62.595772 
L 367.752791 58.400261 
L 368.007472 58.667293 
L 368.044029 57.976378 
L 368.237172 57.063281 
L 368.487893 61.982811 
L 368.556133 61.377637 
L 369.081336 61.952118 
L 369.419794 58.811003 
L 369.486206 57.144434 
L 369.492299 57.26204 
L 370.068682 57.345813 
L 370.293813 63.238281 
L 370.751995 58.475534 
L 370.943615 61.830287 
L 371.186415 61.584242 
L 371.410632 62.485012 
L 371.560211 65.496458 
L 371.904762 64.724942 
L 372.504907 63.172161 
L 372.655096 60.566953 
L 373.179081 61.653942 
L 373.4822 62.708059 
L 373.581818 63.912688 
L 373.581818 63.912688 
" style="fill:none;stroke:#ff7f0e;stroke-linecap:square;stroke-width:1.5;"/>
   </g>
   <g id="line2d_14">
    <path clip-path="url(#p3bb7afe3e9)" d="M 69.290687 112.798077 
L 69.860368 102.552149 
L 70.045591 102.530224 
L 70.250615 106.870462 
L 70.997293 88.6113 
L 71.134078 88.437377 
L 71.243444 87.639528 
L 71.47284 90.922766 
L 71.825007 89.824718 
L 72.044959 95.175409 
L 72.337111 98.179839 
L 72.353561 97.200453 
L 72.399867 98.823328 
L 72.407483 98.042895 
L 72.479988 100.749549 
L 72.940607 102.344823 
L 73.292774 104.49079 
L 73.551415 108.675014 
L 73.742731 107.302201 
L 73.763142 107.441303 
L 74.093983 107.497349 
L 74.319419 107.017255 
L 74.698394 107.651149 
L 74.902809 108.588122 
L 75.308897 116.718068 
L 75.538293 115.963251 
L 76.206069 119.829781 
L 76.435465 120.016964 
L 76.860136 112.268703 
L 77.299735 114.411883 
L 77.672922 107.129491 
L 77.961723 105.236232 
L 78.723938 97.959944 
L 78.75684 95.919456 
L 79.006951 97.115958 
L 79.686608 97.115453 
L 79.986985 94.805222 
L 80.373881 87.934076 
L 81.280192 79.848571 
L 81.538834 78.932141 
L 81.658254 79.006354 
L 81.845609 78.515333 
L 82.208742 73.511589 
L 83.46326 71.341572 
L 83.539725 70.533916 
L 83.786181 73.568454 
L 84.000649 74.368313 
L 84.077114 75.216198 
L 84.177646 73.181601 
L 84.534992 73.350353 
L 84.542912 74.439345 
L 84.773527 70.818967 
L 84.849992 71.794222 
L 84.926457 71.606059 
L 85.154939 71.289136 
L 85.653943 71.732547 
L 86.001845 73.350463 
L 86.694906 75.233258 
L 86.89201 74.669568 
L 87.557653 82.042096 
L 88.114844 84.139632 
L 89.021765 79.811159 
L 89.760827 81.63306 
L 89.803477 80.931472 
L 89.99266 81.523114 
L 90.443226 77.537746 
L 90.519691 77.91424 
L 90.636979 78.663242 
L 90.909633 76.066364 
L 91.407115 78.4423 
L 91.565224 81.147078 
L 91.984412 77.502183 
L 92.032241 78.54472 
L 92.624465 77.570314 
L 92.706719 75.56171 
L 92.802377 75.818902 
L 93.542962 76.476011 
L 93.885076 79.762863 
L 94.402054 77.829457 
L 95.407374 80.316941 
L 95.952074 80.237884 
L 96.054434 78.668323 
L 96.271949 78.459792 
L 96.388017 77.856137 
L 96.508656 82.187621 
L 96.568975 81.903605 
L 96.727389 78.934796 
L 96.828835 79.835999 
L 96.890677 78.111692 
L 97.001263 78.63562 
L 97.089609 76.530857 
L 97.150233 76.686383 
L 97.317177 80.262104 
L 97.805214 81.08587 
L 98.164387 85.195207 
L 98.371239 86.211224 
L 98.522037 91.712258 
L 99.019823 93.184667 
L 99.454548 93.676129 
L 99.561173 96.828696 
L 99.805496 94.199263 
L 99.974268 93.511453 
L 100.173504 95.313073 
L 100.303281 93.946381 
L 100.485458 97.03752 
L 100.632904 96.520485 
L 100.8623 96.579878 
L 101.063669 93.948481 
L 101.230917 95.337145 
L 101.252242 97.106741 
L 101.378364 97.563963 
L 101.648887 102.478322 
L 102.045531 95.691638 
L 102.241721 95.447591 
L 102.51529 92.766914 
L 102.638061 89.037426 
L 102.821151 88.10089 
L 103.207437 81.958017 
L 103.283902 82.037626 
L 103.697302 82.464512 
L 104.026925 82.995862 
L 104.179856 81.670853 
L 104.256321 82.614507 
L 104.39798 77.890716 
L 104.570712 77.670885 
L 104.780611 77.819209 
L 104.87444 76.297597 
L 104.969793 76.029546 
L 105.025238 74.355376 
L 105.441989 75.605239 
L 105.484639 75.507247 
L 105.759122 78.293 
L 105.835587 78.382729 
L 105.973285 77.138847 
L 106.209688 80.625466 
L 106.460409 79.175437 
L 106.617909 77.279544 
L 106.675791 77.555502 
L 106.815622 79.2647 
L 106.836642 78.647412 
L 106.913107 78.403166 
L 106.989572 79.914801 
L 107.137324 79.510439 
L 107.603427 82.489351 
L 107.635414 82.821672 
L 107.678978 80.545536 
L 108.042417 80.556776 
L 108.216367 77.891895 
L 108.629767 78.317975 
L 108.973404 82.409505 
L 109.232959 88.39644 
L 110.463105 89.123669 
L 110.777496 92.894394 
L 110.861577 92.114267 
L 111.054111 88.419757 
L 111.154338 90.208771 
L 111.50681 90.691054 
L 111.865983 90.193047 
L 112.023483 91.788126 
L 112.304668 92.440459 
L 112.352192 90.626177 
L 112.436578 91.248219 
L 112.671458 91.428505 
L 112.870694 92.057665 
L 113.412348 87.15129 
L 113.483025 87.568182 
L 113.682261 85.64661 
L 114.034732 85.810463 
L 114.139225 87.158059 
L 114.554147 86.094098 
L 114.654679 88.408402 
L 114.872499 88.172176 
L 114.893824 88.601153 
L 115.119868 89.582567 
L 115.314535 89.018292 
L 115.391 89.849455 
L 115.650555 90.201106 
L 115.803486 91.923097 
L 115.819023 90.757776 
L 115.98749 91.696704 
L 116.092592 94.94063 
L 116.153215 94.437049 
L 116.473699 94.067936 
L 116.650696 96.452749 
L 116.768288 95.298172 
L 117.098216 98.607993 
L 117.209106 101.253824 
L 117.334314 101.915069 
L 117.802549 110.068251 
L 118.073986 113.066136 
L 118.150451 112.830865 
L 118.322269 113.667594 
L 118.706728 109.678955 
L 119.327284 106.557691 
L 119.430254 108.337738 
L 119.800394 108.790015 
L 119.825984 107.655446 
L 119.933523 108.218716 
L 120.193992 104.282683 
L 120.411507 103.895711 
L 120.714017 100.271957 
L 120.8048 97.953433 
L 121.16702 100.826973 
L 121.618804 95.700367 
L 121.63495 96.546699 
L 121.681865 96.413352 
L 122.17173 86.430059 
L 122.480333 84.949171 
L 122.989695 79.068173 
L 123.064028 76.73887 
L 124.234159 82.515132 
L 124.262796 82.47744 
L 124.504986 78.491393 
L 125.306196 74.669059 
L 125.503909 75.269134 
L 125.922487 73.07521 
L 125.965747 70.955474 
L 126.293542 69.035353 
L 126.636264 63.904476 
L 126.89978 68.845943 
L 127.390559 63.509606 
L 127.853615 67.266661 
L 127.934955 71.081563 
L 128.312407 68.635139 
L 128.442489 69.463613 
L 128.767847 70.60846 
L 128.868988 69.344158 
L 128.951547 66.906319 
L 129.028012 68.452117 
L 129.101431 73.481159 
L 129.271421 75.401246 
L 129.55352 76.062996 
L 129.960827 77.679182 
L 130.217336 80.475717 
L 130.438506 80.58422 
L 130.454347 79.975611 
L 130.473845 82.221894 
L 130.544217 80.684672 
L 130.761122 83.796261 
L 131.276273 87.168791 
L 131.395692 86.495992 
L 131.402699 86.969604 
L 131.513589 86.530358 
L 131.796906 88.391066 
L 132.02356 85.634165 
L 132.231326 84.544299 
L 132.48357 81.370498 
L 133.88127 85.460832 
L 134.608756 82.469966 
L 134.652015 82.503612 
L 134.796415 80.628639 
L 134.936246 82.729466 
L 135.911406 78.262918 
L 135.963805 78.73407 
L 135.969593 78.723008 
L 136.513684 84.507931 
L 136.596852 84.606983 
L 136.825943 88.119787 
L 136.869507 87.888809 
L 137.097379 88.329315 
L 137.333172 86.697482 
L 137.391055 84.997327 
L 138.245881 81.072399 
L 138.252583 80.646853 
L 138.814039 83.023425 
L 139.246022 85.722893 
L 139.298116 84.818488 
L 139.49918 87.630845 
L 139.622865 86.876393 
L 139.653938 87.983929 
L 140.007628 90.741521 
L 140.013416 89.72435 
L 140.234282 94.770537 
L 140.548673 94.322248 
L 140.720187 93.107599 
L 140.744863 93.513362 
L 140.896879 94.093424 
L 141.826952 92.355238 
L 142.124588 91.268614 
L 142.149264 89.707277 
L 142.222683 90.787455 
L 142.719859 95.91216 
L 142.796324 94.559614 
L 143.160677 95.525621 
L 143.314216 94.662895 
L 143.467147 95.241219 
L 143.677655 98.267621 
L 144.146499 97.118121 
L 144.64398 94.520217 
L 144.81062 91.05389 
L 145.501549 86.902797 
L 146.145563 82.203477 
L 146.509915 81.408156 
L 146.620805 81.797401 
L 146.749973 80.084258 
L 146.847154 79.303418 
L 147.008005 79.189274 
L 147.393987 74.460978 
L 147.794897 74.342456 
L 147.896038 72.030884 
L 147.988954 74.24924 
L 148.159249 72.867197 
L 148.424288 68.433912 
L 148.899225 67.679719 
L 149.034182 67.85463 
L 149.052765 68.074817 
L 149.374163 64.042713 
L 149.666315 68.088993 
L 150.044376 74.294575 
L 150.06692 73.788522 
L 150.387099 74.387231 
L 150.565619 74.244973 
L 150.677423 74.517053 
L 150.738656 75.638205 
L 151.019232 74.736019 
L 151.165155 74.997062 
L 151.318086 75.572018 
L 151.54017 75.863966 
L 152.091268 84.166151 
L 152.512284 81.572819 
L 152.852874 80.953648 
L 153.110297 78.502574 
L 154.356894 81.214072 
L 154.433359 79.973456 
L 154.543944 76.332319 
L 154.774558 76.833181 
L 154.991768 79.829399 
L 155.404559 80.46194 
L 155.481024 79.631065 
L 155.626034 83.112433 
L 156.057103 85.579438 
L 156.667606 76.091746 
L 156.744071 75.032888 
L 157.085271 79.039974 
L 157.102331 78.251728 
L 157.178796 77.391678 
L 157.196161 78.33322 
L 157.349091 79.005158 
L 157.732636 79.804542 
L 158.349841 80.232607 
L 158.594164 83.318572 
L 158.797666 83.508999 
L 159.18182 83.440801 
L 159.556225 80.384758 
L 159.790495 78.667611 
L 160.179523 73.908987 
L 160.20816 75.344161 
L 160.569466 73.449847 
L 160.618513 74.848 
L 161.067251 73.965919 
L 161.097106 74.246746 
L 161.815453 71.493111 
L 161.85201 70.288753 
L 161.928475 70.821063 
L 162.549337 70.912158 
L 162.848495 66.736998 
L 163.070275 65.831469 
L 163.46631 60.164177 
L 164.078032 62.263977 
L 164.255334 64.806764 
L 164.442384 64.558514 
L 164.743371 66.98211 
L 164.844817 66.73626 
L 165.018158 67.996702 
L 165.794083 67.994284 
L 166.326293 72.993489 
L 166.479223 71.083413 
L 166.639161 71.535698 
L 166.792091 71.284046 
L 166.977009 71.545683 
L 167.221028 70.828918 
L 167.390104 71.026328 
L 167.483325 72.112588 
L 167.665501 76.896357 
L 167.818431 77.908285 
L 167.831226 77.778497 
L 168.081338 83.136348 
L 168.129471 82.66713 
L 168.282402 83.965136 
L 168.345158 83.014076 
L 168.421623 83.653866 
L 168.994351 84.754527 
L 169.000748 84.193086 
L 169.270052 83.262098 
L 169.381856 86.076745 
L 169.546667 83.459422 
L 169.665478 83.313456 
L 169.683147 84.261691 
L 169.776368 82.453509 
L 170.027698 84.760283 
L 170.407282 86.329865 
L 170.609869 85.942334 
L 170.719236 86.509871 
L 170.786867 85.328863 
L 170.929439 87.819898 
L 171.478709 89.899813 
L 171.570711 89.387368 
L 171.932627 83.051853 
L 172.279919 81.290185 
L 172.472453 81.525778 
L 172.662245 79.438517 
L 173.163382 76.726162 
L 173.367797 72.481133 
L 173.797038 76.455516 
L 173.949968 76.639546 
L 174.223537 80.596725 
L 174.504418 81.682611 
L 175.040588 74.717907 
L 175.529235 74.664274 
L 175.627634 70.771867 
L 175.743703 71.717023 
L 176.162891 70.929337 
L 176.361822 72.79429 
L 176.399598 72.718533 
L 176.541561 73.010906 
L 176.643616 72.782795 
L 176.695101 70.643267 
L 176.73897 70.671873 
L 177.543225 77.876828 
L 178.19516 72.933283 
L 178.525088 74.231365 
L 179.422564 76.264409 
L 179.962695 72.954754 
L 180.596961 79.141317 
L 180.726738 78.801471 
L 180.74654 78.916302 
L 180.951564 80.387922 
L 181.429853 87.088317 
L 181.561763 86.590679 
L 181.657421 87.620177 
L 182.029998 88.751459 
L 182.490313 88.268285 
L 182.566778 88.686632 
L 182.862586 86.182393 
L 183.219322 85.579421 
L 184.203013 79.601195 
L 184.355943 80.192014 
L 184.649618 78.998193 
L 185.686926 82.477228 
L 185.94313 81.021065 
L 186.019595 81.18684 
L 186.719968 76.942422 
L 187.031312 73.632291 
L 187.608001 70.816168 
L 187.649127 69.151321 
L 187.834654 67.989525 
L 188.211192 64.07529 
L 188.462218 68.803976 
L 188.500907 70.541135 
L 188.544471 69.350334 
L 188.697402 69.579785 
L 189.211333 68.290576 
L 189.502267 68.236291 
L 189.816962 72.007648 
L 190.096624 71.017759 
L 190.309569 69.869867 
L 190.315967 70.101439 
L 190.537442 70.387933 
L 190.766837 69.575094 
L 190.890218 66.463781 
L 191.379473 68.389832 
L 191.635373 67.482606 
L 191.752051 65.529739 
L 191.855325 65.843761 
L 192.145344 64.355005 
L 192.398807 66.660053 
L 192.538637 64.396226 
L 192.927666 63.757467 
L 193.245103 62.941972 
L 193.56315 58.109593 
L 193.647536 58.379451 
L 193.879673 56.060685 
L 194.264132 55.693531 
L 194.446003 56.336456 
L 194.54684 56.274934 
L 194.563291 54.815276 
L 194.686976 54.283755 
L 195.0495 54.572353 
L 195.757184 53.353675 
L 195.981096 52.059605 
L 196.134027 52.473893 
L 196.296097 51.185685 
L 196.584898 54.969369 
L 197.299284 59.098243 
L 197.536905 58.750982 
L 197.716949 61.547933 
L 198.421587 65.439043 
L 198.97695 67.616585 
L 199.069256 66.950483 
L 199.179232 66.157911 
L 199.526524 68.816947 
L 199.846704 67.887087 
L 199.897274 66.847953 
L 199.902453 66.912435 
L 200.501989 59.248111 
L 201.354074 57.630288 
L 201.375399 56.350207 
L 201.426884 56.362271 
L 201.689485 57.021814 
L 202.065109 54.689348 
L 202.184529 54.847284 
L 202.645758 60.81522 
L 202.652155 59.422666 
L 202.939128 62.922477 
L 203.000666 66.227305 
L 203.901494 74.668194 
L 204.060517 73.95512 
L 204.386789 79.375171 
L 204.853501 83.349265 
L 204.877568 83.160678 
L 205.175204 85.0707 
L 205.269338 83.343055 
L 205.609014 85.978906 
L 205.799416 85.974316 
L 205.875881 87.106862 
L 206.048309 87.530363 
L 206.15402 87.308797 
L 206.244498 87.975488 
L 206.404131 88.183167 
L 206.471457 85.399191 
L 206.927202 85.40401 
L 207.245249 79.836941 
L 207.379901 80.054939 
L 207.96847 80.265506 
L 208.637769 80.237307 
L 209.03685 77.371259 
L 209.792973 83.810322 
L 210.083906 79.077487 
L 210.264559 79.823952 
L 211.461804 86.407514 
L 211.722273 87.207378 
L 211.931867 91.363933 
L 212.191422 93.133873 
L 212.419904 97.385875 
L 212.664532 98.444097 
L 212.912815 94.65669 
L 213.103522 95.617153 
L 213.114489 95.552408 
L 213.267419 96.033312 
L 213.56932 93.219839 
L 213.985461 103.220532 
L 214.138392 101.349662 
L 214.300766 101.742953 
L 214.878673 100.184701 
L 215.105022 96.928245 
L 215.27684 98.923097 
L 215.359398 99.221591 
L 215.748122 101.288013 
L 215.945226 99.92504 
L 215.966246 101.138514 
L 216.049718 100.599719 
L 216.404017 100.093156 
L 216.628843 97.104874 
L 216.730289 93.127124 
L 217.241479 91.593219 
L 217.317335 94.585471 
L 217.69235 88.460401 
L 217.768815 88.333943 
L 218.009178 82.294088 
L 218.017099 82.357663 
L 218.196838 83.304964 
L 218.455784 80.40846 
L 218.685179 80.001816 
L 218.761645 80.390085 
L 218.85913 79.613479 
L 219.112288 78.694995 
L 219.368492 79.658831 
L 219.65181 77.091458 
L 219.70695 77.407771 
L 219.783415 77.445294 
L 220.151119 71.143713 
L 220.184325 69.9838 
L 220.223623 71.43472 
L 220.416157 76.446998 
L 220.593764 76.976949 
L 221.555215 86.139162 
L 221.623455 88.14676 
L 221.804413 88.695052 
L 222.085902 81.907261 
L 222.396333 83.221258 
L 222.414002 84.609821 
L 222.873403 81.450327 
L 222.897774 79.512059 
L 223.193582 76.43597 
L 223.314525 78.346971 
L 223.457098 82.398248 
L 223.620995 80.085632 
L 223.772098 80.157122 
L 223.84308 86.33286 
L 224.229671 86.575341 
L 224.297606 85.957362 
L 224.337819 84.517683 
L 224.614434 83.490717 
L 225.062868 83.89709 
L 225.295005 86.679866 
L 225.37147 86.635044 
L 225.625238 86.806494 
L 225.808937 88.629747 
L 226.137646 88.776667 
L 226.604358 90.829965 
L 226.846244 90.284596 
L 227.042129 88.934938 
L 227.104581 91.079887 
L 227.249895 90.494149 
L 227.507318 88.414505 
L 227.541438 88.902718 
L 227.69772 87.137428 
L 227.789112 84.599662 
L 227.863141 85.816024 
L 228.123305 87.772255 
L 228.589103 78.958524 
L 228.88552 77.381693 
L 228.908064 77.942431 
L 229.11979 77.57733 
L 229.485057 75.329154 
L 230.12968 70.031476 
L 230.598524 63.413489 
L 230.786184 61.692219 
L 231.137741 61.800205 
L 231.354952 59.941885 
L 231.480769 59.92021 
L 231.741847 55.890261 
L 231.818313 56.38174 
L 232.089749 54.135372 
L 232.623787 55.840761 
L 232.78342 58.310752 
L 233.297961 53.002996 
L 233.520045 56.607857 
L 233.59651 55.291289 
L 233.80519 57.334488 
L 233.83078 57.212887 
L 233.989194 55.987184 
L 234.137555 57.420697 
L 234.21402 57.121317 
L 234.597565 49.978154 
L 234.999388 55.886876 
L 235.308296 54.376428 
L 235.413397 51.698245 
L 235.489863 52.155222 
L 235.749418 53.267679 
L 236.133877 50.323447 
L 236.486957 50.667942 
L 236.62953 52.758096 
L 236.729452 56.076769 
L 237.279941 58.015766 
L 237.563259 53.67216 
L 237.699129 56.626869 
L 238.089376 59.927184 
L 238.165841 59.760815 
L 238.445503 57.790039 
L 239.005436 58.193307 
L 239.199493 60.570032 
L 239.463922 55.983647 
L 239.940688 55.682163 
L 240.251423 59.106005 
L 240.812879 60.598104 
L 240.828111 61.743213 
L 241.396269 55.482132 
L 242.222459 63.674847 
L 242.322991 62.99395 
L 242.421391 64.161396 
L 242.542943 62.115966 
L 243.415439 62.103996 
L 243.516885 61.802512 
L 243.840415 67.148062 
L 243.861131 66.586706 
L 243.943079 67.560823 
L 244.14262 65.559108 
L 244.204767 61.710696 
L 244.302557 63.595586 
L 244.36897 62.843471 
L 244.725706 65.922114 
L 245.225015 72.496488 
L 245.710005 70.653311 
L 245.951587 72.290443 
L 246.03384 74.195599 
L 246.148081 73.400965 
L 246.163618 71.758761 
L 246.443889 67.728218 
L 246.633681 67.202848 
L 246.861858 71.646008 
L 247.867787 82.284154 
L 248.426806 81.274363 
L 248.574558 84.251651 
L 249.132662 88.7119 
L 249.312706 88.560009 
L 249.443093 87.328941 
L 249.992973 87.971853 
L 250.170579 90.769644 
L 250.410028 89.918375 
L 250.690299 84.766205 
L 250.969351 87.08022 
L 251.741011 82.995574 
L 252.025242 84.713039 
L 252.193405 81.910612 
L 252.229962 81.983688 
L 252.549531 79.073051 
L 252.792636 79.022023 
L 253.099411 77.09833 
L 253.110683 77.10202 
L 253.132617 79.018256 
L 253.387603 73.111222 
L 253.578918 67.879605 
L 254.183329 67.440384 
L 254.48005 67.725885 
L 254.695432 67.306982 
L 254.707923 68.489945 
L 254.903199 67.755459 
L 254.943716 70.038815 
L 255.083547 65.488119 
L 255.207536 65.87582 
L 255.323605 69.228894 
L 255.451555 67.480562 
L 255.482628 68.572115 
L 255.641042 69.032112 
L 255.695269 68.718064 
L 255.860994 69.371593 
L 255.944466 68.344692 
L 256.10349 69.887928 
L 256.395337 67.44231 
L 256.619858 71.220895 
L 256.94613 77.278119 
L 256.952223 75.887058 
L 257.415889 83.40674 
L 257.428075 85.51194 
L 257.681232 91.741352 
L 257.785115 90.502022 
L 257.803699 92.221459 
L 257.880164 91.120964 
L 257.916721 90.752011 
L 258.147335 93.159548 
L 259.079236 99.42714 
L 259.2081 97.253165 
L 259.501775 99.72727 
L 259.60444 102.016489 
L 259.702839 101.216196 
L 259.860339 101.987055 
L 259.936805 102.76591 
L 260.046476 102.662001 
L 260.518367 103.476664 
L 260.709987 103.123766 
L 260.786452 102.001732 
L 260.786452 102.001732 
" style="fill:none;stroke:#2ca02c;stroke-linecap:square;stroke-width:1.5;"/>
   </g>
   <g id="patch_3">
    <path d="M 54 252 
L 54 34.56 
" style="fill:none;stroke:#000000;stroke-linecap:square;stroke-linejoin:miter;stroke-width:0.8;"/>
   </g>
   <g id="patch_4">
    <path d="M 388.8 252 
L 388.8 34.56 
" style="fill:none;stroke:#000000;stroke-linecap:square;stroke-linejoin:miter;stroke-width:0.8;"/>
   </g>
   <g id="patch_5">
    <path d="M 54 252 
L 388.8 252 
" style="fill:none;stroke:#000000;stroke-linecap:square;stroke-linejoin:miter;stroke-width:0.8;"/>
   </g>
   <g id="patch_6">
    <path d="M 54 34.56 
L 388.8 34.56 
" style="fill:none;stroke:#000000;stroke-linecap:square;stroke-linejoin:miter;stroke-width:0.8;"/>
   </g>
   <g id="text_15">
    <!-- TD3 new rewards -->
    <g transform="translate(169.179375 28.56)scale(0.12 -0.12)">
     <defs>
      <path d="M -0.296875 72.90625 
L 61.375 72.90625 
L 61.375 64.59375 
L 35.5 64.59375 
L 35.5 0 
L 25.59375 0 
L 25.59375 64.59375 
L -0.296875 64.59375 
z
" id="DejaVuSans-84"/>
      <path d="M 19.671875 64.796875 
L 19.671875 8.109375 
L 31.59375 8.109375 
Q 46.6875 8.109375 53.6875 14.9375 
Q 60.6875 21.78125 60.6875 36.53125 
Q 60.6875 51.171875 53.6875 57.984375 
Q 46.6875 64.796875 31.59375 64.796875 
z
M 9.8125 72.90625 
L 30.078125 72.90625 
Q 51.265625 72.90625 61.171875 64.09375 
Q 71.09375 55.28125 71.09375 36.53125 
Q 71.09375 17.671875 61.125 8.828125 
Q 51.171875 0 30.078125 0 
L 9.8125 0 
z
" id="DejaVuSans-68"/>
      <path d="M 40.578125 39.3125 
Q 47.65625 37.796875 51.625 33 
Q 55.609375 28.21875 55.609375 21.1875 
Q 55.609375 10.40625 48.1875 4.484375 
Q 40.765625 -1.421875 27.09375 -1.421875 
Q 22.515625 -1.421875 17.65625 -0.515625 
Q 12.796875 0.390625 7.625 2.203125 
L 7.625 11.71875 
Q 11.71875 9.328125 16.59375 8.109375 
Q 21.484375 6.890625 26.8125 6.890625 
Q 36.078125 6.890625 40.9375 10.546875 
Q 45.796875 14.203125 45.796875 21.1875 
Q 45.796875 27.640625 41.28125 31.265625 
Q 36.765625 34.90625 28.71875 34.90625 
L 20.21875 34.90625 
L 20.21875 43.015625 
L 29.109375 43.015625 
Q 36.375 43.015625 40.234375 45.921875 
Q 44.09375 48.828125 44.09375 54.296875 
Q 44.09375 59.90625 40.109375 62.90625 
Q 36.140625 65.921875 28.71875 65.921875 
Q 24.65625 65.921875 20.015625 65.03125 
Q 15.375 64.15625 9.8125 62.3125 
L 9.8125 71.09375 
Q 15.4375 72.65625 20.34375 73.4375 
Q 25.25 74.21875 29.59375 74.21875 
Q 40.828125 74.21875 47.359375 69.109375 
Q 53.90625 64.015625 53.90625 55.328125 
Q 53.90625 49.265625 50.4375 45.09375 
Q 46.96875 40.921875 40.578125 39.3125 
z
" id="DejaVuSans-51"/>
      <path d="M 54.890625 33.015625 
L 54.890625 0 
L 45.90625 0 
L 45.90625 32.71875 
Q 45.90625 40.484375 42.875 44.328125 
Q 39.84375 48.1875 33.796875 48.1875 
Q 26.515625 48.1875 22.3125 43.546875 
Q 18.109375 38.921875 18.109375 30.90625 
L 18.109375 0 
L 9.078125 0 
L 9.078125 54.6875 
L 18.109375 54.6875 
L 18.109375 46.1875 
Q 21.34375 51.125 25.703125 53.5625 
Q 30.078125 56 35.796875 56 
Q 45.21875 56 50.046875 50.171875 
Q 54.890625 44.34375 54.890625 33.015625 
z
" id="DejaVuSans-110"/>
     </defs>
     <use xlink:href="#DejaVuSans-84"/>
     <use x="61.083984" xlink:href="#DejaVuSans-68"/>
     <use x="138.085938" xlink:href="#DejaVuSans-51"/>
     <use x="201.708984" xlink:href="#DejaVuSans-32"/>
     <use x="233.496094" xlink:href="#DejaVuSans-110"/>
     <use x="296.875" xlink:href="#DejaVuSans-101"/>
     <use x="358.398438" xlink:href="#DejaVuSans-119"/>
     <use x="440.185547" xlink:href="#DejaVuSans-32"/>
     <use x="471.972656" xlink:href="#DejaVuSans-114"/>
     <use x="510.835938" xlink:href="#DejaVuSans-101"/>
     <use x="572.359375" xlink:href="#DejaVuSans-119"/>
     <use x="654.146484" xlink:href="#DejaVuSans-97"/>
     <use x="715.425781" xlink:href="#DejaVuSans-114"/>
     <use x="754.789062" xlink:href="#DejaVuSans-100"/>
     <use x="818.265625" xlink:href="#DejaVuSans-115"/>
    </g>
   </g>
   <g id="legend_1">
    <g id="patch_7">
     <path d="M 163.692187 247 
L 381.8 247 
Q 383.8 247 383.8 245 
L 383.8 201.965625 
Q 383.8 199.965625 381.8 199.965625 
L 163.692187 199.965625 
Q 161.692187 199.965625 161.692187 201.965625 
L 161.692187 245 
Q 161.692187 247 163.692187 247 
z
" style="fill:#ffffff;opacity:0.8;stroke:#cccccc;stroke-linejoin:miter;"/>
    </g>
    <g id="line2d_15">
     <path d="M 165.692187 208.064063 
L 185.692187 208.064063 
" style="fill:none;stroke:#1f77b4;stroke-linecap:square;stroke-width:1.5;"/>
    </g>
    <g id="line2d_16"/>
    <g id="text_16">
     <!-- overfit: against strong opponent only -->
     <g transform="translate(193.692187 211.564063)scale(0.1 -0.1)">
      <defs>
       <path d="M 30.609375 48.390625 
Q 23.390625 48.390625 19.1875 42.75 
Q 14.984375 37.109375 14.984375 27.296875 
Q 14.984375 17.484375 19.15625 11.84375 
Q 23.34375 6.203125 30.609375 6.203125 
Q 37.796875 6.203125 41.984375 11.859375 
Q 46.1875 17.53125 46.1875 27.296875 
Q 46.1875 37.015625 41.984375 42.703125 
Q 37.796875 48.390625 30.609375 48.390625 
z
M 30.609375 56 
Q 42.328125 56 49.015625 48.375 
Q 55.71875 40.765625 55.71875 27.296875 
Q 55.71875 13.875 49.015625 6.21875 
Q 42.328125 -1.421875 30.609375 -1.421875 
Q 18.84375 -1.421875 12.171875 6.21875 
Q 5.515625 13.875 5.515625 27.296875 
Q 5.515625 40.765625 12.171875 48.375 
Q 18.84375 56 30.609375 56 
z
" id="DejaVuSans-111"/>
       <path d="M 37.109375 75.984375 
L 37.109375 68.5 
L 28.515625 68.5 
Q 23.6875 68.5 21.796875 66.546875 
Q 19.921875 64.59375 19.921875 59.515625 
L 19.921875 54.6875 
L 34.71875 54.6875 
L 34.71875 47.703125 
L 19.921875 47.703125 
L 19.921875 0 
L 10.890625 0 
L 10.890625 47.703125 
L 2.296875 47.703125 
L 2.296875 54.6875 
L 10.890625 54.6875 
L 10.890625 58.5 
Q 10.890625 67.625 15.140625 71.796875 
Q 19.390625 75.984375 28.609375 75.984375 
z
" id="DejaVuSans-102"/>
       <path d="M 11.71875 12.40625 
L 22.015625 12.40625 
L 22.015625 0 
L 11.71875 0 
z
M 11.71875 51.703125 
L 22.015625 51.703125 
L 22.015625 39.3125 
L 11.71875 39.3125 
z
" id="DejaVuSans-58"/>
       <path d="M 9.421875 75.984375 
L 18.40625 75.984375 
L 18.40625 0 
L 9.421875 0 
z
" id="DejaVuSans-108"/>
       <path d="M 32.171875 -5.078125 
Q 28.375 -14.84375 24.75 -17.8125 
Q 21.140625 -20.796875 15.09375 -20.796875 
L 7.90625 -20.796875 
L 7.90625 -13.28125 
L 13.1875 -13.28125 
Q 16.890625 -13.28125 18.9375 -11.515625 
Q 21 -9.765625 23.484375 -3.21875 
L 25.09375 0.875 
L 2.984375 54.6875 
L 12.5 54.6875 
L 29.59375 11.921875 
L 46.6875 54.6875 
L 56.203125 54.6875 
z
" id="DejaVuSans-121"/>
      </defs>
      <use xlink:href="#DejaVuSans-111"/>
      <use x="61.181641" xlink:href="#DejaVuSans-118"/>
      <use x="120.361328" xlink:href="#DejaVuSans-101"/>
      <use x="181.884766" xlink:href="#DejaVuSans-114"/>
      <use x="222.998047" xlink:href="#DejaVuSans-102"/>
      <use x="258.203125" xlink:href="#DejaVuSans-105"/>
      <use x="285.986328" xlink:href="#DejaVuSans-116"/>
      <use x="325.195312" xlink:href="#DejaVuSans-58"/>
      <use x="358.886719" xlink:href="#DejaVuSans-32"/>
      <use x="390.673828" xlink:href="#DejaVuSans-97"/>
      <use x="451.953125" xlink:href="#DejaVuSans-103"/>
      <use x="515.429688" xlink:href="#DejaVuSans-97"/>
      <use x="576.708984" xlink:href="#DejaVuSans-105"/>
      <use x="604.492188" xlink:href="#DejaVuSans-110"/>
      <use x="667.871094" xlink:href="#DejaVuSans-115"/>
      <use x="719.970703" xlink:href="#DejaVuSans-116"/>
      <use x="759.179688" xlink:href="#DejaVuSans-32"/>
      <use x="790.966797" xlink:href="#DejaVuSans-115"/>
      <use x="843.066406" xlink:href="#DejaVuSans-116"/>
      <use x="882.275391" xlink:href="#DejaVuSans-114"/>
      <use x="921.138672" xlink:href="#DejaVuSans-111"/>
      <use x="982.320312" xlink:href="#DejaVuSans-110"/>
      <use x="1045.699219" xlink:href="#DejaVuSans-103"/>
      <use x="1109.175781" xlink:href="#DejaVuSans-32"/>
      <use x="1140.962891" xlink:href="#DejaVuSans-111"/>
      <use x="1202.144531" xlink:href="#DejaVuSans-112"/>
      <use x="1265.621094" xlink:href="#DejaVuSans-112"/>
      <use x="1329.097656" xlink:href="#DejaVuSans-111"/>
      <use x="1390.279297" xlink:href="#DejaVuSans-110"/>
      <use x="1453.658203" xlink:href="#DejaVuSans-101"/>
      <use x="1515.181641" xlink:href="#DejaVuSans-110"/>
      <use x="1578.560547" xlink:href="#DejaVuSans-116"/>
      <use x="1617.769531" xlink:href="#DejaVuSans-32"/>
      <use x="1649.556641" xlink:href="#DejaVuSans-111"/>
      <use x="1710.738281" xlink:href="#DejaVuSans-110"/>
      <use x="1774.117188" xlink:href="#DejaVuSans-108"/>
      <use x="1801.900391" xlink:href="#DejaVuSans-121"/>
     </g>
    </g>
    <g id="line2d_17">
     <path d="M 165.692187 222.742188 
L 185.692187 222.742188 
" style="fill:none;stroke:#ff7f0e;stroke-linecap:square;stroke-width:1.5;"/>
    </g>
    <g id="line2d_18"/>
    <g id="text_17">
     <!-- superagent: training hall with td3 -->
     <g transform="translate(193.692187 226.242188)scale(0.1 -0.1)">
      <defs>
       <path d="M 8.5 21.578125 
L 8.5 54.6875 
L 17.484375 54.6875 
L 17.484375 21.921875 
Q 17.484375 14.15625 20.5 10.265625 
Q 23.53125 6.390625 29.59375 6.390625 
Q 36.859375 6.390625 41.078125 11.03125 
Q 45.3125 15.671875 45.3125 23.6875 
L 45.3125 54.6875 
L 54.296875 54.6875 
L 54.296875 0 
L 45.3125 0 
L 45.3125 8.40625 
Q 42.046875 3.421875 37.71875 1 
Q 33.40625 -1.421875 27.6875 -1.421875 
Q 18.265625 -1.421875 13.375 4.4375 
Q 8.5 10.296875 8.5 21.578125 
z
M 31.109375 56 
z
" id="DejaVuSans-117"/>
       <path d="M 54.890625 33.015625 
L 54.890625 0 
L 45.90625 0 
L 45.90625 32.71875 
Q 45.90625 40.484375 42.875 44.328125 
Q 39.84375 48.1875 33.796875 48.1875 
Q 26.515625 48.1875 22.3125 43.546875 
Q 18.109375 38.921875 18.109375 30.90625 
L 18.109375 0 
L 9.078125 0 
L 9.078125 75.984375 
L 18.109375 75.984375 
L 18.109375 46.1875 
Q 21.34375 51.125 25.703125 53.5625 
Q 30.078125 56 35.796875 56 
Q 45.21875 56 50.046875 50.171875 
Q 54.890625 44.34375 54.890625 33.015625 
z
" id="DejaVuSans-104"/>
      </defs>
      <use xlink:href="#DejaVuSans-115"/>
      <use x="52.099609" xlink:href="#DejaVuSans-117"/>
      <use x="115.478516" xlink:href="#DejaVuSans-112"/>
      <use x="178.955078" xlink:href="#DejaVuSans-101"/>
      <use x="240.478516" xlink:href="#DejaVuSans-114"/>
      <use x="281.591797" xlink:href="#DejaVuSans-97"/>
      <use x="342.871094" xlink:href="#DejaVuSans-103"/>
      <use x="406.347656" xlink:href="#DejaVuSans-101"/>
      <use x="467.871094" xlink:href="#DejaVuSans-110"/>
      <use x="531.25" xlink:href="#DejaVuSans-116"/>
      <use x="570.458984" xlink:href="#DejaVuSans-58"/>
      <use x="604.150391" xlink:href="#DejaVuSans-32"/>
      <use x="635.9375" xlink:href="#DejaVuSans-116"/>
      <use x="675.146484" xlink:href="#DejaVuSans-114"/>
      <use x="716.259766" xlink:href="#DejaVuSans-97"/>
      <use x="777.539062" xlink:href="#DejaVuSans-105"/>
      <use x="805.322266" xlink:href="#DejaVuSans-110"/>
      <use x="868.701172" xlink:href="#DejaVuSans-105"/>
      <use x="896.484375" xlink:href="#DejaVuSans-110"/>
      <use x="959.863281" xlink:href="#DejaVuSans-103"/>
      <use x="1023.339844" xlink:href="#DejaVuSans-32"/>
      <use x="1055.126953" xlink:href="#DejaVuSans-104"/>
      <use x="1118.505859" xlink:href="#DejaVuSans-97"/>
      <use x="1179.785156" xlink:href="#DejaVuSans-108"/>
      <use x="1207.568359" xlink:href="#DejaVuSans-108"/>
      <use x="1235.351562" xlink:href="#DejaVuSans-32"/>
      <use x="1267.138672" xlink:href="#DejaVuSans-119"/>
      <use x="1348.925781" xlink:href="#DejaVuSans-105"/>
      <use x="1376.708984" xlink:href="#DejaVuSans-116"/>
      <use x="1415.917969" xlink:href="#DejaVuSans-104"/>
      <use x="1479.296875" xlink:href="#DejaVuSans-32"/>
      <use x="1511.083984" xlink:href="#DejaVuSans-116"/>
      <use x="1550.292969" xlink:href="#DejaVuSans-100"/>
      <use x="1613.769531" xlink:href="#DejaVuSans-51"/>
     </g>
    </g>
    <g id="line2d_19">
     <path d="M 165.692187 237.420313 
L 185.692187 237.420313 
" style="fill:none;stroke:#2ca02c;stroke-linecap:square;stroke-width:1.5;"/>
    </g>
    <g id="line2d_20"/>
    <g id="text_18">
     <!-- ... continuation with more agents -->
     <g transform="translate(193.692187 240.920313)scale(0.1 -0.1)">
      <defs>
       <path d="M 48.78125 52.59375 
L 48.78125 44.1875 
Q 44.96875 46.296875 41.140625 47.34375 
Q 37.3125 48.390625 33.40625 48.390625 
Q 24.65625 48.390625 19.8125 42.84375 
Q 14.984375 37.3125 14.984375 27.296875 
Q 14.984375 17.28125 19.8125 11.734375 
Q 24.65625 6.203125 33.40625 6.203125 
Q 37.3125 6.203125 41.140625 7.25 
Q 44.96875 8.296875 48.78125 10.40625 
L 48.78125 2.09375 
Q 45.015625 0.34375 40.984375 -0.53125 
Q 36.96875 -1.421875 32.421875 -1.421875 
Q 20.0625 -1.421875 12.78125 6.34375 
Q 5.515625 14.109375 5.515625 27.296875 
Q 5.515625 40.671875 12.859375 48.328125 
Q 20.21875 56 33.015625 56 
Q 37.15625 56 41.109375 55.140625 
Q 45.0625 54.296875 48.78125 52.59375 
z
" id="DejaVuSans-99"/>
      </defs>
      <use xlink:href="#DejaVuSans-46"/>
      <use x="31.787109" xlink:href="#DejaVuSans-46"/>
      <use x="63.574219" xlink:href="#DejaVuSans-46"/>
      <use x="95.361328" xlink:href="#DejaVuSans-32"/>
      <use x="127.148438" xlink:href="#DejaVuSans-99"/>
      <use x="182.128906" xlink:href="#DejaVuSans-111"/>
      <use x="243.310547" xlink:href="#DejaVuSans-110"/>
      <use x="306.689453" xlink:href="#DejaVuSans-116"/>
      <use x="345.898438" xlink:href="#DejaVuSans-105"/>
      <use x="373.681641" xlink:href="#DejaVuSans-110"/>
      <use x="437.060547" xlink:href="#DejaVuSans-117"/>
      <use x="500.439453" xlink:href="#DejaVuSans-97"/>
      <use x="561.71875" xlink:href="#DejaVuSans-116"/>
      <use x="600.927734" xlink:href="#DejaVuSans-105"/>
      <use x="628.710938" xlink:href="#DejaVuSans-111"/>
      <use x="689.892578" xlink:href="#DejaVuSans-110"/>
      <use x="753.271484" xlink:href="#DejaVuSans-32"/>
      <use x="785.058594" xlink:href="#DejaVuSans-119"/>
      <use x="866.845703" xlink:href="#DejaVuSans-105"/>
      <use x="894.628906" xlink:href="#DejaVuSans-116"/>
      <use x="933.837891" xlink:href="#DejaVuSans-104"/>
      <use x="997.216797" xlink:href="#DejaVuSans-32"/>
      <use x="1029.003906" xlink:href="#DejaVuSans-109"/>
      <use x="1126.416016" xlink:href="#DejaVuSans-111"/>
      <use x="1187.597656" xlink:href="#DejaVuSans-114"/>
      <use x="1226.460938" xlink:href="#DejaVuSans-101"/>
      <use x="1287.984375" xlink:href="#DejaVuSans-32"/>
      <use x="1319.771484" xlink:href="#DejaVuSans-97"/>
      <use x="1381.050781" xlink:href="#DejaVuSans-103"/>
      <use x="1444.527344" xlink:href="#DejaVuSans-101"/>
      <use x="1506.050781" xlink:href="#DejaVuSans-110"/>
      <use x="1569.429688" xlink:href="#DejaVuSans-116"/>
      <use x="1608.638672" xlink:href="#DejaVuSans-115"/>
     </g>
    </g>
   </g>
  </g>
 </g>
 <defs>
  <clipPath id="p3bb7afe3e9">
   <rect height="217.44" width="334.8" x="54" y="34.56"/>
  </clipPath>
 </defs>
</svg>
