<?xml version="1.0" encoding="utf-8" standalone="no"?>
<!DOCTYPE svg PUBLIC "-//W3C//DTD SVG 1.1//EN"
  "http://www.w3.org/Graphics/SVG/1.1/DTD/svg11.dtd">
<!-- Created with matplotlib (https://matplotlib.org/) -->
<svg height="288pt" version="1.1" viewBox="0 0 432 288" width="432pt" xmlns="http://www.w3.org/2000/svg" xmlns:xlink="http://www.w3.org/1999/xlink">
 <metadata>
  <rdf:RDF xmlns:cc="http://creativecommons.org/ns#" xmlns:dc="http://purl.org/dc/elements/1.1/" xmlns:rdf="http://www.w3.org/1999/02/22-rdf-syntax-ns#">
   <cc:Work>
    <dc:type rdf:resource="http://purl.org/dc/dcmitype/StillImage"/>
    <dc:date>2021-03-13T13:15:29.848132</dc:date>
    <dc:format>image/svg+xml</dc:format>
    <dc:creator>
     <cc:Agent>
      <dc:title>Matplotlib v3.3.1, https://matplotlib.org/</dc:title>
     </cc:Agent>
    </dc:creator>
   </cc:Work>
  </rdf:RDF>
 </metadata>
 <defs>
  <style type="text/css">*{stroke-linecap:butt;stroke-linejoin:round;}</style>
 </defs>
 <g id="figure_1">
  <g id="patch_1">
   <path d="M 0 288 
L 432 288 
L 432 0 
L 0 0 
z
" style="fill:#ffffff;"/>
  </g>
  <g id="axes_1">
   <g id="patch_2">
    <path d="M 54 252 
L 388.8 252 
L 388.8 34.56 
L 54 34.56 
z
" style="fill:#ffffff;"/>
   </g>
   <g id="matplotlib.axis_1">
    <g id="xtick_1">
     <g id="line2d_1">
      <defs>
       <path d="M 0 0 
L 0 3.5 
" id="ma17a18a2c5" style="stroke:#000000;stroke-width:0.8;"/>
      </defs>
      <g>
       <use style="stroke:#000000;stroke-width:0.8;" x="69.218182" xlink:href="#ma17a18a2c5" y="252"/>
      </g>
     </g>
     <g id="text_1">
      <!-- 0 -->
      <g transform="translate(66.036932 266.598437)scale(0.1 -0.1)">
       <defs>
        <path d="M 31.78125 66.40625 
Q 24.171875 66.40625 20.328125 58.90625 
Q 16.5 51.421875 16.5 36.375 
Q 16.5 21.390625 20.328125 13.890625 
Q 24.171875 6.390625 31.78125 6.390625 
Q 39.453125 6.390625 43.28125 13.890625 
Q 47.125 21.390625 47.125 36.375 
Q 47.125 51.421875 43.28125 58.90625 
Q 39.453125 66.40625 31.78125 66.40625 
z
M 31.78125 74.21875 
Q 44.046875 74.21875 50.515625 64.515625 
Q 56.984375 54.828125 56.984375 36.375 
Q 56.984375 17.96875 50.515625 8.265625 
Q 44.046875 -1.421875 31.78125 -1.421875 
Q 19.53125 -1.421875 13.0625 8.265625 
Q 6.59375 17.96875 6.59375 36.375 
Q 6.59375 54.828125 13.0625 64.515625 
Q 19.53125 74.21875 31.78125 74.21875 
z
" id="DejaVuSans-48"/>
       </defs>
       <use xlink:href="#DejaVuSans-48"/>
      </g>
     </g>
    </g>
    <g id="xtick_2">
     <g id="line2d_2">
      <g>
       <use style="stroke:#000000;stroke-width:0.8;" x="109.854181" xlink:href="#ma17a18a2c5" y="252"/>
      </g>
     </g>
     <g id="text_2">
      <!-- 100 -->
      <g transform="translate(100.310431 266.598437)scale(0.1 -0.1)">
       <defs>
        <path d="M 12.40625 8.296875 
L 28.515625 8.296875 
L 28.515625 63.921875 
L 10.984375 60.40625 
L 10.984375 69.390625 
L 28.421875 72.90625 
L 38.28125 72.90625 
L 38.28125 8.296875 
L 54.390625 8.296875 
L 54.390625 0 
L 12.40625 0 
z
" id="DejaVuSans-49"/>
       </defs>
       <use xlink:href="#DejaVuSans-49"/>
       <use x="63.623047" xlink:href="#DejaVuSans-48"/>
       <use x="127.246094" xlink:href="#DejaVuSans-48"/>
      </g>
     </g>
    </g>
    <g id="xtick_3">
     <g id="line2d_3">
      <g>
       <use style="stroke:#000000;stroke-width:0.8;" x="150.490181" xlink:href="#ma17a18a2c5" y="252"/>
      </g>
     </g>
     <g id="text_3">
      <!-- 200 -->
      <g transform="translate(140.946431 266.598437)scale(0.1 -0.1)">
       <defs>
        <path d="M 19.1875 8.296875 
L 53.609375 8.296875 
L 53.609375 0 
L 7.328125 0 
L 7.328125 8.296875 
Q 12.9375 14.109375 22.625 23.890625 
Q 32.328125 33.6875 34.8125 36.53125 
Q 39.546875 41.84375 41.421875 45.53125 
Q 43.3125 49.21875 43.3125 52.78125 
Q 43.3125 58.59375 39.234375 62.25 
Q 35.15625 65.921875 28.609375 65.921875 
Q 23.96875 65.921875 18.8125 64.3125 
Q 13.671875 62.703125 7.8125 59.421875 
L 7.8125 69.390625 
Q 13.765625 71.78125 18.9375 73 
Q 24.125 74.21875 28.421875 74.21875 
Q 39.75 74.21875 46.484375 68.546875 
Q 53.21875 62.890625 53.21875 53.421875 
Q 53.21875 48.921875 51.53125 44.890625 
Q 49.859375 40.875 45.40625 35.40625 
Q 44.1875 33.984375 37.640625 27.21875 
Q 31.109375 20.453125 19.1875 8.296875 
z
" id="DejaVuSans-50"/>
       </defs>
       <use xlink:href="#DejaVuSans-50"/>
       <use x="63.623047" xlink:href="#DejaVuSans-48"/>
       <use x="127.246094" xlink:href="#DejaVuSans-48"/>
      </g>
     </g>
    </g>
    <g id="xtick_4">
     <g id="line2d_4">
      <g>
       <use style="stroke:#000000;stroke-width:0.8;" x="191.12618" xlink:href="#ma17a18a2c5" y="252"/>
      </g>
     </g>
     <g id="text_4">
      <!-- 300 -->
      <g transform="translate(181.58243 266.598437)scale(0.1 -0.1)">
       <defs>
        <path d="M 40.578125 39.3125 
Q 47.65625 37.796875 51.625 33 
Q 55.609375 28.21875 55.609375 21.1875 
Q 55.609375 10.40625 48.1875 4.484375 
Q 40.765625 -1.421875 27.09375 -1.421875 
Q 22.515625 -1.421875 17.65625 -0.515625 
Q 12.796875 0.390625 7.625 2.203125 
L 7.625 11.71875 
Q 11.71875 9.328125 16.59375 8.109375 
Q 21.484375 6.890625 26.8125 6.890625 
Q 36.078125 6.890625 40.9375 10.546875 
Q 45.796875 14.203125 45.796875 21.1875 
Q 45.796875 27.640625 41.28125 31.265625 
Q 36.765625 34.90625 28.71875 34.90625 
L 20.21875 34.90625 
L 20.21875 43.015625 
L 29.109375 43.015625 
Q 36.375 43.015625 40.234375 45.921875 
Q 44.09375 48.828125 44.09375 54.296875 
Q 44.09375 59.90625 40.109375 62.90625 
Q 36.140625 65.921875 28.71875 65.921875 
Q 24.65625 65.921875 20.015625 65.03125 
Q 15.375 64.15625 9.8125 62.3125 
L 9.8125 71.09375 
Q 15.4375 72.65625 20.34375 73.4375 
Q 25.25 74.21875 29.59375 74.21875 
Q 40.828125 74.21875 47.359375 69.109375 
Q 53.90625 64.015625 53.90625 55.328125 
Q 53.90625 49.265625 50.4375 45.09375 
Q 46.96875 40.921875 40.578125 39.3125 
z
" id="DejaVuSans-51"/>
       </defs>
       <use xlink:href="#DejaVuSans-51"/>
       <use x="63.623047" xlink:href="#DejaVuSans-48"/>
       <use x="127.246094" xlink:href="#DejaVuSans-48"/>
      </g>
     </g>
    </g>
    <g id="xtick_5">
     <g id="line2d_5">
      <g>
       <use style="stroke:#000000;stroke-width:0.8;" x="231.76218" xlink:href="#ma17a18a2c5" y="252"/>
      </g>
     </g>
     <g id="text_5">
      <!-- 400 -->
      <g transform="translate(222.21843 266.598437)scale(0.1 -0.1)">
       <defs>
        <path d="M 37.796875 64.3125 
L 12.890625 25.390625 
L 37.796875 25.390625 
z
M 35.203125 72.90625 
L 47.609375 72.90625 
L 47.609375 25.390625 
L 58.015625 25.390625 
L 58.015625 17.1875 
L 47.609375 17.1875 
L 47.609375 0 
L 37.796875 0 
L 37.796875 17.1875 
L 4.890625 17.1875 
L 4.890625 26.703125 
z
" id="DejaVuSans-52"/>
       </defs>
       <use xlink:href="#DejaVuSans-52"/>
       <use x="63.623047" xlink:href="#DejaVuSans-48"/>
       <use x="127.246094" xlink:href="#DejaVuSans-48"/>
      </g>
     </g>
    </g>
    <g id="xtick_6">
     <g id="line2d_6">
      <g>
       <use style="stroke:#000000;stroke-width:0.8;" x="272.398179" xlink:href="#ma17a18a2c5" y="252"/>
      </g>
     </g>
     <g id="text_6">
      <!-- 500 -->
      <g transform="translate(262.854429 266.598437)scale(0.1 -0.1)">
       <defs>
        <path d="M 10.796875 72.90625 
L 49.515625 72.90625 
L 49.515625 64.59375 
L 19.828125 64.59375 
L 19.828125 46.734375 
Q 21.96875 47.46875 24.109375 47.828125 
Q 26.265625 48.1875 28.421875 48.1875 
Q 40.625 48.1875 47.75 41.5 
Q 54.890625 34.8125 54.890625 23.390625 
Q 54.890625 11.625 47.5625 5.09375 
Q 40.234375 -1.421875 26.90625 -1.421875 
Q 22.3125 -1.421875 17.546875 -0.640625 
Q 12.796875 0.140625 7.71875 1.703125 
L 7.71875 11.625 
Q 12.109375 9.234375 16.796875 8.0625 
Q 21.484375 6.890625 26.703125 6.890625 
Q 35.15625 6.890625 40.078125 11.328125 
Q 45.015625 15.765625 45.015625 23.390625 
Q 45.015625 31 40.078125 35.4375 
Q 35.15625 39.890625 26.703125 39.890625 
Q 22.75 39.890625 18.8125 39.015625 
Q 14.890625 38.140625 10.796875 36.28125 
z
" id="DejaVuSans-53"/>
       </defs>
       <use xlink:href="#DejaVuSans-53"/>
       <use x="63.623047" xlink:href="#DejaVuSans-48"/>
       <use x="127.246094" xlink:href="#DejaVuSans-48"/>
      </g>
     </g>
    </g>
    <g id="xtick_7">
     <g id="line2d_7">
      <g>
       <use style="stroke:#000000;stroke-width:0.8;" x="313.034179" xlink:href="#ma17a18a2c5" y="252"/>
      </g>
     </g>
     <g id="text_7">
      <!-- 600 -->
      <g transform="translate(303.490429 266.598437)scale(0.1 -0.1)">
       <defs>
        <path d="M 33.015625 40.375 
Q 26.375 40.375 22.484375 35.828125 
Q 18.609375 31.296875 18.609375 23.390625 
Q 18.609375 15.53125 22.484375 10.953125 
Q 26.375 6.390625 33.015625 6.390625 
Q 39.65625 6.390625 43.53125 10.953125 
Q 47.40625 15.53125 47.40625 23.390625 
Q 47.40625 31.296875 43.53125 35.828125 
Q 39.65625 40.375 33.015625 40.375 
z
M 52.59375 71.296875 
L 52.59375 62.3125 
Q 48.875 64.0625 45.09375 64.984375 
Q 41.3125 65.921875 37.59375 65.921875 
Q 27.828125 65.921875 22.671875 59.328125 
Q 17.53125 52.734375 16.796875 39.40625 
Q 19.671875 43.65625 24.015625 45.921875 
Q 28.375 48.1875 33.59375 48.1875 
Q 44.578125 48.1875 50.953125 41.515625 
Q 57.328125 34.859375 57.328125 23.390625 
Q 57.328125 12.15625 50.6875 5.359375 
Q 44.046875 -1.421875 33.015625 -1.421875 
Q 20.359375 -1.421875 13.671875 8.265625 
Q 6.984375 17.96875 6.984375 36.375 
Q 6.984375 53.65625 15.1875 63.9375 
Q 23.390625 74.21875 37.203125 74.21875 
Q 40.921875 74.21875 44.703125 73.484375 
Q 48.484375 72.75 52.59375 71.296875 
z
" id="DejaVuSans-54"/>
       </defs>
       <use xlink:href="#DejaVuSans-54"/>
       <use x="63.623047" xlink:href="#DejaVuSans-48"/>
       <use x="127.246094" xlink:href="#DejaVuSans-48"/>
      </g>
     </g>
    </g>
    <g id="xtick_8">
     <g id="line2d_8">
      <g>
       <use style="stroke:#000000;stroke-width:0.8;" x="353.670178" xlink:href="#ma17a18a2c5" y="252"/>
      </g>
     </g>
     <g id="text_8">
      <!-- 700 -->
      <g transform="translate(344.126428 266.598437)scale(0.1 -0.1)">
       <defs>
        <path d="M 8.203125 72.90625 
L 55.078125 72.90625 
L 55.078125 68.703125 
L 28.609375 0 
L 18.3125 0 
L 43.21875 64.59375 
L 8.203125 64.59375 
z
" id="DejaVuSans-55"/>
       </defs>
       <use xlink:href="#DejaVuSans-55"/>
       <use x="63.623047" xlink:href="#DejaVuSans-48"/>
       <use x="127.246094" xlink:href="#DejaVuSans-48"/>
      </g>
     </g>
    </g>
    <g id="text_9">
     <!-- episodes -->
     <g transform="translate(199.240625 280.276563)scale(0.1 -0.1)">
      <defs>
       <path d="M 56.203125 29.59375 
L 56.203125 25.203125 
L 14.890625 25.203125 
Q 15.484375 15.921875 20.484375 11.0625 
Q 25.484375 6.203125 34.421875 6.203125 
Q 39.59375 6.203125 44.453125 7.46875 
Q 49.3125 8.734375 54.109375 11.28125 
L 54.109375 2.78125 
Q 49.265625 0.734375 44.1875 -0.34375 
Q 39.109375 -1.421875 33.890625 -1.421875 
Q 20.796875 -1.421875 13.15625 6.1875 
Q 5.515625 13.8125 5.515625 26.8125 
Q 5.515625 40.234375 12.765625 48.109375 
Q 20.015625 56 32.328125 56 
Q 43.359375 56 49.78125 48.890625 
Q 56.203125 41.796875 56.203125 29.59375 
z
M 47.21875 32.234375 
Q 47.125 39.59375 43.09375 43.984375 
Q 39.0625 48.390625 32.421875 48.390625 
Q 24.90625 48.390625 20.390625 44.140625 
Q 15.875 39.890625 15.1875 32.171875 
z
" id="DejaVuSans-101"/>
       <path d="M 18.109375 8.203125 
L 18.109375 -20.796875 
L 9.078125 -20.796875 
L 9.078125 54.6875 
L 18.109375 54.6875 
L 18.109375 46.390625 
Q 20.953125 51.265625 25.265625 53.625 
Q 29.59375 56 35.59375 56 
Q 45.5625 56 51.78125 48.09375 
Q 58.015625 40.1875 58.015625 27.296875 
Q 58.015625 14.40625 51.78125 6.484375 
Q 45.5625 -1.421875 35.59375 -1.421875 
Q 29.59375 -1.421875 25.265625 0.953125 
Q 20.953125 3.328125 18.109375 8.203125 
z
M 48.6875 27.296875 
Q 48.6875 37.203125 44.609375 42.84375 
Q 40.53125 48.484375 33.40625 48.484375 
Q 26.265625 48.484375 22.1875 42.84375 
Q 18.109375 37.203125 18.109375 27.296875 
Q 18.109375 17.390625 22.1875 11.75 
Q 26.265625 6.109375 33.40625 6.109375 
Q 40.53125 6.109375 44.609375 11.75 
Q 48.6875 17.390625 48.6875 27.296875 
z
" id="DejaVuSans-112"/>
       <path d="M 9.421875 54.6875 
L 18.40625 54.6875 
L 18.40625 0 
L 9.421875 0 
z
M 9.421875 75.984375 
L 18.40625 75.984375 
L 18.40625 64.59375 
L 9.421875 64.59375 
z
" id="DejaVuSans-105"/>
       <path d="M 44.28125 53.078125 
L 44.28125 44.578125 
Q 40.484375 46.53125 36.375 47.5 
Q 32.28125 48.484375 27.875 48.484375 
Q 21.1875 48.484375 17.84375 46.4375 
Q 14.5 44.390625 14.5 40.28125 
Q 14.5 37.15625 16.890625 35.375 
Q 19.28125 33.59375 26.515625 31.984375 
L 29.59375 31.296875 
Q 39.15625 29.25 43.1875 25.515625 
Q 47.21875 21.78125 47.21875 15.09375 
Q 47.21875 7.46875 41.1875 3.015625 
Q 35.15625 -1.421875 24.609375 -1.421875 
Q 20.21875 -1.421875 15.453125 -0.5625 
Q 10.6875 0.296875 5.421875 2 
L 5.421875 11.28125 
Q 10.40625 8.6875 15.234375 7.390625 
Q 20.0625 6.109375 24.8125 6.109375 
Q 31.15625 6.109375 34.5625 8.28125 
Q 37.984375 10.453125 37.984375 14.40625 
Q 37.984375 18.0625 35.515625 20.015625 
Q 33.0625 21.96875 24.703125 23.78125 
L 21.578125 24.515625 
Q 13.234375 26.265625 9.515625 29.90625 
Q 5.8125 33.546875 5.8125 39.890625 
Q 5.8125 47.609375 11.28125 51.796875 
Q 16.75 56 26.8125 56 
Q 31.78125 56 36.171875 55.265625 
Q 40.578125 54.546875 44.28125 53.078125 
z
" id="DejaVuSans-115"/>
       <path d="M 30.609375 48.390625 
Q 23.390625 48.390625 19.1875 42.75 
Q 14.984375 37.109375 14.984375 27.296875 
Q 14.984375 17.484375 19.15625 11.84375 
Q 23.34375 6.203125 30.609375 6.203125 
Q 37.796875 6.203125 41.984375 11.859375 
Q 46.1875 17.53125 46.1875 27.296875 
Q 46.1875 37.015625 41.984375 42.703125 
Q 37.796875 48.390625 30.609375 48.390625 
z
M 30.609375 56 
Q 42.328125 56 49.015625 48.375 
Q 55.71875 40.765625 55.71875 27.296875 
Q 55.71875 13.875 49.015625 6.21875 
Q 42.328125 -1.421875 30.609375 -1.421875 
Q 18.84375 -1.421875 12.171875 6.21875 
Q 5.515625 13.875 5.515625 27.296875 
Q 5.515625 40.765625 12.171875 48.375 
Q 18.84375 56 30.609375 56 
z
" id="DejaVuSans-111"/>
       <path d="M 45.40625 46.390625 
L 45.40625 75.984375 
L 54.390625 75.984375 
L 54.390625 0 
L 45.40625 0 
L 45.40625 8.203125 
Q 42.578125 3.328125 38.25 0.953125 
Q 33.9375 -1.421875 27.875 -1.421875 
Q 17.96875 -1.421875 11.734375 6.484375 
Q 5.515625 14.40625 5.515625 27.296875 
Q 5.515625 40.1875 11.734375 48.09375 
Q 17.96875 56 27.875 56 
Q 33.9375 56 38.25 53.625 
Q 42.578125 51.265625 45.40625 46.390625 
z
M 14.796875 27.296875 
Q 14.796875 17.390625 18.875 11.75 
Q 22.953125 6.109375 30.078125 6.109375 
Q 37.203125 6.109375 41.296875 11.75 
Q 45.40625 17.390625 45.40625 27.296875 
Q 45.40625 37.203125 41.296875 42.84375 
Q 37.203125 48.484375 30.078125 48.484375 
Q 22.953125 48.484375 18.875 42.84375 
Q 14.796875 37.203125 14.796875 27.296875 
z
" id="DejaVuSans-100"/>
      </defs>
      <use xlink:href="#DejaVuSans-101"/>
      <use x="61.523438" xlink:href="#DejaVuSans-112"/>
      <use x="125" xlink:href="#DejaVuSans-105"/>
      <use x="152.783203" xlink:href="#DejaVuSans-115"/>
      <use x="204.882812" xlink:href="#DejaVuSans-111"/>
      <use x="266.064453" xlink:href="#DejaVuSans-100"/>
      <use x="329.541016" xlink:href="#DejaVuSans-101"/>
      <use x="391.064453" xlink:href="#DejaVuSans-115"/>
     </g>
    </g>
   </g>
   <g id="matplotlib.axis_2">
    <g id="ytick_1">
     <g id="line2d_9">
      <defs>
       <path d="M 0 0 
L -3.5 0 
" id="m225803aa96" style="stroke:#000000;stroke-width:0.8;"/>
      </defs>
      <g>
       <use style="stroke:#000000;stroke-width:0.8;" x="54" xlink:href="#m225803aa96" y="247.324722"/>
      </g>
     </g>
     <g id="text_10">
      <!-- −30 -->
      <g transform="translate(25.895312 251.12394)scale(0.1 -0.1)">
       <defs>
        <path d="M 10.59375 35.5 
L 73.1875 35.5 
L 73.1875 27.203125 
L 10.59375 27.203125 
z
" id="DejaVuSans-8722"/>
       </defs>
       <use xlink:href="#DejaVuSans-8722"/>
       <use x="83.789062" xlink:href="#DejaVuSans-51"/>
       <use x="147.412109" xlink:href="#DejaVuSans-48"/>
      </g>
     </g>
    </g>
    <g id="ytick_2">
     <g id="line2d_10">
      <g>
       <use style="stroke:#000000;stroke-width:0.8;" x="54" xlink:href="#m225803aa96" y="205.564698"/>
      </g>
     </g>
     <g id="text_11">
      <!-- −25 -->
      <g transform="translate(25.895312 209.363916)scale(0.1 -0.1)">
       <use xlink:href="#DejaVuSans-8722"/>
       <use x="83.789062" xlink:href="#DejaVuSans-50"/>
       <use x="147.412109" xlink:href="#DejaVuSans-53"/>
      </g>
     </g>
    </g>
    <g id="ytick_3">
     <g id="line2d_11">
      <g>
       <use style="stroke:#000000;stroke-width:0.8;" x="54" xlink:href="#m225803aa96" y="163.804673"/>
      </g>
     </g>
     <g id="text_12">
      <!-- −20 -->
      <g transform="translate(25.895312 167.603892)scale(0.1 -0.1)">
       <use xlink:href="#DejaVuSans-8722"/>
       <use x="83.789062" xlink:href="#DejaVuSans-50"/>
       <use x="147.412109" xlink:href="#DejaVuSans-48"/>
      </g>
     </g>
    </g>
    <g id="ytick_4">
     <g id="line2d_12">
      <g>
       <use style="stroke:#000000;stroke-width:0.8;" x="54" xlink:href="#m225803aa96" y="122.044649"/>
      </g>
     </g>
     <g id="text_13">
      <!-- −15 -->
      <g transform="translate(25.895312 125.843868)scale(0.1 -0.1)">
       <use xlink:href="#DejaVuSans-8722"/>
       <use x="83.789062" xlink:href="#DejaVuSans-49"/>
       <use x="147.412109" xlink:href="#DejaVuSans-53"/>
      </g>
     </g>
    </g>
    <g id="ytick_5">
     <g id="line2d_13">
      <g>
       <use style="stroke:#000000;stroke-width:0.8;" x="54" xlink:href="#m225803aa96" y="80.284625"/>
      </g>
     </g>
     <g id="text_14">
      <!-- −10 -->
      <g transform="translate(25.895312 84.083844)scale(0.1 -0.1)">
       <use xlink:href="#DejaVuSans-8722"/>
       <use x="83.789062" xlink:href="#DejaVuSans-49"/>
       <use x="147.412109" xlink:href="#DejaVuSans-48"/>
      </g>
     </g>
    </g>
    <g id="ytick_6">
     <g id="line2d_14">
      <g>
       <use style="stroke:#000000;stroke-width:0.8;" x="54" xlink:href="#m225803aa96" y="38.524601"/>
      </g>
     </g>
     <g id="text_15">
      <!-- −5 -->
      <g transform="translate(32.257812 42.32382)scale(0.1 -0.1)">
       <use xlink:href="#DejaVuSans-8722"/>
       <use x="83.789062" xlink:href="#DejaVuSans-53"/>
      </g>
     </g>
    </g>
    <g id="text_16">
     <!-- reward -->
     <g transform="translate(19.815625 160.594844)rotate(-90)scale(0.1 -0.1)">
      <defs>
       <path d="M 41.109375 46.296875 
Q 39.59375 47.171875 37.8125 47.578125 
Q 36.03125 48 33.890625 48 
Q 26.265625 48 22.1875 43.046875 
Q 18.109375 38.09375 18.109375 28.8125 
L 18.109375 0 
L 9.078125 0 
L 9.078125 54.6875 
L 18.109375 54.6875 
L 18.109375 46.1875 
Q 20.953125 51.171875 25.484375 53.578125 
Q 30.03125 56 36.53125 56 
Q 37.453125 56 38.578125 55.875 
Q 39.703125 55.765625 41.0625 55.515625 
z
" id="DejaVuSans-114"/>
       <path d="M 4.203125 54.6875 
L 13.1875 54.6875 
L 24.421875 12.015625 
L 35.59375 54.6875 
L 46.1875 54.6875 
L 57.421875 12.015625 
L 68.609375 54.6875 
L 77.59375 54.6875 
L 63.28125 0 
L 52.6875 0 
L 40.921875 44.828125 
L 29.109375 0 
L 18.5 0 
z
" id="DejaVuSans-119"/>
       <path d="M 34.28125 27.484375 
Q 23.390625 27.484375 19.1875 25 
Q 14.984375 22.515625 14.984375 16.5 
Q 14.984375 11.71875 18.140625 8.90625 
Q 21.296875 6.109375 26.703125 6.109375 
Q 34.1875 6.109375 38.703125 11.40625 
Q 43.21875 16.703125 43.21875 25.484375 
L 43.21875 27.484375 
z
M 52.203125 31.203125 
L 52.203125 0 
L 43.21875 0 
L 43.21875 8.296875 
Q 40.140625 3.328125 35.546875 0.953125 
Q 30.953125 -1.421875 24.3125 -1.421875 
Q 15.921875 -1.421875 10.953125 3.296875 
Q 6 8.015625 6 15.921875 
Q 6 25.140625 12.171875 29.828125 
Q 18.359375 34.515625 30.609375 34.515625 
L 43.21875 34.515625 
L 43.21875 35.40625 
Q 43.21875 41.609375 39.140625 45 
Q 35.0625 48.390625 27.6875 48.390625 
Q 23 48.390625 18.546875 47.265625 
Q 14.109375 46.140625 10.015625 43.890625 
L 10.015625 52.203125 
Q 14.9375 54.109375 19.578125 55.046875 
Q 24.21875 56 28.609375 56 
Q 40.484375 56 46.34375 49.84375 
Q 52.203125 43.703125 52.203125 31.203125 
z
" id="DejaVuSans-97"/>
      </defs>
      <use xlink:href="#DejaVuSans-114"/>
      <use x="38.863281" xlink:href="#DejaVuSans-101"/>
      <use x="100.386719" xlink:href="#DejaVuSans-119"/>
      <use x="182.173828" xlink:href="#DejaVuSans-97"/>
      <use x="243.453125" xlink:href="#DejaVuSans-114"/>
      <use x="282.816406" xlink:href="#DejaVuSans-100"/>
     </g>
    </g>
   </g>
   <g id="line2d_15">
    <path clip-path="url(#pfe328c0032)" d="M 69.218182 112.026857 
L 69.624542 191.692692 
L 70.030902 126.716654 
L 70.437262 174.083338 
L 70.843622 156.366185 
L 71.249982 205.652138 
L 71.656342 165.868206 
L 72.062702 197.983809 
L 72.469062 182.915081 
L 72.875422 161.941463 
L 73.281782 154.732481 
L 73.688142 132.945165 
L 74.094502 132.54339 
L 74.500862 133.479001 
L 74.907222 129.754723 
L 75.313582 136.040448 
L 75.719942 134.429317 
L 76.126302 146.802467 
L 76.939022 133.08723 
L 77.345382 132.134892 
L 77.751742 139.755813 
L 78.158102 132.17279 
L 78.564462 141.30179 
L 78.970822 140.157413 
L 79.377182 151.674092 
L 79.783542 150.210762 
L 80.189902 144.351241 
L 80.596262 142.486294 
L 81.002622 145.665625 
L 81.408982 140.862371 
L 81.815342 145.0688 
L 82.221702 142.006414 
L 82.628062 148.81104 
L 83.034422 147.6518 
L 83.440782 152.179366 
L 83.847142 145.948688 
L 84.253502 151.848799 
L 84.659862 145.721078 
L 85.066222 142.644816 
L 85.472582 136.739767 
L 85.878942 139.325969 
L 86.285302 139.045327 
L 86.691662 135.604359 
L 87.098022 135.909279 
L 87.504382 138.095442 
L 87.910742 137.563581 
L 88.317102 136.677098 
L 88.723462 136.181621 
L 89.129822 142.595145 
L 89.536182 142.01809 
L 89.942542 145.351545 
L 90.348902 144.700526 
L 90.755262 149.731199 
L 91.161622 149.964513 
L 91.567982 154.662643 
L 91.974342 151.892511 
L 92.380702 157.143084 
L 92.787062 153.29252 
L 93.193422 156.820339 
L 93.599782 156.049397 
L 94.006142 160.161998 
L 94.412502 159.238031 
L 94.818862 162.443678 
L 95.225222 161.610928 
L 95.631582 166.330866 
L 96.037941 162.561243 
L 96.444301 166.509571 
L 96.850661 166.002529 
L 97.257021 169.617343 
L 97.663381 168.791506 
L 98.069741 171.931091 
L 98.476101 171.084497 
L 98.882461 174.435236 
L 99.288821 173.632228 
L 99.695181 176.29961 
L 100.101541 175.358661 
L 100.507901 178.554941 
L 100.914261 176.768754 
L 101.320621 179.039713 
L 101.726981 178.160223 
L 102.133341 180.614109 
L 102.539701 179.713241 
L 102.946061 182.524982 
L 103.352421 181.719282 
L 103.758781 184.953635 
L 104.165141 182.790555 
L 104.571501 185.367166 
L 104.977861 184.483822 
L 105.384221 186.105817 
L 105.790581 185.673074 
L 106.196941 188.759945 
L 106.603301 188.946918 
L 107.009661 191.856853 
L 107.416021 191.280786 
L 107.822381 193.47982 
L 108.228741 192.742651 
L 108.635101 192.255984 
L 109.041461 189.734474 
L 109.447821 191.32265 
L 110.666901 191.620226 
L 111.479621 192.53559 
L 111.885981 192.460193 
L 112.292341 193.980745 
L 112.698701 192.486557 
L 113.105061 193.879031 
L 113.511421 198.129061 
L 113.917781 198.426206 
L 114.324141 202.694381 
L 114.730501 200.647161 
L 115.136861 203.065809 
L 115.543221 202.342611 
L 115.949581 204.336098 
L 116.355941 203.217225 
L 116.762301 202.667889 
L 117.575021 207.631846 
L 118.387741 207.391332 
L 118.794101 208.992794 
L 119.200461 208.331978 
L 120.419541 204.67052 
L 120.825901 207.326656 
L 121.232261 206.341597 
L 121.638621 207.384164 
L 122.044981 208.838924 
L 122.451341 208.830768 
L 122.857701 209.406979 
L 123.264061 207.769881 
L 123.670421 206.655151 
L 124.076781 207.166446 
L 124.483141 208.963849 
L 124.889501 207.831069 
L 125.295861 208.670048 
L 125.702221 210.505588 
L 126.108581 211.467867 
L 126.921301 211.467277 
L 127.327661 215.300207 
L 127.734021 213.742888 
L 128.140381 214.239352 
L 128.546741 213.076019 
L 128.953101 215.438847 
L 129.359461 214.613234 
L 129.765821 212.953308 
L 130.172181 213.519945 
L 130.578541 213.261207 
L 130.984901 213.277536 
L 131.391261 212.415681 
L 131.797621 211.949659 
L 132.203981 211.929826 
L 132.610341 214.353524 
L 133.016701 212.69841 
L 133.423061 214.562114 
L 133.829421 214.623206 
L 135.048501 211.41834 
L 135.454861 210.988033 
L 135.861221 209.872522 
L 136.267581 207.591049 
L 136.673941 209.035837 
L 137.080301 207.388544 
L 137.893021 206.689034 
L 138.299381 206.627464 
L 138.705741 205.386487 
L 139.112101 205.46276 
L 139.518461 204.698828 
L 139.924821 204.565493 
L 140.331181 202.936902 
L 140.737541 201.866091 
L 141.143901 200.208794 
L 141.550261 199.749686 
L 141.956621 198.722317 
L 142.362981 198.915518 
L 142.769341 197.321735 
L 143.175701 197.274119 
L 143.582061 196.883033 
L 144.394781 194.595443 
L 144.801141 194.595443 
L 145.207501 193.82345 
L 145.613861 192.723598 
L 146.020221 192.773189 
L 146.426581 193.506105 
L 147.239301 191.677065 
L 148.052021 188.342001 
L 148.458381 187.521294 
L 148.864741 186.994021 
L 149.271101 189.001033 
L 149.677461 191.724234 
L 150.083821 191.758994 
L 150.490181 190.502931 
L 150.896541 191.122694 
L 151.302901 191.122694 
L 151.709261 191.485504 
L 152.521981 189.066538 
L 153.334701 188.313996 
L 153.741061 186.265517 
L 154.147421 185.755274 
L 154.553781 185.750431 
L 154.960141 185.39334 
L 155.366501 187.115249 
L 155.772861 186.483506 
L 156.179221 186.767254 
L 156.585581 184.891109 
L 156.991941 184.891109 
L 157.398301 184.47976 
L 157.804661 183.612122 
L 158.211021 183.408646 
L 158.617381 182.346134 
L 159.023741 181.829582 
L 159.430101 181.807025 
L 159.836461 181.976427 
L 160.242821 183.071866 
L 160.649181 182.128512 
L 161.055541 184.375337 
L 161.461901 185.191425 
L 161.868261 185.754923 
L 162.274621 185.174794 
L 162.680981 185.088117 
L 163.493701 185.214396 
L 163.900061 185.535421 
L 164.306421 186.669507 
L 164.712781 186.012307 
L 165.119141 186.150613 
L 165.525501 186.075422 
L 165.931861 186.233577 
L 166.338221 186.680993 
L 166.744581 188.211358 
L 167.557301 188.58038 
L 167.963661 187.394681 
L 168.370021 187.980354 
L 168.776381 186.129585 
L 169.182741 187.526216 
L 169.589101 186.88278 
L 169.995461 185.67035 
L 170.401821 185.910943 
L 170.808181 184.496948 
L 171.214541 185.210891 
L 171.620901 185.650899 
L 172.027261 185.48873 
L 172.433621 184.296785 
L 172.839981 184.492408 
L 173.246341 182.319595 
L 173.652701 182.121391 
L 174.059061 180.100823 
L 174.465421 179.51276 
L 174.871781 180.583682 
L 175.278141 180.196069 
L 175.684501 180.768138 
L 176.090861 181.782508 
L 176.497221 183.142229 
L 176.903581 182.920179 
L 177.309941 181.635568 
L 177.716301 181.492229 
L 178.122661 180.562193 
L 178.529021 180.613488 
L 178.935381 179.69156 
L 179.341741 180.184185 
L 179.7481 179.272118 
L 180.15446 180.023227 
L 180.56082 180.035286 
L 180.96718 182.537934 
L 181.37354 182.69937 
L 181.7799 183.196233 
L 182.18626 184.963862 
L 182.59262 184.791179 
L 183.40534 185.986182 
L 183.8117 185.31396 
L 184.21806 184.192491 
L 184.62442 185.384769 
L 185.03078 184.327881 
L 185.43714 184.327881 
L 185.8435 183.425452 
L 186.65622 185.756994 
L 187.46894 183.531961 
L 187.8753 181.435931 
L 188.28166 181.18468 
L 188.68802 182.640285 
L 189.09438 183.205679 
L 189.50074 181.899882 
L 190.31346 181.029887 
L 190.71982 180.812281 
L 191.12618 180.812281 
L 191.53254 181.884876 
L 191.9389 181.884876 
L 192.34526 182.229509 
L 193.9707 189.358634 
L 194.37706 189.358634 
L 194.78342 188.775254 
L 195.18978 188.553809 
L 195.59614 188.782375 
L 196.0025 187.798097 
L 196.40886 187.703917 
L 196.81522 188.756982 
L 197.22158 189.250977 
L 197.62794 190.30323 
L 198.0343 189.943717 
L 198.44066 189.229201 
L 198.84702 191.535923 
L 199.25338 191.946444 
L 199.65974 193.086122 
L 200.0661 192.031081 
L 200.47246 193.189588 
L 201.28518 193.208959 
L 202.0979 188.647574 
L 202.50426 188.562825 
L 202.91062 189.36534 
L 203.31698 188.288954 
L 203.72334 186.64953 
L 204.1297 187.026598 
L 204.53606 188.206658 
L 204.94242 188.167932 
L 205.34878 189.663075 
L 205.75514 189.562843 
L 206.1615 191.903098 
L 206.56786 192.261942 
L 207.78694 188.350317 
L 208.1933 188.415264 
L 208.59966 189.850144 
L 209.00602 189.296155 
L 209.41238 191.486221 
L 209.81874 191.249101 
L 210.2251 191.791237 
L 210.63146 193.061286 
L 211.03782 193.440409 
L 211.44418 193.21941 
L 211.85054 193.32928 
L 212.2569 192.796654 
L 213.06962 194.800162 
L 213.47598 193.971251 
L 213.88234 194.74267 
L 214.2887 194.235389 
L 214.69506 197.570931 
L 215.10142 197.656747 
L 215.50778 197.122321 
L 215.91414 197.009854 
L 216.3205 197.502033 
L 216.72686 196.553279 
L 217.53958 199.01685 
L 217.94594 200.777135 
L 218.3523 200.926752 
L 218.75866 201.92645 
L 219.16502 201.496702 
L 219.57138 202.381098 
L 219.97774 202.743653 
L 220.3841 203.718214 
L 220.79046 203.256286 
L 221.19682 201.790582 
L 221.60318 201.553174 
L 222.00954 202.479084 
L 222.4159 204.240931 
L 222.82226 203.572453 
L 223.22862 205.954095 
L 223.63498 205.132751 
L 224.04134 205.340783 
L 224.4477 203.915939 
L 224.85406 204.703002 
L 226.4795 211.100389 
L 226.88586 211.17045 
L 227.29222 210.338289 
L 227.69858 210.275413 
L 228.10494 209.75937 
L 228.5113 209.578212 
L 228.91766 206.168356 
L 229.32402 206.026482 
L 229.73038 205.194114 
L 230.13674 207.057945 
L 230.5431 205.262836 
L 230.94946 204.752099 
L 231.35582 202.63383 
L 231.76218 203.868802 
L 232.16854 202.157565 
L 232.5749 202.157565 
L 232.98126 196.934631 
L 233.38762 194.199992 
L 234.20034 192.400869 
L 234.6067 187.486295 
L 235.01306 187.930747 
L 235.41942 184.628707 
L 235.82578 184.788534 
L 236.23214 185.519029 
L 236.6385 186.981149 
L 237.04486 187.892117 
L 237.45122 187.540012 
L 237.85758 186.97449 
L 238.26394 184.75489 
L 238.6703 185.988587 
L 239.07666 185.978424 
L 239.48302 185.415594 
L 239.88938 183.965103 
L 240.29574 180.651083 
L 240.7021 181.545866 
L 241.10846 177.210848 
L 241.51482 177.63424 
L 241.92118 178.838642 
L 242.32754 179.454933 
L 242.7339 180.959906 
L 243.14026 180.567609 
L 243.54662 180.413261 
L 244.35934 185.116951 
L 244.7657 184.644398 
L 245.17206 185.500948 
L 245.57842 185.746671 
L 245.98478 182.507587 
L 246.39114 181.423315 
L 246.7975 180.972124 
L 247.20386 182.021844 
L 247.61022 185.119659 
L 248.01658 185.689354 
L 248.42294 188.791838 
L 248.8293 188.47787 
L 249.23566 185.506651 
L 249.64202 186.694565 
L 250.04838 184.487119 
L 250.45474 184.405891 
L 251.26746 182.394976 
L 251.67382 179.694778 
L 252.08018 180.682609 
L 252.48654 175.915421 
L 252.8929 177.400322 
L 253.29926 174.421297 
L 253.70562 173.852239 
L 254.11198 171.130695 
L 254.51834 170.582266 
L 254.9247 168.180154 
L 255.33106 164.863696 
L 255.73742 163.658514 
L 256.14378 164.487202 
L 256.55014 162.968116 
L 256.9565 163.094538 
L 258.17558 157.092633 
L 258.58194 157.093207 
L 259.39466 154.984512 
L 259.80102 152.614834 
L 260.20738 153.09242 
L 260.61374 150.209344 
L 261.0201 149.82412 
L 261.42646 147.130214 
L 261.83282 148.474101 
L 262.23918 145.886465 
L 262.64554 145.977012 
L 263.0519 140.032042 
L 263.458259 140.047224 
L 263.864619 134.125942 
L 264.270979 133.053395 
L 264.677339 128.970942 
L 265.083699 130.734549 
L 265.490059 130.144782 
L 265.896419 128.837336 
L 266.302779 128.014438 
L 266.709139 127.65299 
L 267.115499 126.532517 
L 267.521859 124.260227 
L 267.928219 119.504334 
L 268.334579 117.487199 
L 268.740939 117.589247 
L 269.553659 121.668816 
L 269.960019 120.429344 
L 270.366379 116.307337 
L 270.772739 115.998642 
L 271.179099 116.987262 
L 272.398179 116.711837 
L 272.804539 117.658695 
L 273.210899 116.488718 
L 274.023619 120.583023 
L 274.429979 117.998342 
L 274.836339 116.586378 
L 275.242699 117.321166 
L 275.649059 117.384919 
L 276.055419 118.819512 
L 276.868139 118.877147 
L 277.274499 116.376371 
L 277.680859 111.67147 
L 278.087219 111.665417 
L 278.493579 113.307261 
L 278.899939 114.474609 
L 279.712659 114.997334 
L 280.119019 113.289117 
L 280.931739 118.675981 
L 281.744459 120.211754 
L 282.150819 119.779202 
L 282.557179 115.546488 
L 282.963539 115.265471 
L 283.369899 113.68542 
L 283.776259 115.007211 
L 284.182619 114.629403 
L 284.588979 113.41428 
L 284.995339 110.807003 
L 285.401699 110.955424 
L 285.808059 105.465699 
L 286.214419 105.159227 
L 286.620779 104.037845 
L 287.027139 105.65307 
L 287.433499 102.462557 
L 287.839859 101.929796 
L 288.246219 98.538952 
L 288.652579 98.402176 
L 289.058939 96.070817 
L 289.465299 96.079802 
L 289.871659 97.970619 
L 290.278019 97.733212 
L 290.684379 95.599061 
L 291.090739 95.865676 
L 291.497099 94.996661 
L 291.903459 96.887311 
L 292.309819 96.206367 
L 292.716179 95.923726 
L 293.122539 97.879602 
L 293.528899 96.537978 
L 293.935259 96.493883 
L 294.341619 97.052762 
L 295.154339 97.569417 
L 295.560699 96.733911 
L 295.967059 99.111961 
L 296.373419 98.515216 
L 296.779779 98.575082 
L 297.186139 97.289118 
L 297.592499 97.008906 
L 298.405219 97.67799 
L 298.811579 99.950781 
L 299.217939 98.275889 
L 299.624299 97.942295 
L 300.030659 99.144745 
L 300.437019 101.674642 
L 300.843379 100.153986 
L 301.249739 103.850267 
L 301.656099 104.141479 
L 302.062459 106.833489 
L 302.468819 107.040812 
L 302.875179 109.87249 
L 303.281539 109.814114 
L 303.687899 114.845727 
L 304.094259 113.885073 
L 304.500619 119.677695 
L 304.906979 120.799267 
L 305.313339 124.399011 
L 306.126059 123.162956 
L 306.532419 123.234499 
L 306.938779 121.119042 
L 307.345139 121.503047 
L 307.751499 119.657997 
L 308.157859 121.771765 
L 308.564219 122.06054 
L 308.970579 124.389724 
L 309.376939 121.991634 
L 309.783299 121.264867 
L 310.189659 121.441931 
L 310.596019 122.561958 
L 311.002379 126.413741 
L 311.408739 126.516093 
L 311.815099 127.006727 
L 312.221459 125.170637 
L 312.627819 128.61088 
L 313.034179 128.653159 
L 313.440539 128.995268 
L 313.846899 131.328952 
L 314.253259 132.798368 
L 314.659619 132.879055 
L 315.472339 135.391309 
L 315.878699 137.868229 
L 316.285059 138.485683 
L 316.691419 138.591205 
L 317.097779 138.993729 
L 317.504139 139.558374 
L 317.910499 140.572777 
L 318.316859 144.549859 
L 318.723219 145.530346 
L 319.129579 145.117196 
L 319.535939 146.2664 
L 319.942299 145.872781 
L 320.348659 145.743906 
L 320.755019 146.72135 
L 321.161379 146.172953 
L 321.567739 144.407889 
L 321.974099 141.880613 
L 322.380459 145.243778 
L 322.786819 144.993817 
L 323.193179 146.161914 
L 323.599539 146.626725 
L 324.005899 148.865282 
L 324.412259 147.507075 
L 324.818619 147.173943 
L 325.224979 145.847563 
L 325.631339 148.542967 
L 326.037699 148.94385 
L 326.444059 152.585156 
L 326.850419 152.698817 
L 327.256779 156.979354 
L 327.663139 154.744938 
L 328.069499 157.11108 
L 328.475859 157.784433 
L 328.882219 160.116836 
L 329.288579 160.516524 
L 329.694939 162.52497 
L 330.101299 162.749649 
L 330.507659 164.239886 
L 330.914019 164.808004 
L 331.320379 169.347486 
L 331.726739 170.26242 
L 332.133099 173.082556 
L 332.539459 173.12431 
L 332.945819 177.286038 
L 333.352179 177.607589 
L 333.758539 179.966388 
L 334.164899 180.275433 
L 334.571259 183.216958 
L 334.977619 182.128878 
L 335.383979 185.000103 
L 335.790339 185.738228 
L 336.196699 189.972121 
L 336.603059 188.399907 
L 337.415779 187.822932 
L 337.822139 192.698747 
L 338.228499 192.905824 
L 338.634859 194.894453 
L 339.041219 194.824678 
L 339.447579 194.448184 
L 339.853939 196.308272 
L 340.260299 197.508006 
L 341.073019 197.393564 
L 341.479379 198.563461 
L 341.885739 198.551911 
L 342.292099 197.373492 
L 343.104819 197.36763 
L 343.511179 196.334605 
L 343.917539 196.564589 
L 344.323899 195.583847 
L 344.730259 196.661731 
L 345.136619 195.524858 
L 345.542979 195.752373 
L 345.949339 197.37483 
L 346.355699 197.37483 
L 346.762059 197.983124 
L 347.168418 197.480718 
L 347.574778 199.701466 
L 348.387498 195.034511 
L 348.793858 193.396967 
L 349.200218 196.67446 
L 349.606578 195.341661 
L 350.012938 197.922972 
L 350.419298 198.686633 
L 350.825658 200.562428 
L 352.044738 202.482493 
L 352.451098 203.72097 
L 352.857458 206.012989 
L 353.263818 204.564776 
L 353.670178 204.719394 
L 354.076538 204.042903 
L 354.482898 204.00894 
L 354.889258 205.996167 
L 355.295618 205.955911 
L 355.701978 207.693687 
L 356.108338 207.13621 
L 356.514698 208.577653 
L 356.921058 208.563969 
L 357.327418 211.165607 
L 357.733778 211.202167 
L 358.140138 209.965411 
L 358.546498 211.427595 
L 358.952858 208.528843 
L 359.359218 207.613941 
L 359.765578 208.506445 
L 360.171938 207.357242 
L 360.578298 208.321814 
L 360.984658 208.320158 
L 361.391018 205.984681 
L 361.797378 205.788262 
L 362.203738 206.071357 
L 362.610098 207.920549 
L 363.016458 207.591925 
L 363.422818 206.850025 
L 363.829178 209.283185 
L 364.641898 210.649947 
L 365.048258 212.205514 
L 365.454618 213.17195 
L 365.860978 214.784467 
L 366.267338 214.891948 
L 366.673698 215.288769 
L 367.080058 215.871878 
L 367.486418 215.958395 
L 367.892778 214.279974 
L 368.299138 216.081471 
L 368.705498 215.473687 
L 369.111858 216.693047 
L 369.518218 216.806326 
L 369.924578 216.586952 
L 370.330938 217.103074 
L 370.737298 215.671651 
L 371.143658 214.900678 
L 371.550018 213.382053 
L 371.956378 213.063657 
L 372.362738 212.020803 
L 372.769098 211.535777 
L 373.175458 210.825848 
L 373.581818 210.891672 
L 373.581818 210.891672 
" style="fill:none;stroke:#1f77b4;stroke-linecap:square;stroke-width:1.5;"/>
   </g>
   <g id="line2d_16">
    <path clip-path="url(#pfe328c0032)" d="M 69.218182 44.443636 
L 70.030902 217.006983 
L 70.437262 189.554846 
L 70.843622 242.116364 
L 71.249982 201.224407 
L 71.656342 218.679206 
L 72.062702 203.158427 
L 72.469062 219.119979 
L 72.875422 198.681822 
L 73.281782 209.522233 
L 73.688142 184.92692 
L 74.094502 205.707289 
L 74.500862 198.882319 
L 74.907222 211.016692 
L 75.313582 197.14021 
L 75.719942 206.046076 
L 76.126302 200.650936 
L 76.532662 212.934224 
L 76.939022 207.841997 
L 77.345382 212.962516 
L 77.751742 203.135328 
L 78.158102 209.022344 
L 78.564462 200.178272 
L 78.970822 206.390024 
L 79.377182 198.327503 
L 79.783542 205.770516 
L 80.189902 202.253163 
L 80.596262 208.94615 
L 81.002622 201.873435 
L 81.408982 209.35742 
L 81.815342 202.713895 
L 82.221702 205.356394 
L 82.628062 199.221346 
L 83.034422 204.384462 
L 83.440782 203.679105 
L 83.847142 206.380307 
L 84.253502 203.831716 
L 84.659862 208.004851 
L 85.066222 202.723836 
L 85.472582 204.475869 
L 85.878942 203.533392 
L 86.285302 209.526104 
L 86.691662 204.690624 
L 87.098022 209.833796 
L 87.504382 207.538049 
L 87.910742 210.118962 
L 88.317102 206.400156 
L 88.723462 209.852323 
L 89.129822 207.846776 
L 89.536182 211.57162 
L 89.942542 207.440716 
L 90.755262 203.93668 
L 91.161622 206.570928 
L 91.567982 205.40495 
L 91.974342 209.72058 
L 92.380702 206.048911 
L 92.787062 209.113688 
L 93.193422 206.283882 
L 93.599782 207.318292 
L 94.006142 205.643998 
L 94.412502 208.880183 
L 94.818862 207.405669 
L 95.225222 209.733468 
L 95.631582 208.105801 
L 96.037941 210.993402 
L 96.444301 209.374911 
L 96.850661 210.320081 
L 97.257021 207.470569 
L 97.663381 210.386223 
L 98.069741 209.235251 
L 98.476101 211.068561 
L 98.882461 209.928246 
L 99.288821 212.036033 
L 99.695181 212.900564 
L 100.101541 216.25887 
L 100.507901 215.040115 
L 100.914261 218.740856 
L 101.320621 216.751606 
L 101.726981 217.391793 
L 102.133341 214.701216 
L 102.539701 217.205808 
L 102.946061 214.581517 
L 103.352421 215.203543 
L 103.758781 214.365774 
L 104.165141 215.404709 
L 104.571501 214.725143 
L 104.977861 216.255094 
L 105.384221 215.068789 
L 105.790581 217.078637 
L 106.196941 215.952086 
L 106.603301 217.658082 
L 107.009661 216.489125 
L 107.416021 217.640415 
L 107.822381 215.339634 
L 108.228741 216.31128 
L 108.635101 214.13031 
L 109.041461 216.421007 
L 109.447821 215.209564 
L 109.854181 215.39034 
L 110.260541 213.964716 
L 110.666901 214.543189 
L 111.073261 214.518959 
L 111.479621 213.962119 
L 111.885981 215.1075 
L 112.292341 215.766468 
L 112.698701 215.908995 
L 113.105061 216.548831 
L 113.511421 216.369091 
L 114.324141 218.28358 
L 114.730501 218.294636 
L 115.136861 216.524999 
L 115.543221 216.47552 
L 115.949581 216.553228 
L 117.168661 213.910123 
L 117.575021 213.880047 
L 117.981381 214.119685 
L 118.794101 216.368501 
L 120.013181 217.434199 
L 120.419541 216.660071 
L 120.825901 216.426057 
L 121.232261 217.445573 
L 121.638621 219.285382 
L 122.044981 218.7673 
L 122.451341 219.870322 
L 122.857701 220.388021 
L 123.264061 221.480052 
L 124.076781 220.569801 
L 124.483141 221.823092 
L 125.295861 221.896626 
L 125.702221 223.162311 
L 126.108581 225.082711 
L 126.514941 223.401439 
L 126.921301 222.981392 
L 127.327661 223.487271 
L 127.734021 221.584076 
L 128.140381 221.557839 
L 128.546741 221.240653 
L 128.953101 222.394317 
L 129.359461 223.068657 
L 129.765821 220.942551 
L 130.172181 221.182922 
L 130.578541 221.182922 
L 130.984901 225.006979 
L 131.391261 225.665978 
L 131.797621 226.657664 
L 132.203981 226.440743 
L 132.610341 225.250679 
L 133.016701 226.590566 
L 133.423061 226.535591 
L 133.829421 225.820772 
L 134.235781 227.192425 
L 134.642141 227.532948 
L 135.048501 228.476923 
L 135.454861 227.6854 
L 136.267581 228.388702 
L 136.673941 229.075389 
L 137.080301 228.033682 
L 137.486661 228.696362 
L 137.893021 229.88547 
L 138.299381 229.481879 
L 138.705741 229.489302 
L 139.112101 229.753154 
L 139.518461 229.58885 
L 139.924821 230.472052 
L 140.331181 229.040071 
L 140.737541 226.908979 
L 141.143901 225.664656 
L 141.550261 225.379028 
L 141.956621 226.255969 
L 142.769341 228.777669 
L 143.175701 228.62278 
L 143.582061 227.903405 
L 143.988421 227.910398 
L 144.394781 226.44651 
L 144.801141 225.851581 
L 145.207501 225.625149 
L 145.613861 225.754964 
L 146.020221 225.730623 
L 146.832941 223.353967 
L 147.239301 222.506863 
L 148.052021 222.422848 
L 148.458381 223.581896 
L 148.864741 224.319384 
L 149.271101 224.261271 
L 149.677461 223.605473 
L 150.083821 223.746646 
L 150.490181 226.539144 
L 150.896541 225.501993 
L 151.302901 225.255569 
L 151.709261 224.175471 
L 152.115621 222.693263 
L 152.521981 220.49418 
L 152.928341 221.105613 
L 153.334701 221.122403 
L 154.553781 220.860606 
L 154.960141 222.047102 
L 155.366501 221.88874 
L 155.772861 224.428936 
L 156.179221 225.149665 
L 157.398301 228.347889 
L 157.804661 229.231425 
L 158.617381 229.480652 
L 159.430101 227.238511 
L 159.836461 226.851582 
L 160.242821 227.655021 
L 160.649181 227.227407 
L 161.055541 228.550266 
L 161.461901 227.679076 
L 162.274621 223.968569 
L 163.087341 224.022398 
L 163.493701 224.639421 
L 163.900061 222.42589 
L 164.306421 222.932247 
L 164.712781 222.713175 
L 165.119141 222.729297 
L 165.931861 223.349618 
L 166.338221 222.390732 
L 166.744581 218.760514 
L 167.150941 218.760514 
L 167.557301 218.281764 
L 167.963661 219.168821 
L 168.370021 220.553871 
L 168.776381 219.505457 
L 169.182741 220.419946 
L 169.995461 217.504754 
L 170.401821 218.502764 
L 170.808181 218.888274 
L 171.214541 220.237481 
L 172.027261 216.797724 
L 172.433621 215.994572 
L 172.839981 215.916371 
L 173.246341 216.611835 
L 173.652701 216.36933 
L 174.059061 216.791703 
L 174.871781 215.738096 
L 175.278141 215.49019 
L 175.684501 213.23626 
L 176.090861 214.384954 
L 176.497221 210.58414 
L 177.309941 208.062646 
L 177.716301 209.171483 
L 178.122661 208.351444 
L 178.529021 207.021433 
L 178.935381 207.616617 
L 180.15446 207.896064 
L 180.56082 204.408389 
L 180.96718 204.314847 
L 181.7799 207.165474 
L 182.99898 204.550247 
L 183.40534 204.619337 
L 183.8117 203.665533 
L 184.62442 207.247068 
L 185.43714 209.75432 
L 185.8435 209.01747 
L 186.24986 206.392191 
L 186.65622 205.723378 
L 187.06258 206.20952 
L 187.46894 207.359711 
L 187.8753 208.01621 
L 188.28166 208.003848 
L 188.68802 208.634763 
L 189.50074 209.394967 
L 189.9071 210.709797 
L 190.31346 210.567636 
L 191.12618 206.279246 
L 191.53254 208.895014 
L 191.9389 205.977815 
L 192.34526 206.967239 
L 192.75162 203.58593 
L 193.15798 205.800193 
L 193.56434 200.183816 
L 193.9707 197.995343 
L 194.37706 192.934148 
L 194.78342 194.107868 
L 195.18978 188.912732 
L 195.59614 189.023319 
L 196.0025 185.652365 
L 196.40886 185.350934 
L 196.81522 182.022815 
L 197.22158 182.10261 
L 197.62794 177.666388 
L 198.0343 177.841317 
L 198.44066 174.884993 
L 198.84702 174.749698 
L 199.25338 172.483964 
L 199.65974 173.774659 
L 200.0661 170.217258 
L 200.47246 171.346692 
L 200.87882 165.671882 
L 201.28518 166.853026 
L 201.69154 163.343749 
L 202.0979 163.343749 
L 202.50426 161.300958 
L 202.91062 161.300958 
L 203.31698 156.769553 
L 203.72334 156.770429 
L 204.1297 151.695264 
L 204.53606 153.672486 
L 204.94242 148.780422 
L 205.34878 146.612547 
L 205.75514 141.112093 
L 206.1615 141.25384 
L 206.56786 138.561368 
L 206.97422 137.46647 
L 207.38058 135.349476 
L 207.78694 136.595583 
L 208.1933 133.95901 
L 208.59966 133.74768 
L 209.00602 130.950419 
L 209.41238 132.2472 
L 209.81874 128.490034 
L 210.2251 128.154449 
L 210.63146 126.474196 
L 211.03782 125.621493 
L 211.44418 122.955999 
L 212.2569 122.700503 
L 212.66326 123.93784 
L 213.47598 118.707538 
L 213.88234 118.117978 
L 214.2887 118.116935 
L 214.69506 113.292956 
L 215.10142 114.735219 
L 215.50778 110.02354 
L 216.3205 107.211106 
L 216.72686 106.900547 
L 217.13322 110.290395 
L 217.53958 110.824343 
L 217.94594 109.840582 
L 218.3523 109.993456 
L 218.75866 109.168384 
L 219.16502 110.243178 
L 219.57138 107.85044 
L 219.97774 107.497427 
L 220.3841 106.834955 
L 220.79046 106.879989 
L 221.19682 107.836573 
L 221.60318 107.544772 
L 222.00954 104.950167 
L 222.4159 105.360927 
L 222.82226 105.502626 
L 223.22862 106.2195 
L 223.63498 101.589065 
L 224.4477 97.645986 
L 224.85406 97.590979 
L 225.26042 96.262019 
L 225.66678 96.20193 
L 226.07314 91.301152 
L 226.4795 90.101203 
L 226.88586 91.577613 
L 227.29222 90.926212 
L 227.69858 86.533766 
L 228.10494 86.472299 
L 228.5113 86.099063 
L 228.91766 83.969739 
L 229.32402 79.14944 
L 230.13674 78.424457 
L 230.94946 78.448321 
L 231.76218 83.342655 
L 232.16854 79.885566 
L 232.5749 82.605804 
L 232.98126 81.280222 
L 233.38762 85.553462 
L 233.79398 85.733449 
L 234.20034 91.393078 
L 235.01306 96.145291 
L 235.41942 93.934619 
L 235.82578 94.350389 
L 236.23214 94.021176 
L 236.6385 95.189543 
L 237.04486 94.680431 
L 237.45122 96.873627 
L 237.85758 96.734508 
L 238.26394 97.070261 
L 238.6703 96.803144 
L 239.48302 91.936663 
L 239.88938 89.638965 
L 240.29574 88.674735 
L 240.7021 92.734081 
L 241.10846 90.796588 
L 241.51482 95.553731 
L 241.92118 95.493587 
L 242.32754 98.902567 
L 242.7339 99.974915 
L 243.14026 102.257527 
L 243.54662 103.409575 
L 243.95298 106.931523 
L 244.35934 106.739095 
L 244.7657 110.275667 
L 245.17206 109.510437 
L 245.57842 109.629722 
L 245.98478 111.97455 
L 246.39114 117.022037 
L 246.7975 114.877699 
L 247.61022 119.330528 
L 248.01658 125.490404 
L 248.42294 125.595081 
L 248.8293 129.153223 
L 249.23566 128.405246 
L 249.64202 131.335993 
L 250.04838 131.163995 
L 250.45474 133.878801 
L 250.8611 134.214387 
L 251.67382 138.744836 
L 252.08018 140.433658 
L 252.48654 139.231885 
L 252.8929 139.477497 
L 253.29926 139.585105 
L 254.11198 145.685219 
L 254.51834 146.242998 
L 254.9247 145.152768 
L 255.33106 149.083335 
L 255.73742 149.466153 
L 256.14378 154.650695 
L 256.55014 154.158086 
L 256.9565 157.066986 
L 257.36286 156.944849 
L 258.58194 159.746347 
L 258.9883 159.850865 
L 259.39466 162.515555 
L 259.80102 161.440777 
L 260.20738 162.368631 
L 260.61374 162.531676 
L 261.0201 163.278515 
L 261.42646 161.063487 
L 261.83282 162.144844 
L 262.23918 162.46837 
L 262.64554 164.02862 
L 263.458259 162.781016 
L 263.864619 161.741603 
L 264.270979 165.785449 
L 264.677339 167.604309 
L 265.490059 165.300836 
L 265.896419 164.888388 
L 266.302779 162.756069 
L 267.115499 165.924423 
L 267.521859 166.461637 
L 267.928219 167.795918 
L 268.334579 169.919698 
L 268.740939 170.000034 
L 269.147299 167.717621 
L 269.553659 168.759423 
L 269.960019 174.051367 
L 270.366379 174.233624 
L 270.772739 173.567631 
L 271.179099 173.645593 
L 271.585459 173.030879 
L 271.991819 172.998716 
L 272.398179 172.816299 
L 272.804539 174.810934 
L 273.210899 174.492011 
L 273.617259 174.848816 
L 274.023619 170.379921 
L 274.429979 169.039364 
L 274.836339 168.581769 
L 275.242699 167.067797 
L 275.649059 166.899876 
L 276.055419 169.076545 
L 276.461779 168.654953 
L 276.868139 168.825661 
L 277.680859 169.819083 
L 278.493579 169.666408 
L 278.899939 174.338014 
L 279.306299 172.485716 
L 279.712659 177.780623 
L 280.119019 177.788445 
L 280.525379 182.533824 
L 280.931739 181.55861 
L 281.338099 181.592828 
L 282.150819 182.618254 
L 282.557179 182.592845 
L 282.963539 181.809319 
L 283.369899 182.527069 
L 283.776259 183.814117 
L 284.182619 182.662062 
L 284.588979 184.27982 
L 284.995339 183.701347 
L 285.808059 186.955087 
L 286.214419 193.165661 
L 286.620779 193.004384 
L 287.027139 193.860472 
L 287.433499 195.564922 
L 287.839859 193.228888 
L 288.246219 192.991576 
L 288.652579 190.518032 
L 289.465299 188.052008 
L 289.871659 189.470941 
L 290.278019 188.629812 
L 290.684379 188.61275 
L 291.497099 190.858699 
L 291.903459 189.584874 
L 292.309819 189.55381 
L 292.716179 189.388104 
L 293.122539 189.388104 
L 293.528899 187.1484 
L 293.935259 187.585285 
L 294.341619 182.142355 
L 294.747979 182.15956 
L 295.154339 179.158154 
L 295.560699 180.659701 
L 296.373419 180.898319 
L 296.779779 179.304488 
L 297.186139 181.111879 
L 297.998859 179.650126 
L 298.405219 179.56963 
L 298.811579 179.35059 
L 299.217939 179.510227 
L 299.624299 179.402459 
L 300.030659 179.599277 
L 300.437019 181.341911 
L 300.843379 182.516332 
L 301.249739 182.429003 
L 301.656099 183.08179 
L 302.062459 184.120486 
L 302.468819 183.632576 
L 302.875179 182.664053 
L 302.875179 182.664053 
" style="fill:none;stroke:#ff7f0e;stroke-linecap:square;stroke-width:1.5;"/>
   </g>
   <g id="patch_3">
    <path d="M 54 252 
L 54 34.56 
" style="fill:none;stroke:#000000;stroke-linecap:square;stroke-linejoin:miter;stroke-width:0.8;"/>
   </g>
   <g id="patch_4">
    <path d="M 388.8 252 
L 388.8 34.56 
" style="fill:none;stroke:#000000;stroke-linecap:square;stroke-linejoin:miter;stroke-width:0.8;"/>
   </g>
   <g id="patch_5">
    <path d="M 54 252 
L 388.8 252 
" style="fill:none;stroke:#000000;stroke-linecap:square;stroke-linejoin:miter;stroke-width:0.8;"/>
   </g>
   <g id="patch_6">
    <path d="M 54 34.56 
L 388.8 34.56 
" style="fill:none;stroke:#000000;stroke-linecap:square;stroke-linejoin:miter;stroke-width:0.8;"/>
   </g>
   <g id="text_17">
    <!-- TD3 reward curve -->
    <g transform="translate(167.895 28.56)scale(0.12 -0.12)">
     <defs>
      <path d="M -0.296875 72.90625 
L 61.375 72.90625 
L 61.375 64.59375 
L 35.5 64.59375 
L 35.5 0 
L 25.59375 0 
L 25.59375 64.59375 
L -0.296875 64.59375 
z
" id="DejaVuSans-84"/>
      <path d="M 19.671875 64.796875 
L 19.671875 8.109375 
L 31.59375 8.109375 
Q 46.6875 8.109375 53.6875 14.9375 
Q 60.6875 21.78125 60.6875 36.53125 
Q 60.6875 51.171875 53.6875 57.984375 
Q 46.6875 64.796875 31.59375 64.796875 
z
M 9.8125 72.90625 
L 30.078125 72.90625 
Q 51.265625 72.90625 61.171875 64.09375 
Q 71.09375 55.28125 71.09375 36.53125 
Q 71.09375 17.671875 61.125 8.828125 
Q 51.171875 0 30.078125 0 
L 9.8125 0 
z
" id="DejaVuSans-68"/>
      <path id="DejaVuSans-32"/>
      <path d="M 48.78125 52.59375 
L 48.78125 44.1875 
Q 44.96875 46.296875 41.140625 47.34375 
Q 37.3125 48.390625 33.40625 48.390625 
Q 24.65625 48.390625 19.8125 42.84375 
Q 14.984375 37.3125 14.984375 27.296875 
Q 14.984375 17.28125 19.8125 11.734375 
Q 24.65625 6.203125 33.40625 6.203125 
Q 37.3125 6.203125 41.140625 7.25 
Q 44.96875 8.296875 48.78125 10.40625 
L 48.78125 2.09375 
Q 45.015625 0.34375 40.984375 -0.53125 
Q 36.96875 -1.421875 32.421875 -1.421875 
Q 20.0625 -1.421875 12.78125 6.34375 
Q 5.515625 14.109375 5.515625 27.296875 
Q 5.515625 40.671875 12.859375 48.328125 
Q 20.21875 56 33.015625 56 
Q 37.15625 56 41.109375 55.140625 
Q 45.0625 54.296875 48.78125 52.59375 
z
" id="DejaVuSans-99"/>
      <path d="M 8.5 21.578125 
L 8.5 54.6875 
L 17.484375 54.6875 
L 17.484375 21.921875 
Q 17.484375 14.15625 20.5 10.265625 
Q 23.53125 6.390625 29.59375 6.390625 
Q 36.859375 6.390625 41.078125 11.03125 
Q 45.3125 15.671875 45.3125 23.6875 
L 45.3125 54.6875 
L 54.296875 54.6875 
L 54.296875 0 
L 45.3125 0 
L 45.3125 8.40625 
Q 42.046875 3.421875 37.71875 1 
Q 33.40625 -1.421875 27.6875 -1.421875 
Q 18.265625 -1.421875 13.375 4.4375 
Q 8.5 10.296875 8.5 21.578125 
z
M 31.109375 56 
z
" id="DejaVuSans-117"/>
      <path d="M 2.984375 54.6875 
L 12.5 54.6875 
L 29.59375 8.796875 
L 46.6875 54.6875 
L 56.203125 54.6875 
L 35.6875 0 
L 23.484375 0 
z
" id="DejaVuSans-118"/>
     </defs>
     <use xlink:href="#DejaVuSans-84"/>
     <use x="61.083984" xlink:href="#DejaVuSans-68"/>
     <use x="138.085938" xlink:href="#DejaVuSans-51"/>
     <use x="201.708984" xlink:href="#DejaVuSans-32"/>
     <use x="233.496094" xlink:href="#DejaVuSans-114"/>
     <use x="272.359375" xlink:href="#DejaVuSans-101"/>
     <use x="333.882812" xlink:href="#DejaVuSans-119"/>
     <use x="415.669922" xlink:href="#DejaVuSans-97"/>
     <use x="476.949219" xlink:href="#DejaVuSans-114"/>
     <use x="516.3125" xlink:href="#DejaVuSans-100"/>
     <use x="579.789062" xlink:href="#DejaVuSans-32"/>
     <use x="611.576172" xlink:href="#DejaVuSans-99"/>
     <use x="666.556641" xlink:href="#DejaVuSans-117"/>
     <use x="729.935547" xlink:href="#DejaVuSans-114"/>
     <use x="771.048828" xlink:href="#DejaVuSans-118"/>
     <use x="830.228516" xlink:href="#DejaVuSans-101"/>
    </g>
   </g>
   <g id="legend_1">
    <g id="patch_7">
     <path d="M 298.223438 71.91625 
L 381.8 71.91625 
Q 383.8 71.91625 383.8 69.91625 
L 383.8 41.56 
Q 383.8 39.56 381.8 39.56 
L 298.223438 39.56 
Q 296.223438 39.56 296.223438 41.56 
L 296.223438 69.91625 
Q 296.223438 71.91625 298.223438 71.91625 
z
" style="fill:#ffffff;opacity:0.8;stroke:#cccccc;stroke-linejoin:miter;"/>
    </g>
    <g id="line2d_17">
     <path d="M 300.223438 47.658437 
L 320.223438 47.658437 
" style="fill:none;stroke:#1f77b4;stroke-linecap:square;stroke-width:1.5;"/>
    </g>
    <g id="line2d_18"/>
    <g id="text_18">
     <!-- high noise -->
     <g transform="translate(328.223438 51.158437)scale(0.1 -0.1)">
      <defs>
       <path d="M 54.890625 33.015625 
L 54.890625 0 
L 45.90625 0 
L 45.90625 32.71875 
Q 45.90625 40.484375 42.875 44.328125 
Q 39.84375 48.1875 33.796875 48.1875 
Q 26.515625 48.1875 22.3125 43.546875 
Q 18.109375 38.921875 18.109375 30.90625 
L 18.109375 0 
L 9.078125 0 
L 9.078125 75.984375 
L 18.109375 75.984375 
L 18.109375 46.1875 
Q 21.34375 51.125 25.703125 53.5625 
Q 30.078125 56 35.796875 56 
Q 45.21875 56 50.046875 50.171875 
Q 54.890625 44.34375 54.890625 33.015625 
z
" id="DejaVuSans-104"/>
       <path d="M 45.40625 27.984375 
Q 45.40625 37.75 41.375 43.109375 
Q 37.359375 48.484375 30.078125 48.484375 
Q 22.859375 48.484375 18.828125 43.109375 
Q 14.796875 37.75 14.796875 27.984375 
Q 14.796875 18.265625 18.828125 12.890625 
Q 22.859375 7.515625 30.078125 7.515625 
Q 37.359375 7.515625 41.375 12.890625 
Q 45.40625 18.265625 45.40625 27.984375 
z
M 54.390625 6.78125 
Q 54.390625 -7.171875 48.1875 -13.984375 
Q 42 -20.796875 29.203125 -20.796875 
Q 24.46875 -20.796875 20.265625 -20.09375 
Q 16.0625 -19.390625 12.109375 -17.921875 
L 12.109375 -9.1875 
Q 16.0625 -11.328125 19.921875 -12.34375 
Q 23.78125 -13.375 27.78125 -13.375 
Q 36.625 -13.375 41.015625 -8.765625 
Q 45.40625 -4.15625 45.40625 5.171875 
L 45.40625 9.625 
Q 42.625 4.78125 38.28125 2.390625 
Q 33.9375 0 27.875 0 
Q 17.828125 0 11.671875 7.65625 
Q 5.515625 15.328125 5.515625 27.984375 
Q 5.515625 40.671875 11.671875 48.328125 
Q 17.828125 56 27.875 56 
Q 33.9375 56 38.28125 53.609375 
Q 42.625 51.21875 45.40625 46.390625 
L 45.40625 54.6875 
L 54.390625 54.6875 
z
" id="DejaVuSans-103"/>
       <path d="M 54.890625 33.015625 
L 54.890625 0 
L 45.90625 0 
L 45.90625 32.71875 
Q 45.90625 40.484375 42.875 44.328125 
Q 39.84375 48.1875 33.796875 48.1875 
Q 26.515625 48.1875 22.3125 43.546875 
Q 18.109375 38.921875 18.109375 30.90625 
L 18.109375 0 
L 9.078125 0 
L 9.078125 54.6875 
L 18.109375 54.6875 
L 18.109375 46.1875 
Q 21.34375 51.125 25.703125 53.5625 
Q 30.078125 56 35.796875 56 
Q 45.21875 56 50.046875 50.171875 
Q 54.890625 44.34375 54.890625 33.015625 
z
" id="DejaVuSans-110"/>
      </defs>
      <use xlink:href="#DejaVuSans-104"/>
      <use x="63.378906" xlink:href="#DejaVuSans-105"/>
      <use x="91.162109" xlink:href="#DejaVuSans-103"/>
      <use x="154.638672" xlink:href="#DejaVuSans-104"/>
      <use x="218.017578" xlink:href="#DejaVuSans-32"/>
      <use x="249.804688" xlink:href="#DejaVuSans-110"/>
      <use x="313.183594" xlink:href="#DejaVuSans-111"/>
      <use x="374.365234" xlink:href="#DejaVuSans-105"/>
      <use x="402.148438" xlink:href="#DejaVuSans-115"/>
      <use x="454.248047" xlink:href="#DejaVuSans-101"/>
     </g>
    </g>
    <g id="line2d_19">
     <path d="M 300.223438 62.336562 
L 320.223438 62.336562 
" style="fill:none;stroke:#ff7f0e;stroke-linecap:square;stroke-width:1.5;"/>
    </g>
    <g id="line2d_20"/>
    <g id="text_19">
     <!-- low noise -->
     <g transform="translate(328.223438 65.836562)scale(0.1 -0.1)">
      <defs>
       <path d="M 9.421875 75.984375 
L 18.40625 75.984375 
L 18.40625 0 
L 9.421875 0 
z
" id="DejaVuSans-108"/>
      </defs>
      <use xlink:href="#DejaVuSans-108"/>
      <use x="27.783203" xlink:href="#DejaVuSans-111"/>
      <use x="88.964844" xlink:href="#DejaVuSans-119"/>
      <use x="170.751953" xlink:href="#DejaVuSans-32"/>
      <use x="202.539062" xlink:href="#DejaVuSans-110"/>
      <use x="265.917969" xlink:href="#DejaVuSans-111"/>
      <use x="327.099609" xlink:href="#DejaVuSans-105"/>
      <use x="354.882812" xlink:href="#DejaVuSans-115"/>
      <use x="406.982422" xlink:href="#DejaVuSans-101"/>
     </g>
    </g>
   </g>
  </g>
 </g>
 <defs>
  <clipPath id="pfe328c0032">
   <rect height="217.44" width="334.8" x="54" y="34.56"/>
  </clipPath>
 </defs>
</svg>
