<?xml version="1.0" encoding="utf-8" standalone="no"?>
<!DOCTYPE svg PUBLIC "-//W3C//DTD SVG 1.1//EN"
  "http://www.w3.org/Graphics/SVG/1.1/DTD/svg11.dtd">
<!-- Created with matplotlib (https://matplotlib.org/) -->
<svg height="288pt" version="1.1" viewBox="0 0 432 288" width="432pt" xmlns="http://www.w3.org/2000/svg" xmlns:xlink="http://www.w3.org/1999/xlink">
 <metadata>
  <rdf:RDF xmlns:cc="http://creativecommons.org/ns#" xmlns:dc="http://purl.org/dc/elements/1.1/" xmlns:rdf="http://www.w3.org/1999/02/22-rdf-syntax-ns#">
   <cc:Work>
    <dc:type rdf:resource="http://purl.org/dc/dcmitype/StillImage"/>
    <dc:date>2021-03-16T09:52:15.879730</dc:date>
    <dc:format>image/svg+xml</dc:format>
    <dc:creator>
     <cc:Agent>
      <dc:title>Matplotlib v3.3.1, https://matplotlib.org/</dc:title>
     </cc:Agent>
    </dc:creator>
   </cc:Work>
  </rdf:RDF>
 </metadata>
 <defs>
  <style type="text/css">*{stroke-linecap:butt;stroke-linejoin:round;}</style>
 </defs>
 <g id="figure_1">
  <g id="patch_1">
   <path d="M 0 288 
L 432 288 
L 432 0 
L 0 0 
z
" style="fill:#ffffff;"/>
  </g>
  <g id="axes_1">
   <g id="patch_2">
    <path d="M 54 252 
L 388.8 252 
L 388.8 34.56 
L 54 34.56 
z
" style="fill:#ffffff;"/>
   </g>
   <g id="matplotlib.axis_1">
    <g id="xtick_1">
     <g id="line2d_1">
      <defs>
       <path d="M 0 0 
L 0 3.5 
" id="m3318f64454" style="stroke:#000000;stroke-width:0.8;"/>
      </defs>
      <g>
       <use style="stroke:#000000;stroke-width:0.8;" x="68.904054" xlink:href="#m3318f64454" y="252"/>
      </g>
     </g>
     <g id="text_1">
      <!-- 0 -->
      <g transform="translate(65.722804 266.598437)scale(0.1 -0.1)">
       <defs>
        <path d="M 31.78125 66.40625 
Q 24.171875 66.40625 20.328125 58.90625 
Q 16.5 51.421875 16.5 36.375 
Q 16.5 21.390625 20.328125 13.890625 
Q 24.171875 6.390625 31.78125 6.390625 
Q 39.453125 6.390625 43.28125 13.890625 
Q 47.125 21.390625 47.125 36.375 
Q 47.125 51.421875 43.28125 58.90625 
Q 39.453125 66.40625 31.78125 66.40625 
z
M 31.78125 74.21875 
Q 44.046875 74.21875 50.515625 64.515625 
Q 56.984375 54.828125 56.984375 36.375 
Q 56.984375 17.96875 50.515625 8.265625 
Q 44.046875 -1.421875 31.78125 -1.421875 
Q 19.53125 -1.421875 13.0625 8.265625 
Q 6.59375 17.96875 6.59375 36.375 
Q 6.59375 54.828125 13.0625 64.515625 
Q 19.53125 74.21875 31.78125 74.21875 
z
" id="DejaVuSans-48"/>
       </defs>
       <use xlink:href="#DejaVuSans-48"/>
      </g>
     </g>
    </g>
    <g id="xtick_2">
     <g id="line2d_2">
      <g>
       <use style="stroke:#000000;stroke-width:0.8;" x="138.943631" xlink:href="#m3318f64454" y="252"/>
      </g>
     </g>
     <g id="text_2">
      <!-- 200000 -->
      <g transform="translate(119.856131 266.598437)scale(0.1 -0.1)">
       <defs>
        <path d="M 19.1875 8.296875 
L 53.609375 8.296875 
L 53.609375 0 
L 7.328125 0 
L 7.328125 8.296875 
Q 12.9375 14.109375 22.625 23.890625 
Q 32.328125 33.6875 34.8125 36.53125 
Q 39.546875 41.84375 41.421875 45.53125 
Q 43.3125 49.21875 43.3125 52.78125 
Q 43.3125 58.59375 39.234375 62.25 
Q 35.15625 65.921875 28.609375 65.921875 
Q 23.96875 65.921875 18.8125 64.3125 
Q 13.671875 62.703125 7.8125 59.421875 
L 7.8125 69.390625 
Q 13.765625 71.78125 18.9375 73 
Q 24.125 74.21875 28.421875 74.21875 
Q 39.75 74.21875 46.484375 68.546875 
Q 53.21875 62.890625 53.21875 53.421875 
Q 53.21875 48.921875 51.53125 44.890625 
Q 49.859375 40.875 45.40625 35.40625 
Q 44.1875 33.984375 37.640625 27.21875 
Q 31.109375 20.453125 19.1875 8.296875 
z
" id="DejaVuSans-50"/>
       </defs>
       <use xlink:href="#DejaVuSans-50"/>
       <use x="63.623047" xlink:href="#DejaVuSans-48"/>
       <use x="127.246094" xlink:href="#DejaVuSans-48"/>
       <use x="190.869141" xlink:href="#DejaVuSans-48"/>
       <use x="254.492188" xlink:href="#DejaVuSans-48"/>
       <use x="318.115234" xlink:href="#DejaVuSans-48"/>
      </g>
     </g>
    </g>
    <g id="xtick_3">
     <g id="line2d_3">
      <g>
       <use style="stroke:#000000;stroke-width:0.8;" x="208.983209" xlink:href="#m3318f64454" y="252"/>
      </g>
     </g>
     <g id="text_3">
      <!-- 400000 -->
      <g transform="translate(189.895709 266.598437)scale(0.1 -0.1)">
       <defs>
        <path d="M 37.796875 64.3125 
L 12.890625 25.390625 
L 37.796875 25.390625 
z
M 35.203125 72.90625 
L 47.609375 72.90625 
L 47.609375 25.390625 
L 58.015625 25.390625 
L 58.015625 17.1875 
L 47.609375 17.1875 
L 47.609375 0 
L 37.796875 0 
L 37.796875 17.1875 
L 4.890625 17.1875 
L 4.890625 26.703125 
z
" id="DejaVuSans-52"/>
       </defs>
       <use xlink:href="#DejaVuSans-52"/>
       <use x="63.623047" xlink:href="#DejaVuSans-48"/>
       <use x="127.246094" xlink:href="#DejaVuSans-48"/>
       <use x="190.869141" xlink:href="#DejaVuSans-48"/>
       <use x="254.492188" xlink:href="#DejaVuSans-48"/>
       <use x="318.115234" xlink:href="#DejaVuSans-48"/>
      </g>
     </g>
    </g>
    <g id="xtick_4">
     <g id="line2d_4">
      <g>
       <use style="stroke:#000000;stroke-width:0.8;" x="279.022786" xlink:href="#m3318f64454" y="252"/>
      </g>
     </g>
     <g id="text_4">
      <!-- 600000 -->
      <g transform="translate(259.935286 266.598437)scale(0.1 -0.1)">
       <defs>
        <path d="M 33.015625 40.375 
Q 26.375 40.375 22.484375 35.828125 
Q 18.609375 31.296875 18.609375 23.390625 
Q 18.609375 15.53125 22.484375 10.953125 
Q 26.375 6.390625 33.015625 6.390625 
Q 39.65625 6.390625 43.53125 10.953125 
Q 47.40625 15.53125 47.40625 23.390625 
Q 47.40625 31.296875 43.53125 35.828125 
Q 39.65625 40.375 33.015625 40.375 
z
M 52.59375 71.296875 
L 52.59375 62.3125 
Q 48.875 64.0625 45.09375 64.984375 
Q 41.3125 65.921875 37.59375 65.921875 
Q 27.828125 65.921875 22.671875 59.328125 
Q 17.53125 52.734375 16.796875 39.40625 
Q 19.671875 43.65625 24.015625 45.921875 
Q 28.375 48.1875 33.59375 48.1875 
Q 44.578125 48.1875 50.953125 41.515625 
Q 57.328125 34.859375 57.328125 23.390625 
Q 57.328125 12.15625 50.6875 5.359375 
Q 44.046875 -1.421875 33.015625 -1.421875 
Q 20.359375 -1.421875 13.671875 8.265625 
Q 6.984375 17.96875 6.984375 36.375 
Q 6.984375 53.65625 15.1875 63.9375 
Q 23.390625 74.21875 37.203125 74.21875 
Q 40.921875 74.21875 44.703125 73.484375 
Q 48.484375 72.75 52.59375 71.296875 
z
" id="DejaVuSans-54"/>
       </defs>
       <use xlink:href="#DejaVuSans-54"/>
       <use x="63.623047" xlink:href="#DejaVuSans-48"/>
       <use x="127.246094" xlink:href="#DejaVuSans-48"/>
       <use x="190.869141" xlink:href="#DejaVuSans-48"/>
       <use x="254.492188" xlink:href="#DejaVuSans-48"/>
       <use x="318.115234" xlink:href="#DejaVuSans-48"/>
      </g>
     </g>
    </g>
    <g id="xtick_5">
     <g id="line2d_5">
      <g>
       <use style="stroke:#000000;stroke-width:0.8;" x="349.062363" xlink:href="#m3318f64454" y="252"/>
      </g>
     </g>
     <g id="text_5">
      <!-- 800000 -->
      <g transform="translate(329.974863 266.598437)scale(0.1 -0.1)">
       <defs>
        <path d="M 31.78125 34.625 
Q 24.75 34.625 20.71875 30.859375 
Q 16.703125 27.09375 16.703125 20.515625 
Q 16.703125 13.921875 20.71875 10.15625 
Q 24.75 6.390625 31.78125 6.390625 
Q 38.8125 6.390625 42.859375 10.171875 
Q 46.921875 13.96875 46.921875 20.515625 
Q 46.921875 27.09375 42.890625 30.859375 
Q 38.875 34.625 31.78125 34.625 
z
M 21.921875 38.8125 
Q 15.578125 40.375 12.03125 44.71875 
Q 8.5 49.078125 8.5 55.328125 
Q 8.5 64.0625 14.71875 69.140625 
Q 20.953125 74.21875 31.78125 74.21875 
Q 42.671875 74.21875 48.875 69.140625 
Q 55.078125 64.0625 55.078125 55.328125 
Q 55.078125 49.078125 51.53125 44.71875 
Q 48 40.375 41.703125 38.8125 
Q 48.828125 37.15625 52.796875 32.3125 
Q 56.78125 27.484375 56.78125 20.515625 
Q 56.78125 9.90625 50.3125 4.234375 
Q 43.84375 -1.421875 31.78125 -1.421875 
Q 19.734375 -1.421875 13.25 4.234375 
Q 6.78125 9.90625 6.78125 20.515625 
Q 6.78125 27.484375 10.78125 32.3125 
Q 14.796875 37.15625 21.921875 38.8125 
z
M 18.3125 54.390625 
Q 18.3125 48.734375 21.84375 45.5625 
Q 25.390625 42.390625 31.78125 42.390625 
Q 38.140625 42.390625 41.71875 45.5625 
Q 45.3125 48.734375 45.3125 54.390625 
Q 45.3125 60.0625 41.71875 63.234375 
Q 38.140625 66.40625 31.78125 66.40625 
Q 25.390625 66.40625 21.84375 63.234375 
Q 18.3125 60.0625 18.3125 54.390625 
z
" id="DejaVuSans-56"/>
       </defs>
       <use xlink:href="#DejaVuSans-56"/>
       <use x="63.623047" xlink:href="#DejaVuSans-48"/>
       <use x="127.246094" xlink:href="#DejaVuSans-48"/>
       <use x="190.869141" xlink:href="#DejaVuSans-48"/>
       <use x="254.492188" xlink:href="#DejaVuSans-48"/>
       <use x="318.115234" xlink:href="#DejaVuSans-48"/>
      </g>
     </g>
    </g>
    <g id="text_6">
     <!-- time steps -->
     <g transform="translate(195.094531 280.276563)scale(0.1 -0.1)">
      <defs>
       <path d="M 18.3125 70.21875 
L 18.3125 54.6875 
L 36.8125 54.6875 
L 36.8125 47.703125 
L 18.3125 47.703125 
L 18.3125 18.015625 
Q 18.3125 11.328125 20.140625 9.421875 
Q 21.96875 7.515625 27.59375 7.515625 
L 36.8125 7.515625 
L 36.8125 0 
L 27.59375 0 
Q 17.1875 0 13.234375 3.875 
Q 9.28125 7.765625 9.28125 18.015625 
L 9.28125 47.703125 
L 2.6875 47.703125 
L 2.6875 54.6875 
L 9.28125 54.6875 
L 9.28125 70.21875 
z
" id="DejaVuSans-116"/>
       <path d="M 9.421875 54.6875 
L 18.40625 54.6875 
L 18.40625 0 
L 9.421875 0 
z
M 9.421875 75.984375 
L 18.40625 75.984375 
L 18.40625 64.59375 
L 9.421875 64.59375 
z
" id="DejaVuSans-105"/>
       <path d="M 52 44.1875 
Q 55.375 50.25 60.0625 53.125 
Q 64.75 56 71.09375 56 
Q 79.640625 56 84.28125 50.015625 
Q 88.921875 44.046875 88.921875 33.015625 
L 88.921875 0 
L 79.890625 0 
L 79.890625 32.71875 
Q 79.890625 40.578125 77.09375 44.375 
Q 74.3125 48.1875 68.609375 48.1875 
Q 61.625 48.1875 57.5625 43.546875 
Q 53.515625 38.921875 53.515625 30.90625 
L 53.515625 0 
L 44.484375 0 
L 44.484375 32.71875 
Q 44.484375 40.625 41.703125 44.40625 
Q 38.921875 48.1875 33.109375 48.1875 
Q 26.21875 48.1875 22.15625 43.53125 
Q 18.109375 38.875 18.109375 30.90625 
L 18.109375 0 
L 9.078125 0 
L 9.078125 54.6875 
L 18.109375 54.6875 
L 18.109375 46.1875 
Q 21.1875 51.21875 25.484375 53.609375 
Q 29.78125 56 35.6875 56 
Q 41.65625 56 45.828125 52.96875 
Q 50 49.953125 52 44.1875 
z
" id="DejaVuSans-109"/>
       <path d="M 56.203125 29.59375 
L 56.203125 25.203125 
L 14.890625 25.203125 
Q 15.484375 15.921875 20.484375 11.0625 
Q 25.484375 6.203125 34.421875 6.203125 
Q 39.59375 6.203125 44.453125 7.46875 
Q 49.3125 8.734375 54.109375 11.28125 
L 54.109375 2.78125 
Q 49.265625 0.734375 44.1875 -0.34375 
Q 39.109375 -1.421875 33.890625 -1.421875 
Q 20.796875 -1.421875 13.15625 6.1875 
Q 5.515625 13.8125 5.515625 26.8125 
Q 5.515625 40.234375 12.765625 48.109375 
Q 20.015625 56 32.328125 56 
Q 43.359375 56 49.78125 48.890625 
Q 56.203125 41.796875 56.203125 29.59375 
z
M 47.21875 32.234375 
Q 47.125 39.59375 43.09375 43.984375 
Q 39.0625 48.390625 32.421875 48.390625 
Q 24.90625 48.390625 20.390625 44.140625 
Q 15.875 39.890625 15.1875 32.171875 
z
" id="DejaVuSans-101"/>
       <path id="DejaVuSans-32"/>
       <path d="M 44.28125 53.078125 
L 44.28125 44.578125 
Q 40.484375 46.53125 36.375 47.5 
Q 32.28125 48.484375 27.875 48.484375 
Q 21.1875 48.484375 17.84375 46.4375 
Q 14.5 44.390625 14.5 40.28125 
Q 14.5 37.15625 16.890625 35.375 
Q 19.28125 33.59375 26.515625 31.984375 
L 29.59375 31.296875 
Q 39.15625 29.25 43.1875 25.515625 
Q 47.21875 21.78125 47.21875 15.09375 
Q 47.21875 7.46875 41.1875 3.015625 
Q 35.15625 -1.421875 24.609375 -1.421875 
Q 20.21875 -1.421875 15.453125 -0.5625 
Q 10.6875 0.296875 5.421875 2 
L 5.421875 11.28125 
Q 10.40625 8.6875 15.234375 7.390625 
Q 20.0625 6.109375 24.8125 6.109375 
Q 31.15625 6.109375 34.5625 8.28125 
Q 37.984375 10.453125 37.984375 14.40625 
Q 37.984375 18.0625 35.515625 20.015625 
Q 33.0625 21.96875 24.703125 23.78125 
L 21.578125 24.515625 
Q 13.234375 26.265625 9.515625 29.90625 
Q 5.8125 33.546875 5.8125 39.890625 
Q 5.8125 47.609375 11.28125 51.796875 
Q 16.75 56 26.8125 56 
Q 31.78125 56 36.171875 55.265625 
Q 40.578125 54.546875 44.28125 53.078125 
z
" id="DejaVuSans-115"/>
       <path d="M 18.109375 8.203125 
L 18.109375 -20.796875 
L 9.078125 -20.796875 
L 9.078125 54.6875 
L 18.109375 54.6875 
L 18.109375 46.390625 
Q 20.953125 51.265625 25.265625 53.625 
Q 29.59375 56 35.59375 56 
Q 45.5625 56 51.78125 48.09375 
Q 58.015625 40.1875 58.015625 27.296875 
Q 58.015625 14.40625 51.78125 6.484375 
Q 45.5625 -1.421875 35.59375 -1.421875 
Q 29.59375 -1.421875 25.265625 0.953125 
Q 20.953125 3.328125 18.109375 8.203125 
z
M 48.6875 27.296875 
Q 48.6875 37.203125 44.609375 42.84375 
Q 40.53125 48.484375 33.40625 48.484375 
Q 26.265625 48.484375 22.1875 42.84375 
Q 18.109375 37.203125 18.109375 27.296875 
Q 18.109375 17.390625 22.1875 11.75 
Q 26.265625 6.109375 33.40625 6.109375 
Q 40.53125 6.109375 44.609375 11.75 
Q 48.6875 17.390625 48.6875 27.296875 
z
" id="DejaVuSans-112"/>
      </defs>
      <use xlink:href="#DejaVuSans-116"/>
      <use x="39.208984" xlink:href="#DejaVuSans-105"/>
      <use x="66.992188" xlink:href="#DejaVuSans-109"/>
      <use x="164.404297" xlink:href="#DejaVuSans-101"/>
      <use x="225.927734" xlink:href="#DejaVuSans-32"/>
      <use x="257.714844" xlink:href="#DejaVuSans-115"/>
      <use x="309.814453" xlink:href="#DejaVuSans-116"/>
      <use x="349.023438" xlink:href="#DejaVuSans-101"/>
      <use x="410.546875" xlink:href="#DejaVuSans-112"/>
      <use x="474.023438" xlink:href="#DejaVuSans-115"/>
     </g>
    </g>
   </g>
   <g id="matplotlib.axis_2">
    <g id="ytick_1">
     <g id="line2d_6">
      <defs>
       <path d="M 0 0 
L -3.5 0 
" id="ma718720bfc" style="stroke:#000000;stroke-width:0.8;"/>
      </defs>
      <g>
       <use style="stroke:#000000;stroke-width:0.8;" x="54" xlink:href="#ma718720bfc" y="245.941094"/>
      </g>
     </g>
     <g id="text_7">
      <!-- −25 -->
      <g transform="translate(25.895312 249.740312)scale(0.1 -0.1)">
       <defs>
        <path d="M 10.59375 35.5 
L 73.1875 35.5 
L 73.1875 27.203125 
L 10.59375 27.203125 
z
" id="DejaVuSans-8722"/>
        <path d="M 10.796875 72.90625 
L 49.515625 72.90625 
L 49.515625 64.59375 
L 19.828125 64.59375 
L 19.828125 46.734375 
Q 21.96875 47.46875 24.109375 47.828125 
Q 26.265625 48.1875 28.421875 48.1875 
Q 40.625 48.1875 47.75 41.5 
Q 54.890625 34.8125 54.890625 23.390625 
Q 54.890625 11.625 47.5625 5.09375 
Q 40.234375 -1.421875 26.90625 -1.421875 
Q 22.3125 -1.421875 17.546875 -0.640625 
Q 12.796875 0.140625 7.71875 1.703125 
L 7.71875 11.625 
Q 12.109375 9.234375 16.796875 8.0625 
Q 21.484375 6.890625 26.703125 6.890625 
Q 35.15625 6.890625 40.078125 11.328125 
Q 45.015625 15.765625 45.015625 23.390625 
Q 45.015625 31 40.078125 35.4375 
Q 35.15625 39.890625 26.703125 39.890625 
Q 22.75 39.890625 18.8125 39.015625 
Q 14.890625 38.140625 10.796875 36.28125 
z
" id="DejaVuSans-53"/>
       </defs>
       <use xlink:href="#DejaVuSans-8722"/>
       <use x="83.789062" xlink:href="#DejaVuSans-50"/>
       <use x="147.412109" xlink:href="#DejaVuSans-53"/>
      </g>
     </g>
    </g>
    <g id="ytick_2">
     <g id="line2d_7">
      <g>
       <use style="stroke:#000000;stroke-width:0.8;" x="54" xlink:href="#ma718720bfc" y="213.276283"/>
      </g>
     </g>
     <g id="text_8">
      <!-- −20 -->
      <g transform="translate(25.895312 217.075502)scale(0.1 -0.1)">
       <use xlink:href="#DejaVuSans-8722"/>
       <use x="83.789062" xlink:href="#DejaVuSans-50"/>
       <use x="147.412109" xlink:href="#DejaVuSans-48"/>
      </g>
     </g>
    </g>
    <g id="ytick_3">
     <g id="line2d_8">
      <g>
       <use style="stroke:#000000;stroke-width:0.8;" x="54" xlink:href="#ma718720bfc" y="180.611473"/>
      </g>
     </g>
     <g id="text_9">
      <!-- −15 -->
      <g transform="translate(25.895312 184.410692)scale(0.1 -0.1)">
       <defs>
        <path d="M 12.40625 8.296875 
L 28.515625 8.296875 
L 28.515625 63.921875 
L 10.984375 60.40625 
L 10.984375 69.390625 
L 28.421875 72.90625 
L 38.28125 72.90625 
L 38.28125 8.296875 
L 54.390625 8.296875 
L 54.390625 0 
L 12.40625 0 
z
" id="DejaVuSans-49"/>
       </defs>
       <use xlink:href="#DejaVuSans-8722"/>
       <use x="83.789062" xlink:href="#DejaVuSans-49"/>
       <use x="147.412109" xlink:href="#DejaVuSans-53"/>
      </g>
     </g>
    </g>
    <g id="ytick_4">
     <g id="line2d_9">
      <g>
       <use style="stroke:#000000;stroke-width:0.8;" x="54" xlink:href="#ma718720bfc" y="147.946662"/>
      </g>
     </g>
     <g id="text_10">
      <!-- −10 -->
      <g transform="translate(25.895312 151.745881)scale(0.1 -0.1)">
       <use xlink:href="#DejaVuSans-8722"/>
       <use x="83.789062" xlink:href="#DejaVuSans-49"/>
       <use x="147.412109" xlink:href="#DejaVuSans-48"/>
      </g>
     </g>
    </g>
    <g id="ytick_5">
     <g id="line2d_10">
      <g>
       <use style="stroke:#000000;stroke-width:0.8;" x="54" xlink:href="#ma718720bfc" y="115.281852"/>
      </g>
     </g>
     <g id="text_11">
      <!-- −5 -->
      <g transform="translate(32.257812 119.081071)scale(0.1 -0.1)">
       <use xlink:href="#DejaVuSans-8722"/>
       <use x="83.789062" xlink:href="#DejaVuSans-53"/>
      </g>
     </g>
    </g>
    <g id="ytick_6">
     <g id="line2d_11">
      <g>
       <use style="stroke:#000000;stroke-width:0.8;" x="54" xlink:href="#ma718720bfc" y="82.617042"/>
      </g>
     </g>
     <g id="text_12">
      <!-- 0 -->
      <g transform="translate(40.6375 86.41626)scale(0.1 -0.1)">
       <use xlink:href="#DejaVuSans-48"/>
      </g>
     </g>
    </g>
    <g id="ytick_7">
     <g id="line2d_12">
      <g>
       <use style="stroke:#000000;stroke-width:0.8;" x="54" xlink:href="#ma718720bfc" y="49.952231"/>
      </g>
     </g>
     <g id="text_13">
      <!-- 5 -->
      <g transform="translate(40.6375 53.75145)scale(0.1 -0.1)">
       <use xlink:href="#DejaVuSans-53"/>
      </g>
     </g>
    </g>
    <g id="text_14">
     <!-- average reward -->
     <g transform="translate(19.815625 182.654219)rotate(-90)scale(0.1 -0.1)">
      <defs>
       <path d="M 34.28125 27.484375 
Q 23.390625 27.484375 19.1875 25 
Q 14.984375 22.515625 14.984375 16.5 
Q 14.984375 11.71875 18.140625 8.90625 
Q 21.296875 6.109375 26.703125 6.109375 
Q 34.1875 6.109375 38.703125 11.40625 
Q 43.21875 16.703125 43.21875 25.484375 
L 43.21875 27.484375 
z
M 52.203125 31.203125 
L 52.203125 0 
L 43.21875 0 
L 43.21875 8.296875 
Q 40.140625 3.328125 35.546875 0.953125 
Q 30.953125 -1.421875 24.3125 -1.421875 
Q 15.921875 -1.421875 10.953125 3.296875 
Q 6 8.015625 6 15.921875 
Q 6 25.140625 12.171875 29.828125 
Q 18.359375 34.515625 30.609375 34.515625 
L 43.21875 34.515625 
L 43.21875 35.40625 
Q 43.21875 41.609375 39.140625 45 
Q 35.0625 48.390625 27.6875 48.390625 
Q 23 48.390625 18.546875 47.265625 
Q 14.109375 46.140625 10.015625 43.890625 
L 10.015625 52.203125 
Q 14.9375 54.109375 19.578125 55.046875 
Q 24.21875 56 28.609375 56 
Q 40.484375 56 46.34375 49.84375 
Q 52.203125 43.703125 52.203125 31.203125 
z
" id="DejaVuSans-97"/>
       <path d="M 2.984375 54.6875 
L 12.5 54.6875 
L 29.59375 8.796875 
L 46.6875 54.6875 
L 56.203125 54.6875 
L 35.6875 0 
L 23.484375 0 
z
" id="DejaVuSans-118"/>
       <path d="M 41.109375 46.296875 
Q 39.59375 47.171875 37.8125 47.578125 
Q 36.03125 48 33.890625 48 
Q 26.265625 48 22.1875 43.046875 
Q 18.109375 38.09375 18.109375 28.8125 
L 18.109375 0 
L 9.078125 0 
L 9.078125 54.6875 
L 18.109375 54.6875 
L 18.109375 46.1875 
Q 20.953125 51.171875 25.484375 53.578125 
Q 30.03125 56 36.53125 56 
Q 37.453125 56 38.578125 55.875 
Q 39.703125 55.765625 41.0625 55.515625 
z
" id="DejaVuSans-114"/>
       <path d="M 45.40625 27.984375 
Q 45.40625 37.75 41.375 43.109375 
Q 37.359375 48.484375 30.078125 48.484375 
Q 22.859375 48.484375 18.828125 43.109375 
Q 14.796875 37.75 14.796875 27.984375 
Q 14.796875 18.265625 18.828125 12.890625 
Q 22.859375 7.515625 30.078125 7.515625 
Q 37.359375 7.515625 41.375 12.890625 
Q 45.40625 18.265625 45.40625 27.984375 
z
M 54.390625 6.78125 
Q 54.390625 -7.171875 48.1875 -13.984375 
Q 42 -20.796875 29.203125 -20.796875 
Q 24.46875 -20.796875 20.265625 -20.09375 
Q 16.0625 -19.390625 12.109375 -17.921875 
L 12.109375 -9.1875 
Q 16.0625 -11.328125 19.921875 -12.34375 
Q 23.78125 -13.375 27.78125 -13.375 
Q 36.625 -13.375 41.015625 -8.765625 
Q 45.40625 -4.15625 45.40625 5.171875 
L 45.40625 9.625 
Q 42.625 4.78125 38.28125 2.390625 
Q 33.9375 0 27.875 0 
Q 17.828125 0 11.671875 7.65625 
Q 5.515625 15.328125 5.515625 27.984375 
Q 5.515625 40.671875 11.671875 48.328125 
Q 17.828125 56 27.875 56 
Q 33.9375 56 38.28125 53.609375 
Q 42.625 51.21875 45.40625 46.390625 
L 45.40625 54.6875 
L 54.390625 54.6875 
z
" id="DejaVuSans-103"/>
       <path d="M 4.203125 54.6875 
L 13.1875 54.6875 
L 24.421875 12.015625 
L 35.59375 54.6875 
L 46.1875 54.6875 
L 57.421875 12.015625 
L 68.609375 54.6875 
L 77.59375 54.6875 
L 63.28125 0 
L 52.6875 0 
L 40.921875 44.828125 
L 29.109375 0 
L 18.5 0 
z
" id="DejaVuSans-119"/>
       <path d="M 45.40625 46.390625 
L 45.40625 75.984375 
L 54.390625 75.984375 
L 54.390625 0 
L 45.40625 0 
L 45.40625 8.203125 
Q 42.578125 3.328125 38.25 0.953125 
Q 33.9375 -1.421875 27.875 -1.421875 
Q 17.96875 -1.421875 11.734375 6.484375 
Q 5.515625 14.40625 5.515625 27.296875 
Q 5.515625 40.1875 11.734375 48.09375 
Q 17.96875 56 27.875 56 
Q 33.9375 56 38.25 53.625 
Q 42.578125 51.265625 45.40625 46.390625 
z
M 14.796875 27.296875 
Q 14.796875 17.390625 18.875 11.75 
Q 22.953125 6.109375 30.078125 6.109375 
Q 37.203125 6.109375 41.296875 11.75 
Q 45.40625 17.390625 45.40625 27.296875 
Q 45.40625 37.203125 41.296875 42.84375 
Q 37.203125 48.484375 30.078125 48.484375 
Q 22.953125 48.484375 18.875 42.84375 
Q 14.796875 37.203125 14.796875 27.296875 
z
" id="DejaVuSans-100"/>
      </defs>
      <use xlink:href="#DejaVuSans-97"/>
      <use x="61.279297" xlink:href="#DejaVuSans-118"/>
      <use x="120.458984" xlink:href="#DejaVuSans-101"/>
      <use x="181.982422" xlink:href="#DejaVuSans-114"/>
      <use x="223.095703" xlink:href="#DejaVuSans-97"/>
      <use x="284.375" xlink:href="#DejaVuSans-103"/>
      <use x="347.851562" xlink:href="#DejaVuSans-101"/>
      <use x="409.375" xlink:href="#DejaVuSans-32"/>
      <use x="441.162109" xlink:href="#DejaVuSans-114"/>
      <use x="480.025391" xlink:href="#DejaVuSans-101"/>
      <use x="541.548828" xlink:href="#DejaVuSans-119"/>
      <use x="623.335938" xlink:href="#DejaVuSans-97"/>
      <use x="684.615234" xlink:href="#DejaVuSans-114"/>
      <use x="723.978516" xlink:href="#DejaVuSans-100"/>
     </g>
    </g>
   </g>
   <g id="line2d_13">
    <path clip-path="url(#p9d221c6c00)" d="M 69.327794 224.614914 
L 69.892663 231.750684 
L 70.092976 240.64551 
L 70.405703 242.116364 
L 71.212209 222.507571 
L 71.332326 223.797745 
L 71.508126 222.194622 
L 71.596025 223.594625 
L 71.635598 221.521885 
L 72.08105 216.463689 
L 72.678137 209.916983 
L 73.110631 207.194571 
L 73.198531 207.567754 
L 73.264368 207.386988 
L 73.543826 205.806531 
L 74.47045 199.835842 
L 74.914851 192.844727 
L 75.171546 193.333496 
L 75.900658 181.944711 
L 76.504049 169.329289 
L 76.517356 169.406165 
L 76.96561 164.397462 
L 76.986972 162.726522 
L 77.285691 158.722334 
L 77.536432 153.324337 
L 77.681064 152.785377 
L 77.741648 153.216259 
L 78.166438 145.144857 
L 78.624497 132.962093 
L 78.66477 133.630659 
L 78.870686 131.450845 
L 78.959286 131.836349 
L 78.970142 132.602133 
L 79.168004 131.594336 
L 79.239445 132.195219 
L 79.614156 130.379779 
L 79.940891 129.69417 
L 80.305797 127.450059 
L 80.910589 128.683201 
L 81.226467 131.666393 
L 81.44289 130.982896 
L 81.612385 130.820107 
L 82.291769 133.143184 
L 82.578581 133.087562 
L 82.687843 131.852474 
L 82.939986 135.534928 
L 83.539174 149.930221 
L 84.463697 155.73456 
L 85.219073 164.030054 
L 85.512189 169.124318 
L 85.551061 168.744175 
L 86.147448 174.65127 
L 86.235348 176.899412 
L 86.524961 180.449404 
L 86.551226 178.921692 
L 86.639126 181.359391 
L 86.854147 182.933961 
L 87.273334 184.274439 
L 87.755207 183.753759 
L 88.695138 186.392517 
L 89.536663 175.639841 
L 90.218148 169.377823 
L 90.306048 170.482895 
L 91.950227 132.886301 
L 92.234237 127.848949 
L 92.968252 121.155961 
L 92.983311 121.172478 
L 93.200083 123.767589 
L 93.436467 123.668259 
L 93.964565 120.694369 
L 94.052465 122.214891 
L 94.400562 123.836892 
L 94.43278 122.288001 
L 95.223877 121.183636 
L 95.272905 118.953151 
L 95.33489 119.166583 
L 96.152952 119.512182 
L 96.359218 125.047287 
L 96.566886 123.695928 
L 97.169226 130.871071 
L 97.205296 130.212557 
L 97.378995 131.634425 
L 97.60172 131.255674 
L 97.886782 126.68368 
L 98.2727 127.410995 
L 98.364451 128.200713 
L 98.603286 128.253932 
L 98.691186 128.737081 
L 98.96434 127.901885 
L 99.078155 126.254016 
L 99.103019 127.890387 
L 99.420298 122.453307 
L 99.508198 122.68766 
L 99.622012 122.58524 
L 99.729873 120.488791 
L 99.763142 120.880257 
L 100.119993 121.469181 
L 100.207893 120.934212 
L 100.787471 123.943867 
L 101.036812 121.634197 
L 101.067979 119.990524 
L 101.699736 110.867497 
L 102.311532 108.929111 
L 102.709707 109.353854 
L 102.797606 109.94499 
L 102.944339 107.794947 
L 103.114886 109.368458 
L 103.130995 109.220432 
L 103.241657 108.422532 
L 103.392593 105.025862 
L 104.116802 109.134899 
L 104.359489 109.032902 
L 104.596923 106.010684 
L 104.862373 105.305588 
L 104.889338 106.802559 
L 105.091403 107.810607 
L 105.107862 107.573794 
L 105.327786 108.256061 
L 105.93678 112.525298 
L 106.235149 107.456459 
L 106.330053 108.418203 
L 106.670445 111.759797 
L 106.876361 113.046146 
L 107.046207 111.781893 
L 107.212551 113.647197 
L 107.300451 112.681891 
L 107.375043 109.369112 
L 107.684618 107.961171 
L 108.04217 109.842716 
L 108.18295 106.215612 
L 108.419333 108.952743 
L 108.556261 108.728979 
L 108.680581 110.494429 
L 108.731359 110.606839 
L 108.858131 108.451687 
L 109.365918 106.105607 
L 109.453818 107.99894 
L 109.732575 108.970502 
L 109.887013 111.083917 
L 109.974912 110.505276 
L 110.229856 109.631954 
L 110.437874 106.992383 
L 110.525773 107.350481 
L 110.563945 108.952815 
L 110.902586 104.90774 
L 110.956517 105.587505 
L 110.972626 104.030756 
L 111.088541 105.545321 
L 111.265041 104.504713 
L 111.383058 104.585558 
L 111.558857 103.867074 
L 111.645006 105.009755 
L 111.961935 105.910466 
L 112.017967 107.733664 
L 112.275012 107.378585 
L 112.667234 108.960596 
L 112.917275 112.874762 
L 113.332259 110.73377 
L 113.582651 112.087241 
L 113.770357 110.732337 
L 114.652856 102.078428 
L 114.828655 103.170053 
L 114.866826 101.318999 
L 115.058735 98.212788 
L 115.101109 94.976169 
L 115.384069 98.280605 
L 115.742321 98.525505 
L 116.405946 101.893799 
L 116.840192 95.053304 
L 117.155019 94.98297 
L 117.273386 94.088691 
L 117.468447 93.553871 
L 117.49191 93.671877 
L 117.537085 93.857412 
L 118.073588 95.686798 
L 118.161488 95.141529 
L 118.261295 92.958978 
L 119.301382 99.849979 
L 119.482084 99.463489 
L 119.674343 96.900844 
L 119.727923 96.90059 
L 120.212597 94.644145 
L 120.226955 96.07413 
L 120.478047 95.952623 
L 120.563495 97.610919 
L 120.587309 95.987189 
L 120.810385 94.621708 
L 121.04852 95.652979 
L 121.302413 86.11101 
L 121.505878 86.223545 
L 121.658914 90.003417 
L 121.671522 89.968898 
L 121.974443 85.74622 
L 122.010163 85.878911 
L 122.098063 86.62993 
L 122.219231 84.819274 
L 122.76589 82.431988 
L 122.898615 83.635076 
L 123.098578 79.502539 
L 123.329358 81.218223 
L 124.126409 74.837764 
L 124.233219 75.657326 
L 124.545245 76.458344 
L 124.574312 77.274081 
L 124.612834 75.269885 
L 124.653106 74.187639 
L 124.877583 76.325637 
L 125.098208 76.995954 
L 125.161243 76.624031 
L 125.31428 77.894829 
L 125.490079 76.211417 
L 126.013975 79.875144 
L 126.244756 77.352809 
L 126.449271 74.318201 
L 126.472735 74.434722 
L 126.979121 78.74358 
L 127.035503 77.904924 
L 127.22496 79.020462 
L 127.45539 77.828211 
L 127.54329 78.524433 
L 127.797533 84.654473 
L 128.678981 86.823647 
L 128.689487 87.469954 
L 128.756025 86.554382 
L 128.843924 86.32778 
L 128.917116 86.640285 
L 129.580391 85.526774 
L 129.747785 84.658969 
L 130.114442 83.681864 
L 130.131602 82.511276 
L 130.248918 85.66211 
L 130.329114 85.465186 
L 130.612774 86.465351 
L 130.660751 84.085318 
L 130.804332 83.199749 
L 131.248033 85.35535 
L 131.656714 85.001136 
L 131.77298 82.73193 
L 131.93372 80.694172 
L 132.12703 80.965089 
L 132.341001 79.751135 
L 132.58859 84.278759 
L 132.872951 83.972953 
L 133.0484 83.237879 
L 133.2242 83.683347 
L 133.312099 82.940455 
L 133.510311 83.338572 
L 133.665799 80.877166 
L 134.439386 85.87834 
L 134.748611 84.990213 
L 135.050482 89.616476 
L 135.0827 88.091253 
L 135.395427 87.430978 
L 135.47247 86.921305 
L 135.903564 87.655862 
L 136.014927 89.129391 
L 136.140297 86.690296 
L 136.214189 87.019224 
L 136.277575 86.245022 
L 136.635127 86.262931 
L 136.810926 84.895665 
L 137.103342 86.544856 
L 137.191241 86.669538 
L 137.303655 86.465762 
L 137.343227 86.766501 
L 137.492762 85.914246 
L 138.033467 81.927104 
L 138.561566 82.813024 
L 138.701995 82.678479 
L 139.034683 79.327659 
L 139.142544 80.214799 
L 139.41955 79.090071 
L 139.442663 79.253442 
L 139.5964 79.521224 
L 139.620214 79.492402 
L 139.929439 77.194471 
L 140.776917 77.701801 
L 141.104352 77.110227 
L 141.17054 77.678308 
L 141.618443 75.279729 
L 141.839768 76.805036 
L 142.092261 76.655186 
L 142.202923 75.623602 
L 142.610904 73.099107 
L 142.64032 73.22354 
L 143.034293 72.045905 
L 143.504609 71.836314 
L 143.956364 71.871034 
L 144.044264 71.335282 
L 144.142319 73.449377 
L 144.188195 72.244535 
L 144.276095 71.004557 
L 144.804543 77.053958 
L 145.058787 77.450827 
L 145.165597 75.455057 
L 145.696848 76.261653 
L 145.980858 78.900425 
L 146.024983 80.372554 
L 146.110781 79.072095 
L 146.454676 79.508502 
L 147.036004 77.39648 
L 147.281493 77.444712 
L 147.498265 78.207209 
L 147.826751 79.19277 
L 148.124769 81.411345 
L 148.185354 83.181419 
L 148.705047 84.677805 
L 148.857383 82.534991 
L 149.086763 85.006845 
L 149.467428 82.662845 
L 149.755641 82.542852 
L 149.802217 83.34859 
L 149.830583 82.783838 
L 150.184283 83.249551 
L 150.750553 85.508589 
L 150.819192 84.395589 
L 151.076237 85.543057 
L 151.232776 84.088004 
L 151.661768 85.854794 
L 151.751419 87.367492 
L 151.811303 87.139423 
L 152.140489 87.872302 
L 152.852791 84.078509 
L 152.963454 82.025123 
L 153.084972 83.822673 
L 153.296492 81.612286 
L 153.424314 83.59044 
L 153.512214 82.647106 
L 154.004242 80.345284 
L 154.164632 76.011472 
L 154.340432 77.922301 
L 154.353739 77.760733 
L 154.38981 76.686323 
L 154.586971 75.826588 
L 154.862227 72.467556 
L 154.878336 73.184832 
L 155.165848 71.777703 
L 155.20402 72.621155 
L 155.673285 68.310942 
L 156.143951 67.445253 
L 156.250761 67.624261 
L 156.551231 65.800192 
L 156.639131 66.558498 
L 156.748743 65.926493 
L 156.801272 65.960942 
L 157.240771 67.419157 
L 157.673265 69.446208 
L 158.192959 69.977573 
L 158.49553 67.748182 
L 158.719656 66.960327 
L 159.38153 70.225841 
L 159.798266 70.656169 
L 159.874609 71.414216 
L 159.968462 68.414824 
L 160.342123 68.6952 
L 160.370139 69.534215 
L 160.515121 69.537596 
L 160.970028 67.874435 
L 161.068083 66.224919 
L 161.234778 66.740314 
L 161.448748 64.912791 
L 162.162102 64.856894 
L 162.205526 64.514692 
L 162.227238 65.224644 
L 162.472727 64.262509 
L 162.518253 64.388704 
L 162.880357 67.660621 
L 163.45083 72.097896 
L 163.877021 71.057534 
L 164.046867 71.502459 
L 164.294807 70.438668 
L 164.382706 71.513116 
L 164.838664 73.321736 
L 164.926564 72.792566 
L 165.310731 74.907229 
L 165.480927 74.561668 
L 165.588438 74.028317 
L 165.903266 75.406109 
L 166.042994 74.034417 
L 166.463232 78.304829 
L 166.661444 77.959372 
L 166.770005 78.013049 
L 167.104794 75.889546 
L 167.174134 72.726307 
L 167.754412 73.29067 
L 167.842311 73.139279 
L 167.930211 73.667221 
L 168.966096 71.083257 
L 169.022128 71.630332 
L 169.147499 70.662759 
L 169.235398 71.676514 
L 169.434661 71.501276 
L 169.542522 71.176478 
L 169.984822 74.693417 
L 170.135057 73.318195 
L 170.294397 75.043958 
L 170.473348 75.231518 
L 170.505916 75.73992 
L 170.863468 73.45022 
L 171.453202 72.435492 
L 172.033129 76.742502 
L 172.055542 76.711234 
L 172.143442 75.876154 
L 172.275466 76.084998 
L 172.382627 75.376427 
L 172.430254 73.856492 
L 172.625314 75.680185 
L 172.748233 75.170084 
L 173.028742 75.23902 
L 173.136603 74.392887 
L 173.389796 76.623967 
L 173.461937 76.43874 
L 173.687114 74.624284 
L 173.824392 75.015065 
L 173.968323 72.472931 
L 174.090542 73.339604 
L 174.144472 71.827705 
L 174.647357 68.102646 
L 174.913857 68.904386 
L 174.97129 71.283525 
L 175.169151 70.942851 
L 175.349153 72.78728 
L 175.368764 72.688863 
L 175.544564 73.300844 
L 175.727017 72.2332 
L 175.749429 72.269999 
L 176.3178 66.402115 
L 176.607064 67.243493 
L 176.888623 67.669948 
L 177.320067 68.957195 
L 177.470652 69.938212 
L 177.806141 69.056153 
L 178.024315 66.305461 
L 178.301321 66.542972 
L 178.441751 67.365678 
L 178.498833 66.662624 
L 179.070706 67.589636 
L 179.358569 67.684116 
L 179.394289 66.095283 
L 179.605108 66.456081 
L 179.708416 65.044917 
L 179.796316 65.800387 
L 179.877912 63.554067 
L 179.984723 63.645335 
L 180.017291 63.615525 
L 180.095735 64.162718 
L 180.196942 63.716685 
L 180.284842 64.274223 
L 180.51142 62.581677 
L 180.61718 63.528211 
L 181.023059 64.633621 
L 181.645011 68.372189 
L 181.83797 67.822784 
L 182.056843 69.381228 
L 182.453968 68.490278 
L 182.552724 66.091126 
L 182.797512 64.851517 
L 182.995374 65.187749 
L 183.11234 63.510201 
L 183.239462 64.209656 
L 183.252419 64.187504 
L 183.27203 63.332414 
L 183.858261 64.149307 
L 183.919896 64.956554 
L 184.215813 65.284589 
L 184.661265 65.32829 
L 184.749165 66.233272 
L 184.837064 65.995431 
L 184.924964 65.906492 
L 185.220881 66.762952 
L 185.716762 64.527786 
L 185.928281 64.544203 
L 186.503656 64.160529 
L 186.619922 63.246818 
L 187.352186 61.010331 
L 187.574211 61.729265 
L 187.662111 62.485641 
L 187.711138 60.890932 
L 188.217174 60.536769 
L 188.321884 60.733189 
L 188.430095 61.573705 
L 188.902512 62.201049 
L 189.375629 59.724987 
L 189.628472 60.045942 
L 190.205598 56.962211 
L 190.567352 61.248979 
L 190.612178 60.720743 
L 190.700077 61.550849 
L 190.875877 62.103031 
L 191.136774 62.535701 
L 191.930673 61.672055 
L 192.202076 59.391743 
L 192.289976 58.570137 
L 192.548772 60.564229 
L 192.851693 60.833437 
L 193.043952 61.427457 
L 193.05761 62.10412 
L 193.070917 62.040812 
L 193.733492 58.799224 
L 193.76676 57.27985 
L 194.081938 59.536981 
L 194.274547 59.23494 
L 194.493071 57.93834 
L 194.528791 58.736681 
L 194.890896 58.959684 
L 195.065294 56.549945 
L 195.267708 53.308927 
L 195.466621 51.372451 
L 195.636117 52.613163 
L 195.932734 52.360374 
L 195.967054 53.148304 
L 196.108534 53.785883 
L 196.197484 52.473579 
L 196.426163 53.29599 
L 196.700018 55.034984 
L 196.950759 55.221953 
L 197.085586 53.146824 
L 197.100294 53.224466 
L 197.209906 54.104832 
L 197.408118 54.263842 
L 197.650455 54.134258 
L 198.107113 56.172164 
L 198.503537 56.526896 
L 198.683188 58.041217 
L 199.079612 59.504049 
L 199.167512 59.334441 
L 199.197979 59.93814 
L 199.332455 59.066229 
L 199.427359 59.932321 
L 199.776506 59.852347 
L 200.163475 63.246849 
L 200.350831 62.270207 
L 200.612429 61.587179 
L 201.242084 62.075888 
L 201.473915 58.769395 
L 202.031781 61.862288 
L 202.297581 62.2686 
L 202.743383 61.909251 
L 202.805718 60.305679 
L 203.573352 58.98449 
L 204.191801 58.898414 
L 204.279701 59.643798 
L 204.302464 59.620699 
L 204.566163 60.218693 
L 204.946127 60.456741 
L 205.210527 61.135772 
L 205.258154 61.041154 
L 205.336948 60.197849 
L 205.424848 60.885022 
L 205.454265 60.306486 
L 205.469673 60.231228 
L 205.507144 58.654976 
L 205.822323 56.094285 
L 206.824939 54.814786 
L 206.9335 54.087627 
L 207.307162 52.010052 
L 207.838412 51.333985 
L 207.886389 52.793322 
L 207.99495 52.231995 
L 208.283513 52.362474 
L 208.371413 52.02517 
L 208.484877 50.400998 
L 208.588536 50.446782 
L 208.705152 51.721673 
L 209.340411 48.997099 
L 209.689908 50.657145 
L 209.845046 49.752684 
L 210.305206 53.754719 
L 210.355984 55.209143 
L 210.658205 55.464882 
L 210.709684 54.051513 
L 210.735599 55.594217 
L 211.049726 52.67779 
L 211.076341 52.809016 
L 211.360702 52.542246 
L 211.522844 53.48999 
L 211.608992 51.917981 
L 211.696892 53.710989 
L 212.124133 53.056201 
L 212.419 53.930327 
L 212.432308 53.840467 
L 212.57799 55.253662 
L 212.817175 53.504101 
L 213.440177 54.149541 
L 213.7459 53.572031 
L 214.452599 55.104894 
L 214.781085 54.288664 
L 214.897701 56.145398 
L 215.000309 54.647511 
L 215.919928 60.317255 
L 216.130397 59.216169 
L 216.549234 62.027058 
L 216.660947 60.403037 
L 216.732387 61.93958 
L 216.815735 61.180346 
L 217.059122 61.887642 
L 217.147022 61.485681 
L 217.413873 63.316276 
L 217.618388 62.791873 
L 217.654459 61.295901 
L 217.878235 64.180493 
L 217.994851 64.277977 
L 218.363959 64.774837 
L 218.415088 62.769832 
L 218.462365 62.857275 
L 218.779995 62.767138 
L 218.890657 61.880901 
L 218.940035 62.349413 
L 219.33821 63.783466 
L 219.386887 62.034863 
L 219.634477 64.363901 
L 219.809576 65.971376 
L 219.920239 63.976919 
L 220.397909 65.443843 
L 220.599623 62.153973 
L 220.799236 62.771169 
L 221.429592 58.388241 
L 221.685236 58.024557 
L 222.087614 53.149138 
L 222.391936 54.898599 
L 222.801667 54.075369 
L 223.127701 50.61947 
L 223.225406 50.570089 
L 223.401206 51.223945 
L 223.580157 52.675223 
L 223.79798 52.432901 
L 223.973429 49.849472 
L 224.000044 49.940674 
L 224.105104 50.722863 
L 224.405573 49.450563 
L 225.043984 49.963602 
L 225.447762 48.70637 
L 225.507646 47.521027 
L 225.595546 48.61338 
L 225.927533 48.520236 
L 226.103333 49.909934 
L 226.191232 49.873602 
L 226.397499 46.469736 
L 226.625828 47.133234 
L 227.970238 50.424234 
L 228.073196 47.585305 
L 228.565574 51.082719 
L 228.579582 52.591933 
L 228.684641 52.555096 
L 228.70005 51.857503 
L 229.171066 51.583958 
L 229.376282 52.288538 
L 230.147418 50.933242 
L 230.16808 51.051478 
L 230.537188 48.547279 
L 230.648551 49.553338 
L 230.775323 49.38511 
L 230.933262 48.9541 
L 231.055831 47.515579 
L 231.318129 49.668051 
L 231.807356 48.840824 
L 231.895256 49.703495 
L 231.910664 49.641541 
L 232.233897 51.444364 
L 232.66394 52.55009 
L 232.87686 52.555557 
L 232.979818 51.748267 
L 233.028496 52.548221 
L 233.052309 51.877082 
L 233.856364 54.501298 
L 233.968427 52.832676 
L 234.248585 52.993664 
L 234.323878 53.636399 
L 234.595281 52.108912 
L 234.704193 52.093405 
L 235.200423 51.588391 
L 235.454317 52.284373 
L 235.528909 51.73727 
L 235.642723 52.224045 
L 235.747432 51.936909 
L 235.871402 51.173779 
L 236.183779 51.894458 
L 236.410707 50.373161 
L 236.587207 51.328337 
L 236.659698 51.053197 
L 236.863863 50.931905 
L 237.170636 49.179142 
L 237.586672 47.8661 
L 237.809748 48.096815 
L 237.950527 46.287209 
L 238.283565 48.738628 
L 238.587537 46.641263 
L 238.59314 46.670215 
L 238.752831 47.580203 
L 238.913221 49.140471 
L 239.303342 48.124116 
L 239.413654 48.771838 
L 239.632528 49.082155 
L 240.16798 50.772213 
L 240.252728 50.056997 
L 241.009856 55.166939 
L 241.125421 52.242207 
L 241.3527 52.437297 
L 241.440599 52.289666 
L 241.646165 51.595057 
L 241.734065 52.514176 
L 242.063251 51.685088 
L 242.570688 55.783466 
L 242.831936 53.51435 
L 242.954155 51.309073 
L 243.30015 52.395504 
L 243.453187 51.493783 
L 243.499763 52.298301 
L 243.682216 48.41101 
L 243.770116 48.420595 
L 243.886732 50.145764 
L 244.651564 47.821313 
L 244.894251 47.847963 
L 245.118027 44.443636 
L 246.050954 47.23038 
L 246.582555 48.106587 
L 246.934154 50.300752 
L 247.036061 49.419907 
L 247.201705 45.485187 
L 247.394314 46.201437 
L 247.765173 46.839876 
L 248.146539 45.985846 
L 248.247396 46.455714 
L 248.967052 48.878529 
L 249.054952 48.147031 
L 249.313748 48.170152 
L 249.668499 47.024085 
L 250.818549 48.561042 
L 250.835358 48.53546 
L 250.941468 48.483923 
L 251.130575 48.698772 
L 251.176101 47.979871 
L 252.11288 48.34765 
L 252.260663 48.13267 
L 252.468331 48.53551 
L 252.55623 49.228471 
L 252.64413 49.046947 
L 252.828684 47.438363 
L 253.027597 47.808332 
L 253.302852 48.494907 
L 253.793129 47.958346 
L 254.019707 48.924933 
L 254.706095 53.787665 
L 254.853529 51.785213 
L 255.31684 52.093797 
L 255.44046 52.127681 
L 255.577037 50.575892 
L 255.699256 49.608293 
L 256.05926 50.832198 
L 256.251519 51.731984 
L 256.390197 49.416477 
L 256.692418 48.139558 
L 256.739344 49.791757 
L 257.143473 48.452522 
L 257.235224 47.842848 
L 257.564761 50.138088 
L 257.564761 50.138088 
" style="fill:none;stroke:#1f77b4;stroke-linecap:square;stroke-width:1.5;"/>
   </g>
   <g id="line2d_14">
    <path clip-path="url(#p9d221c6c00)" d="M 69.218182 159.835299 
L 69.762039 136.136359 
L 70.355625 129.606668 
L 71.390459 125.313468 
L 71.694781 127.378678 
L 71.822253 138.590207 
L 72.210273 142.535837 
L 72.473972 141.665274 
L 73.077012 155.736417 
L 73.622621 149.27154 
L 73.63838 149.621085 
L 73.893324 145.736831 
L 74.167178 146.936996 
L 74.755511 142.102562 
L 74.944267 141.35245 
L 74.956174 141.481243 
L 75.335088 140.403747 
L 75.945833 150.949314 
L 76.182217 151.404925 
L 76.608758 148.192287 
L 76.70086 149.931785 
L 77.210048 142.116854 
L 77.583009 141.455649 
L 78.529593 128.657189 
L 79.151895 130.921661 
L 79.171506 132.113281 
L 79.541315 135.942827 
L 79.660032 135.379101 
L 79.702056 133.566873 
L 79.977311 133.437164 
L 80.620275 132.347933 
L 81.137167 134.983451 
L 81.225067 134.308484 
L 81.292305 135.821454 
L 81.569311 133.987018 
L 82.314532 132.313159 
L 82.766287 127.830146 
L 83.149054 131.053367 
L 83.345515 130.013458 
L 83.970968 130.306327 
L 84.419922 129.160901 
L 84.706034 132.277322 
L 84.969733 131.774398 
L 85.247089 130.472673 
L 85.468765 130.155914 
L 85.58468 130.299766 
L 86.76975 126.241437 
L 87.140959 125.95221 
L 87.152166 126.639735 
L 87.455087 125.00008 
L 87.812639 120.965802 
L 87.931356 123.253479 
L 88.441594 119.503824 
L 88.871287 120.129716 
L 88.959187 120.153042 
L 89.090511 119.835576 
L 89.65468 120.905724 
L 90.192234 122.651929 
L 91.12376 119.718244 
L 91.972289 124.715513 
L 92.074547 124.018761 
L 92.908719 124.851287 
L 93.881218 126.432985 
L 94.746207 126.43067 
L 94.937065 125.401537 
L 95.21127 122.587529 
L 96.051745 120.495423 
L 96.07976 122.58333 
L 96.287428 119.061543 
L 96.650583 118.306011 
L 97.522576 120.085589 
L 97.610475 119.397532 
L 98.294062 118.705262 
L 98.381961 117.965235 
L 99.439559 120.158596 
L 99.661234 119.311684 
L 100.550387 119.182947 
L 100.838249 118.327471 
L 100.941558 115.592876 
L 101.132416 116.529342 
L 101.537945 117.889754 
L 101.958883 118.589889 
L 102.134682 117.669902 
L 102.298224 119.013635 
L 103.115236 123.113418 
L 103.891274 122.217872 
L 104.173884 121.766682 
L 104.78603 119.944993 
L 104.801439 120.741738 
L 105.191209 118.831264 
L 105.341444 120.530509 
L 105.355452 119.889079 
L 105.650318 119.172689 
L 105.738218 118.916654 
L 106.11293 120.139042 
L 106.20083 119.991764 
L 107.231812 125.296565 
L 107.345276 127.405431 
L 107.708431 129.602896 
L 107.933258 130.107165 
L 108.057929 128.440814 
L 109.391833 125.055492 
L 109.432456 123.515074 
L 109.553624 124.366182 
L 109.729423 123.956941 
L 109.817323 123.373048 
L 109.963356 123.569001 
L 110.162268 122.952308 
L 110.458185 121.142753 
L 110.769511 121.923268 
L 111.03321 121.349082 
L 111.260489 121.277284 
L 111.719948 120.105726 
L 111.807848 120.142045 
L 112.092209 120.674482 
L 112.339798 120.724854 
L 112.807313 119.099691 
L 113.463584 111.876432 
L 113.677905 111.934181 
L 113.941604 111.563358 
L 114.293202 108.688509 
L 114.492115 108.056663 
L 114.724296 107.730082 
L 114.930562 106.45273 
L 115.018462 107.135881 
L 115.106362 106.91536 
L 115.65267 109.022927 
L 116.043491 106.76675 
L 116.265167 107.91452 
L 116.538321 109.786163 
L 116.799919 110.091739 
L 117.083229 109.019974 
L 117.171129 110.228263 
L 117.346928 110.145413 
L 117.522727 110.741134 
L 118.117013 109.687154 
L 118.337988 107.789351 
L 118.353397 109.063664 
L 118.441296 108.965204 
L 119.047839 104.614974 
L 119.355663 107.188388 
L 119.443563 107.100237 
L 119.56298 107.903627 
L 119.700608 107.554658 
L 119.893567 109.289607 
L 119.981467 109.219746 
L 120.120495 109.131572 
L 120.382793 108.781992 
L 120.639138 108.192881 
L 120.99634 109.17776 
L 121.112956 110.591678 
L 121.537046 111.078945 
L 121.88199 111.927483 
L 122.267909 113.957364 
L 122.619507 113.085425 
L 123.021534 116.025157 
L 123.404651 115.43804 
L 125.021865 113.535971 
L 125.173851 113.917768 
L 125.22533 111.736268 
L 125.523348 114.966891 
L 125.677785 114.879828 
L 125.960395 114.878227 
L 126.083665 113.619466 
L 126.680402 110.313158 
L 127.112546 110.828508 
L 127.332821 113.414289 
L 127.828 112.694681 
L 128.060182 109.925613 
L 128.49968 110.129395 
L 128.648164 112.15827 
L 129.599651 106.476366 
L 129.687551 106.557732 
L 129.917981 106.324979 
L 130.506314 104.039734 
L 131.177293 109.458252 
L 131.49037 108.74582 
L 131.754069 107.111625 
L 131.798544 108.874655 
L 131.994305 108.098663 
L 132.433803 110.01043 
L 132.453764 109.852971 
L 132.942991 107.418024 
L 133.03089 107.353548 
L 133.296691 107.780423 
L 133.347819 109.337864 
L 133.595409 110.505974 
L 134.1095 111.337986 
L 134.455846 109.246627 
L 134.596275 109.853335 
L 134.723047 108.218899 
L 134.810946 108.321224 
L 135.372664 108.648602 
L 135.460563 108.571206 
L 135.645468 106.074697 
L 136.406798 109.292984 
L 136.62357 107.46406 
L 136.634076 108.500107 
L 136.958009 104.226978 
L 137.448287 100.860655 
L 138.262497 98.520538 
L 138.376311 98.890301 
L 138.81686 101.00427 
L 138.974099 99.014272 
L 139.126785 97.974653 
L 139.760993 98.042437 
L 139.805468 100.32148 
L 140.189986 102.198519 
L 140.220803 100.638777 
L 140.308703 100.742193 
L 140.927152 96.853703 
L 141.321125 96.115127 
L 141.620544 93.945896 
L 141.638754 95.949298 
L 141.726654 95.937205 
L 142.410941 95.352846 
L 142.575534 94.439568 
L 142.839233 94.786728 
L 143.323556 95.069476 
L 144.005742 95.943806 
L 144.120257 97.725143 
L 145.562021 104.854982 
L 145.932881 105.256185 
L 147.163126 104.071282 
L 147.526631 104.755945 
L 148.069788 106.599799 
L 148.494228 106.946669 
L 148.601739 108.777774 
L 148.908863 108.482334 
L 149.084662 108.469739 
L 149.231045 108.128698 
L 149.535367 110.218622 
L 150.345724 110.671569 
L 151.077638 109.021529 
L 151.125265 109.132182 
L 151.262543 111.025302 
L 151.778034 110.305881 
L 152.041733 109.325297 
L 152.470375 109.173577 
L 152.646174 107.970371 
L 152.745981 108.171065 
L 152.800261 106.563628 
L 153.191432 102.611891 
L 153.412057 103.153921 
L 154.047666 103.433324 
L 154.521134 101.569252 
L 154.909503 102.551588 
L 155.156043 102.858794 
L 155.3462 100.381665 
L 155.803909 99.608739 
L 156.583799 99.651998 
L 156.759599 99.434639 
L 157.023298 98.246795 
L 157.110497 97.081777 
L 157.366842 98.263271 
L 157.809142 97.93586 
L 158.097705 101.598385 
L 158.286462 101.042211 
L 158.578176 100.04426 
L 159.92924 99.147422 
L 160.700025 102.304948 
L 160.989989 101.594631 
L 162.130234 102.697209 
L 162.439458 101.442906 
L 162.555374 101.700455 
L 162.573584 101.213448 
L 164.225467 102.738734 
L 164.256985 104.119018 
L 164.643254 103.879454 
L 164.899248 104.522541 
L 165.18641 102.307551 
L 165.334194 102.264598 
L 165.614702 100.896219 
L 165.702602 100.91903 
L 165.923577 100.743816 
L 166.275176 99.33903 
L 166.450975 99.205458 
L 167.550246 99.869775 
L 168.206167 96.664414 
L 168.256595 94.984348 
L 169.010922 97.269273 
L 169.694858 96.847996 
L 169.782758 95.573226 
L 170.046457 95.684818 
L 170.166925 95.518554 
L 170.185485 97.650991 
L 170.855764 94.290212 
L 170.868021 93.129638 
L 171.289309 92.494173 
L 171.465108 92.74313 
L 172.048538 93.327136 
L 172.454768 91.101682 
L 172.510449 92.261385 
L 172.721969 91.958619 
L 173.208393 90.631485 
L 174.130114 91.134017 
L 174.569613 91.658892 
L 174.770626 88.060171 
L 174.858526 88.105481 
L 175.36071 87.225585 
L 175.875851 90.827962 
L 176.401848 90.681381 
L 177.057418 93.588967 
L 177.813496 93.717168 
L 178.305874 97.068283 
L 178.65362 96.760716 
L 179.315144 94.788036 
L 179.461527 94.742098 
L 179.958458 95.749057 
L 180.046357 97.081098 
L 180.284492 98.38774 
L 180.83045 102.166162 
L 180.995043 102.141482 
L 181.196057 102.548878 
L 181.459756 103.377074 
L 181.764428 104.934954 
L 182.375523 106.527771 
L 183.031094 99.651074 
L 183.206893 99.790171 
L 183.427868 100.250585 
L 183.515768 99.652428 
L 184.043166 98.310196 
L 184.131065 97.693324 
L 184.619942 97.636568 
L 184.883641 96.9739 
L 184.97154 97.08261 
L 185.05944 96.982099 
L 185.14734 97.074595 
L 185.323139 98.358095 
L 185.586838 98.805916 
L 186.272526 94.93626 
L 186.887823 95.116086 
L 186.930898 96.22696 
L 187.018797 96.215744 
L 187.636897 99.187702 
L 187.916705 98.742494 
L 188.180053 96.174661 
L 188.355853 95.158156 
L 189.010022 93.970888 
L 189.097922 93.967147 
L 189.410999 94.516259 
L 190.485056 95.331457 
L 191.169343 100.219376 
L 191.644211 97.38604 
L 192.813171 96.108199 
L 193.311853 94.529476 
L 193.980381 98.502929 
L 194.24408 99.226138 
L 194.697586 98.236132 
L 194.819805 96.008332 
L 195.114672 94.334619 
L 195.939388 96.391032 
L 196.062658 97.728386 
L 196.382739 97.700301 
L 196.734337 98.168405 
L 197.760767 100.424381 
L 197.952676 101.163373 
L 198.480074 98.90597 
L 198.567973 99.155027 
L 198.655873 98.633464 
L 198.831672 99.557367 
L 198.961946 102.086577 
L 199.915885 100.578881 
L 200.839707 101.240363 
L 201.279205 100.223471 
L 201.681233 98.508115 
L 202.145245 98.796382 
L 202.218086 100.144392 
L 202.68595 99.115047 
L 203.037549 98.769324 
L 203.331715 96.441518 
L 204.122812 94.381379 
L 204.288806 92.65669 
L 204.47301 92.300483 
L 204.736709 92.955027 
L 204.892897 93.792647 
L 205.530958 93.944151 
L 205.706757 93.147747 
L 207.786933 86.985807 
L 208.129426 88.6102 
L 208.41939 87.459627 
L 208.801806 88.668032 
L 209.065505 89.155627 
L 209.241305 88.142126 
L 209.342862 89.318473 
L 209.87131 86.031711 
L 209.972518 86.366286 
L 210.145165 85.895742 
L 210.408864 84.727963 
L 210.847312 86.687811 
L 211.082645 85.290813 
L 211.240934 85.525479 
L 211.280157 86.102904 
L 213.016788 83.734352 
L 213.544186 83.498109 
L 213.624731 84.653246 
L 213.800531 84.613029 
L 213.88843 84.310055 
L 214.032012 85.128646 
L 214.207811 85.340076 
L 214.55941 86.744798 
L 214.852525 84.394534 
L 215.231439 87.169842 
L 215.407239 87.581189 
L 216.004676 87.091543 
L 216.268375 87.436003 
L 216.479194 87.409775 
L 216.596861 86.986112 
L 216.94846 87.635102 
L 217.490566 89.317632 
L 217.578466 88.861984 
L 218.412637 92.39981 
L 218.500537 91.792181 
L 218.792251 91.986764 
L 219.310544 93.482027 
L 219.398444 93.084276 
L 219.527317 91.375716 
L 219.791016 93.961835 
L 220.318414 90.993687 
L 220.971183 90.28082 
L 221.275505 90.523882 
L 221.451304 90.842509 
L 221.582278 92.135069 
L 221.849479 92.74048 
L 222.638825 90.296204 
L 222.814624 90.160807 
L 223.053459 87.745976 
L 223.330116 88.772947 
L 223.571052 90.328305 
L 224.189851 91.008151 
L 224.433939 89.649365 
L 224.696588 90.508779 
L 225.47858 88.448767 
L 225.761189 88.217927 
L 225.88551 89.4751 
L 226.09808 89.938662 
L 226.3117 88.219602 
L 226.4875 89.527036 
L 226.663299 89.481499 
L 226.714078 88.091755 
L 226.889877 87.45611 
L 227.065676 87.474718 
L 227.153576 87.367862 
L 227.432684 89.197979 
L 227.651908 91.686932 
L 227.915607 92.141155 
L 228.355105 92.167313 
L 229.339511 92.547726 
L 229.632977 93.007184 
L 230.660808 96.908395 
L 231.118517 95.274831 
L 231.206416 94.262235 
L 231.382216 93.751451 
L 231.645915 93.779094 
L 231.874944 94.165327 
L 231.962844 95.15552 
L 231.976151 96.684723 
L 232.814525 97.514664 
L 232.838338 95.690793 
L 233.014138 94.354216 
L 234.011151 94.841931 
L 234.099051 95.384259 
L 234.186951 94.701756 
L 234.809953 96.043362 
L 235.463422 93.602624 
L 235.772647 93.535571 
L 236.68211 91.165148 
L 237.818503 89.312142 
L 237.962084 90.585595 
L 238.049983 90.514862 
L 238.137883 89.928721 
L 238.313682 90.694005 
L 239.01688 91.388161 
L 239.192679 91.32515 
L 239.368478 90.110744 
L 239.544278 90.223234 
L 240.36199 88.741792 
L 241.153087 89.241686 
L 241.592585 87.67325 
L 242.050644 84.891016 
L 242.625669 87.870655 
L 243.142561 85.745505 
L 243.230461 85.796738 
L 243.332368 84.117107 
L 243.508168 83.823785 
L 243.814941 84.226273 
L 245.461571 91.288459 
L 245.771847 89.993188 
L 245.859746 88.917482 
L 246.700922 89.33519 
L 246.855709 87.895284 
L 247.119408 87.56096 
L 247.146724 86.660969 
L 247.234623 86.722334 
L 248.06039 85.711376 
L 248.14829 86.516749 
L 248.340548 85.249121 
L 248.867946 85.638633 
L 249.01678 84.748649 
L 249.266822 84.81868 
L 249.442621 85.388258 
L 249.482544 88.090037 
L 249.593906 86.687527 
L 250.296403 85.110336 
L 250.618936 88.245738 
L 250.928861 87.418155 
L 251.10466 87.522512 
L 251.327386 86.164405 
L 251.536454 86.884808 
L 252.009922 85.270818 
L 252.097821 85.333264 
L 252.44942 83.179143 
L 252.713119 82.60159 
L 252.976818 82.304874 
L 253.114446 81.239744 
L 253.828149 83.573527 
L 254.179748 82.906449 
L 254.267647 82.012958 
L 254.355547 82.028837 
L 254.619246 81.695059 
L 254.931973 84.054086 
L 255.489838 84.340322 
L 255.753537 85.799155 
L 256.428719 86.304517 
L 256.799228 87.848233 
L 256.989385 89.228757 
L 257.253084 89.218181 
L 257.340984 89.454747 
L 257.516783 88.123002 
L 257.753167 88.215552 
L 257.984298 86.507141 
L 258.39473 85.4531 
L 258.588739 83.378084 
L 258.940338 84.827613 
L 259.291937 85.451048 
L 259.761202 82.802075 
L 260.655257 83.924772 
L 261.006856 83.592725 
L 261.182655 82.585884 
L 261.547561 82.313318 
L 261.82947 84.026582 
L 262.583446 83.057811 
L 262.935045 81.291876 
L 263.230612 81.591469 
L 263.422871 82.944929 
L 264.555411 83.39248 
L 265.355613 80.828033 
L 265.388882 81.850201 
L 265.476781 81.732833 
L 265.678495 84.017796 
L 266.145309 84.91924 
L 266.618427 88.297113 
L 266.706326 88.261796 
L 266.882126 88.110549 
L 267.012399 87.555639 
L 267.072283 88.97948 
L 267.667269 91.756004 
L 269.410554 95.806642 
L 269.477092 93.809077 
L 269.564992 93.829356 
L 270.141417 96.891384 
L 270.97839 96.218189 
L 271.15419 96.409247 
L 271.503687 95.963698 
L 272.245756 97.739714 
L 272.620818 95.741235 
L 272.708718 96.648643 
L 272.884517 96.733904 
L 274.42959 96.247145 
L 274.702745 100.723385 
L 274.929323 100.766553 
L 275.193022 101.590706 
L 276.42852 97.976167 
L 276.604319 98.114329 
L 276.692219 97.907893 
L 277.365649 100.374509 
L 277.453549 100.347658 
L 277.836315 101.382953 
L 277.881141 100.455932 
L 278.310834 101.193134 
L 278.337799 102.66623 
L 278.914925 103.542517 
L 279.316602 103.466658 
L 279.420611 104.582753 
L 279.548433 102.339027 
L 280.362293 105.030292 
L 281.218877 103.411738 
L 281.744524 101.572514 
L 283.118 93.899927 
L 283.536486 94.872958 
L 283.712286 95.57699 
L 283.800185 95.531278 
L 284.063884 94.138565 
L 285.395337 91.202928 
L 285.678297 89.106446 
L 286.117795 86.689278 
L 286.364685 84.27532 
L 286.540484 83.703825 
L 286.716283 84.536086 
L 287.349091 81.128934 
L 287.52489 82.911835 
L 287.806099 80.696358 
L 287.978747 81.447267 
L 288.222134 80.329838 
L 288.397933 80.897597 
L 288.837432 79.323889 
L 289.140353 81.368309 
L 289.52522 83.662583 
L 289.63063 86.011573 
L 289.894329 85.01335 
L 290.659511 85.549347 
L 290.92321 86.084266 
L 291.09901 86.964418 
L 291.404732 85.65864 
L 291.580532 84.293884 
L 292.323302 82.634976 
L 292.6749 82.903303 
L 292.824085 84.403488 
L 293.034203 85.090437 
L 293.737401 86.675182 
L 294.029816 86.500774 
L 294.381415 88.58873 
L 294.908813 88.782433 
L 295.825981 84.228893 
L 296.634938 83.003436 
L 296.722838 82.449145 
L 297.046771 82.256731 
L 297.22257 81.110006 
L 297.374906 81.662856 
L 297.516736 80.651785 
L 297.938024 81.046756 
L 298.289623 81.713665 
L 298.99282 80.963835 
L 299.720882 83.118995 
L 300.336179 85.380023 
L 300.599878 85.069794 
L 300.622991 83.510946 
L 301.326189 82.17605 
L 301.414088 82.295302 
L 301.501988 81.542771 
L 301.884754 81.290627 
L 302.148453 80.9252 
L 304.022713 86.984828 
L 304.253493 84.718734 
L 304.379914 86.093815 
L 304.685637 87.461388 
L 304.946885 86.765093 
L 305.034784 87.178138 
L 305.298483 86.39863 
L 305.857399 88.341317 
L 305.991175 86.490322 
L 306.091682 87.625058 
L 306.882779 87.237894 
L 307.32683 86.355458 
L 308.006914 86.636971 
L 308.182713 87.088082 
L 308.358513 87.079844 
L 308.694002 88.869054 
L 308.957701 88.478688 
L 309.20319 85.78122 
L 309.989734 86.192906 
L 310.077634 86.097586 
L 310.482113 87.176239 
L 311.028771 81.192727 
L 311.515546 85.097974 
L 311.603446 85.025583 
L 311.905667 84.465296 
L 312.345165 81.681106 
L 312.925793 83.02504 
L 313.586967 81.044613 
L 313.938566 81.229449 
L 314.290164 79.95216 
L 314.465964 79.849423 
L 314.993362 80.467351 
L 315.174414 78.684044 
L 315.285427 79.012846 
L 315.637025 77.022897 
L 315.900724 76.770679 
L 316.581859 74.414956 
L 317.683932 75.547654 
L 317.771832 75.256162 
L 318.12343 76.695671 
L 318.692852 76.803507 
L 319.544183 74.214857 
L 319.807882 74.182858 
L 320.473258 77.074703 
L 320.932368 74.93469 
L 321.020267 74.977623 
L 321.371866 76.054395 
L 321.480427 75.270906 
L 321.9623 73.806439 
L 322.147204 71.737311 
L 322.498803 71.417309 
L 323.057018 72.237737 
L 323.516828 75.528516 
L 323.743406 73.8937 
L 324.199364 73.892023 
L 324.719758 74.137115 
L 324.983457 74.453192 
L 325.159256 74.262574 
L 325.178517 74.7287 
L 325.705915 73.829625 
L 325.969614 73.897407 
L 326.145413 75.144916 
L 326.233313 73.784711 
L 326.805887 75.306355 
L 327.495426 76.205441 
L 328.022824 77.242546 
L 328.167456 78.203878 
L 328.519055 77.71852 
L 328.606954 77.782639 
L 329.66175 81.710609 
L 329.682412 81.243365 
L 329.946111 80.826675 
L 330.29771 82.569794 
L 331.248497 81.834028 
L 331.687995 84.632501 
L 331.775895 84.544641 
L 331.951694 85.300857 
L 332.764504 82.09357 
L 333.291902 81.9872 
L 333.379801 82.927309 
L 334.497983 86.228006 
L 334.773239 87.458938 
L 334.949038 87.160381 
L 335.124837 87.683007 
L 335.652235 87.167916 
L 336.377495 86.334424 
L 336.847461 85.273791 
L 337.02326 85.500573 
L 337.864435 85.884532 
L 338.269965 87.599116 
L 338.812771 85.180926 
L 340.872285 89.347719 
L 340.960185 89.252223 
L 341.135984 88.7211 
L 341.449411 90.042093 
L 342.982227 87.784626 
L 343.245926 87.788016 
L 343.773324 87.543638 
L 343.896244 88.082815 
L 344.188309 88.392604 
L 344.627807 87.050598 
L 344.803607 86.935829 
L 345.653887 87.418223 
L 345.843344 87.355338 
L 346.232064 87.465296 
L 346.823548 88.114032 
L 347.175147 86.372716 
L 347.350946 86.512798 
L 347.474566 87.622877 
L 347.509235 86.156617 
L 347.908111 85.248563 
L 348.198775 85.392662 
L 348.374574 85.040856 
L 348.550374 84.204197 
L 348.814073 84.068492 
L 349.4812 84.816354 
L 349.617076 84.354705 
L 349.704976 84.929821 
L 350.65016 80.845844 
L 351.627212 84.665003 
L 351.803012 83.203645 
L 352.890376 86.421633 
L 353.342832 85.411662 
L 354.161594 83.951593 
L 354.514594 82.779077 
L 355.129892 83.164434 
L 355.393591 82.852363 
L 355.56939 83.223455 
L 356.001884 84.633946 
L 357.050727 87.082503 
L 357.17925 85.24883 
L 357.282558 85.364992 
L 357.476918 85.998189 
L 357.652717 85.897713 
L 358.116729 86.271962 
L 358.556228 86.065522 
L 359.083626 84.92357 
L 359.259425 84.343003 
L 359.71118 85.820253 
L 360.062779 85.764517 
L 360.957885 85.207523 
L 361.342052 82.628959 
L 361.647074 82.474373 
L 361.822874 83.223976 
L 362.086573 83.798612 
L 362.195834 85.785799 
L 362.664049 87.423404 
L 362.927748 87.56635 
L 363.23242 88.660584 
L 363.584019 87.34699 
L 363.691179 87.702577 
L 363.954878 85.980301 
L 364.130678 86.156523 
L 364.375816 86.560588 
L 364.504689 87.36663 
L 364.71866 86.812322 
L 365.034188 85.490978 
L 365.276175 85.414802 
L 365.359522 84.927057 
L 365.535321 85.470063 
L 366.189841 86.57299 
L 366.277741 87.764013 
L 367.325533 84.738656 
L 367.413433 84.078784 
L 367.968496 82.990186 
L 368.113478 80.040552 
L 368.17056 79.850582 
L 368.25846 80.23205 
L 368.727725 82.735193 
L 370.872337 82.497523 
L 371.510047 86.38622 
L 371.773746 86.967275 
L 371.913475 85.256241 
L 372.265074 85.925253 
L 372.352974 87.196986 
L 372.440873 87.132068 
L 372.616673 86.977147 
L 373.147923 87.29937 
L 373.406019 88.708836 
L 373.581818 87.842099 
L 373.581818 87.842099 
" style="fill:none;stroke:#ff7f0e;stroke-linecap:square;stroke-width:1.5;"/>
   </g>
   <g id="patch_3">
    <path d="M 54 252 
L 54 34.56 
" style="fill:none;stroke:#000000;stroke-linecap:square;stroke-linejoin:miter;stroke-width:0.8;"/>
   </g>
   <g id="patch_4">
    <path d="M 388.8 252 
L 388.8 34.56 
" style="fill:none;stroke:#000000;stroke-linecap:square;stroke-linejoin:miter;stroke-width:0.8;"/>
   </g>
   <g id="patch_5">
    <path d="M 54 252 
L 388.8 252 
" style="fill:none;stroke:#000000;stroke-linecap:square;stroke-linejoin:miter;stroke-width:0.8;"/>
   </g>
   <g id="patch_6">
    <path d="M 54 34.56 
L 388.8 34.56 
" style="fill:none;stroke:#000000;stroke-linecap:square;stroke-linejoin:miter;stroke-width:0.8;"/>
   </g>
   <g id="text_15">
    <!-- TD3 default rewards -->
    <g transform="translate(160.469063 28.56)scale(0.12 -0.12)">
     <defs>
      <path d="M -0.296875 72.90625 
L 61.375 72.90625 
L 61.375 64.59375 
L 35.5 64.59375 
L 35.5 0 
L 25.59375 0 
L 25.59375 64.59375 
L -0.296875 64.59375 
z
" id="DejaVuSans-84"/>
      <path d="M 19.671875 64.796875 
L 19.671875 8.109375 
L 31.59375 8.109375 
Q 46.6875 8.109375 53.6875 14.9375 
Q 60.6875 21.78125 60.6875 36.53125 
Q 60.6875 51.171875 53.6875 57.984375 
Q 46.6875 64.796875 31.59375 64.796875 
z
M 9.8125 72.90625 
L 30.078125 72.90625 
Q 51.265625 72.90625 61.171875 64.09375 
Q 71.09375 55.28125 71.09375 36.53125 
Q 71.09375 17.671875 61.125 8.828125 
Q 51.171875 0 30.078125 0 
L 9.8125 0 
z
" id="DejaVuSans-68"/>
      <path d="M 40.578125 39.3125 
Q 47.65625 37.796875 51.625 33 
Q 55.609375 28.21875 55.609375 21.1875 
Q 55.609375 10.40625 48.1875 4.484375 
Q 40.765625 -1.421875 27.09375 -1.421875 
Q 22.515625 -1.421875 17.65625 -0.515625 
Q 12.796875 0.390625 7.625 2.203125 
L 7.625 11.71875 
Q 11.71875 9.328125 16.59375 8.109375 
Q 21.484375 6.890625 26.8125 6.890625 
Q 36.078125 6.890625 40.9375 10.546875 
Q 45.796875 14.203125 45.796875 21.1875 
Q 45.796875 27.640625 41.28125 31.265625 
Q 36.765625 34.90625 28.71875 34.90625 
L 20.21875 34.90625 
L 20.21875 43.015625 
L 29.109375 43.015625 
Q 36.375 43.015625 40.234375 45.921875 
Q 44.09375 48.828125 44.09375 54.296875 
Q 44.09375 59.90625 40.109375 62.90625 
Q 36.140625 65.921875 28.71875 65.921875 
Q 24.65625 65.921875 20.015625 65.03125 
Q 15.375 64.15625 9.8125 62.3125 
L 9.8125 71.09375 
Q 15.4375 72.65625 20.34375 73.4375 
Q 25.25 74.21875 29.59375 74.21875 
Q 40.828125 74.21875 47.359375 69.109375 
Q 53.90625 64.015625 53.90625 55.328125 
Q 53.90625 49.265625 50.4375 45.09375 
Q 46.96875 40.921875 40.578125 39.3125 
z
" id="DejaVuSans-51"/>
      <path d="M 37.109375 75.984375 
L 37.109375 68.5 
L 28.515625 68.5 
Q 23.6875 68.5 21.796875 66.546875 
Q 19.921875 64.59375 19.921875 59.515625 
L 19.921875 54.6875 
L 34.71875 54.6875 
L 34.71875 47.703125 
L 19.921875 47.703125 
L 19.921875 0 
L 10.890625 0 
L 10.890625 47.703125 
L 2.296875 47.703125 
L 2.296875 54.6875 
L 10.890625 54.6875 
L 10.890625 58.5 
Q 10.890625 67.625 15.140625 71.796875 
Q 19.390625 75.984375 28.609375 75.984375 
z
" id="DejaVuSans-102"/>
      <path d="M 8.5 21.578125 
L 8.5 54.6875 
L 17.484375 54.6875 
L 17.484375 21.921875 
Q 17.484375 14.15625 20.5 10.265625 
Q 23.53125 6.390625 29.59375 6.390625 
Q 36.859375 6.390625 41.078125 11.03125 
Q 45.3125 15.671875 45.3125 23.6875 
L 45.3125 54.6875 
L 54.296875 54.6875 
L 54.296875 0 
L 45.3125 0 
L 45.3125 8.40625 
Q 42.046875 3.421875 37.71875 1 
Q 33.40625 -1.421875 27.6875 -1.421875 
Q 18.265625 -1.421875 13.375 4.4375 
Q 8.5 10.296875 8.5 21.578125 
z
M 31.109375 56 
z
" id="DejaVuSans-117"/>
      <path d="M 9.421875 75.984375 
L 18.40625 75.984375 
L 18.40625 0 
L 9.421875 0 
z
" id="DejaVuSans-108"/>
     </defs>
     <use xlink:href="#DejaVuSans-84"/>
     <use x="61.083984" xlink:href="#DejaVuSans-68"/>
     <use x="138.085938" xlink:href="#DejaVuSans-51"/>
     <use x="201.708984" xlink:href="#DejaVuSans-32"/>
     <use x="233.496094" xlink:href="#DejaVuSans-100"/>
     <use x="296.972656" xlink:href="#DejaVuSans-101"/>
     <use x="358.496094" xlink:href="#DejaVuSans-102"/>
     <use x="393.701172" xlink:href="#DejaVuSans-97"/>
     <use x="454.980469" xlink:href="#DejaVuSans-117"/>
     <use x="518.359375" xlink:href="#DejaVuSans-108"/>
     <use x="546.142578" xlink:href="#DejaVuSans-116"/>
     <use x="585.351562" xlink:href="#DejaVuSans-32"/>
     <use x="617.138672" xlink:href="#DejaVuSans-114"/>
     <use x="656.001953" xlink:href="#DejaVuSans-101"/>
     <use x="717.525391" xlink:href="#DejaVuSans-119"/>
     <use x="799.3125" xlink:href="#DejaVuSans-97"/>
     <use x="860.591797" xlink:href="#DejaVuSans-114"/>
     <use x="899.955078" xlink:href="#DejaVuSans-100"/>
     <use x="963.431641" xlink:href="#DejaVuSans-115"/>
    </g>
   </g>
   <g id="legend_1">
    <g id="patch_7">
     <path d="M 165.176562 247 
L 381.8 247 
Q 383.8 247 383.8 245 
L 383.8 216.64375 
Q 383.8 214.64375 381.8 214.64375 
L 165.176562 214.64375 
Q 163.176562 214.64375 163.176562 216.64375 
L 163.176562 245 
Q 163.176562 247 165.176562 247 
z
" style="fill:#ffffff;opacity:0.8;stroke:#cccccc;stroke-linejoin:miter;"/>
    </g>
    <g id="line2d_15">
     <path d="M 167.176562 222.742188 
L 187.176562 222.742188 
" style="fill:none;stroke:#1f77b4;stroke-linecap:square;stroke-width:1.5;"/>
    </g>
    <g id="line2d_16"/>
    <g id="text_16">
     <!-- td3: against strong opponent only -->
     <g transform="translate(195.176562 226.242188)scale(0.1 -0.1)">
      <defs>
       <path d="M 11.71875 12.40625 
L 22.015625 12.40625 
L 22.015625 0 
L 11.71875 0 
z
M 11.71875 51.703125 
L 22.015625 51.703125 
L 22.015625 39.3125 
L 11.71875 39.3125 
z
" id="DejaVuSans-58"/>
       <path d="M 54.890625 33.015625 
L 54.890625 0 
L 45.90625 0 
L 45.90625 32.71875 
Q 45.90625 40.484375 42.875 44.328125 
Q 39.84375 48.1875 33.796875 48.1875 
Q 26.515625 48.1875 22.3125 43.546875 
Q 18.109375 38.921875 18.109375 30.90625 
L 18.109375 0 
L 9.078125 0 
L 9.078125 54.6875 
L 18.109375 54.6875 
L 18.109375 46.1875 
Q 21.34375 51.125 25.703125 53.5625 
Q 30.078125 56 35.796875 56 
Q 45.21875 56 50.046875 50.171875 
Q 54.890625 44.34375 54.890625 33.015625 
z
" id="DejaVuSans-110"/>
       <path d="M 30.609375 48.390625 
Q 23.390625 48.390625 19.1875 42.75 
Q 14.984375 37.109375 14.984375 27.296875 
Q 14.984375 17.484375 19.15625 11.84375 
Q 23.34375 6.203125 30.609375 6.203125 
Q 37.796875 6.203125 41.984375 11.859375 
Q 46.1875 17.53125 46.1875 27.296875 
Q 46.1875 37.015625 41.984375 42.703125 
Q 37.796875 48.390625 30.609375 48.390625 
z
M 30.609375 56 
Q 42.328125 56 49.015625 48.375 
Q 55.71875 40.765625 55.71875 27.296875 
Q 55.71875 13.875 49.015625 6.21875 
Q 42.328125 -1.421875 30.609375 -1.421875 
Q 18.84375 -1.421875 12.171875 6.21875 
Q 5.515625 13.875 5.515625 27.296875 
Q 5.515625 40.765625 12.171875 48.375 
Q 18.84375 56 30.609375 56 
z
" id="DejaVuSans-111"/>
       <path d="M 32.171875 -5.078125 
Q 28.375 -14.84375 24.75 -17.8125 
Q 21.140625 -20.796875 15.09375 -20.796875 
L 7.90625 -20.796875 
L 7.90625 -13.28125 
L 13.1875 -13.28125 
Q 16.890625 -13.28125 18.9375 -11.515625 
Q 21 -9.765625 23.484375 -3.21875 
L 25.09375 0.875 
L 2.984375 54.6875 
L 12.5 54.6875 
L 29.59375 11.921875 
L 46.6875 54.6875 
L 56.203125 54.6875 
z
" id="DejaVuSans-121"/>
      </defs>
      <use xlink:href="#DejaVuSans-116"/>
      <use x="39.208984" xlink:href="#DejaVuSans-100"/>
      <use x="102.685547" xlink:href="#DejaVuSans-51"/>
      <use x="166.308594" xlink:href="#DejaVuSans-58"/>
      <use x="200" xlink:href="#DejaVuSans-32"/>
      <use x="231.787109" xlink:href="#DejaVuSans-97"/>
      <use x="293.066406" xlink:href="#DejaVuSans-103"/>
      <use x="356.542969" xlink:href="#DejaVuSans-97"/>
      <use x="417.822266" xlink:href="#DejaVuSans-105"/>
      <use x="445.605469" xlink:href="#DejaVuSans-110"/>
      <use x="508.984375" xlink:href="#DejaVuSans-115"/>
      <use x="561.083984" xlink:href="#DejaVuSans-116"/>
      <use x="600.292969" xlink:href="#DejaVuSans-32"/>
      <use x="632.080078" xlink:href="#DejaVuSans-115"/>
      <use x="684.179688" xlink:href="#DejaVuSans-116"/>
      <use x="723.388672" xlink:href="#DejaVuSans-114"/>
      <use x="762.251953" xlink:href="#DejaVuSans-111"/>
      <use x="823.433594" xlink:href="#DejaVuSans-110"/>
      <use x="886.8125" xlink:href="#DejaVuSans-103"/>
      <use x="950.289062" xlink:href="#DejaVuSans-32"/>
      <use x="982.076172" xlink:href="#DejaVuSans-111"/>
      <use x="1043.257812" xlink:href="#DejaVuSans-112"/>
      <use x="1106.734375" xlink:href="#DejaVuSans-112"/>
      <use x="1170.210938" xlink:href="#DejaVuSans-111"/>
      <use x="1231.392578" xlink:href="#DejaVuSans-110"/>
      <use x="1294.771484" xlink:href="#DejaVuSans-101"/>
      <use x="1356.294922" xlink:href="#DejaVuSans-110"/>
      <use x="1419.673828" xlink:href="#DejaVuSans-116"/>
      <use x="1458.882812" xlink:href="#DejaVuSans-32"/>
      <use x="1490.669922" xlink:href="#DejaVuSans-111"/>
      <use x="1551.851562" xlink:href="#DejaVuSans-110"/>
      <use x="1615.230469" xlink:href="#DejaVuSans-108"/>
      <use x="1643.013672" xlink:href="#DejaVuSans-121"/>
     </g>
    </g>
    <g id="line2d_17">
     <path d="M 167.176562 237.420312 
L 187.176562 237.420312 
" style="fill:none;stroke:#ff7f0e;stroke-linecap:square;stroke-width:1.5;"/>
    </g>
    <g id="line2d_18"/>
    <g id="text_17">
     <!-- training hall: against multiple agents -->
     <g transform="translate(195.176562 240.920312)scale(0.1 -0.1)">
      <defs>
       <path d="M 54.890625 33.015625 
L 54.890625 0 
L 45.90625 0 
L 45.90625 32.71875 
Q 45.90625 40.484375 42.875 44.328125 
Q 39.84375 48.1875 33.796875 48.1875 
Q 26.515625 48.1875 22.3125 43.546875 
Q 18.109375 38.921875 18.109375 30.90625 
L 18.109375 0 
L 9.078125 0 
L 9.078125 75.984375 
L 18.109375 75.984375 
L 18.109375 46.1875 
Q 21.34375 51.125 25.703125 53.5625 
Q 30.078125 56 35.796875 56 
Q 45.21875 56 50.046875 50.171875 
Q 54.890625 44.34375 54.890625 33.015625 
z
" id="DejaVuSans-104"/>
      </defs>
      <use xlink:href="#DejaVuSans-116"/>
      <use x="39.208984" xlink:href="#DejaVuSans-114"/>
      <use x="80.322266" xlink:href="#DejaVuSans-97"/>
      <use x="141.601562" xlink:href="#DejaVuSans-105"/>
      <use x="169.384766" xlink:href="#DejaVuSans-110"/>
      <use x="232.763672" xlink:href="#DejaVuSans-105"/>
      <use x="260.546875" xlink:href="#DejaVuSans-110"/>
      <use x="323.925781" xlink:href="#DejaVuSans-103"/>
      <use x="387.402344" xlink:href="#DejaVuSans-32"/>
      <use x="419.189453" xlink:href="#DejaVuSans-104"/>
      <use x="482.568359" xlink:href="#DejaVuSans-97"/>
      <use x="543.847656" xlink:href="#DejaVuSans-108"/>
      <use x="571.630859" xlink:href="#DejaVuSans-108"/>
      <use x="599.414062" xlink:href="#DejaVuSans-58"/>
      <use x="633.105469" xlink:href="#DejaVuSans-32"/>
      <use x="664.892578" xlink:href="#DejaVuSans-97"/>
      <use x="726.171875" xlink:href="#DejaVuSans-103"/>
      <use x="789.648438" xlink:href="#DejaVuSans-97"/>
      <use x="850.927734" xlink:href="#DejaVuSans-105"/>
      <use x="878.710938" xlink:href="#DejaVuSans-110"/>
      <use x="942.089844" xlink:href="#DejaVuSans-115"/>
      <use x="994.189453" xlink:href="#DejaVuSans-116"/>
      <use x="1033.398438" xlink:href="#DejaVuSans-32"/>
      <use x="1065.185547" xlink:href="#DejaVuSans-109"/>
      <use x="1162.597656" xlink:href="#DejaVuSans-117"/>
      <use x="1225.976562" xlink:href="#DejaVuSans-108"/>
      <use x="1253.759766" xlink:href="#DejaVuSans-116"/>
      <use x="1292.96875" xlink:href="#DejaVuSans-105"/>
      <use x="1320.751953" xlink:href="#DejaVuSans-112"/>
      <use x="1384.228516" xlink:href="#DejaVuSans-108"/>
      <use x="1412.011719" xlink:href="#DejaVuSans-101"/>
      <use x="1473.535156" xlink:href="#DejaVuSans-32"/>
      <use x="1505.322266" xlink:href="#DejaVuSans-97"/>
      <use x="1566.601562" xlink:href="#DejaVuSans-103"/>
      <use x="1630.078125" xlink:href="#DejaVuSans-101"/>
      <use x="1691.601562" xlink:href="#DejaVuSans-110"/>
      <use x="1754.980469" xlink:href="#DejaVuSans-116"/>
      <use x="1794.189453" xlink:href="#DejaVuSans-115"/>
     </g>
    </g>
   </g>
  </g>
 </g>
 <defs>
  <clipPath id="p9d221c6c00">
   <rect height="217.44" width="334.8" x="54" y="34.56"/>
  </clipPath>
 </defs>
</svg>
